<svg version="1.1" id="レイヤー_1" xmlns="http://www.w3.org/2000/svg" x="0" y="0" viewBox="0 0 512 85" xml:space="preserve"><style>.st0,.st1{fill:#231815}.st1{stroke:#fff;stroke-width:.1}</style><path class="st0" d="M410.2 26.4c.6-1 1.4-1.5 2.2-1.6.9-.1 1.7.1 2.5.6.5.3 1 .8 1.3 1.4.3.6.4 1.4.2 2.3.4-.1.8-.2 1.2-.1.4 0 .8.2 1.3.5.3.2.5.3.8.5.2.2.4.3.6.4.2.1.4.2.6.2.1 0 .3-.1.3-.2.1-.3.1-.6-.2-1.1-.2-.5-.4-.9-.6-1.2l.9.5c.2.4.4.9.6 1.5.2.6.2 1.1 0 1.6-.2.3-.5.5-.9.5s-.9-.1-1.5-.5l-1.2-.9c-.4-.4-.8-.7-1.2-.9-.2-.1-.5-.2-.6-.3-.2 0-.3 0-.3.1s-.1.1-.1.1c-.1 0-.1 0-.2-.1l-.3-.3v-.2l.2-.3c.2-.4.1-.8-.3-1.3s-.9-.9-1.4-1.2c-.7-.4-1.3-.6-1.9-.6-.6 0-1.1.3-1.5.9-.5.8-.6 1.7-.3 2.6.3.9.8 1.6 1.5 2 .5.2.8.3 1 .2.2-.1.4-.1.7 0 .2.1.2.4.2.7 0 .3 0 .5-.1.7-.1.1-.3.2-.7.1-.3-.1-.7-.2-1.1-.4-1.1-.7-1.8-1.6-2.2-2.8-.3-1-.2-2.2.5-3.4zm2.2.6c.1.2.1.3.2.5s.3.4.5.6c.4.4.9.8 1.4 1.2.5.4 1.1.8 1.7 1.2.6.4 1.1.9 1.6 1.4.5.5.9 1.1 1.2 1.7.2.4.3.9.4 1.4 0 .5-.1 1-.3 1.5-.4.5-.8.8-1.3.8s-.9-.1-1.3-.4c-.1-.1-.2-.1-.2-.2s-.1-.1-.1-.2c-.1-.1-.1-.4-.2-.7-.1-.4-.1-.6 0-.8 0-.1.1-.1.1-.1.1 0 .1 0 .2.1s.3.2.5.4.4.3.5.4c.3.2.5.2.8.3.2 0 .4-.1.6-.3.1-.3.1-.6-.1-1.1-.2-.4-.5-.8-.9-1.2-.6-.6-1.2-1.1-1.8-1.5-.7-.5-1.2-.9-1.7-1.3-1.1-.8-1.7-1.6-2-2.4-.3-.7-.3-1.2-.1-1.5 0-.1.1-.1.1-.1 0 .3.1.3.2.3z"/><path class="st0" d="M418.9 23.3c.3-.3.6-.5 1-.4.4.1.7.2 1 .5.5.4.8.9.9 1.6.1.6 0 1.4-.3 2.3.3.2.7.4 1.1.5.4.1.7 0 1-.3.2-.3.3-.7.2-1.2-.1-.5-.2-.9-.3-1.3l.8.7c0 .2.1.4.2.7s.1.6.2.9v.9c-.1.3-.2.6-.4.8-.4.5-.9.6-1.5.5-.6-.1-1.2-.4-1.8-.9-.9-.8-1.6-1.8-2-2.8-.6-1-.5-1.9-.1-2.5zm2.1 3.6c.2-.6.2-1.1 0-1.6-.2-.4-.5-.8-.8-1.1-.2-.2-.4-.3-.5-.3-.2-.1-.3 0-.4.1-.2.2-.1.6.2 1.1.2.6.7 1.2 1.5 1.8z"/><path class="st0" d="M422.6 19.5c.1.1.1.2.2.3.1.2.2.3.4.5.3.3.7.5 1.1.6.4.1.9.4 1.3.8.7.7 1.1 1.6 1.2 2.5.1.9 0 1.6-.4 2.1-.2.2-.5.3-.7.3-.3 0-.5-.1-.7-.2-.1-.2-.2-.4-.3-.8-.1-.4-.1-.6-.1-.8.2-.1.4 0 .7.3.3.3.6.3.9.2.2-.2.2-.5.1-.8-.1-.4-.3-.7-.5-1-.4-.3-.8-.6-1.3-.8-.5-.2-1-.4-1.5-.7.2.5.4 1 .6 1.7.2.7.4 1.3.5 1.9l-.1.1-.6-.6c-.1-.7-.4-1.5-.7-2.4-.3-.8-.6-1.6-1-2.1.1-.2.2-.4.4-.7.1-.3.3-.4.3-.5.1.1.1.1.2.1zM424.4 13.9l1.5 2.8.6-.6.7 1.2-.6.7c.2.4.5 1 .9 1.6.3.6.7 1.2 1 1.5.2.2.4.4.6.5.2.1.3.1.5 0 .2-.2.3-.4.3-.8s0-.8-.1-1.2l.6.8c.1.4.1 1 .1 1.6 0 .7-.2 1.1-.5 1.5-.3.2-.7.2-1.1 0-.4-.2-.8-.6-1.2-1.1-.4-.5-.8-1-1.1-1.7-.3-.6-.6-1.2-.9-1.6l-.3.3-.7-1.2.4-.4-1.3-2.5.6-1.4z"/><path class="st0" d="M426 12h.4c.2 0 .3 0 .4-.1.1-.1.2-.2.2-.3 0-.1.1-.2.1-.3.3.5.6.9.7 1.3.1.4 0 .8-.3 1-.2.1-.3.2-.5.2s-.3 0-.5-.1c-.1-.3-.1-.5-.2-.8 0-.3-.1-.6-.3-.9zm2.9 2.4l.6 1.5c.2.5.4.9.6 1.4.2.4.4.8.5 1.1.2.3.3.6.5.8.1.2.3.3.4.4.1.1.2.1.3 0 .2-.2.2-.4.2-.8v-1l.6.8v1.7c0 .6-.2 1-.4 1.2-.2.1-.5.1-.9-.1s-.7-.6-1-1c-.4-.6-.9-1.4-1.3-2.3-.4-.9-.8-1.7-1-2.4.1-.2.3-.4.5-.7.2-.4.3-.6.4-.6zM431.7 12.6c.1.3.2.8.4 1.2.1.5.3 1 .5 1.5s.3 1 .5 1.4c.2.4.3.8.5 1.1.2.3.4.6.6.6.2.1.4.1.5 0 .2-.2.3-.4.3-.8v-1.1c-.3-.2-.5-.5-.7-.7-.2-.2-.3-.5-.5-.7-.4-.7-.7-1.5-.8-2.2-.1-.7 0-1.2.3-1.4.1-.1.3-.1.4 0 .1.1.3.3.4.5.3.5.6 1.1.8 1.8.2.7.4 1.4.5 2.2.1.1.3.1.4.1.2 0 .3 0 .4-.1.1-.1.2-.3.3-.5 0-.2.1-.5.1-.8l.5.8c0 .2-.1.4-.2.6-.1.2-.2.4-.4.4-.2.1-.3.1-.5.1s-.3 0-.5-.1c0 .5 0 1.1-.1 1.6s-.4.9-.8 1.2c-.4.2-.8.2-1.2-.1-.4-.2-.8-.7-1.2-1.3-.2-.4-.4-.7-.6-1.1-.2-.4-.3-.8-.5-1.2-.1-.4-.3-.8-.4-1.2-.1-.4-.2-.7-.3-1.1l1.3-.7z"/><path class="st0" d="M437.1 9.7c.4-.2.8-.2 1.1 0 .3.2.5.5.7.8.3.6.3 1.2.1 1.8-.2.6-.6 1.3-1.2 2 .2.4.5.7.8.9.3.3.7.3 1.1.1.3-.2.6-.5.7-1 .1-.5.2-.9.2-1.3l.4.9c0 .2-.1.4-.2.7-.1.3-.1.6-.2.9-.1.3-.2.6-.4.8-.2.2-.4.4-.7.6-.6.2-1.1.2-1.6-.1-.5-.3-.9-.9-1.2-1.6-.5-1.2-.7-2.3-.7-3.4.1-.9.4-1.7 1.1-2.1zm.4 4.2c.4-.5.6-1 .7-1.4 0-.5-.1-.9-.3-1.3-.1-.2-.2-.4-.4-.5-.1-.1-.3-.1-.4-.1-.2.1-.3.5-.3 1.1 0 .5.2 1.3.7 2.2zM448.5 7.2c.1 0 .3-.1.6-.2.2-.1.4-.2.6-.2 0-1 0-2 .1-3.1s.3-1.9.4-2.3c.1-.2.2-.4.4-.5.1-.1.3-.2.5-.3.2-.1.3-.2.5-.3.1-.1.2-.1.2-.1h.1c0 .1 0 .2-.1.5s-.1.7-.2 1.2-.1 1.1-.2 1.8-.1 1.6-.1 2.5c.3-.2.5-.3.7-.6.2-.2.3-.4.4-.6 0 0 .1 0 .1.1 0 0 .1.1.1.2l.1.3c-.1.3-.2.5-.4.8-.2.3-.5.5-.9.8 0 .3.1.7.1 1.2.1.5.1.9.2 1.2.1.5.3 1 .5 1.3.2.3.5.5.8.4.3-.1.6-.4.7-.8.2-.4.3-.8.4-1.1l.2 1c-.1.2-.2.5-.3.7-.1.3-.3.5-.4.8-.2.3-.3.5-.5.7-.2.2-.4.3-.7.4-.6.1-1-.1-1.5-.7-.4-.6-.7-1.4-1-2.4-.1-.3-.1-.6-.2-1s-.1-.7-.1-.9l-1.1.4c.2 1.7.1 3.1-.3 4.1-.4 1-1 1.7-1.9 1.9-.6.1-1.2 0-1.6-.3-.4-.3-.7-.6-.8-1 0-.3 0-.7.2-1 .2-.4.3-.6.5-.6.1 0 .2.1.2.2.1.2.1.3.1.5.1.5.3.9.5 1.2.2.3.4.4.7.4.5-.1.7-.6.8-1.4.1-.8 0-1.9-.2-3.2-.1 0-.3.2-.5.4s-.4.5-.6.9c-.1-.1-.1-.2-.1-.3 0-.1-.1-.3-.1-.4.1-.3.2-.5.4-.8.2-.3.5-.6.9-.9 0-.5-.1-.9-.1-1.4 0-.4 0-.8.1-1.1.1-.6.3-1.2.5-1.8.2-.6.4-1 .5-1.2-.1.1-.2.2-.4.3-.1.1-.3.2-.5.2s-.5 0-.7-.1c-.2-.1-.4-.1-.6-.1-.4.1-.6.4-.7.8-.1.4-.1.8-.1 1.1.1.4.3.7.5.8.2.1.3.3.4.4 0 .2 0 .4-.1.7-.1.3-.2.4-.4.5-.1 0-.3-.1-.5-.4-.2-.3-.3-.6-.4-1-.2-.9-.1-1.8.2-2.7.3-.9.8-1.5 1.4-1.7.2 0 .5 0 .8.1.3.1.5.1.7.1.1 0 .3-.1.4-.3.1-.1.2-.3.2-.4.1 0 .2.1.3.2.1.1.2.1.2.2s-.1.4-.2.8c-.2.4-.2 1-.2 1.9 0 .5.1 1.1.1 1.8.2.4.3 1 .4 1.4z"/><path class="st0" d="M457 4.8c.5 0 .7.1.9.3.1.2.2.5.2.8v2l-.3 2.1.3.3c.1.1.2.1.4.1s.3-.1.5-.4c.2-.2.3-.5.5-.7l.1 1c-.1.2-.3.4-.4.5-.2.2-.4.2-.5.3-.2 0-.3 0-.5-.1s-.3-.2-.4-.3c-.1.4-.4.9-.7 1.3-.3.4-.7.7-1.2.7s-.9-.2-1.2-.7c-.3-.5-.5-1.1-.5-2-.1-1.3.2-2.5.7-3.5.4-1 1.1-1.6 2.1-1.7zm.2.6h-.1-.1c-.6.1-1 .6-1.2 1.4-.2.9-.3 1.8-.2 2.7 0 .6.1 1.1.3 1.4.1.3.3.5.6.5.2 0 .4-.2.5-.5.1-.3.3-.5.3-.8-.2-.3-.4-.6-.5-1-.1-.4-.2-.8-.2-1.2 0-.8 0-1.3.2-1.7.1-.3.3-.6.4-.8z"/><path class="st0" d="M460.8 4.7c.2 0 .3.1.4.2.1.1.1.3.1.5s0 .4-.1.7c-.1.3-.1.6-.2.8.4-.1.7-.3 1-.7.3-.4.5-.9.8-1.5h.5c-.1.4-.3.9-.4 1.4-.1.5-.3 1-.4 1.5-.1.5-.2.9-.3 1.3-.1.4-.1.7-.1.9 0 .3 0 .5.1.6.1.2.2.2.3.2.2 0 .4-.1.6-.4.2-.3.4-.6.7-1v1c-.3.4-.6.8-1 1.3s-.9.8-1.3.8c-.2 0-.4-.1-.6-.4-.2-.3-.3-.7-.3-1.2s.1-1 .3-1.6c.2-.6.4-1.2.7-1.7-.1.1-.3.2-.5.3-.1.2-.3.3-.5.3-.1.4-.3.8-.6 1.2-.2.4-.5.8-.7 1.1h-.1v-.8c.1-.2.3-.5.5-.7.2-.3.3-.5.4-.8-.2-.1-.3-.3-.4-.4-.1-.2-.1-.4-.1-.6 0-.4.1-.8.3-1.4.2-.5.5-.8.9-.9z"/><path class="st0" d="M467.5 5.3c0 .1 0 .2-.1.4s-.1.4-.1.6c0 .5.1.9.2 1.3.2.4.2.9.2 1.5-.1 1-.5 1.8-1.2 2.5-.6.7-1.3 1-1.9 1-.3 0-.5-.2-.7-.4-.2-.2-.3-.4-.3-.7 0-.2.2-.5.4-.8.2-.3.4-.5.5-.5.1.1.2.3.2.8 0 .4.2.7.4.8.3 0 .5-.1.7-.4.2-.3.4-.6.4-1.1 0-.5 0-1-.2-1.5s-.3-1.1-.4-1.6c-.2.4-.5 1-.9 1.6-.4.6-.8 1.1-1.2 1.6h-.1l.1-.8c.5-.6.9-1.2 1.4-2 .5-.8.8-1.5 1-2.1.2-.1.5-.1.7-.2.5-.1.7-.1.9 0 0-.1 0-.1 0 0zM472.3 6.1c.4.1.7.3.8.7.1.3.1.7.1 1.1-.1.6-.5 1.1-1 1.5-.5.4-1.3.7-2.2.9 0 .4 0 .8.1 1.2.1.4.4.7.8.8.4 0 .8-.1 1.1-.4.4-.3.7-.6 1-.9l-.2 1c-.2.1-.3.3-.6.5-.2.2-.5.4-.7.6-.3.2-.5.3-.8.4-.3.1-.6.1-.9.1-.6-.1-1-.5-1.2-1.1-.2-.6-.2-1.2 0-2 .3-1.2.8-2.3 1.5-3.1.7-1 1.4-1.4 2.2-1.3zm-2.2 3.5c.6-.1 1.1-.4 1.4-.8.3-.4.5-.8.6-1.2.1-.3.1-.5 0-.6 0-.2-.1-.3-.3-.3-.3 0-.6.2-.9.7-.3.5-.6 1.3-.8 2.2zM484.7 4.7c.6.3 1 .8 1.2 1.5.1.7 0 1.4-.3 2.3-.4.9-.9 1.6-1.6 2.1-.7.5-1.4.7-2 .5-.3-.1-.5-.4-.7-.7-.1-.3-.1-.7 0-1.1.1-.3.2-.4.4-.6.1-.1.3-.1.4-.1.1 0 .1.1.1.1v.2c-.1.2-.1.3 0 .4 0 .1.1.2.2.3.3.1.7-.1 1.2-.6s.9-1.1 1.2-1.8c.2-.5.3-.9.2-1.3-.1-.4-.3-.6-.6-.8-.9-.2-1.9.2-3 1.4s-2 2.5-2.7 4c-.4.9-.5 1.6-.5 2.2 0 .6.2 1.1.7 1.3.4.1.9.1 1.4-.2.5-.3 1.1-.7 1.6-1.2.2 0 .4.1.7.1.3 0 .5.1.5.1s.1 0 .1.1v.1c0 .1-.2.3-.4.7-.3.4-.7 1-1.3 1.9.4-.1.8-.3 1.1-.5l.9-.6-.4.9c-.3.2-.5.3-.9.5-.3.1-.7.3-1.2.4-.5 1-1.2 1.9-2 2.7-.8.8-1.7 1-2.5.8-.3-.1-.5-.4-.6-.6-.1-.3 0-.6.1-.9.3-.6.7-1.1 1.3-1.4.6-.3 1.2-.6 1.9-.8l1.2-1.8c-.5.4-1.1.8-1.6.9-.6.2-1 .2-1.4 0-.6-.3-1-.9-1-1.8-.1-.9.1-2 .6-3.3.9-2.1 2.2-3.6 3.7-4.6 1.5-.9 2.9-1.2 4-.8zm-6 12.3c-.5.1-1 .3-1.4.5-.4.3-.7.6-.9 1-.1.2-.1.3-.1.4 0 .1.1.2.2.3.3.1.6-.1 1-.5.4-.5.8-1.1 1.2-1.7z"/><path class="st0" d="M486.7 11.4c.1.1.2.2.2.3s-.1.3-.2.5-.2.4-.4.6c-.2.2-.4.5-.6.7.4.1.8.1 1.2-.1.4-.2.9-.6 1.4-1l.5.2c-.3.3-.7.7-1 1.1-.4.4-.7.7-1 1.1-.3.4-.6.7-.9 1-.2.3-.4.6-.5.8-.1.2-.2.4-.2.6 0 .2 0 .3.2.4.2.1.4 0 .7-.1.3-.1.7-.3 1.1-.5l-.5.9c-.4.2-.9.4-1.5.7-.6.2-1.1.3-1.5.1-.2-.1-.3-.3-.3-.6s.1-.7.3-1.2c.2-.4.6-.8 1-1.3.4-.4.9-.8 1.4-1.2h-.5c-.2 0-.4 0-.6-.1-.3.3-.7.5-1.1.8-.4.2-.8.4-1.1.6l-.1-.1.4-.7c.2-.1.5-.3.7-.4.3-.2.5-.3.7-.5-.1-.2-.1-.4-.1-.6 0-.2.1-.4.2-.6.2-.3.5-.7.9-1.1.5-.3.9-.4 1.2-.3z"/><path class="st0" d="M492.4 15c.4.3.5.5.5.8 0 .2-.1.5-.4.8-.4.5-.8 1-1.3 1.5s-1 1-1.5 1.4c0 .1 0 .3.1.4 0 .1.1.2.2.3.2.1.4.1.6 0 .3-.1.5-.2.8-.3l-.6.8c-.2.1-.5.1-.7.1-.2 0-.4 0-.6-.1-.1-.1-.2-.2-.3-.4-.1-.2-.1-.3-.1-.5-.4.2-.8.4-1.3.6-.5.1-.9.1-1.4-.2-.4-.3-.6-.7-.5-1.3.1-.6.3-1.2.8-1.9.8-1.1 1.7-1.8 2.7-2.3 1.3-.3 2.2-.2 3 .3zm-.2.6c0-.1 0-.1 0 0-.1-.1-.1-.2-.2-.2-.5-.3-1.1-.2-1.8.4-.7.5-1.3 1.2-1.8 2-.4.5-.6.9-.7 1.3-.1.3 0 .6.2.7.2.1.4.1.7-.1.3-.1.5-.3.7-.4 0-.4.1-.7.3-1.1.1-.4.3-.7.6-1.1.5-.6.9-1 1.2-1.2.3-.1.6-.3.8-.3z"/><path class="st0" d="M496.3 18.1c-.6.4-1.4 1-2.3 1.7-.9.7-1.6 1.3-2 1.7-.2.2-.3.4-.4.6 0 .2 0 .3.1.4.1.1.4.1.8.1.4-.1.9-.3 1.4-.5.2-.2.5-.4.8-.6.3-.2.6-.4.9-.7.3-.2.6-.5.9-.7.3-.2.5-.4.7-.5l1.5.7c-.3.2-.6.4-1 .7-.4.3-.8.6-1.3.9l-1.2.9c-.4.3-.6.5-.8.7-.2.2-.3.4-.3.5 0 .2 0 .3.1.4.2.1.5.1 1 0s.8-.2 1.1-.3l-.7.7c-.3.1-.8.2-1.5.3-.7.1-1.3 0-1.6-.2-.3-.3-.3-.6-.1-1 .2-.4.4-.8.8-1.2-.5.2-1 .3-1.6.3-.6.1-1 0-1.4-.3-.2-.2-.3-.5-.2-.9.1-.4.4-.8.8-1.3.6-.6 1.2-1.2 2-1.8.8-.6 1.4-1.1 2-1.5l1.5.9z"/><path class="st0" d="M501.2 22.9c-.3.2-.7.4-1.2.6-.4.2-.9.5-1.4.8 1.1-.2 1.9-.3 2.6-.3.6 0 1.1.1 1.3.4.1.2.2.4.1.6-.1.2-.3.5-.5.7-.3.2-.6.4-1 .6l-1.2.6c-.4.2-.8.4-1.1.6-.3.2-.6.3-.8.5l-.3.3v.2c.2.1.5.2.9.1.5 0 .9-.1 1.3-.2l-.8.7c-.6.1-1.2.1-1.8.1-.6 0-1-.2-1.3-.5-.1-.2-.2-.4-.2-.7 0-.3.3-.6.7-1 .3-.2.6-.4.9-.7.4-.2.8-.4 1.1-.6.4-.2.7-.4 1-.5.3-.2.5-.3.6-.4.1 0 .1-.1.1-.2v-.1c-.2-.1-.6-.1-1.2 0s-1.3.2-1.8.3c-.3.2-.7.5-1.1.8-.4.3-.8.7-1.4 1.1l-1.2-.7.5-.5c.3-.3.5-.5.8-.7.6-.5 1.2-1 2-1.5.7-.5 1.7-1 2.8-1.5l1.6 1.1zM511.3 28.5c-.1.1-.6.3-1.4.6-.8.3-1.7.8-2.8 1.2-1.1.5-2.1.9-3 1.4-1 .5-1.7.8-2.1 1.1-.2.1-.3.3-.4.4-.1.1-.1.3-.1.4.2.2.5.2 1 .2h.9l-.8.5h-1.5c-.2 0-.5-.1-.7-.1-.3-.1-.5-.2-.7-.4-.1-.2-.1-.5.1-.9.2-.3.7-.7 1.4-1.2-.7.1-1.3.2-1.9.1-.6-.1-1-.3-1.2-.5-.2-.3-.1-.7.1-1.2.3-.5.7-.8 1.2-1.2 1.1-.7 2.2-1.1 3.5-1.2 1.2-.1 2.1.2 2.6.8.1.2.2.4.1.5 0 .2-.1.3-.2.5.7-.3 1.6-.7 2.5-1.1.9-.4 1.7-.8 2.4-1.1.2.1.3.3.6.5l.5.5c0 .1 0 .1-.1.2.1 0 .1 0 0 0zm-6.4.5c-.3-.3-1-.3-2 0s-1.8.6-2.5 1.1c-.2.2-.4.3-.6.5-.1.2-.1.4 0 .5.3.3 1 .4 1.9.1 1-.3 1.8-.6 2.5-1.1.3-.2.5-.4.6-.6.2-.2.2-.4.1-.5z"/><g><path class="st1" d="M477.1 48.6c-.6-.2-1.3.6-2.2 1.2-.9.6-1.3 1.4-1.3 1.6 0 .2.4.9.7.8.3 0 .5-.1.4.6 0 .7.1 1.7-.2 2.1-.3.4-.4 1-1.2 0-.8-1-.9-1.1-.8-2.1 0 0-.5-.3-1.2.8-.7 1.2-.5 2.2-.5 3.3 0 1.1 0 1.8.3 2.1.3.3.9.4.9.8s0 1.2-.6 2-1 1.5-1.6.6c-.6-.9-.6-1.5-.6-2.5 0-.9-.6-2.1-.6-3.4 0-1.3.5-3.4 1.4-4.7 1-1.3 1-1.3.7-1.8-.3-.5-1.5-2.9-1.5-3.6 0-.7 1.3-3.8 1.8-4.1.6-.3 2.6-.2 2.6-.2s.1-3.8-.1-4.5c-.2-.7-1.6-2.3-1.9-2.9-.3-.6-.5-.9-1.1 0-.6.9-.8 1.2-.9 2.2-.1 1.1-.2 2-.6 2.3-.4.3-1.9.7-2.1-.2-.2-.9.1-3-.2-3.7-.4-.6-.4-1.4-.5-1.6 0-.2-2.7 0-1.8-.4.9-.4 1.9-.6 1.9-.8 0-.2-.5-.3-1.2-.8s-.5-1.6-.1-1.3c.3.3 1.5.9 1.4.5l-.1-.4s-.7-1.9 1-3.2c1.7-1.3 2.9-1.6 3.3-2.9.4-1.4.8-2.2.8-1.4 0 .9-.2 3 0 3 .1 0 3.3 0 4.3-.6s1.9-1.3 1.9-1c0 .3-1.1 1.4-1.1 1.8 0 .4 1.3.7 2.3.4 1-.3 2.5-2.2 2.2-1.4-.4.8-2.7 2.6-1.8 2.8.8.2 2.6-.3 2.6-.1s-2.6 2.2-2.3 2.3c.3.2 1.5-.5 2.7-.5 1.1 0 1.6 1.5 2.4 2 0 0-.7.1-1.9-.1-1.3-.2-1.2.2-.6.4s1.2.1 1.2.1-.3.5-.1.5c.2 0 1.8.1 2.2 0 .4-.1.9-.5.3.4-.7.9-1.4.7-1.4 1.2-.1.5.3.8.9 1.1 0 0-.4.1-.3.3 0 .2.8 1.4 1.2 2.5.4 1.1.2 1.8 1.5 1.9 1.3.1 2.5 1.5 3.7 2.2 1.3.7 1.6.4 2.9.5 1.3.2 1.9.6 2.9 1.9 0 0 1.5-2.3 3.6-2.4 2.1-.1 4.4.9 4.6 2.7.2 1.8-.9 5.1-.7 6.3.1 1.2 1 2.9 2.3 2.8 1.3 0 1.9-1.8 1.9-1.8s.6 1.1-.4 2.9c-1 1.8-4 2.3-6 .5-2-1.8-1.5-4.4-.6-6.2.9-1.8.5-4.1-.9-4.3-1.4-.2-3.3.9-2.8 1.6.5.7 1.1 1.5.5 3.3-.6 1.7-1.3 2.8-1.4 3.7 0 1 .8 1.9.8 4.7 0 2.8-.2 2.6-1 3.3-.7.7-2.2 1.4-2.9 2.8-.6 1.4-.9 2.5-1.3 2.5s-4.1.6-3.3-.6c.8-1.2 3.1-3.6 3.9-4.2.8-.5 1.7-1.3 1.8-1.7.1-.4 0-2.9-.4-3.6 0 0-.9.5-1.6 1.2-.7.7-.7.6-1.9.3-1.2-.2-3.4-.2-4.3.9-.9 1.2-.7 2-.5 2 .2 0 .6 0 .6.5s.1.6-.9 1.8c-1 1.2-1.1 1.2-1.2-.2 0-1.4 0-1.4-.4-2.3s-.3-1.7.8-2.9 2.1-1.9 3.1-1.9h2.2s.3-.7-.3-1.4-1.1-.4-1.9-2.5c-.8-2.1-2.2-1.9-5.3-2.6-2.9-.9-4.6-.7-6.1-1.2zM443.3 48.6c.6-.2 1.3.6 2.2 1.2.9.6 1.3 1.4 1.3 1.6 0 .2-.4.9-.7.8-.3 0-.5-.1-.4.6 0 .7-.1 1.7.2 2.1.3.4.4 1 1.2 0 .8-1 .9-1.1.8-2.1 0 0 .5-.3 1.2.8.7 1.2.5 2.2.5 3.3 0 1.1 0 1.8-.3 2.1-.3.3-.9.4-.9.8s0 1.2.6 2 1 1.5 1.6.6c.6-.9.6-1.5.6-2.5 0-.9.6-2.1.6-3.4 0-1.3-.5-3.4-1.4-4.7-1-1.3-1-1.3-.7-1.8.3-.5 1.5-2.9 1.5-3.6 0-.7-1.3-3.8-1.8-4.1-.6-.3-2.6-.2-2.6-.2s-.1-3.8.1-4.5c.2-.7 1.6-2.3 1.9-2.9.3-.6.5-.9 1.1 0 .6.9.8 1.2.9 2.2.1 1.1.2 2 .6 2.3.4.3 1.9.7 2.1-.2.2-.9-.1-3 .2-3.7.4-.6.4-1.4.5-1.6 0-.2 2.7 0 1.8-.4-.9-.4-1.9-.6-1.9-.8 0-.2.5-.3 1.2-.8s.5-1.6.1-1.3c-.3.3-1.5.9-1.4.5l.1-.4s.7-1.9-1-3.2c-1.7-1.3-2.9-1.6-3.3-2.9-.4-1.4-.8-2.2-.8-1.4 0 .9.2 3 0 3-.1 0-3.3 0-4.3-.6s-1.9-1.3-1.9-1c0 .3 1.1 1.4 1.1 1.8 0 .4-1.3.7-2.3.4-1-.3-2.5-2.2-2.2-1.4.4.8 2.7 2.6 1.8 2.8-.8.2-2.6-.3-2.6-.1s2.6 2.2 2.3 2.3c-.3.2-1.5-.5-2.7-.5-1.1 0-1.6 1.5-2.4 2 0 0 .7.1 1.9-.1 1.3-.2 1.2.2.6.4s-1.2.1-1.2.1.3.5.1.5c-.2 0-1.8.1-2.2 0-.4-.1-.9-.5-.3.4.7.9 1.4.7 1.4 1.2s-.3.8-.9 1.1c0 0 .4.1.3.3 0 .2-.8 1.4-1.2 2.5-.4 1.1-.2 1.8-1.5 1.9-1.3.1-2.5 1.5-3.7 2.2-1.3.7-1.6.4-2.9.5-1.3.2-1.9.6-2.9 1.9 0 0-1.5-2.3-3.6-2.4-2.1-.1-4.4.9-4.6 2.7-.2 1.8.9 5.1.7 6.3-.1 1.2-1 2.9-2.3 2.8-1.3 0-1.9-1.8-1.9-1.8s-.6 1.1.4 2.9c1 1.8 4 2.3 6 .5 2-1.8 1.5-4.4.6-6.2-.9-1.8-.5-4.1.9-4.3 1.4-.2 3.3.9 2.8 1.6-.5.7-1.1 1.5-.5 3.3.6 1.7 1.3 2.8 1.4 3.7 0 1-.8 1.9-.8 4.7 0 2.8.2 2.6 1 3.3.7.7 2.2 1.4 2.9 2.8.6 1.4.9 2.5 1.3 2.5s4.1.6 3.3-.6c-.8-1.2-3.1-3.6-3.9-4.2-.8-.5-1.7-1.3-1.8-1.7-.1-.4 0-2.9.4-3.6 0 0 .9.5 1.6 1.2.7.7.7.6 1.9.3 1.2-.2 3.4-.2 4.3.9.9 1.2.7 2 .5 2-.2 0-.6 0-.6.5s-.1.6.9 1.8c1 1.2 1.1 1.2 1.2-.2 0-1.4 0-1.4.4-2.3s.3-1.7-.8-2.9-2.1-1.9-3.1-1.9h-2.2s-.3-.7.3-1.4 1.1-.4 1.9-2.5c.8-2.1 2.2-1.9 5.3-2.6 2.9-.9 4.6-.7 6.1-1.2z"/><g><path class="st0" d="M464 76.5l-3.3-.1-1.1 3.3-.9-3.3-3.3-.1 2.8-1.8-.9-3.2 2.6 2 2.7-1.9-1.1 3.2 2.5 1.9zM442.3 38.8l3 .1 1-3 .9 3 3 .1-2.5 1.6.8 2.9-2.4-1.8-2.5 1.7 1-2.9-2.3-1.7zM470.9 39.6l3 .1 1-3 .9 3 3 .1-2.5 1.6.8 2.9-2.4-1.8-2.5 1.7 1-2.9-2.3-1.7zM442.6 45.6l2 .1.7-2 .6 2 2 .1-1.7 1.1.5 1.9-1.6-1.2-1.6 1.1.7-1.9-1.6-1.2zM472.9 46.4l2 .1.7-2 .6 2 2 .1-1.7 1.1.6 1.9-1.6-1.2-1.6 1.1.7-1.9-1.7-1.2zM439.9 51.9l2 .1.7-2 .6 2 2 .1-1.7 1.1.5 1.9-1.6-1.2-1.6 1.1.7-1.9-1.6-1.2zM457.4 66.8l2 .1.7-2 .6 2 2 .1-1.7 1 .5 2-1.6-1.2-1.6 1.1.7-1.9-1.6-1.2zM475.2 52.9l2 .1.7-2 .6 2 2 .1-1.7 1.1.6 2-1.6-1.2-1.6 1.1.7-1.9-1.7-1.3zM447.8 72l2.4-.4.4-2.5 1.1 2.3 2.4-.4-1.8 1.6 1.1 2.2-2.1-1.1-1.7 1.7.4-2.4-2.2-1zM469.5 73.5l.2 2.4-1.6-1.8-2.2 1 1.2-2.1-1.7-1.7 2.4.5 1.2-2.2.3 2.5 2.4.5-2.2.9z"/><g><path class="st0" d="M471.8 67.1l2.2-1-.3-2.5 1.7 1.9 2.2-1-1.2 2.1 1.6 1.8-2.3-.5-1.2 2.1-.3-2.4-2.4-.5zM445.7 66.8l-.4 2.4-1-2.2-2.4.4 1.7-1.7-1.1-2.1 2.2 1.1 1.8-1.8-.5 2.5 2.2 1.1-2.5.3z"/></g><g><path class="st0" d="M438.8 59.7l2-.9-.3-2.3 1.5 1.7 2-.9-1.1 1.9 1.5 1.7-2.2-.5-1.1 1.9-.3-2.2-2-.4zM479.3 61.2l-.4 2.2-1-2-2.2.3 1.6-1.6-1-2 2 1 1.6-1.6-.4 2.3 2 1-2.2.4z"/></g></g></g><g><path class="st0" d="M85 52.4c2.4 0 4.2.6 5.4 1.6 1.2 1 1.8 2.2 1.8 3.6 0 1.6-.7 3.1-2.1 4.4-1.3 1.3-3 1.9-5.1 2-1 0-1.8-.2-2.3-.5-.4-.5-.7-1-.7-1.7 0-.2 0-.4.1-.6.1-.2.1-.4.2-.6.2.2.4.3.7.4.2.1.5.1.9.1 1.2-.1 2.2-.6 2.9-1.5.7-.9 1.1-1.9 1.1-3 0-.9-.3-1.7-.9-2.2-.6-.5-1.5-.8-2.6-.8-1.2 0-2.1.3-2.8.8-.7.6-1.2 1.3-1.5 2.2-.3.9-.6 1.9-.8 2.9-.2 1.1-.3 2.1-.5 3.2-.4 1.9-1 3.4-1.8 4.7-.8 1.3-2.1 2.5-3.7 3.7h1.1c1.1 0 2.1.1 3 .3.9.2 1.9.4 2.8.7.9.2 1.8.5 2.7.7.9.2 1.9.3 2.9.3 1.7 0 3.2-.4 4.3-.9 1.1-.6 2.1-1.2 2.9-1.8v1.9c-1.1.8-2.6 1.7-4.5 2.5s-4.2 1.3-6.8 1.4c-1.2 0-2.2-.1-3.3-.3-1-.2-2-.4-2.9-.7-.9-.3-1.8-.6-2.6-.8-.8-.2-1.6-.4-2.3-.5-.9.7-1.8 1.2-2.7 1.7-.9.4-1.9.7-2.9.7-.6 0-1.1-.1-1.5-.4-.4-.2-.6-.6-.6-1 0-.8.6-1.5 1.7-2.1 1.1-.6 2.8-1.1 5-1.4.7-.6 1.2-1.4 1.6-2.3.4-1 .6-2.3.7-4.1.3-3.8 1.7-6.8 4.3-9 2.5-2.4 5.4-3.5 8.8-3.6z"/><path class="st0" d="M103.8 61.9c1.8 0 3 .3 3.7.9.7.6 1.1 1.2 1.1 1.9 0 1.2-.9 2.2-2.6 3.1-1.7.9-4.3 1.7-7.7 2.4.1.8.6 1.5 1.3 2.2.7.7 2 1 3.7 1.1 1.5-.1 2.9-.5 4.1-1.2 1.2-.7 2.2-1.4 3-2v1.9c-.5.3-1.1.7-1.8 1.1-.7.4-1.5.9-2.4 1.3-.9.4-1.8.8-2.9 1.1-1.1.3-2.2.4-3.3.4-2.4 0-4.2-.5-5.4-1.5-1.2-.9-1.8-2.2-1.8-3.6.1-2.3 1.2-4.4 3.4-6.2 2.1-1.9 4.6-2.8 7.6-2.9zm-5.7 7.3c2.3-.5 3.9-1.1 4.8-1.9.9-.8 1.3-1.6 1.3-2.5 0-.5-.1-.9-.4-1.2-.3-.3-.7-.5-1.3-.5-1 0-2 .6-2.9 1.6-.9 1.2-1.4 2.6-1.5 4.5z"/><path class="st0" d="M132.5 61.8c-.4.9-.8 1.8-1.3 2.7-.4 1-.8 1.9-1.2 2.9-.4.9-.7 1.8-.9 2.5-.2.7-.3 1.3-.3 1.7 0 .5.2.8.4 1.1.3.2.6.4 1.1.4.5 0 1.1-.2 1.7-.5.7-.4 1.8-1.1 3.3-2.2v1.8c-.4.3-.9.6-1.5 1s-1.2.8-1.7 1.1c-.9.5-1.8 1-2.6 1.3-.8.3-1.6.5-2.6.5-1.5-.1-2.4-.5-2.9-1.3s-.7-1.5-.6-2.2v-1c-1.3 1.3-2.6 2.4-4 3.2-1.4.8-2.8 1.3-4.4 1.3-1.5 0-2.7-.5-3.6-1.4-.9-.9-1.4-2-1.4-3.3.2-2.7 1.7-5 4.4-6.8 2.7-1.8 5.3-2.7 7.9-2.8 1 0 1.8.2 2.5.5.6.3 1.2.8 1.5 1.3l4.8-1.8h1.4zm-9.9 1.4c-1.8.2-3.3 1.2-4.6 3-1.2 1.8-1.9 3.5-1.9 4.9 0 .6.2 1.2.6 1.5.4.4.9.5 1.6.5 1.8-.2 3.3-1.2 4.5-3 1.2-1.8 1.9-3.5 1.9-5 0-.6-.2-1-.5-1.4-.3-.3-.8-.5-1.6-.5z"/><path class="st0" d="M147 56.3l-2.4 5.7 3.3-.1-.8 2.5-3.6.2c-.4.9-.9 2-1.5 3.3-.6 1.3-.9 2.4-.9 3.3 0 .5.2 1 .5 1.3.3.3.9.5 1.5.5 1 0 2-.3 2.9-.8.9-.5 1.9-1.2 2.8-1.9v1.8c-.9.7-2.2 1.5-3.9 2.4-1.7.9-3.4 1.4-5.2 1.5-1.6 0-2.7-.5-3.5-1.3-.7-.8-1.1-1.8-1.1-3s.3-2.4.8-3.7c.5-1.3 1-2.4 1.4-3.3l-1.8.1.8-2.5 2.2-.1 2.2-5.1 6.3-.8z"/><path class="st0" d="M164.6 52.4c.5.1.9.4 1.1.9.2.5.3 1 .3 1.5 0 1.3-.6 2.6-1.7 4.1-1.1 1.4-2.6 3.1-4.6 4.9 1-.4 2.1-.8 3.1-1.2 1-.4 2.1-.7 3.1-.7.9 0 1.6.2 2.1.7.4.4.7.9.7 1.5 0 .5-.2 1.2-.6 2-.3.8-.7 1.6-1.2 2.5-.4.9-.8 1.6-1.1 2.3-.3.7-.5 1.2-.5 1.6 0 .3.1.5.4.7.2.2.5.3.8.3.8-.1 1.7-.5 2.8-1.3 1.1-.8 2-1.4 2.6-1.9v1.9c-.8.6-2.1 1.4-3.8 2.4-1.7.9-3.5 1.5-5.3 1.6-1.1 0-2-.3-2.7-.8-.7-.5-1-1.1-1-1.9 0-.7.2-1.5.5-2.3.3-.8.7-1.6 1.1-2.4.4-.8.8-1.5 1.1-2.1.3-.6.5-1.1.6-1.4 0-.2-.1-.3-.2-.5-.2-.1-.4-.2-.7-.2-.8 0-1.8.4-3 1.1-1.2.7-2.4 1.4-3.5 2.3-.2.7-.4 1.6-.5 2.7-.2 1.1-.3 2.6-.3 4.6l-5.2.8c-.1-.3-.2-.9-.2-1.6-.1-.7-.1-1.4-.1-2.1-.1-2.5.4-5.2 1.5-8.1 1.1-2.9 3.3-6.3 6.5-10 1.1-.3 2.6-.7 4.3-1.1 1.8-.4 3-.7 3.6-.8zm-1.4 2c-1.2.2-2.6 1.5-4.1 4-1.6 2.4-2.7 4.8-3.4 7.1 1.4-1.1 3.1-2.6 5.1-4.6 2-2 3.1-3.8 3.3-5.4 0-.3-.1-.5-.2-.7-.2-.3-.4-.4-.7-.4z"/><path class="st0" d="M182.8 61.9c1.8 0 3 .3 3.7.9.7.6 1.1 1.2 1.1 1.9 0 1.2-.9 2.2-2.6 3.1-1.7.9-4.3 1.7-7.7 2.4.1.8.6 1.5 1.3 2.2.7.7 2 1 3.7 1.1 1.5-.1 2.9-.5 4.1-1.2 1.2-.7 2.2-1.4 3-2v1.9c-.5.3-1.1.7-1.8 1.1-.7.4-1.5.9-2.4 1.3-.9.4-1.8.8-2.9 1.1-1.1.3-2.2.4-3.4.4-2.4 0-4.2-.5-5.4-1.5-1.2-.9-1.8-2.2-1.8-3.6.1-2.3 1.2-4.4 3.4-6.2 2.2-1.9 4.7-2.8 7.7-2.9zm-5.7 7.3c2.3-.5 3.9-1.1 4.8-1.9.9-.8 1.3-1.6 1.3-2.5 0-.5-.1-.9-.4-1.2-.3-.3-.7-.5-1.3-.5-1.1 0-2 .6-2.9 1.6-1 1.2-1.4 2.6-1.5 4.5z"/><path class="st0" d="M194.8 61.8c.7 0 1.1.1 1.4.3.3.2.4.6.4 1s-.1.8-.3 1.4c-.2.6-.4 1.1-.7 1.6 1.6-.1 2.9-.6 4-1.4 1.1-.8 2-1.7 2.9-2.8l2.1-.1c-.5.8-.9 1.7-1.5 2.6-.5.9-1 1.8-1.4 2.7-.4.9-.8 1.7-1.1 2.4-.3.7-.4 1.3-.4 1.7 0 .5.1.9.4 1.1.3.3.7.4 1.3.4.7 0 1.4-.3 2.2-.8.8-.5 1.7-1.1 2.7-1.8V72c-1 .7-2.3 1.5-4 2.5-1.7.9-3.4 1.4-5 1.5-.8 0-1.6-.2-2.3-.7-.7-.5-1.1-1.2-1.1-2.2 0-.9.4-1.9 1-3 .7-1.1 1.5-2.2 2.5-3.2-.5.2-1.1.3-1.8.5s-1.4.3-2.1.4c-.5.7-1.3 1.5-2.1 2.2-.9.7-1.8 1.4-2.7 2h-.5v-1.5c.6-.4 1.1-.9 1.7-1.4.6-.5 1.1-1 1.6-1.4-.7-.2-1.2-.5-1.5-.8-.3-.3-.5-.7-.5-1.1 0-.7.3-1.6 1.1-2.5.9-.8 2.1-1.4 3.7-1.5zM238.8 52.4c2.4 0 4.2.5 5.6 1.5 1.3 1 2 2.2 2 3.7-.1 1.9-.9 3.6-2.5 5s-3.6 2.2-6.1 2.3c-1.3 0-2.3-.2-3.1-.7-.7-.4-1.1-1-1.1-1.7 0-.3.1-.6.3-.9.2-.3.4-.5.7-.7.1.2.3.4.7.6.3.2.8.3 1.4.4 1.3 0 2.5-.6 3.5-1.6s1.6-2.2 1.6-3.7c0-.7-.2-1.4-.7-2-.5-.6-1.4-.9-2.6-1-2.6.2-4.9 1.6-7.1 4.2-2.1 2.6-3.3 5.4-3.4 8.2 0 2.2.9 4.1 2.6 5.6 1.7 1.5 4.2 2.3 7.4 2.4 2.2-.1 4.1-.5 5.6-1.3s2.7-1.6 3.6-2.4v1.9c-1.3 1-3 1.9-5 2.7-2.1.8-4.8 1.3-8.2 1.3-4.2-.1-7.3-.9-9.6-2.6-2.2-1.6-3.4-3.7-3.4-6.3.2-4.2 2.1-7.7 5.7-10.5 3.7-2.8 7.7-4.3 12.1-4.4z"/><path class="st0" d="M252.6 61.8c.7 0 1.1.1 1.4.3.3.2.4.6.4 1s-.1.8-.3 1.4c-.2.6-.4 1.1-.7 1.6 1.6-.1 2.9-.6 4-1.4 1.1-.8 2-1.7 2.9-2.8l2.1-.1c-.5.8-.9 1.7-1.5 2.6-.5.9-1 1.8-1.4 2.7-.4.9-.8 1.7-1.1 2.4-.3.7-.4 1.3-.4 1.7 0 .5.1.9.4 1.1.3.3.7.4 1.3.4.7 0 1.4-.3 2.2-.8.8-.5 1.7-1.1 2.8-1.8V72c-1 .7-2.3 1.5-4 2.5-1.7.9-3.4 1.4-5 1.5-.8 0-1.6-.2-2.3-.7-.7-.5-1.1-1.2-1.1-2.2 0-.9.4-1.9 1-3 .7-1.1 1.5-2.2 2.5-3.2-.5.2-1.1.3-1.8.5s-1.4.3-2.1.4c-.5.7-1.3 1.5-2.1 2.2-.9.7-1.8 1.4-2.7 2h-.5v-1.5c.6-.4 1.1-.9 1.7-1.4.6-.5 1.1-1 1.6-1.4-.7-.2-1.2-.5-1.5-.8-.3-.3-.5-.7-.5-1.1 0-.7.3-1.6 1.1-2.5.9-.8 2-1.4 3.6-1.5z"/><path class="st0" d="M286.9 61.8c-.4.9-.8 1.8-1.3 2.7-.4 1-.8 1.9-1.2 2.9-.4.9-.7 1.8-.9 2.5-.2.7-.3 1.3-.3 1.7 0 .5.1.8.4 1.1.3.2.6.4 1.1.4.5 0 1.1-.2 1.7-.5.7-.4 1.8-1.1 3.3-2.2v1.8c-.4.3-.9.6-1.5 1s-1.2.8-1.7 1.1c-.9.5-1.8 1-2.6 1.3-.8.3-1.6.5-2.6.5-1.5-.1-2.4-.5-2.9-1.3s-.7-1.5-.6-2.2v-1c-1.3 1.3-2.6 2.4-4 3.2-1.4.8-2.9 1.3-4.4 1.3-1.5 0-2.7-.5-3.6-1.4-.9-.9-1.4-2-1.4-3.3.2-2.7 1.7-5 4.4-6.8 2.7-1.8 5.3-2.7 7.9-2.8 1 0 1.8.2 2.5.5.6.3 1.2.8 1.5 1.3l4.8-1.8h1.4zm-9.9 1.4c-1.8.2-3.3 1.2-4.6 3-1.3 1.8-1.9 3.5-1.9 4.9 0 .6.2 1.2.6 1.5.4.4.9.5 1.6.5 1.8-.2 3.3-1.2 4.5-3 1.2-1.8 1.9-3.5 1.9-5 0-.6-.2-1-.5-1.4-.3-.3-.9-.5-1.6-.5z"/><path class="st0" d="M306.5 52.4c.6 0 1.1.3 1.5.9.3.6.5 1.3.5 2.1 0 1.8-.7 3.5-2.2 5-1.5 1.5-3.5 3.1-6.1 4.8l-1.9 6.8c.2.4.6.7 1.1 1.1.5.4 1.3.6 2.4.6 1.6-.1 3-.5 4.2-1.2 1.2-.7 2.2-1.5 2.9-2.1v1.9c-.9.8-2.2 1.6-3.9 2.5-1.7.9-3.4 1.3-5.1 1.4-.4 0-.8-.1-1.3-.2s-.9-.2-1.2-.3c-.3 1-.6 2.2-.9 3.5-.3 1.4-.6 2.8-.8 4.2l-5.8.7c.3-1.7.6-3.7 1.2-5.9.5-2.2 1-4.1 1.4-5.6l-.9-1.6c-.2.2-.5.4-.8.6l-.9.6h-.5v-1.5l4.4-3.2c.7-2.6 1.5-5.1 2.5-7.4 1-2.3 2.3-4.4 3.7-6.3.5-.2 1.6-.5 3.3-.9 1.7-.3 2.8-.5 3.2-.5zm-1 1.7c-1.1.2-2 1.3-2.8 3.4-.8 2.1-1.4 3.8-1.7 5.3 1.5-.8 2.8-1.9 4-3.2 1.2-1.3 1.8-2.6 1.9-4 0-.4-.1-.8-.3-1.1-.3-.3-.7-.4-1.1-.4z"/><path class="st0" d="M320.4 56.3L318 62l3.3-.1-.8 2.5-3.6.2c-.4.9-.9 2-1.5 3.3-.6 1.3-.9 2.4-.9 3.3 0 .5.2 1 .5 1.3.3.3.9.5 1.5.5 1 0 2-.3 2.9-.8.9-.5 1.8-1.2 2.8-1.9v1.8c-.9.7-2.2 1.5-3.9 2.4-1.7.9-3.4 1.4-5.2 1.5-1.6 0-2.7-.5-3.5-1.3-.7-.8-1.1-1.8-1.1-3 .1-1.2.3-2.4.8-3.7.5-1.3 1-2.4 1.4-3.3l-1.8.1.7-2.5 2.2-.1 2.2-5.1 6.4-.8z"/></g><g><path class="st0" d="M23.5 6.4l-1.2 1.2c-.4.5-.8 1.1-1.1 1.9-.4 1.3-.7 2.8-1 4.5-.2 1.7-.5 3.4-.7 5.2-.3 1.8-.7 3.5-1.4 5.3-.7 1.7-1.6 3.3-3 4.7-.9 1-2.1 1.8-3.7 2.6-1.5.7-3.3 1.2-5.3 1.2-2.3-.1-4-.7-4.8-1.7C.4 30.2 0 29.1 0 28.1c0-.3 0-.6.1-.7.1-.2.2-.3.3-.4.3-.3.9-.7 1.8-1.3.9-.6 1.7-1 2.3-1 .2 0 .4.1.5.2.1.1.2.3.2.6 0 .4-.1.9-.2 1.5-.1.7-.2 1.2-.2 1.6 0 .8.2 1.4.6 2 .4.5 1 .8 1.8.9 1.2-.1 2.2-.6 3-1.7.8-1 1.5-2.2 1.9-3.5.7-1.9 1.1-3.9 1.3-5.9.2-2 .5-3.7.8-5.2.6-3.3 1.8-5.8 3.6-7.2 1.8-1.5 3.3-2.2 4.5-2.2.2 0 .4 0 .6.1.1 0 .3.2.6.5zM20.9.9C25 1 28 1.9 30 3.6c2 1.7 3 3.8 3 6.2.1 1.6-.6 3.1-1.8 4.6-1.3 1.5-3.5 2.6-6.8 3.3l-.1.1c1.2.7 2.1 1.5 2.7 2.4.6.9.9 2 .9 3.4 0 .8-.1 1.5-.2 2.3-.1.8-.2 1.4-.2 1.8 0 .7.1 1.1.4 1.5.3.3.6.5 1.1.5 1-.1 2-.7 3-1.7 1-1.1 1.8-2 2.4-2.8v2.6c-.8.9-1.9 2-3.4 3.2-1.4 1.2-3.1 1.9-4.9 2-1.3 0-2.4-.4-3.3-1.3-.9-.8-1.3-2.1-1.3-3.8.1-1.2.3-2.4.6-3.7.3-1.3.6-2.5.6-3.7 0-.7-.1-1.3-.3-1.7-.2-.4-.5-.6-1-.6-.3 0-.5-.1-.6-.2-.1-.1-.2-.3-.2-.6 0-.4.1-.7.3-1 .2-.2.4-.3.7-.3l1.3.1c1.5-.1 2.6-.9 3.3-2.3.7-1.4 1-3 1-4.6 0-2-.5-3.7-1.6-4.9-1.1-1.2-3-1.9-5.6-1.9-3.4.1-6.3 1-8.5 2.7C9.3 7 8.2 8.9 8.1 11.1c.1 1.3.5 2.1 1.3 2.5.7.3 1.2.8 1.3 1.4-.1.5-.7.9-1.7 1.4-1 .4-1.7.6-2.2.6-.6 0-1.2-.4-1.6-1.3-.5-.8-.7-1.8-.7-3 .1-3.3 1.7-6.1 4.7-8.4 3-2.1 6.9-3.3 11.7-3.4zM44.3 13.8c1.6 0 2.7.5 3.4 1.2.7.8 1 1.6 1 2.6 0 1.6-.8 3-2.3 4.2-1.6 1.2-3.9 2.3-7 3.2.1 1 .5 2 1.2 2.9.7.9 1.8 1.4 3.3 1.5 1.4-.1 2.6-.6 3.7-1.6s2-1.9 2.7-2.7v2.6c-.4.4-1 .9-1.6 1.5-.6.6-1.3 1.2-2.1 1.8-.8.6-1.7 1.1-2.6 1.4-1 .4-2 .6-3 .6-2.2-.1-3.8-.7-4.9-2-1.1-1.3-1.6-2.9-1.6-4.9.1-3.2 1.1-6 3-8.4 1.8-2.5 4.1-3.8 6.8-3.9zm-5.1 9.8c2.1-.7 3.5-1.5 4.3-2.6.8-1.1 1.2-2.2 1.1-3.3 0-.7-.1-1.2-.3-1.6-.2-.4-.6-.6-1.2-.6-.9 0-1.8.8-2.6 2.2-.9 1.5-1.3 3.5-1.3 5.9z"/><path class="st0" d="M61.8 14c0 .2-.1.5-.2.9-.2.4-.2 1-.3 1.6.1 1.1.5 2.2 1.3 3.1.7 1 1.2 2.2 1.3 3.7-.1 2.5-1.2 4.7-3.2 6.6-2 1.9-4.1 2.9-6.3 3.1-1 0-1.9-.3-2.6-.8-.8-.5-1.2-1-1.2-1.6.1-.5.5-1.2 1.2-2.1.7-.9 1.3-1.4 1.7-1.5.6.1.9.8 1.2 1.8.2 1.1.8 1.7 1.8 1.8.9 0 1.8-.5 2.5-1.3s1.1-1.7 1.1-2.7c-.1-1.2-.6-2.5-1.4-3.7-.9-1.2-1.5-2.5-1.9-3.9-.7 1.1-1.6 2.5-2.7 4.1-1.2 1.6-2.3 3.1-3.6 4.4h-.4v-2c1.5-1.6 2.8-3.4 4.2-5.4 1.3-2.1 2.3-3.9 2.8-5.6.7-.2 1.6-.4 2.6-.6 1-.2 1.7-.3 2-.3h.2c-.2.2-.1.3-.1.4zM78.4 6.2l-2.2 7.7 2.9-.2-.7 3.4-3.3.3c-.4 1.2-.8 2.7-1.3 4.5-.5 1.8-.8 3.3-.8 4.5 0 .7.2 1.3.5 1.8s.8.7 1.4.7c.9 0 1.8-.4 2.6-1.1.8-.7 1.7-1.6 2.6-2.6v2.5c-.8.9-2 2-3.5 3.3-1.5 1.2-3.1 1.9-4.7 2.1-1.4-.1-2.5-.6-3.1-1.8-.7-1.1-1-2.4-1-4s.3-3.2.7-5c.5-1.8.9-3.3 1.3-4.5l-1.6.1.7-3.5 2-.1 2-6.9 5.5-1.2z"/><path class="st0" d="M88.6 13.8l-1.2 3.9c-.4 1.3-.8 2.5-1.1 3.6-.3 1.1-.6 2.2-.8 3.1-.2.9-.3 1.7-.3 2.4 0 .6.1 1 .3 1.3.2.3.5.5.9.5.8-.1 1.6-.5 2.3-1.3.8-.8 1.4-1.5 1.9-2.1v2.5c-1 1.1-2.3 2.3-3.6 3.5-1.4 1.2-2.6 1.8-3.8 1.9-1 0-1.8-.6-2.3-1.5-.6-1-.8-2.2-.9-3.7 0-1.9.4-4.1 1-6.5.6-2.4 1.3-4.6 2-6.4.8-.2 1.9-.4 3.1-.7 1.3-.3 2.1-.5 2.5-.5zm-3.4-8.9c.3.2.7.5 1.2.7.4.2 1 .4 1.6.4.5 0 .9-.1 1.3-.3l.9-.6c0 1.4-.2 2.7-.8 3.7-.5 1-1.5 1.6-2.9 1.6-.7 0-1.3-.1-1.8-.3-.5-.2-.9-.5-1.3-.8.4-.6.8-1.3 1.1-2 .2-.8.5-1.6.7-2.4z"/><path class="st0" d="M99.1 13.7c-.3.9-.7 1.9-1.1 3.2-.4 1.2-.8 2.5-1.2 3.8-.4 1.3-.7 2.6-1 3.7-.3 1.2-.4 2.2-.4 3 0 1 .3 1.7.7 2.2.4.5.9.7 1.4.7.9-.1 1.8-.5 2.5-1.3s1.4-1.6 1.9-2.4c-.4-.8-.7-1.6-.8-2.3-.2-.7-.2-1.4-.2-2.2.1-2.1.6-4 1.6-5.7 1-1.7 2.2-2.5 3.5-2.6.5 0 .9.2 1.1.6.2.4.3 1 .3 1.7 0 1.5-.3 3.2-.9 4.9-.6 1.8-1.4 3.6-2.5 5.5.2.3.6.6 1 .8.5.2.9.3 1.2.3.6 0 1.2-.3 1.8-.8.6-.5 1.1-1 1.7-1.6v2.5a5 5 0 01-1.6 1.1c-.7.3-1.3.5-1.9.5-.6 0-1.2-.1-1.7-.4-.5-.3-.9-.5-1.3-.8-.9 1.2-2 2.3-3.3 3.3-1.3 1-2.9 1.6-4.7 1.6-1.6 0-2.7-.6-3.5-1.6-.8-1-1.2-2.5-1.2-4.4 0-1 .1-2.1.3-3.2.2-1.1.4-2.2.7-3.2.3-1.1.6-2.1 1-3 .3-1 .6-1.9.9-2.7l5.7-1.2zM119.5 13.8c1.6 0 2.7.5 3.4 1.2.7.8 1 1.6 1 2.6 0 1.6-.8 3-2.3 4.2-1.6 1.2-3.9 2.3-7 3.2.1 1 .5 2 1.2 2.9.7.9 1.8 1.4 3.3 1.5 1.4-.1 2.6-.6 3.7-1.6s2-1.9 2.7-2.7v2.6c-.4.4-1 .9-1.6 1.5-.6.6-1.4 1.2-2.1 1.8-.8.6-1.7 1.1-2.6 1.4-1 .4-2 .6-3 .6-2.2-.1-3.8-.7-4.9-2-1.1-1.3-1.6-2.9-1.6-4.9.1-3.2 1.1-6 3-8.4 1.8-2.5 4.1-3.8 6.8-3.9zm-5.2 9.8c2.1-.7 3.5-1.5 4.3-2.6.8-1.1 1.2-2.2 1.1-3.3 0-.7-.1-1.2-.3-1.6-.2-.4-.6-.6-1.2-.6-.9 0-1.8.8-2.6 2.2-.8 1.5-1.2 3.5-1.3 5.9zM158.1 16.7c.6 0 1.3-.1 2.1-.2s1.6-.2 2.2-.2c.6-2.4 1.6-4.9 3-7.6 1.4-2.7 2.5-4.5 3.3-5.3.5-.5 1.1-.9 1.7-1.1.6-.2 1.3-.4 2-.6.8-.2 1.4-.4 1.9-.5.5-.1.8-.2 1-.2l.2.1c0 .1-.3.6-.7 1.2-.4.7-1 1.6-1.7 2.8-.7 1.2-1.4 2.6-2.2 4.4-.8 1.7-1.5 3.8-2.2 6 1.1-.2 2.1-.5 2.8-1 .7-.4 1.4-.8 1.9-1.2l.3.3c0 .1.1.3.1.5v.9c-.5.6-1.2 1.2-1.9 1.8-.8.5-2.1 1-3.9 1.5-.2.8-.4 1.8-.6 3-.2 1.2-.3 2.2-.3 3 0 1.4.3 2.5.8 3.5.6.9 1.4 1.4 2.6 1.4 1.2-.1 2.2-.6 3.2-1.4.9-.9 1.7-1.7 2.4-2.6v2.5l-1.6 1.6c-.6.6-1.3 1.2-2.1 1.7-.8.6-1.6 1-2.5 1.4-.9.4-1.8.6-2.7.6-2-.1-3.5-.9-4.5-2.6-1-1.7-1.5-3.8-1.5-6.4 0-.7 0-1.6.1-2.5.1-.9.2-1.7.3-2.3l-3.9.3c-.7 4.3-2.1 7.6-4.3 9.9s-4.8 3.5-8 3.6c-2.3-.1-4.1-.6-5.3-1.6-1.2-1-1.9-1.9-1.9-2.8.1-.8.6-1.6 1.5-2.4.9-.8 1.6-1.2 2.1-1.3.3 0 .6.2.7.6.1.4.1.8.1 1.3 0 1.3.2 2.4.6 3.3.4.8 1.2 1.3 2.3 1.3 1.7 0 3-1.1 3.9-3 .9-2 1.6-4.6 2-8-.5 0-1.3.3-2.2.7-.9.4-1.9 1.1-2.8 1.9-.1-.3-.2-.6-.2-.9 0-.3-.1-.7-.1-1 .5-.6 1.2-1.2 2-1.8.8-.6 2.1-1.2 3.9-1.7.2-1.2.5-2.3.8-3.4.4-1 .7-1.9 1.1-2.6.8-1.5 1.9-2.9 3-4.2 1.2-1.3 2-2.2 2.6-2.7-.5.2-1 .4-1.6.6-.6.2-1.3.3-2 .3-.8 0-1.6-.2-2.3-.5-.7-.3-1.4-.5-2.2-.5-1.4.1-2.4.6-3.1 1.5-.7.9-1 1.8-1 2.7.1 1.1.4 1.8 1 2.3.6.4 1 .8 1.1 1.2 0 .4-.3 1-.8 1.6-.5.6-1.1 1-1.7 1-.5 0-1-.4-1.4-1.2-.4-.8-.7-1.7-.7-2.8.1-2.3 1.1-4.5 3-6.6 1.9-2.1 3.9-3.2 6.1-3.3.8 0 1.7.2 2.6.6.9.3 1.8.5 2.5.6.5 0 1.1-.2 1.6-.4.5-.3.9-.5 1.1-.8.3.2.7.3 1 .6.3.2.5.4.6.5-.1.3-.6 1-1.4 1.9-.9.9-1.6 2.4-2.2 4.4-.4 1.3-.7 2.8-.9 4.4-.3 1.4-.5 2.8-.7 3.9z"/><path class="st0" d="M187.6 13.7c1.6 0 2.7.3 3.1.8.4.5.6 1.2.6 2.1 0 1.5-.2 3.2-.6 4.9-.4 1.7-.9 3.5-1.6 5.1.3.3.6.5 1 .7.4.2.8.4 1.3.4.6 0 1.3-.3 1.9-.8.6-.5 1.2-1.1 1.8-1.7v2.5c-.5.5-1.1.9-1.7 1.3-.7.4-1.3.5-2 .6-.6 0-1.1-.1-1.7-.4-.5-.3-.9-.5-1.3-.8-.6 1.1-1.5 2.1-2.7 3.1-1.1 1-2.6 1.6-4.3 1.6-1.8-.1-3.1-.7-4.1-2-.9-1.3-1.4-2.9-1.4-5 .1-3.3 1.1-6.1 3.3-8.5 2-2.5 4.9-3.8 8.4-3.9zm.4 1.5c-.1 0-.2-.1-.4-.1h-.5c-2.1.1-3.6 1.3-4.6 3.4-.9 2.1-1.4 4.4-1.4 6.7 0 1.6.2 2.7.7 3.6.5.8 1.1 1.2 1.9 1.2.7-.1 1.3-.4 1.9-1.1.6-.7 1-1.3 1.4-1.9-.6-.8-1.1-1.6-1.5-2.6-.4-1-.5-2-.5-3 .1-1.9.5-3.3 1.2-4.2.9-.9 1.4-1.6 1.8-2z"/><path class="st0" d="M199.9 13.7c.6 0 1 .2 1.3.5.3.3.4.8.4 1.3s-.1 1.1-.3 1.9c-.2.8-.4 1.5-.7 2.1 1.4-.2 2.6-.8 3.6-1.8s1.8-2.3 2.6-3.8l1.9-.1c-.4 1.1-.8 2.3-1.3 3.6-.5 1.3-.9 2.5-1.3 3.7-.4 1.2-.7 2.3-1 3.2-.2 1-.4 1.7-.4 2.3 0 .6.1 1.1.4 1.5.3.4.7.6 1.2.6.6 0 1.3-.4 2-1.1l2.5-2.5v2.5c-.9 1-2.1 2.1-3.6 3.3-1.5 1.3-3 1.9-4.5 2.1-.8 0-1.5-.3-2.1-.9-.6-.6-1-1.6-1-3 0-1.2.3-2.6.9-4 .6-1.5 1.4-2.9 2.3-4.4-.5.2-1 .5-1.6.7-.6.2-1.2.4-1.9.5-.5 1-1.1 2-1.9 3-.8 1-1.6 1.9-2.4 2.7h-.4v-2c.5-.5 1-1.2 1.6-1.9.5-.7 1-1.4 1.4-2-.6-.3-1.1-.7-1.4-1.1-.3-.4-.5-.9-.5-1.5 0-1 .3-2.1 1-3.4.7-1.2 1.8-1.9 3.2-2z"/><path class="st0" d="M222.4 14c0 .2-.1.5-.2.9s-.2 1-.3 1.6c.1 1.1.5 2.2 1.3 3.1.7 1 1.2 2.2 1.3 3.7-.1 2.5-1.2 4.7-3.2 6.6-2 1.9-4.1 2.9-6.3 3.1-1 0-1.9-.3-2.6-.8-.8-.5-1.2-1-1.2-1.6.1-.5.5-1.2 1.2-2.1.7-.9 1.3-1.4 1.7-1.5.6.1.9.8 1.2 1.8.2 1.1.8 1.7 1.8 1.8.9 0 1.8-.5 2.5-1.3s1.1-1.7 1.1-2.7c-.1-1.2-.6-2.5-1.4-3.7-.9-1.2-1.5-2.5-1.9-3.9-.7 1.1-1.6 2.5-2.7 4.1-1.2 1.6-2.3 3.1-3.6 4.4h-.4v-2c1.5-1.6 2.8-3.4 4.2-5.4 1.3-2.1 2.3-3.9 2.8-5.6.7-.2 1.6-.4 2.6-.6 1-.2 1.7-.3 2-.3h.2c-.2.2-.1.3-.1.4zM238.4 13.8c1.6 0 2.7.5 3.4 1.2.7.8 1 1.6 1 2.6 0 1.6-.8 3-2.3 4.2-1.6 1.2-3.9 2.3-7 3.2.1 1 .5 2 1.2 2.9.7.9 1.8 1.4 3.3 1.5 1.4-.1 2.6-.6 3.7-1.6s2-1.9 2.7-2.7v2.6c-.4.4-1 .9-1.6 1.5-.6.6-1.3 1.2-2.1 1.8-.8.6-1.7 1.1-2.6 1.4-1 .4-2 .6-3 .6-2.2-.1-3.8-.7-4.9-2-1.1-1.3-1.6-2.9-1.6-4.9.1-3.2 1.1-6 3-8.4 1.8-2.5 4.1-3.8 6.8-3.9zm-5.1 9.8c2.1-.7 3.5-1.5 4.3-2.6.8-1.1 1.2-2.2 1.1-3.3 0-.7-.1-1.2-.4-1.6-.2-.4-.6-.6-1.2-.6-1 0-1.8.8-2.6 2.2-.7 1.5-1.2 3.5-1.2 5.9zM275.1.9c2.5 0 4.5.8 5.9 2.2 1.4 1.4 2.1 3.3 2.2 5.5-.1 2.4-.9 4.5-2.4 6.4-1.6 1.9-3.6 2.9-6 3-1.3 0-2.3-.3-3.2-.9-.9-.6-1.3-1.4-1.3-2.5 0-.7.2-1.3.6-1.7.3-.4.7-.6 1-.6.2 0 .4.1.5.2.1.1.1.3.1.6 0 .5.2.8.5 1.1.3.3.7.4 1.2.4 1.2-.1 2.3-.9 3.3-2.4s1.5-3.3 1.6-5.2c0-1.3-.4-2.4-1.2-3.2-.9-.8-1.9-1.2-3.3-1.2-3.3.3-6 2.3-8.2 6.1-2.2 3.8-3.4 7.7-3.4 11.8 0 2.3.5 4.2 1.4 5.7.9 1.5 2.3 2.2 4.1 2.3 1.5 0 2.9-.6 4.3-1.8 1.4-1.2 2.6-2.6 3.7-4.4.6-.1 1.4-.2 2.4-.4s1.6-.3 1.9-.3c.1 0 .2 0 .3.1.1.1.1.2.1.3 0 .2-.2.9-.6 2-.4 1.1-.9 3-1.6 5.6 1.1-.7 2.1-1.4 3-2.1.9-.8 1.6-1.5 2.1-2.3v2.6c-.6.6-1.3 1.3-2.2 1.9-.9.6-2 1.3-3.3 2-.3 2.8-1.3 5.6-3 8.1-1.7 2.6-4.1 4-7.2 4.2-1.3 0-2.2-.3-2.8-.9-.6-.6-.9-1.3-.9-2.3.1-1.6.8-3.1 2.2-4.4 1.4-1.3 3.2-2.5 5.4-3.6l1.5-5.3c-1.1 1.5-2.5 2.8-4.1 3.7-1.6.9-3.1 1.4-4.5 1.4-2.4-.1-4.4-1.1-5.9-3.2s-2.3-4.8-2.4-8.3c.2-5.7 2.2-10.5 6-14.2 3.7-3.8 7.8-5.8 12.2-6zM271.8 35c-1.5.7-2.8 1.6-3.9 2.6s-1.6 2-1.7 3.1c0 .4.1.8.3 1 .2.3.6.4 1.1.5 1.1-.1 2-.8 2.6-2.2.7-1.4 1.2-3.1 1.6-5z"/><path class="st0" d="M288.9 13.7c.6 0 1 .2 1.3.5.3.3.4.8.4 1.3s-.1 1.1-.3 1.9c-.2.8-.4 1.5-.7 2.1 1.4-.2 2.6-.8 3.6-1.8s1.8-2.3 2.6-3.8l1.9-.1c-.4 1.1-.9 2.3-1.3 3.6-.5 1.3-.9 2.5-1.3 3.7-.4 1.2-.7 2.3-1 3.2-.3 1-.4 1.7-.4 2.3 0 .6.1 1.1.4 1.5.3.4.7.6 1.2.6.6 0 1.3-.4 2-1.1l2.5-2.5v2.5c-.9 1-2.1 2.1-3.6 3.3-1.5 1.3-3 1.9-4.5 2.1-.8 0-1.5-.3-2.1-.9-.6-.6-1-1.6-1-3 0-1.2.3-2.6.9-4 .6-1.5 1.4-2.9 2.3-4.4-.5.2-1 .5-1.6.7-.6.2-1.2.4-1.9.5-.5 1-1.1 2-1.9 3-.8 1-1.6 1.9-2.4 2.7h-.4v-2c.5-.5 1-1.2 1.6-1.9.5-.7 1-1.4 1.4-2-.6-.3-1.1-.7-1.4-1.1-.3-.4-.5-.9-.5-1.5 0-1 .3-2.1 1-3.4.7-1.2 1.8-1.9 3.2-2zM311.5 13.7c1.6 0 2.7.3 3.1.8.4.5.6 1.2.6 2.1 0 1.5-.2 3.2-.6 4.9-.4 1.7-.9 3.5-1.5 5.1.3.3.6.5 1 .7.4.2.8.4 1.3.4.6 0 1.3-.3 1.9-.8.6-.5 1.2-1.1 1.8-1.7v2.5c-.5.5-1.1.9-1.7 1.3-.7.4-1.3.5-2 .6-.6 0-1.1-.1-1.7-.4-.5-.3-.9-.5-1.3-.8-.7 1.1-1.5 2.1-2.7 3.1-1.1 1-2.6 1.6-4.3 1.6-1.8-.1-3.1-.7-4.1-2-.9-1.3-1.4-2.9-1.4-5 .1-3.3 1.2-6.1 3.3-8.5 2-2.5 4.8-3.8 8.3-3.9zm.5 1.5c-.1 0-.2-.1-.4-.1h-.5c-2.1.1-3.6 1.3-4.5 3.4-.9 2.1-1.4 4.4-1.4 6.7 0 1.6.2 2.7.7 3.6.5.8 1.1 1.2 1.9 1.2.7-.1 1.3-.4 1.9-1.1.6-.7 1-1.3 1.4-1.9-.6-.8-1.1-1.6-1.5-2.6-.3-1-.5-2-.5-3 .1-1.9.5-3.3 1.2-4.2.7-.9 1.3-1.6 1.7-2z"/><path class="st0" d="M327.3 13.8c-.6 1.8-1.3 4.1-2.2 7-.8 2.9-1.3 5-1.3 6.6 0 .8.2 1.3.4 1.7.3.4.6.5 1 .5.6 0 1.3-.4 2.2-1.2.8-.8 1.7-1.9 2.5-3.4.2-.7.4-1.4.7-2.3.3-.9.5-1.8.8-2.8.3-1 .6-1.9.8-2.7.3-.9.5-1.6.7-2.2l5.7-1.2c-.3.8-.6 1.8-1 3.1-.4 1.2-.8 2.5-1.2 3.8-.4 1.3-.7 2.5-1 3.7-.2 1.1-.4 2-.4 2.6 0 .6.1 1.1.4 1.5.2.4.6.6 1 .6.8-.1 1.7-.6 2.7-1.6 1-.9 1.7-1.7 2.3-2.3v2.5c-.5.6-1.6 1.6-3.2 3s-3.2 2.2-4.8 2.3c-1.3-.1-2.2-.6-2.7-1.6s-.8-2.2-.7-3.5c-1 1.1-2.1 2.2-3.5 3.3-1.3 1.1-2.8 1.7-4.3 1.8-1.1 0-2-.5-2.6-1.4-.6-.9-.9-2.2-.9-3.8.1-2.1.4-4.3 1.1-6.7.6-2.4 1.3-4.4 1.9-6.2l5.6-1.1z"/><path class="st0" d="M349.9 13.7c-.3.9-.7 2-1.1 3.2-.4 1.2-.7 2.6-1.1 4 2-2.3 3.7-4.1 5.2-5.4 1.5-1.2 2.8-1.9 4-1.9.8 0 1.4.3 1.8.9.4.6.7 1.3.7 2.1s-.2 1.8-.5 2.9c-.3 1.1-.7 2.2-1.1 3.3-.4 1.1-.8 2.1-1.1 3-.3.9-.5 1.7-.5 2.2 0 .5.1.8.3 1 .2.2.5.3.8.3.7-.1 1.5-.6 2.5-1.6s1.8-1.9 2.4-2.7v2.6c-1.2 1.4-2.5 2.6-3.9 3.6s-2.8 1.6-4.4 1.7c-.8 0-1.5-.3-2.2-.8-.7-.5-1-1.5-1-3 0-.8.1-1.8.4-2.9.3-1.1.6-2.1 1-3.2s.7-2 1-2.8c.3-.8.5-1.4.5-1.7 0-.2 0-.3-.1-.5-.1-.1-.2-.2-.4-.2-.7.1-1.6.8-2.9 2.2-1.2 1.4-2.4 2.7-3.4 4.1-.2 1-.4 2.1-.5 3.3-.1 1.2-.2 2.7-.2 4.5l-4.6 1.1c0-.3-.1-.8-.2-1.8-.1-.9-.1-1.8-.1-2.6 0-1.9.2-4 .7-6.2.5-2.2 1.4-4.8 2.6-7.8l5.4-.9zM384.7 1.3c0 .3-.3 1.6-.8 3.7-.5 2.2-1.2 4.7-1.8 7.6-.7 2.9-1.3 5.7-1.8 8.3-.5 2.6-.8 4.6-.8 5.9 0 .6.1 1 .3 1.4.2.4.5.6 1 .6.8-.1 1.7-.7 2.6-1.7.9-1 1.5-1.6 1.8-2v2.5l-1.8 1.8c-.5.5-.9.9-1.4 1.3-.5.4-1.1.9-1.8 1.4-.8.5-1.6.8-2.5.8-1 0-1.8-.5-2.3-1.5-.6-1-.9-2.5-.9-4.5-.9 1.6-2 3-3.4 4.1-1.4 1.2-2.7 1.8-4.1 1.8-1.4-.1-2.5-.7-3.3-1.9-.8-1.2-1.2-2.5-1.2-4.1.1-3.2 1.2-6.1 3.3-8.9 2.1-2.8 4.6-4.2 7.6-4.4.8 0 1.4.2 1.8.5.4.3.8.6 1.1 1l.1-.1c.4-2 .9-4.3 1.5-6.8s1.1-4.6 1.5-6.4c.7-.2 1.5-.4 2.5-.6 1-.2 1.8-.3 2.4-.3.2 0 .3 0 .4.1-.1.2 0 .3 0 .4zm-11.3 14.1c-1.5.2-2.9 1.6-4 4.1-1.1 2.5-1.7 4.7-1.7 6.7 0 .7.2 1.4.5 1.9s.8.8 1.5.8c1.6-.2 3-1.5 4.1-4 1.1-2.4 1.6-4.6 1.7-6.6 0-.9-.2-1.6-.5-2.1-.4-.5-.9-.8-1.6-.8z"/></g></svg>