<svg version="1.1" id="レイヤー_1" xmlns="http://www.w3.org/2000/svg" x="0" y="0" viewBox="0 0 248 90" xml:space="preserve"><style>.st0{fill:#fff}</style><path class="st0" d="M0 87.9V0h218.2v4.7h-15.4c-.1 1.3-.2 2.5-.4 3.8-.1 1.3-.3 2.6-.5 3.9-.1 1.2-.2 2.5-.4 3.7-.1 1.4-.3 2.8-.5 4.1-.1 1.2-.2 2.3-.4 3.5-.1 1.3-.3 2.7-.5 4-.1.9-.2 1.7-.3 2.6-.1 1.3-.3 2.5-.4 3.8-.1.9-.2 1.8-.3 2.8-.1 1.3-.3 2.6-.5 3.8l-.3 2.7c-.1 1.3-.3 2.5-.5 3.8-.1 1.2-.2 2.5-.4 3.7-.1 1.4-.3 2.7-.5 4.1-.1.8-.2 1.7-.3 2.5-.1 1.3-.3 2.6-.4 3.9-.1 1.2-.2 2.5-.4 3.7-.1 1.3-.3 2.6-.5 3.8-.1 1.2-.2 2.5-.4 3.7-.1 1.4-.3 2.8-.5 4.1-.1.8-.2 1.6-.3 2.5-.1 1.3-.3 2.6-.5 3.8-.1 1-.2 1.9-.3 2.9-.1.7-.1 1.3-.2 2h12.6c.1-.3.2-.5.2-.6.2-1.9.3-3.8.5-5.6.2-1.9.3-3.8.5-5.7.2-1.9.3-3.8.5-5.7.2-1.9.3-3.7.5-5.6.1-1.7.2-3.4.4-5.1 0-.5.1-1.1.1-1.6.2-1.7.3-3.3.5-5 .1-1.1.2-2.3.2-3.4.1-1.8.3-3.6.5-5.5 0-.5.2-.7.7-.7h5.8c1-3.7 1.9-7.3 2.9-11.1 1 3.7 1.9 7.2 2.8 10.7.1.4.3.5.6.5h9.4c.4 0 .5-.1.6-.5.7-2.1 1.4-4.3 2.1-6.4.5-1.3.9-2.7 1.4-4 .2.4.3.8.3 1.2.6 3.2 1.3 6.3 1.9 9.5.1.5.2.6.7.6h7.8v-.3c-.5-2-1-3.9-1.5-5.9-1.2-4.9-2.4-9.8-3.7-14.7 0-.2-.3-.4-.4-.4-1-.1-1.9-.1-2.9-.1-1.7 0-3.3.1-5 0-1.1-.1-1.7.2-2.1 1.3-1 2.6-2.1 5.2-3.2 7.8-.3.8-.7 1.5-1 2.4-1.3-3.8-2.5-7.4-3.7-11.1.1.1.1 0 0 0h-8.3c-.2 0-.4.2-.5.4l-3.6 9.6c-.2.6-.5 1.3-.7 1.9h-.2c.7-5.5 1.3-11 2-16.6.9.1 1.8.1 2.8.2 2.9.1 5.8.1 8.7.1 2.7 0 5.4.1 8.1.1 3 0 6 .1 9 .1h4V4.9c-5.4.1-10.7.2-16 .3V.5c-.1-.1-.3-.1-.4-.2h18.6v90C164.8 90 82.4 90 0 90v-1.5c.7-.1 1.4-.2 2-.2 1.5-.1 3-.1 4.4-.1.6-.1 1.2-.2 1.8-.2.2-2.1.4-4.1.7-6.1.7.6 1.3 1.2 1.9 1.8 1.3 1.2 2.9 2 4.5 2.7 2.2.9 4.5 1.1 6.8 1.3 1.8.1 3.6.2 5.4.2 1.5.1 3 .2 4.5.2 2 .1 4.1.2 6.1.2.3 0 .6.1.9.1.4 0 .9 0 1.1-.2.9-.7 1.8-1.5 2.6-2.2l4.2-3.6c.3-.3.6-.6.9-.8h-4c-3.1 0-6.1.1-9.2.1-4.4 0-8.8.3-13.2-.2-1.3-.1-2.6-.5-4-.7-.4-.1-.6-.3-.6-.8v-3.5-1.3H21c-.3 2-.5 3.9-.8 5.9 3.1-1.5 6.1-3 9.2-4.4 0 0 0 .1.1.1-.3.3-.6.6-1 .9l3.9 3.6c1.2-1.7 2.3-3.3 3.4-5 .1.2.1.3.2.4.5 1.5 1 2.9 1.4 4.4.1.3.2.5.6.4 1.2-.5 2.5-.9 3.7-1.4.5-.2 1.1-.4 1.6-.6-1.1-2.7-2.2-5.3-3.2-7.9-.1-.2-.1-.4 0-.5.8-1 1.6-2.1 2.4-3.1.7-.9 1.5-1.8 2.2-2.7.1-.1.2-.3.1-.4-.7-1.3-1.5-2.6-2.2-3.9-1.4 1.7-2.7 3.3-4.1 5.1-.7-2.2-1.4-4.2-2.1-6.4h7.1v-5.3h-2.4v-.1c1.1-.6 2.3-1.2 3.5-1.8-1.7-1.5-3.2-3-4.7-4.4-2 .9-4 1.7-6.1 2.6-.2-.5-.4-1-.7-1.5-.1-.3-.3-.6-.7-.5-.4 0-.8-.1-1.2-.1-1.3-.2-2.7-.4-4-.6-.4-.1-.9-.1-1.4-.1.7 2.3 1.4 4.4 2.1 6.6h-4.4c-.4 0-.7.1-.7.6s-.1 1-.1 1.5c-.1 1.8-.2 3.5-.4 5.3 0 .6-.1 1.1-.2 1.7H22v-3.3h-6v-1.5h5.5v-6.5h-5.6v-4.2H10v4.2H4.5V59h5.7v.4c0 .9 0 .9-.9.9H3.1v7.1h8v8.5c-.6-1-1.3-2-1.4-3.2-.1-.9-.1-1.9 0-2.9 0-.6-.2-.7-.7-.8-1.4-.7-3-1-4.5-1.3-.1.1-.1.2-.2.3-.4 1.9-.8 3.7-1.2 5.6L.7 84.7c-.2 1-.5 2.1-.7 3.2zm106.7 2c-1.4-2.9-2.7-5.6-4.1-8.3-1.7-3.3-3.5-6.5-5.2-9.8-.8-1.4-1.5-2.8-2.3-4.2-1.5-2.7-3-5.3-4.5-8-1.2-2.1-2.3-4.2-3.5-6.3-1.3-2.3-2.7-4.6-4-7-.1-.2-.1-.6-.1-.8L86.3 35c.7-2.4 1.5-4.7 2.2-7.1 1.3-4.3 2.7-8.7 4-13 1-3.2 2-6.3 2.9-9.5.2-.7.4-1.5.7-2.3l-40.3-.3v.4c0 2.5-.1 4.9-.1 7.4v11.1c0 .5.2.6.6.6 1.6 0 3.1.1 4.7.1 1.5 0 2.9.1 4.4.1 1.5 0 3 .1 4.6.1 2.5 0 5.1.1 7.6.1.6 0 1.3.1 2.1.1-9.2 22.6-20.2 44.3-31 66.1 1.2.1 2.5.1 3.7.2 2.4.1 4.8.1 7.2.1h4.1c.6 0 1.1.1 1.7.1.1 0 .3-.2.4-.4.4-.8.7-1.6 1-2.4 1-2.3 1.9-4.6 2.8-6.9 1.3-3.1 2.5-6.3 3.7-9.4 1.1-2.9 2.3-5.8 3.5-8.7.3-.9.7-1.7 1.1-2.6.1.2.1.2.2.3.6 1.8 1.2 3.5 1.8 5.3 1.2 3.4 2.4 6.9 3.6 10.3l5.1 14.4c.1.4.3.6.8.6h8.8c2.8.1 5.5.1 8.5.1zm.7-56.5h9.6c.5 0 .7.2.6.7-.1.7-.2 1.5-.2 2.2-.1 1.2-.2 2.3-.4 3.5-.1 1.1-.3 2.2-.4 3.4-.1 1.1-.2 2.1-.4 3.2-.2 1.3-.4 2.5-.6 3.8-.2 1.5-.4 3.1-.6 4.6-.3 1.8-.5 3.5-.8 5.3-.2 1.6-.5 3.3-.7 4.9-.3 1.8-.6 3.6-.9 5.5-.3 2-.6 4-1 6.1-.3 1.9-.7 3.9-1.1 5.8l-1.2 6.3c-.1.4.1.5.4.6.5.1 1.1.1 1.6.1 1.2 0 2.4-.1 3.7-.1 2.3 0 4.6-.1 6.9-.1.3 0 .6.1.9.1.1-.8.1-1.5.2-2.2.1-1.6.3-3.1.5-4.7.1-.9.2-1.9.2-2.8.1-1.5.3-3 .5-4.4.1-1.1.2-2.1.3-3.2.1-1.6.3-3.2.5-4.7.1-.9.2-1.9.3-2.8.1-1.5.3-3 .5-4.6.1-1 .2-2 .3-2.9.1-1.5.3-3 .5-4.6.1-1 .2-2 .3-2.9.1-1.5.3-3.1.5-4.6.1-.9.2-1.8.3-2.8.1-1.4.3-2.9.5-4.3.1-1 .2-2 .3-2.9 0-.5.1-.9.2-1.3h8.6c-.1 1.5-.3 2.8-.4 4.2l-.6 5.4c-.2 1.7-.3 3.4-.5 5l-.6 6.6c-.2 1.8-.3 3.6-.5 5.3-.2 2.3-.4 4.5-.6 6.8-.2 1.8-.3 3.6-.5 5.3-.2 1.8-.3 3.7-.5 5.5-.2 1.7-.3 3.5-.5 5.2-.2 2-.4 4-.5 6.1h15.4c.1-1.3.1-2.6.2-3.9.1-1.6.1-3.2.1-4.8 0-1.7.1-3.4.1-5.1 0-1.8.1-3.5.1-5.3 0-1.8.1-3.6.1-5.4 0-1.9.1-3.7.1-5.6 0-1.8.1-3.7.1-5.5 0-1.9.1-3.8.1-5.8 0-1.9.1-3.7.1-5.6 0-2 .1-3.9.1-5.9 0-1.9.1-3.9.1-5.8 0-3.5.1-7 .1-10.6 0-.2.1-.5.1-.7v-.7h-18.6c.7-5.8 1.8-11.5 2.6-17.3H122c-.1.6-.2 1.2-.2 1.7-.1 1.2-.2 2.3-.4 3.5-.1 1.3-.3 2.6-.5 3.8-.1 1.1-.2 2.1-.4 3.2-.2 1.4-.4 2.7-.6 4.1-.1.5-.2.7-.7.7h-8.8c-.9 0-1.8.1-2.7.2-.3 5.1-.3 10.1-.3 15.2zm48.7-4.6v15c8.3.1 16.6.1 24.9.2-6.9 15.3-13.7 30.5-22 45 .2.1.4.2.6.2 1 .1 2 .1 3 .1 1.7 0 3.4-.1 5.1-.1 3.5 0 7.1-.1 10.6-.1.6 0 .9-.2 1-.8.9-3.8 1.8-7.6 2.6-11.4.8-3.7 1.7-7.4 2.5-11 .8-3.7 1.7-7.5 2.5-11.2.8-3.7 1.7-7.4 2.5-11 .7-3.1 1.3-6.1 2-9.2.4-1.7.8-3.4 1.2-5.2h-.4c-3.4 0-6.9-.1-10.3-.1-4.2 0-8.4-.1-12.5-.1H160c-1.3-.2-2.5-.3-3.9-.3zM210.2 87h36V73.9h-14.7v-7h10.7V53.8h-10.9v-8.9h-7v9h-10.6V67h10.5v7H210c.2 4.3.2 8.6.2 13zm-17-70c.1-4.9.1-9.9.2-14.9-1.3.1-2.6.2-3.8.2-8.2.1-16.5.1-24.7.1H155.1c.1 1.3.1 2.5.2 3.7.1 2.1.1 4.2.1 6.3 0 1.4.1 2.9.1 4.3h.4c3 0 6 .1 9 .1 7.3 0 14.6.1 21.9.1h1.2c1.7.1 3.4.1 5.2.1zM17 2.3h-7c-.1 0-.4.2-.4.4-.5 2.2-.9 4.4-1.4 6.6-.6 3-1.3 6-1.9 9-.6 2.9-1.2 5.8-1.7 8.6-.6 2.8-1.1 5.6-1.7 8.5-.5 2.4-1 4.8-1.5 7.3-.2.8-.3 1.6-.5 2.4 4.9.1 9.6.2 14.4.3.1-.5.1-1 .2-1.5.1-2.1.2-4.1.2-6.2.1-2.3.2-4.5.2-6.8 0-1 .1-2 .1-3 .1-2.3.2-4.5.2-6.8 0-.9.1-1.9.1-2.8.1-2.3.2-4.7.2-7 .1-1.8.1-3.6.1-5.3v-.2c.3-1.2.3-2.3.4-3.5zm28.9 43V2.4h-8.8c-.1 1.6-.2 3.3-.3 5-.1 1.7-.2 3.4-.2 5.1-.1 1.6-.2 3.3-.2 4.9-.1 1.7-.2 3.5-.2 5.2-.1 1.7-.2 3.3-.2 5-.1 1.7-.2 3.3-.2 5-.1 1.7-.2 3.3-.2 5-.1 1.4-.1 2.8-.1 4.3v.4c-.1 1-.1 2-.2 3.1 3.4-.1 7-.1 10.6-.1zm-15.5-43h-6.8c-.6 0-.7.2-.7.8 0 .8-.1 1.7-.1 2.5-.1 1.9-.3 3.8-.5 5.6-.1 1.4-.1 2.8-.3 4.2-.1 1.8-.3 3.6-.5 5.4-.1 1.6-.2 3.2-.4 4.8-.1 1.6-.2 3.3-.4 4.9-.1 1.4-.2 2.8-.2 4.2-.1.7-.2 1.5-.2 2.2v2.2H30c.2-12.2.3-24.5.4-36.8z"/><path d="M228.6 0c.1.1.3.1.4.2v4.7c5.3-.1 10.6-.2 16-.3v13.8h-4c-3 0-6-.1-9-.1-2.7 0-5.4-.1-8.1-.1-2.9 0-5.8-.1-8.7-.1-.9 0-1.8-.1-2.8-.2-.7 5.6-1.3 11.1-2 16.6h.2c.2-.6.5-1.3.7-1.9l3.6-9.6c.1-.2.3-.4.5-.4h8.3s.1 0 0 0c1.2 3.7 2.4 7.4 3.7 11.1.4-.9.7-1.7 1-2.4 1.1-2.6 2.2-5.1 3.2-7.8.4-1.1 1-1.4 2.1-1.3 1.7.1 3.3 0 5 0 1 0 1.9.1 2.9.1.1 0 .4.3.4.4 1.2 4.9 2.4 9.8 3.7 14.7.5 2 1 3.9 1.5 5.9v.3h-7.8c-.4 0-.6-.1-.7-.6-.6-3.2-1.2-6.3-1.9-9.5-.1-.4-.1-.8-.3-1.2-.5 1.3-.9 2.7-1.4 4-.7 2.1-1.4 4.3-2.1 6.4-.1.3-.3.5-.6.5H223c-.4 0-.5-.1-.6-.5-.9-3.5-1.8-7-2.8-10.7-1 3.8-2 7.4-2.9 11.1h-5.8c-.5 0-.7.2-.7.7-.1 1.8-.3 3.6-.5 5.5-.1 1.1-.1 2.3-.2 3.4-.1 1.7-.3 3.3-.5 5-.1.5-.1 1.1-.1 1.6-.1 1.7-.2 3.4-.4 5.1-.1 1.9-.3 3.7-.5 5.6-.2 1.9-.3 3.8-.5 5.7-.2 1.9-.3 3.8-.5 5.7-.2 1.9-.3 3.8-.5 5.6 0 .2-.1.4-.2.6h-12.6c0-.6.1-1.3.2-2 .1-1 .2-1.9.3-2.9.2-1.3.3-2.6.5-3.8.1-.8.2-1.6.3-2.5.2-1.4.3-2.8.5-4.1.1-1.2.2-2.5.4-3.7.1-1.3.3-2.6.5-3.8.1-1.2.2-2.5.4-3.7.1-1.3.3-2.6.4-3.9.1-.8.2-1.7.3-2.5.2-1.4.3-2.7.5-4.1.1-1.2.2-2.5.4-3.7.1-1.3.3-2.5.5-3.8l.3-2.7c.1-1.3.3-2.6.5-3.8.1-.9.2-1.8.3-2.8.1-1.3.3-2.5.4-3.8.1-.9.2-1.7.3-2.6.2-1.3.3-2.7.5-4 .1-1.2.2-2.3.4-3.5.2-1.4.3-2.8.5-4.1.1-1.2.2-2.5.4-3.7.1-1.3.3-2.6.5-3.9.1-1.2.2-2.5.4-3.8h15.4V-.3c2.9.3 6.3.3 9.8.3zM0 87.9c.2-1.1.5-2.1.7-3.2l2.4-11.1c.4-1.9.8-3.7 1.2-5.6 0-.1.1-.2.2-.3 1.5.3 3.1.6 4.6.9.5.1.7.3.7.8-.1.9-.1 1.9 0 2.9.1 1.2.8 2.2 1.4 3.2V67h-8v-7.1H9.4c.9 0 .9 0 .9-.9v-.4H4.6v-6.7h5.5v-4.2H16v4.2h5.6v6.5h-5.5v1.5h6v3.3h.1c.1-.6.1-1.1.2-1.7.1-1.8.2-3.5.4-5.3 0-.5.1-1 .1-1.5s.3-.6.7-.6H28c-.7-2.1-1.4-4.3-2.1-6.6.5.1 1 .1 1.4.1 1.3.2 2.7.4 4 .6.4.1.8.2 1.2.1.4 0 .6.2.7.5.2.5.4 1 .7 1.5 2-.9 4-1.7 6.1-2.6 1.5 1.4 3.1 2.9 4.7 4.4-1.2.6-2.4 1.2-3.5 1.8v.1h2.4v5.3h-7.1c.7 2.2 1.4 4.2 2.1 6.4 1.4-1.7 2.8-3.4 4.1-5.1.8 1.3 1.5 2.6 2.2 3.9 0 .1 0 .3-.1.4-.7.9-1.5 1.8-2.2 2.7-.8 1-1.6 2-2.4 3.1-.1.1-.1.4 0 .5 1.1 2.6 2.1 5.3 3.2 7.9-.6.2-1.1.4-1.6.6-1.2.5-2.5.9-3.7 1.4-.4.2-.5 0-.6-.4-.5-1.5-.9-2.9-1.4-4.4 0-.1-.1-.3-.2-.4-1.2 1.7-2.3 3.3-3.4 5l-3.9-3.6c.3-.3.7-.6 1-.9 0 0 0-.1-.1-.1-3 1.5-6 2.9-9.2 4.4.3-2 .5-4 .8-5.9h-4.2v4.8c0 .5.1.7.6.8 1.3.2 2.6.6 4 .7 4.4.5 8.8.2 13.2.2 3 0 6.1-.1 9.2-.1h4c-.3.3-.6.6-.9.8l-4.2 3.6c-.9.8-1.7 1.6-2.6 2.2-.3.2-.7.1-1.1.2-.3 0-.6-.1-.9-.1-2-.1-4.1-.2-6.1-.2-1.5-.1-3-.2-4.5-.2-1.8-.1-3.6-.1-5.4-.2-2.3-.2-4.6-.4-6.8-1.3-1.6-.6-3.2-1.5-4.5-2.7-.6-.6-1.3-1.2-1.9-1.8-.2 2-.4 4.1-.7 6.1-.6 0-1.1.1-1.7.1-1.5.1-3 .1-4.4.1-.7 0-1.4.2-2 .2-.2.3-.2.1-.2-.1zm32-13.7l1.5-1.5c.2-.2.2-.5.2-.8-1.2-4-2.5-7.9-3.7-11.9-.2-.7-.7-.4-1.2-.4-.1 0-.3.4-.3.7-.1 1.1-.2 2.1-.3 3.2-.1 1.6-.3 3.3-.5 4.9-.1.6-.2 1.2-.2 1.8-.1.7-.1 1.4-.1 2.2 1.3-.6 2.6-1.2 3.8-1.8.3 1.2.5 2.4.8 3.6zm-15.7-4.4c1.8-.1 3.5-.1 5.2-.2v1h.1c.1-1.3.2-2.6.3-4.1h-2.8c-.9 0-1.8-.1-2.8-.1v3.4zm17.9-18.5c.2.5.3.9.4 1.3.6 1.7.6 1.7 2.3 1.7H38v-.2c-1.1-.9-2.4-1.8-3.8-2.8zM106.7 89.9H89.4c-.5 0-.6-.2-.8-.6l-5.1-14.4c-1.2-3.4-2.4-6.9-3.6-10.3-.6-1.8-1.2-3.5-1.8-5.3 0-.1-.1-.1-.2-.3-.4.9-.8 1.8-1.1 2.6-1.2 2.9-2.3 5.8-3.5 8.7-1.2 3.1-2.4 6.3-3.7 9.4-.9 2.3-1.9 4.6-2.8 6.9-.3.8-.7 1.6-1 2.4-.1.2-.3.4-.4.4-.6 0-1.1 0-1.7-.1h-4.1c-2.4 0-4.8-.1-7.2-.1-1.2 0-2.5-.1-3.7-.2 10.8-21.8 21.8-43.5 31-66.1-.8-.1-1.5-.1-2.1-.1-2.5-.1-5.1-.1-7.6-.1-1.5 0-3-.1-4.6-.1-1.5 0-2.9-.1-4.4-.1-1.6 0-3.1-.1-4.7-.1-.4 0-.6-.1-.6-.6V10.7c0-2.5.1-4.9.1-7.4v-.4c13.4 0 26.9.1 40.4.2-.2.8-.4 1.6-.7 2.3-1 3.2-2 6.3-2.9 9.5-1.3 4.3-2.7 8.7-4 13-.7 2.4-1.4 4.7-2.2 7.1l-3.3 10.5c-.1.2-.1.6.1.8 1.3 2.3 2.6 4.6 4 7 1.2 2.1 2.3 4.2 3.5 6.3 1.5 2.7 3 5.3 4.5 8 .8 1.4 1.5 2.8 2.3 4.2 1.7 3.2 3.5 6.5 5.2 9.8 1.3 2.6 2.6 5.4 4 8.3zM107.4 33.4V18.2c.9-.1 1.8-.2 2.7-.2h8.8c.5 0 .7-.2.7-.7.1-1.4.4-2.7.6-4.1.1-1.1.3-2.1.4-3.2.2-1.3.3-2.6.5-3.8.1-1.2.2-2.3.4-3.5.1-.6.2-1.1.2-1.7h10.9c-.9 5.8-2 11.5-2.6 17.3h18.6v.7c0 .2-.1.5-.1.7 0 3.5-.1 7-.1 10.6 0 1.9-.1 3.9-.1 5.8 0 2-.1 3.9-.1 5.9 0 1.9-.1 3.7-.1 5.6 0 1.9-.1 3.8-.1 5.8 0 1.8-.1 3.7-.1 5.5 0 1.9-.1 3.7-.1 5.6 0 1.8-.1 3.6-.1 5.4 0 1.8-.1 3.5-.1 5.3 0 1.7-.1 3.4-.1 5.1 0 1.6-.1 3.2-.1 4.8 0 1.3-.1 2.7-.2 3.9h-15.4c.2-2.1.4-4.1.5-6.1.2-1.7.3-3.5.5-5.2.2-1.8.3-3.7.5-5.5.2-1.8.3-3.6.5-5.3.2-2.3.4-4.5.6-6.8.2-1.8.3-3.6.5-5.3l.6-6.6c.2-1.7.3-3.4.5-5l.6-5.4c.1-1.4.3-2.7.4-4.2h-8.6c-.1.3-.2.8-.2 1.3-.1 1-.2 2-.3 2.9-.1 1.4-.3 2.9-.5 4.3-.1.9-.2 1.8-.3 2.8-.2 1.5-.3 3.1-.5 4.6-.1 1-.2 2-.3 2.9-.1 1.5-.3 3-.5 4.6-.1 1-.2 2-.3 2.9-.1 1.5-.3 3-.5 4.6-.1.9-.2 1.9-.3 2.8-.2 1.6-.3 3.2-.5 4.7-.1 1.1-.2 2.1-.3 3.2-.1 1.5-.3 3-.5 4.4-.1.9-.2 1.9-.2 2.8-.2 1.6-.3 3.1-.5 4.7-.1.7-.1 1.4-.2 2.2-.3 0-.6-.1-.9-.1-2.3 0-4.6.1-6.9.1-1.2 0-2.4.1-3.7.1-.5 0-1.1-.1-1.6-.1-.3 0-.5-.2-.4-.6l1.2-6.3c.4-1.9.7-3.9 1.1-5.8.3-2 .6-4 1-6.1.3-1.8.6-3.6.9-5.5.3-1.6.5-3.3.7-4.9.3-1.8.6-3.5.8-5.3.2-1.5.4-3.1.6-4.6.2-1.3.4-2.5.6-3.8.1-1.1.3-2.1.4-3.2.1-1.1.3-2.2.4-3.4.1-1.2.3-2.3.4-3.5.1-.7.2-1.5.2-2.2.1-.5-.1-.7-.6-.7h-8.9-.4zM156.1 28.8c1.4.1 2.7.2 3.9.2h9.4c4.2 0 8.4.1 12.5.1 3.4 0 6.9.1 10.3.1h.4c-.4 1.7-.8 3.5-1.2 5.2-.7 3.1-1.3 6.1-2 9.2-.8 3.7-1.7 7.4-2.5 11-.8 3.7-1.7 7.5-2.5 11.2-.8 3.7-1.7 7.4-2.5 11-.9 3.8-1.8 7.6-2.6 11.4-.1.5-.3.8-1 .8-3.5 0-7.1.1-10.6.1-1.7 0-3.4.1-5.1.1-1 0-2-.1-3-.1-.2 0-.3-.1-.6-.2 8.3-14.6 15.1-29.8 22-45-8.4-.1-16.7-.1-24.9-.2V28.8z"/><path d="M210.2 87V74h14.2v-7h-10.5V53.9h10.6v-9h7v8.9h10.9v13.1h-10.7v7h14.7V87h-36.2zM193.2 17h-6.4c-7.3 0-14.6-.1-21.9-.1-3 0-6-.1-9-.1h-.4c0-1.5-.1-2.9-.1-4.3 0-2.1-.1-4.2-.1-6.3 0-1.2-.1-2.4-.2-3.7H164.9c8.2 0 16.5-.1 24.7-.1 1.2 0 2.5-.1 3.8-.2-.1 4.9-.2 9.9-.2 14.8zM17 2.3c-.1 1.2-.1 2.3-.2 3.4v.2c0 1.8-.1 3.6-.1 5.3-.1 2.3-.2 4.7-.2 7 0 .9-.1 1.9-.1 2.8-.1 2.3-.2 4.5-.2 6.8 0 1-.1 2-.1 3-.1 2.3-.2 4.5-.2 6.8-.1 2.1-.1 4.1-.2 6.2 0 .5-.1.9-.2 1.5-4.8-.1-9.5-.2-14.4-.3.2-.8.3-1.6.5-2.4.5-2.4 1-4.8 1.5-7.3.6-2.8 1.2-5.6 1.7-8.5.6-2.9 1.1-5.8 1.7-8.6.6-3 1.3-6 1.9-9 .5-2.2.9-4.4 1.3-6.6 0-.2.3-.4.4-.4 2.2.1 4.4.1 6.9.1zM45.9 45.3H35.1c.1-1.1.1-2.1.2-3.1v-.4c0-1.4.1-2.8.1-4.3.1-1.7.2-3.3.2-5 .1-1.7.2-3.3.2-5 .1-1.7.2-3.3.2-5 .1-1.7.2-3.5.2-5.2.1-1.6.2-3.3.2-4.9.1-1.7.2-3.4.2-5.1.3-1.6.4-3.3.5-5h8.8v43zM30.4 2.3l-.3 36.9h-9.7V37c0-.7.2-1.5.2-2.2.1-1.4.2-2.8.2-4.2.1-1.6.2-3.3.4-4.9.1-1.6.2-3.2.4-4.8.1-1.8.3-3.6.5-5.4.1-1.4.1-2.8.3-4.2.1-1.9.3-3.8.5-5.6.1-.8.1-1.7.1-2.5 0-.5.1-.8.7-.8 2.1-.1 4.4-.1 6.7-.1z"/><path class="st0" d="M32 74.2c-.3-1.2-.5-2.4-.8-3.7-1.3.6-2.5 1.2-3.8 1.8 0-.8.1-1.5.1-2.2.1-.6.2-1.2.2-1.8.2-1.6.3-3.3.5-4.9.1-1.1.1-2.1.3-3.2 0-.2.2-.7.3-.7.4 0 .9-.3 1.2.4 1.2 4 2.5 7.9 3.7 11.9.1.2 0 .6-.2.8-.5.6-1 1.1-1.5 1.6zM16.3 69.8v-3.4c.9 0 1.9.1 2.8.1h2.8c-.1 1.5-.2 2.8-.3 4.1h-.1v-1c-1.7 0-3.4.1-5.2.2zM34.2 51.3c1.4 1 2.6 1.9 3.9 2.8v.2H37c-1.7 0-1.7 0-2.3-1.7-.2-.3-.3-.7-.5-1.3z"/></svg>