<svg version="1.1" id="レイヤー_1" xmlns="http://www.w3.org/2000/svg" x="0" y="0" viewBox="0 0 718 479" xml:space="preserve"><style>.st0,.st1{fill:none;stroke:#231815;stroke-width:3;stroke-miterlimit:10}.st1{fill:#fff;stroke-width:2.6824}.st3{fill:#666}</style><path class="st0" d="M121.4 411.4v31"/><circle class="st1" cx="121.3" cy="442.8" r="9.8"/><path class="st0" d="M622.4 400.4h-68l-122-122-132.5 132.5H48.4"/><path fill="#fff" d="M328.9 356.9h18v31h-18z"/><path class="st3" d="M651.7 416.6l-.2-1.1h1.6c.6 0 1-.3 1.2-.9s.3-1.7.3-3.4v-.7h-3.5c0 1.8-.3 3.2-.6 4.4-.4 1.1-.9 2.2-1.6 3l-.8-.6c.7-.9 1.1-2 1.4-3.2.3-1.2.4-2.5.4-4v-4.3h7.1v-2.9h1.4v2.9h5.5v1h-5.5c.1 2.3.6 4.3 1.3 6.1 1-1.4 1.7-2.9 2.3-4.5l1.3.5c-.8 1.9-1.8 3.6-2.9 5l-.1.1c1 1.5 1.7 2.3 2.1 2.3.2 0 .3-.1.4-.2.1-.2.1-.4.2-.8s.1-.9.1-1.7l1.1.2c-.1 1.9-.2 3-.4 3.4s-.5.5-1 .6h-.1c-.5 0-1-.2-1.5-.7-.6-.5-1.1-1.2-1.7-2.1-.9 1-2 1.9-3.2 2.7l-.7-.8c1.1-.8 2.2-1.8 3.3-3-1-1.9-1.5-4.3-1.7-7.2h-5.8v2.8h4.7v2.1c0 .9-.1 1.8-.2 2.5-.1.8-.3 1.3-.4 1.5-.2.2-.4.5-.7.6-.3.2-.6.3-1 .3h-2.1zm9.8-11.1c-.2-.2-.8-.7-2-1.7l.8-.7c.7.4 1.3 1 2 1.6l-.8.8zM679 416.8h-11.2v.9h-1.3V404h13.8v13.7H679v-.9zm-6.4-11.8h-4.9v4.6h4.9V405zm-4.9 10.8h4.9v-5.1h-4.9v5.1zm11.3-6.1V405h-5.1v4.6h5.1zm-5.1 6.1h5.1v-5.1h-5.1v5.1zM682.6 417.5v-1h6.9v-3.8h-5.6v-1.1h13v1.1h-6v3.8h7.1v1h-15.4zm8.7-11.8H689c-.1 1.4-.6 2.5-1.4 3.3s-2.1 1.4-3.9 1.7l-.3-.9c2.8-.5 4.2-1.9 4.4-4.1h-3.6v1.6H683v-2.6h6.6V403h1.3v1.7h6.9v2.3h-1.2v-1.3h-4v2.9c0 .2.1.3.2.4.1.1.2.2.4.2h.9c.7 0 1.1 0 1.3-.1.2-.1.4-.2.5-.4.1-.2.1-.6.1-1.1l1 .1v1.2c0 .4-.1.7-.4.9-.3.2-.7.3-1.2.4-.5 0-1.1.1-1.5.1-.6 0-1.1 0-1.4-.1-.3-.1-.6-.2-.8-.4s-.4-.5-.4-.8v-3.3zM701.5 410.3c-.4-.4-1.2-1.2-2.4-2.2l.8-.8c1 .7 1.8 1.4 2.4 2.1l-.8.9zm-1.1 7.4l-1.1-.7c.4-.6.9-1.4 1.3-2.4.5-1 .8-1.9 1.1-2.6l1.1.4c-.5 1.9-1.3 3.7-2.4 5.3zm1.9-11.3c-.6-.6-1.4-1.4-2.4-2.3l.9-.8c1 .8 1.8 1.5 2.4 2.2l-.9.9zm3.7 4.2c-.7.8-1.6 1.5-2.5 2.1l-.7-.8c1.6-1.2 2.8-2.3 3.4-3.4h-2.8v-1h2.7v-2h-2.2v-1h2.2v-1.6h1.3v1.6h3.5v-1.6h1.3v1.6h2.5v1h-2.5v2h2.9v1h-3.2c1.1 1.4 2.4 2.6 3.9 3.6l-.8.9c-1-.7-2-1.5-3-2.5v3.4h-5.4v2.1c0 .3.1.5.4.6s1.2.1 2.9.1c1.1 0 1.8 0 2.1-.1.3-.1.5-.2.6-.5.1-.2.2-.7.2-1.6l1.1.2v1.6c0 .4-.1.7-.3.9-.2.2-.5.3-1 .4-.4.1-1.4.1-2.9.1h-1.8c-.5 0-1 0-1.4-.1-.4 0-.7-.2-.9-.4s-.3-.5-.3-.9V413h5.5v-1.8H706v-.6zm1.5-2.1c-.3.6-.7 1.2-1.2 1.7h5.4c-.5-.6-.9-1.1-1.2-1.7h-3zm-.2-1h3.5v-2h-3.5v2zM452.8 474.5l-.4-1.2c.6-.2 1.4-.5 2.5-1.1 1.1-.5 2-.9 2.6-1.3l.3 1c-.9.6-2.5 1.5-5 2.6zm5.1 3.3h-2.2l-.2-1.2h1.9c.5 0 .7-.2.7-.6v-11.5h-5.5v-1h6.9v12.8c0 1.1-.5 1.5-1.6 1.5zm-2.6-7.9c-.5-1.1-1.2-2.3-2-3.5l1.1-.6c.7 1.1 1.4 2.2 2 3.5l-1.1.6zm5.5 4.6l-.4-1.2c.6-.2 1.4-.5 2.5-1s1.9-.9 2.6-1.3l.3 1c-.9.5-2.6 1.4-5 2.5zm5.2 3.3h-2.2l-.1-1.2h1.9c.5 0 .7-.2.7-.6v-11.5h-5.8v-1h7.1v12.8c0 1.1-.6 1.5-1.6 1.5zm-2.6-7.9c-.4-.8-1.1-2-2.1-3.5l1.1-.6c.8 1.1 1.5 2.3 2.1 3.5l-1.1.6zM483 476.8h-11.2v.9h-1.3V464h13.8v13.7H483v-.9zm-6.4-11.8h-4.9v4.6h4.9V465zm-4.9 10.8h4.9v-5.1h-4.9v5.1zm11.3-6.1V465h-5.1v4.6h5.1zm-5.1 6.1h5.1v-5.1h-5.1v5.1zM486.6 477.5v-1h6.9v-3.8h-5.6v-1.1h13v1.1h-6v3.8h7.1v1h-15.4zm8.7-11.8H493c-.1 1.4-.6 2.5-1.4 3.3s-2.1 1.4-3.9 1.7l-.3-.9c2.8-.5 4.2-1.9 4.4-4.1h-3.6v1.6H487v-2.6h6.6V463h1.3v1.7h6.9v2.3h-1.2v-1.3h-4v2.9c0 .2.1.3.2.4.1.1.2.2.4.2h.9c.7 0 1.1 0 1.3-.1.2-.1.4-.2.5-.4.1-.2.1-.6.1-1.1l1 .1v1.2c0 .4-.1.7-.4.9-.3.2-.7.3-1.2.4-.5 0-1.1.1-1.5.1-.6 0-1.1 0-1.4-.1-.3-.1-.6-.2-.8-.4s-.4-.5-.4-.8v-3.3zM505.5 470.3c-.4-.4-1.2-1.2-2.4-2.2l.8-.8c1 .7 1.8 1.4 2.4 2.1l-.8.9zm-1.1 7.4l-1.1-.7c.4-.6.9-1.4 1.3-2.4.5-1 .8-1.9 1.1-2.6l1.1.4c-.5 1.9-1.3 3.7-2.4 5.3zm1.9-11.3c-.6-.6-1.4-1.4-2.4-2.3l.9-.8c1 .8 1.8 1.5 2.4 2.2l-.9.9zm3.7 4.2c-.7.8-1.6 1.5-2.5 2.1l-.7-.8c1.6-1.2 2.8-2.3 3.4-3.4h-2.8v-1h2.7v-2h-2.2v-1h2.2v-1.6h1.3v1.6h3.5v-1.6h1.3v1.6h2.5v1h-2.5v2h2.9v1h-3.2c1.1 1.4 2.4 2.6 3.9 3.6l-.8.9c-1-.7-2-1.5-3-2.5v3.4h-5.4v2.1c0 .3.1.5.4.6s1.2.1 2.9.1c1.1 0 1.8 0 2.1-.1.3-.1.5-.2.6-.5.1-.2.2-.7.2-1.6l1.1.2v1.6c0 .4-.1.7-.3.9-.2.2-.5.3-1 .4-.4.1-1.4.1-2.9.1h-1.8c-.5 0-1 0-1.4-.1-.4 0-.7-.2-.9-.4s-.3-.5-.3-.9V473h5.5v-1.8H510v-.6zm1.5-2.1c-.3.6-.7 1.2-1.2 1.7h5.4c-.5-.6-.9-1.1-1.2-1.7h-3zm-.2-1h3.5v-2h-3.5v2zM532.5 477.4l-.5-1c.9-.2 1.7-.5 2.6-.9s1.7-.9 2.5-1.5c.9-.6 1.5-1.1 1.8-1.4h-4.7v-5.9h5.4v-1.4h-6.9v-1h6.9v-1.5h1.3v1.5h7.1v1h-7.1v1.4h5.5v5.9h-5c1 .9 2.2 1.7 3.5 2.3 1.3.7 2.6 1.1 3.7 1.4l-.7 1.1c-1.2-.3-2.4-.8-3.8-1.6s-2.4-1.5-3.3-2.2v4.5h-1.3v-4.5c-.8.8-1.9 1.5-3.2 2.2-1.2.7-2.5 1.2-3.8 1.6zm3-8.3h4.2v-1.6h-4.2v1.6zm4.1.9h-4.2v1.6h4.2V470zm1.3-.9h4.2v-1.6h-4.2v1.6zm4.2.9h-4.2v1.6h4.2V470zM549.9 477.1l-.7-.9c1.9-1.2 3.4-2.4 4.4-3.7l1.1.7c-.5.7-1.3 1.4-2.2 2.2-1 .7-1.8 1.3-2.6 1.7zm-.3-11.8v-1h7v-1.5h1.4v1.5h7.1v1h-15.5zm6.9 12.6h-2.2l-.1-1.1h1.7c.5 0 .7-.2.7-.6v-4.5h-5.3V467h12.1v4.7H558v5c0 .3-.1.6-.4.9s-.7.3-1.1.3zm5.5-10h-9.5v2.7h9.5v-2.7zm2.6 9c-.6-.3-1.4-.8-2.4-1.6s-1.8-1.5-2.3-2l1-.7c.6.6 1.3 1.3 2.3 2s1.7 1.2 2.2 1.4l-.8.9zM575.4 470.6c0 1.4-.2 2.6-.7 3.4-.5.9-1.2 1.6-2.2 2.2s-2.3 1.1-3.8 1.4l-.4-1.2c1.7-.4 3.1-1 4.1-1.8 1-.9 1.5-2.1 1.5-3.7v-.9h-7.4v-1.2h15.3v1.2h-6.4v.6zm3.2-5.1h-11.1v-1.2h11.1v1.2zm1.8-.6l-1 .4c-.4-.9-.8-1.7-1.2-2.3l.9-.4c.5.8.9 1.5 1.3 2.3zm2.3-.5l-.9.4c-.4-.9-.8-1.6-1.2-2.3l.9-.4c.3.7.7 1.4 1.2 2.3zM592.6 477.9h-1.4v-6.7c-2 1.1-4.1 1.8-6.3 2.4l-.4-1.1c2.6-.6 4.8-1.5 6.6-2.7s3.2-2.4 4.1-3.8l1.3.5c-.6.9-1.3 1.7-2 2.3-.7.6-1.4 1.1-2 1.5v7.6zM615.9 476.8l-1.2.9c-1.8-1.8-3.8-3.7-6.1-5.6-2.8 2.7-5.5 4.5-8.1 5.6l-.5-1.1c2.2-.9 4.4-2.4 6.7-4.4s3.8-4.2 4.7-6.6h-9.5v-1.2h10.9l.3.3c-.2 1-.7 2.1-1.3 3.2-.7 1.2-1.4 2.2-2.3 3.2 1.1 1 3.3 2.9 6.4 5.7zm-1.5-12l-1 .4c-.4-.9-.8-1.7-1.2-2.3l.9-.4c.6.7 1 1.5 1.3 2.3zm2.3-.5l-1 .4c-.4-.9-.8-1.6-1.2-2.3l.9-.4c.5.7.9 1.4 1.3 2.3zM633.1 476.6h-15.5v-1.3h15.5v1.3zm-1.1-9.8h-13.3v-1.2H632v1.2zM649.1 471.4h-13.7v-1.2h13.7v1.2zM655.4 472.3H654v-8.4h1.4v8.4zm9.7-2c0 1.3-.3 2.5-.9 3.5-.6 1.1-1.6 1.9-3.1 2.6-1.4.7-3.3 1.1-5.5 1.2l-.3-1.2c2.9-.2 5-.9 6.4-1.9 1.3-1.1 2-2.6 2-4.6v-6.3h1.4v6.7zM673.5 470l-1.4.6c-.7-1.7-1.8-3.6-3.1-5.8l1.2-.6c1 1.4 2.1 3.4 3.3 5.8zm9.3-4.7c-.3 3.5-1.4 6.3-3.3 8.4-1.9 2.1-4.7 3.5-8.5 4.1l-.4-1.2c3.6-.6 6.3-1.9 8-4s2.6-4.5 2.8-7.4l1.4.1zm-.8-.6l-1 .4c-.4-.9-.8-1.7-1.2-2.3l.9-.4c.5.7 1 1.5 1.3 2.3zm2.4-.3l-1 .4c-.4-.9-.8-1.6-1.2-2.3l.9-.4c.5.7.9 1.4 1.3 2.3zM700.1 471.4h-13.7v-1.2h13.7v1.2zM718 471.8l-.9 1.2c-1.2-.8-2.5-1.5-4.1-2.3s-3-1.3-4.3-1.7v8.8h-1.5v-14.5h1.5v4.4c3.3 1 6.4 2.3 9.3 4.1zM267.1 477.6h-4.9c-2.7 0-4.5-.1-5.4-.3-1-.2-1.7-.7-2-1.5-.6.7-1.6 1.3-2.8 2l-.5-1.1c.4-.1.8-.4 1.4-.7.6-.4 1-.6 1.2-.8v-2.9h-2.3v-1h3.5v3c0 1 .6 1.7 1.9 2 .6.2 1.8.2 3.6.2h6.6l-.3 1.1zm-12.9-7.6c-.3-.4-1-1.2-2.1-2.4l.8-.7c1 .9 1.8 1.7 2.3 2.4l-1 .7zm.5-3.8c-.2-.4-1-1.2-2.2-2.5l.9-.6c1.1 1 1.8 1.8 2.3 2.4l-1 .7zm5.9 9.3v-7.1h-4.3v-1h4.3v-4.5h1.3v4.5h4.7v1h-4.7v7.1h-1.3zM268.6 477.5v-1h7v-2.1h-5.9v-1h5.9v-1.8h-4.4v-3.9h10.3v3.9h-4.6v1.8h6v1h-6v2.1h7.1v1h-15.4zm2.9-12.2l-.9-1.9 1.2-.3 1 2.2h2.8v-2.6h1.3v2.6h2.9l1.1-2.3 1.3.3-1.1 2h2.9v2.9h-1.2v-1.9h-12.9v1.9h-1.2v-2.9h2.8zm8.8 3.4h-7.9v2h7.9v-2zM285.9 477.3l-.9-.4c.4-1.2.6-2.5.7-3.8l.9.1c0 .5-.1 1.2-.2 2.1-.2.9-.3 1.5-.5 2zm4.3-6.3h2.3c0 1.8-.1 3.1-.2 4.1-.1 1-.2 1.6-.4 1.9-.2.3-.4.5-.7.7s-.8.3-1.3.3h-1.4l-.1-1c.9 0 1.4 0 1.7-.1.2 0 .4-.1.6-.3.2-.2.3-.4.4-.7.1-.3.1-.7.2-1.3s0-1.4 0-2.6h-4.1v.3h-1.1v-8.8h6.5v.9h-2.4v1.6h1.9v.9h-1.9v1.5h2v.9h-2v1.7zm-2.8 5.1l-.2-3 .7-.1.2 3-.7.1zm-.2-11.7v1.6h1.9v-1.6h-1.9zm0 2.5v1.5h1.9v-1.5h-1.9zm0 2.5v1.6h1.9v-1.6h-1.9zm1.8 6l-.4-2.6.6-.1.4 2.6-.6.1zm1.2-.8l-.4-2 .5-.1.4 2-.5.1zm10.7 3.3c-1-.9-1.9-2.1-2.5-3.5-.7-1.4-1.1-2.9-1.3-4.5h-1.7c0 1.6-.2 3.1-.6 4.6-.4 1.5-.8 2.6-1.4 3.4l-.9-.6c.5-.7.9-1.8 1.2-3.2.3-1.4.4-3 .4-4.7v-5.9h6.6v6.5h-2.4c.2 1.3.5 2.5 1.2 3.8s1.4 2.4 2.3 3.2l-.9.9zm-1.6-13.5h-4v4.6h4v-4.6zM308.8 470.9c0-.4.1-.8.4-1.1s.7-.4 1.1-.4.8.2 1.1.4.4.7.4 1.1c0 .4-.1.8-.4 1.1s-.7.4-1.1.4-.8-.1-1.1-.4-.4-.7-.4-1.1zM323.4 472.9h-2c-.2 2.1-.7 3.7-1.4 4.9l-.9-.4c.9-1.5 1.3-3.6 1.3-6.2v-5h4.2v10.6c0 .3-.1.6-.4.7-.2.2-.6.3-1 .3h-1.4l-.1-1h1.1c.1 0 .3 0 .4-.1.1-.1.2-.2.2-.3v-3.5zm7.5-8.1v.7h-1.2v-.7h-4.5v.8H324v-.8h-4.2v-1h4.2v-.9h1.2v.9h4.5v-.9h1.2v.9h4.1v1h-4.1zm-9.4 7.2h1.9v-2.1h-1.9V472zm0-2.9h1.9v-2h-1.9v2zm6.1 5.2l-1-1.4c-.4.3-.8.6-1.2.8l-.5-.7c1-.6 1.7-1.2 2.3-1.8h-1.9v-.8h2.6c.4-.5.7-1 .9-1.4h-3.1v-.8h1.2l-.7-1.5 1-.2.8 1.7h1.2c.2-.6.3-1.3.3-2.1h1.2c0 .7-.2 1.4-.4 2.1h1.6c.2-.4.5-1 .8-1.7l1.1.2c-.2.5-.5 1-.9 1.6h1.6v.8h-3c.2.4.6.9 1.1 1.4h2.4v.8h-1.7c.6.6 1.4 1.2 2.2 1.6l-.7.7c-.4-.2-.8-.5-1.1-.8l-1.3 1.4-.7-.5 1.4-1.5c-.3-.3-.6-.6-.9-1h-3.7c-.3.4-.7.7-1 1l1.2 1.6-1.1.5zm-2.2 2.6l-.3-.9c1.1-.3 2.3-.7 3.5-1.3l.2.8c-.5.3-1.6.7-3.4 1.4zm4 1h-1.5l-.1-1h1.1c.4 0 .6-.2.6-.5V472h1.1v4.9c0 .3-.1.6-.4.8-.2.1-.5.2-.8.2zm.4-9c-.3.6-.6 1.1-.9 1.4h2.3c-.4-.5-.7-1-.9-1.4h-.5zm4.8 8.5c-1.3-.5-2.4-1.1-3.5-1.8l.5-.8c1 .7 2.2 1.2 3.6 1.8l-.6.8zM339.8 469.3l-.9 1c-.6-.6-1.5-1.4-2.7-2.2l.8-.9c.9.5 1.8 1.3 2.8 2.1zm.7 2.4c-.3.8-.7 1.8-1.3 3-.6 1.2-1.1 2.1-1.6 2.8l-1.1-.7c.4-.6.9-1.4 1.5-2.6s1-2.1 1.2-2.9l1.3.4zm.5-6.4l-.9 1c-.8-.7-1.7-1.5-2.8-2.3l.8-.8c1.1.6 2 1.3 2.9 2.1zm11.4 11.7l-.8 1c-2.5-1.8-4.1-4.5-4.7-8h-3.5c0 1.2-.3 2.5-.7 4-.4 1.5-1.1 2.8-2 3.9l-.9-.7c.6-.7 1.1-1.8 1.6-3.1.5-1.4.8-3 .8-4.8v-5.7h9.1v6.4h-3c.4 3.1 1.8 5.4 4.1 7zm-2.6-8v-4.4h-6.5v4.4h6.5zM353.9 477.3l-.9-.4c.4-1.2.6-2.5.7-3.8l.9.1c0 .5-.1 1.2-.2 2.1-.2.9-.3 1.5-.5 2zm4.3-6.3h2.3c0 1.8-.1 3.1-.2 4.1-.1 1-.2 1.6-.4 1.9-.2.3-.4.5-.7.7-.3.2-.8.3-1.3.3h-1.4l-.1-1c.9 0 1.4 0 1.7-.1.2 0 .4-.1.6-.3.2-.2.3-.4.4-.7.1-.3.1-.7.2-1.3V472h-4.1v.3h-1.1v-8.8h6.5v.9h-2.4v1.6h1.9v.9h-1.9v1.5h2v.9h-2v1.7zm-2.8 5.1l-.2-3 .7-.1.2 3-.7.1zm-.2-11.7v1.6h1.9v-1.6h-1.9zm0 2.5v1.5h1.9v-1.5h-1.9zm0 2.5v1.6h1.9v-1.6h-1.9zm1.8 6l-.4-2.6.6-.1.4 2.6-.6.1zm1.2-.8l-.4-2 .5-.1.4 2-.5.1zm10.7 3.3c-1-.9-1.9-2.1-2.5-3.5-.7-1.4-1.1-2.9-1.3-4.5h-1.7c0 1.6-.2 3.1-.6 4.6-.4 1.5-.8 2.6-1.4 3.4l-.9-.6c.5-.7.9-1.8 1.2-3.2.3-1.4.4-3 .4-4.7v-5.9h6.6v6.5h-2.4c.2 1.3.5 2.5 1.2 3.8s1.4 2.4 2.3 3.2l-.9.9zm-1.6-13.5h-4v4.6h4v-4.6z"/><path d="M462.6 226c-.8 1-1.7 2-2.8 3-1.1 1-2.1 1.7-3.1 2.3l-1.3-1.7c1.3-.8 2.5-1.8 3.7-3 1.2-1.2 2.1-2.4 2.7-3.4h-5.7v-2.1h6.4v-2.8h2.4v2.8h6.5v2.1h-5.8c1.6 2.5 3.8 4.5 6.6 6.1l-1.4 2c-2.4-1.5-4.3-3.2-5.8-5.3v2.8h2.4v2H465v2.6h-2.4v-2.6h-2.5v-2h2.5V226zM476.9 218.6v6.8c0 1.6-.2 3-.5 4.3-.4 1.3-1 2.5-1.9 3.6l-1.9-1c1.2-1.7 1.9-3.9 1.9-6.7v-7h2.4zm5.3 13.6H480v-13.3h2.3v13.3zm5.5.9h-2.3v-14.6h2.3v14.6zM492.8 225.7v.3c0 1-.1 2-.3 3.1.2.2.5.4.7.6v-5.2H490v-1.8h2.8v-1.5h-2.4v-1.6h2.4v-1.4h2.3v1.4h1.8v1.6h-1.8v1.5h1.8v1.8h-1.6v1.3h1.6v1.7h-1.6v3.2c.5.2 1 .3 1.6.4s1.7.1 3.3.1c2.5 0 4.4 0 5.7-.1l-.4 1.9H497.7c-.7 0-1.4-.1-2-.2-.7-.1-1.3-.3-2-.6-.6-.3-1.2-.7-1.7-1.1-.3.9-.6 1.7-1.1 2.3l-1.5-.9c.4-.7.7-1.7 1-2.9.2-1.2.3-2.4.3-3.6v-.4l2.1.1zm7.7 2.8c-1.2.6-2.5 1.1-4.2 1.5l-.5-1.8c.5-.1 1.1-.3 1.7-.4v-7h2.7v-2.6h2.2v2.6h3.2v1.7h-3.3c0 1 .1 2 .3 2.9.4-.8.7-1.7 1-2.7l1.9.6c-.5 1.4-1.2 2.9-2.3 4.6.2.6.4.8.6.8.1 0 .1-.1.2-.2s.1-.8.2-2l1.5.3c-.1 1.8-.3 3-.5 3.4-.3.4-.7.6-1.2.6-.7 0-1.4-.5-2-1.4-.5.5-1 1.1-1.6 1.6l-1.3-1.2c.8-.8 1.5-1.5 2-2.2-.5-1.3-.8-3.1-.9-5.3h-.7v4.6l.8-.3.2 1.9zm5-8.5l-1.6.7c-.2-.5-.6-1.1-1.2-2l1.5-.7c.5.7 1 1.4 1.3 2zM508.4 228.4c0 .5-.1 1.3-.2 2.4-.1 1.1-.3 1.8-.4 2.2l-1.1-.5c.1-.4.3-1 .4-1.9.1-.9.2-1.6.2-2.2h1.1zm6-8.1h-2v1h1.7v1.4h-1.7v1h1.7v1.4h-1.7v1h1.9c0 3-.1 4.9-.4 5.8.4-.7.8-1.7 1-2.8.3-1.2.4-2.7.4-4.5v-5.9h7.1v6.9h-1.9c.4 2.3 1.4 4.3 2.8 5.9l-1.6 1.6c-1.8-2-2.9-4.5-3.3-7.5h-.9c-.1 3.2-.8 5.8-2.2 7.6l-1.5-1.2c-.3.8-.9 1.2-2 1.2h-1.6l-.2-1.6h1.4c.3 0 .5-.1.7-.3.2-.2.2-.5.3-.9 0-.4 0-1.4.1-3h-3v.3h-1.9v-9.1h6.9v1.7zm-4.6 11.3l-.8.1-.2-3.4.8-.1.2 3.4zm.7-11.3h-1.1v1h1.1v-1zm-1 2.4v1h1.1v-1h-1.1zm0 2.4v1h1.1v-1h-1.1zm1.7 5.9l-.7.2-.4-3 .7-.1.4 2.9zm1-1l-.6.3-.4-2.4.6-.2.4 2.3zm7.9-6.1v-3.4h-2.6v3.4h2.6zM476.4 268.1v6.8c0 1.6-.2 3-.5 4.3-.4 1.3-1 2.5-1.9 3.6l-1.9-1c1.2-1.7 1.9-3.9 1.9-6.7v-7h2.4zm5.3 13.6h-2.3v-13.3h2.3v13.3zm5.5.9h-2.3V268h2.3v14.6zM492.3 275.2v.3c0 1-.1 2-.3 3.1.2.2.5.4.7.6V274h-3.2v-1.8h2.8v-1.5h-2.4v-1.6h2.4v-1.4h2.3v1.4h1.8v1.6h-1.8v1.5h1.8v1.8h-1.6v1.3h1.6v1.7h-1.6v3.2c.5.2 1 .3 1.6.4s1.7.1 3.3.1c2.5 0 4.4 0 5.7-.1l-.4 1.9H497.2c-.7 0-1.4-.1-2-.2-.7-.1-1.3-.3-2-.6-.6-.3-1.2-.7-1.7-1.1-.3.9-.6 1.7-1.1 2.3l-1.4-.9c.4-.7.7-1.7 1-2.9.2-1.2.3-2.4.3-3.6v-.4l2 .1zm7.7 2.8c-1.2.6-2.5 1.1-4.2 1.5l-.5-1.8c.5-.1 1.1-.3 1.7-.4v-7h2.7v-2.6h2.2v2.6h3.2v1.7h-3.3c0 1 .1 2 .3 2.9.4-.8.7-1.7 1-2.7l1.9.6c-.5 1.4-1.2 2.9-2.3 4.6.2.6.4.8.6.8.1 0 .1-.1.2-.2s.1-.8.2-2l1.5.3c-.1 1.8-.3 3-.5 3.4-.3.4-.7.6-1.2.6-.7 0-1.4-.5-2-1.4-.5.5-1 1.1-1.6 1.6l-1.3-1.2c.8-.8 1.5-1.5 2-2.2-.5-1.3-.8-3.1-.9-5.3h-.7v4.6l.8-.3.2 1.9zm5-8.5l-1.6.7c-.2-.5-.6-1.1-1.2-2l1.5-.7c.5.7 1 1.4 1.3 2zM507.9 277.9c0 .5-.1 1.3-.2 2.4-.1 1.1-.3 1.8-.4 2.2l-1.1-.5c.1-.4.3-1 .4-1.9.1-.9.2-1.6.2-2.2h1.1zm6-8.1h-2v1h1.7v1.4h-1.7v1h1.7v1.4h-1.7v1h1.9c0 3-.1 4.9-.4 5.8.4-.7.8-1.7 1-2.8.3-1.2.4-2.7.4-4.5v-5.9h7.1v6.9H520c.4 2.3 1.4 4.3 2.8 5.9l-1.6 1.6c-1.8-2-2.9-4.5-3.3-7.5h-.9c-.1 3.2-.8 5.8-2.2 7.6l-1.5-1.2c-.3.8-.9 1.2-2 1.2h-1.6l-.2-1.6h1.4c.3 0 .5-.1.7-.3.2-.2.2-.5.3-.9 0-.4 0-1.4.1-3h-3v.3h-2v-9.1h6.9v1.7zm-4.6 11.3l-.8.1-.2-3.4.8-.1.2 3.4zm.7-11.3h-1v1h1.1v-1zm-1 2.4v1h1.1v-1H509zm0 2.4v1h1.1v-1H509zm1.7 5.9l-.7.2-.4-3 .7-.1.4 2.9zm1-1l-.6.3-.4-2.4.6-.2.4 2.3zm7.9-6.1V270H517v3.4h2.6zM536.4 281.8h-10.1v.8h-2.2v-10.3h4.2v-1.9h-4.8v-1.9h15.7v1.9h-5.5v1.9h4.9v10.3h-2.2v-.8zm-10.1-1.9h10.1V274h-2.8v2.4c0 .2.1.2.2.2h.3c.2 0 .3-.1.3-.2v-1.1-.6l1.5.3v1.9c0 .4-.1.7-.2 1-.1.3-.3.4-.6.5-.3.1-.8.1-1.6.1-.5 0-.9 0-1.1-.1-.3-.1-.5-.2-.7-.5s-.3-.7-.3-1.1V274h-1.3c-.2 1.1-.5 2-1 2.9s-1 1.6-1.6 2.1l-1.4-1.2c1-.9 1.6-2.2 1.8-3.9H526v6zm4.1-7.6h1.2v-1.9h-1.2v1.9zM552.8 281.2h-9.1v1.2h-2.4V269h13.9v13.4h-2.4v-1.2zm-9.1-2h9.1V271h-9.1v8.2zM302.4 244.1v6.8c0 1.6-.2 3-.5 4.3-.4 1.3-1 2.5-1.9 3.6l-1.9-1c1.2-1.7 1.9-3.9 1.9-6.7v-7h2.4zm5.3 13.6h-2.3v-13.3h2.3v13.3zm5.5.9h-2.3V244h2.3v14.6zM318.3 251.2v.3c0 1-.1 2-.3 3.1.2.2.5.4.7.6V250h-3.2v-1.8h2.8v-1.5h-2.4v-1.6h2.4v-1.4h2.3v1.4h1.8v1.6h-1.8v1.5h1.8v1.8h-1.6v1.3h1.6v1.7h-1.6v3.2c.5.2 1 .3 1.6.4s1.7.1 3.3.1c2.5 0 4.4 0 5.7-.1l-.4 1.9H323.2c-.7 0-1.4-.1-2-.2-.7-.1-1.3-.3-2-.6-.6-.3-1.2-.7-1.7-1.1-.3.9-.6 1.7-1.1 2.3l-1.4-.9c.4-.7.7-1.7 1-2.9.2-1.2.3-2.4.3-3.6v-.4l2 .1zm7.7 2.8c-1.2.6-2.5 1.1-4.2 1.5l-.5-1.8c.5-.1 1.1-.3 1.7-.4v-7h2.7v-2.6h2.2v2.6h3.2v1.7h-3.3c0 1 .1 2 .3 2.9.4-.8.7-1.7 1-2.7l1.9.6c-.5 1.4-1.2 2.9-2.3 4.6.2.6.4.8.6.8.1 0 .1-.1.2-.2s.1-.8.2-2l1.5.3c-.1 1.8-.3 3-.5 3.4-.3.4-.7.6-1.2.6-.7 0-1.4-.5-2-1.4-.5.5-1 1.1-1.6 1.6l-1.3-1.2c.8-.8 1.5-1.5 2-2.2-.5-1.3-.8-3.1-.9-5.3h-.7v4.6l.8-.3.2 1.9zm5-8.5l-1.6.7c-.2-.5-.6-1.1-1.2-2l1.5-.7c.5.7 1 1.4 1.3 2zM338.9 256.6h-3.7v1h-2.1v-11.3h1.9l.7-2.5 2.2.3-.8 2.2h1.9v10.3zm-2.1-6.1v-2.6h-1.6v2.6h1.6zm0 4.4V252h-1.6v2.9h1.6zm5.4 3.9l-.3-2h2.1c.5 0 .8-.2.9-.7.1-.5.2-1.4.2-2.6v-6h-3.3c-.3.9-.7 1.7-1.2 2.5l-1.8-.8c.5-1.2.9-2.2 1.1-3 .2-.8.4-1.7.6-2.5l2.2.2c-.1.6-.2 1.3-.4 1.9h4.9v1.9c0 3.5 0 5.7-.1 6.6-.1 1.5-.2 2.5-.4 2.9-.2.4-.5.8-.8 1s-.7.4-1.1.5c0 0-.9.1-2.6.1zm1.7-4.9l-2.1.7c-.6-1.9-1.2-3.4-1.7-4.4l1.9-.7c.6.9 1.2 2.4 1.9 4.4zM353.6 255c-1 .4-2.4.8-4.2 1.3l-.4-2.1c.6-.1 1.2-.2 1.8-.4V249h-1.5v-1.7h1.5v-3.4h2.2v3.4h1.2v1.7H353v4.3c.5-.1.9-.3 1.3-.4v.5c.7-.6 1.2-1.2 1.6-1.7h-1.6v-1.6h11.1v1.6h-7.2c-.2.3-.3.5-.5.7h7.2v2.8c0 .5-.1 1.1-.2 1.7s-.4 1.1-.8 1.3c-.4.3-.9.4-1.5.4h-1.6l-.3-1.8h1.1c.2 0 .4-.1.6-.2.2-.1.3-.4.4-1s.1-1.1.1-1.8h-.2c-.9 1.9-2.4 3.5-4.5 4.8l-1.2-1.1c1.5-1.1 2.7-2.3 3.6-3.6h-1c-.5.9-1.3 1.7-2.3 2.6-1 .9-1.9 1.5-2.7 1.9l-1.1-1.3c1.5-.9 2.8-2 3.9-3.2h-.9c-.6.6-1.3 1.2-2.1 1.7l-.6-.6zm10.7-5.6h-9V244h9v5.4zm-2.1-3.2v-.8h-4.7v.8h4.7zm0 1.9v-.8h-4.7v.8h4.7z"/><path class="st3" d="M14.6 325.5v-1.7H2.1v1.7H.9v-2.6h6.6v-1.2h1.4v1.2h6.8v2.6h-1.1zm-.8 10.8h-11v.5H1.5v-6.1H15v6.1h-1.3v-.5zm-6.2-4.6H2.8v1.4h4.8v-1.4zm-4.8 3.7h4.8V334H2.8v1.4zm.1-5.7v-3h10.9v3H2.9zm.5-4v-.9h9.9v.9H3.4zm9.2 1.8H4v1.3h8.5v-1.3zm1.2 5.5v-1.4H8.9v1.4h4.9zm-4.9 2.4h4.9V334H8.9v1.4zM18.3 336.4v-1.1h6.1v-7.6h-6.7v-1.1h6.7V322h1.4v4.7H33v1.1h-7.2v7.6h6.3v1.1H18.3zM36.6 325.7c-.6.4-1.3.8-2 1.2l-.6-.8c1-.5 2-1.2 3.1-2.1 1-.9 1.8-1.7 2.4-2.5l1.3.3c-.3.4-.5.7-.7.9h5.8l.3.4c-.4.6-1.1 1.4-2 2.4h4.6v6.1H36v-1h11.5V329H36.3v-1h11.2v-1.6H36.6v-.7zm-1.1 10.9l-1.1-.6c.6-.8 1.2-1.9 1.6-3.2l1.2.3c-.4 1.3-.9 2.5-1.7 3.5zm3.7-13c-.6.6-1.4 1.2-2.2 1.8h5.8c.4-.4.8-1 1.4-1.8h-5zm-.7 8.7h1.3v2.5c0 .3.1.5.4.6.2.1.9.1 2 .1h1.2c.7 0 1.2-.1 1.3-.2.2-.1.3-.3.3-.7 0-.3.1-.7.1-1.2l1.1.1v1.7c0 .5-.2.9-.7 1.1-.5.2-1.6.3-3.4.3h-1.4c-.5 0-.8-.1-1.1-.1-.2 0-.5-.1-.6-.2-.2-.1-.3-.3-.4-.5-.1-.2-.1-.4-.1-.6v-2.9zm4 1.9c-.3-.4-.8-1.1-1.5-2l1-.5c.4.5 1 1.1 1.6 1.9l-1.1.6zm6.6 2c-.2-.4-.6-1-1-1.7-.5-.7-.9-1.2-1.2-1.6l1.1-.6c.9 1 1.7 2.1 2.3 3.2l-1.2.7zM57.2 323.1c-.1 3.3-.6 5.9-1.5 7.9s-2.3 3.8-4 5.2l-.8-.9c.6-.6 1.2-1.2 1.7-1.8s.9-1.2 1.3-1.9.7-1.4 1-2.1c.3-.7.5-1.6.7-2.7.2-1.1.3-2.3.3-3.8h1.3zm10.5 12.1l-1.1.9c-.9-.9-1.7-2.1-2.5-3.6-.7-1.5-1.3-3.1-1.6-4.9-.3-1.8-.5-3.4-.5-4.6h1.4v.1c0 2.4.3 4.6 1 6.7.8 2.1 1.8 3.9 3.3 5.4zM78.5 336.7H77v-8.3c-2.4 1.3-5 2.3-7.8 2.9l-.4-1.1c3.6-.9 6.4-2.1 8.5-3.5 2.1-1.4 3.6-2.8 4.7-4.3l1.4.5c-1 1.5-2.6 3-4.8 4.5v9.3zM100.1 327.4c-.1 1-.1 1.8-.3 2.3-.1.5-.4 1.3-.9 2.3-.5 1-1.2 1.8-2.1 2.5-.9.7-2 1.2-3.4 1.6-1.3.4-2.9.6-4.8.6l-.2-1.2c3.1-.1 5.5-.7 7.2-1.8 1.6-1.1 2.6-2.8 2.9-5.1H86.6v-1.2h13.5zm-.5-3H87.2v-1.2h12.3v1.2zM118 328.4c-.9 1.6-2.1 3-3.6 4.2-1.5 1.2-3 2.1-4.6 2.6-1.6.6-3.5 1-5.7 1.2l-.3-1.3c1.8-.2 3.4-.5 4.8-1s2.6-1.1 3.6-1.7 1.8-1.4 2.5-2c.7-.7 1.4-1.6 2.1-2.8l1.2.8zm-7.3-2.1l-.9 1.1c-2-1.2-3.9-2.2-5.9-3.1l.7-1c2.1.8 4.1 1.8 6.1 3zM134.7 330.8l-.9 1.2c-1.2-.8-2.5-1.5-4.1-2.3-1.6-.7-3-1.3-4.3-1.7v8.8h-1.5v-14.5h1.5v4.4c3.3 1 6.4 2.3 9.3 4.1zm-3.2-5.3l-1 .4c-.4-.9-.8-1.7-1.2-2.3l.9-.4c.5.7.9 1.5 1.3 2.3zm2.4-.5l-.9.4c-.4-.8-.8-1.6-1.2-2.3l.9-.4c.4.6.8 1.4 1.2 2.3zM142.8 329.9c0-.4.1-.8.4-1.1s.7-.4 1.1-.4.8.2 1.1.4.4.7.4 1.1c0 .4-.1.8-.4 1.1s-.7.4-1.1.4-.8-.1-1.1-.4-.4-.7-.4-1.1zM155.8 329.3c-.6-.6-1.5-1.4-2.7-2.2l.8-.9c1 .7 1.9 1.4 2.7 2.1l-.8 1zm-1.3 7.3l-1.1-.7c.4-.5 1-1.4 1.6-2.5s1.1-2.1 1.4-2.9l1.1.4c-.2.7-.6 1.6-1.2 2.7s-1.2 2.1-1.8 3zm2.4-11.3c-1.1-.9-2-1.7-2.7-2.2l.9-.9c1.2.8 2.1 1.6 2.7 2.1l-.9 1zm9.4 11.6h-2.5l-.2-1.2h2.4c.4 0 .7-.2.7-.6v-11.5H158v-1.1h11.3v1.1H168v11.8c0 1-.6 1.5-1.7 1.5zm-6.2-4.4v.9h-1.2v-7.3h5.6v6.4h-4.4zm3.1-5.4h-3.1v4.5h3.1v-4.5zM183.7 335.1h-10.9v1.3h-1.3v-13.2H185v13.2h-1.4v-1.3zm-10.9-1.1h10.9v-9.8h-10.9v9.8zM189.1 329.1c-.5-.7-1.1-1.5-1.9-2.4l1-.7c.5.5 1.1 1.3 1.9 2.3l-1 .8zm-.6 7.4l-1.1-.7c.3-.6.7-1.4 1.1-2.6.4-1.1.8-2.1 1-3l1.1.5c-.6 2.5-1.3 4.5-2.1 5.8zm1.3-11.4l-1.9-2.3.9-.7c.1.1.7.8 1.9 2.3l-.9.7zm2.8 10.5v.7h-1.2v-7.1h1.8v-3.3h-2v-1h2V322h1.3v2.9h2.1v1h-2.1v3.3h1.7v6.5h-3.6zm0-.9h2.4v-4.6h-2.4v4.6zm8.8-3.7h-2.6c-.2 2.7-.8 4.7-1.6 6l-.9-.6c.5-.9.8-1.9 1-3.1.2-1.2.4-2.5.4-3.8v-7h5v13.1c0 .3-.1.6-.4.8-.3.2-.6.3-1 .3h-1.6l-.1-1.1h1.3c.4 0 .6-.2.6-.5V331zm-2.5-1h2.6v-3H199v1.9c-.1.4-.1.7-.1 1.1zm0-3.8h2.5v-2.8h-2.5v2.8zM204.9 336.3l-.9-.4c.4-1.2.6-2.5.7-3.8l.9.1c0 .5-.1 1.2-.2 2.1-.2.9-.3 1.5-.5 2zm4.3-6.3h2.3c0 1.8-.1 3.1-.2 4.1-.1 1-.2 1.6-.4 1.9-.2.3-.4.5-.7.7s-.8.3-1.3.3h-1.4l-.1-1c.9 0 1.4 0 1.7-.1.2 0 .4-.1.6-.3.2-.2.3-.4.4-.7.1-.3.1-.7.2-1.3s0-1.4 0-2.6h-4.1v.3h-1.1v-8.8h6.5v.9h-2.4v1.6h1.9v.9h-1.9v1.5h2v.9h-2v1.7zm-2.8 5.1l-.2-3 .7-.1.2 3-.7.1zm-.2-11.7v1.6h1.9v-1.6h-1.9zm0 2.5v1.5h1.9v-1.5h-1.9zm0 2.5v1.6h1.9v-1.6h-1.9zm1.8 6l-.4-2.6.6-.1.4 2.6-.6.1zm1.2-.8l-.4-2 .5-.1.4 2-.5.1zm10.7 3.3c-1-.9-1.9-2.1-2.5-3.5-.7-1.4-1.1-2.9-1.3-4.5h-1.7c0 1.6-.2 3.1-.6 4.6-.4 1.5-.8 2.6-1.4 3.4l-.9-.6c.5-.7.9-1.8 1.2-3.2.3-1.4.4-3 .4-4.7v-5.9h6.6v6.5h-2.4c.2 1.3.5 2.5 1.2 3.8s1.4 2.4 2.3 3.2l-.9.9zm-1.6-13.5h-4v4.6h4v-4.6zM227.8 329.9c0-.4.1-.8.4-1.1s.7-.4 1.1-.4.8.2 1.1.4.4.7.4 1.1c0 .4-.1.8-.4 1.1s-.7.4-1.1.4-.8-.1-1.1-.4-.4-.7-.4-1.1zM252.6 325.5v-1.7h-12.5v1.7h-1.2v-2.6h6.6v-1.2h1.4v1.2h6.8v2.6h-1.1zm-.8 10.8h-11v.5h-1.3v-6.1H253v6.1h-1.3v-.5zm-6.2-4.6h-4.8v1.4h4.8v-1.4zm-4.8 3.7h4.8V334h-4.8v1.4zm.1-5.7v-3h10.9v3h-10.9zm.5-4v-.9h9.9v.9h-9.9zm9.2 1.8H242v1.3h8.5v-1.3zm1.2 5.5v-1.4h-4.9v1.4h4.9zm-4.9 2.4h4.9V334h-4.9v1.4zM256.3 336.4v-1.1h6.1v-7.6h-6.7v-1.1h6.7V322h1.4v4.7h7.2v1.1h-7.2v7.6h6.3v1.1h-13.8zM273.4 336.8v-11.7h1.3v9.7h4.8v-12.3h1.3v12.3h4.9v-9.7h1.3v11.7h-1.3v-1h-11.1v1h-1.2zM289.9 336.3l-.9-.4c.4-1.2.6-2.5.7-3.8l.9.1c0 .5-.1 1.2-.2 2.1-.2.9-.3 1.5-.5 2zm4.3-6.3h2.3c0 1.8-.1 3.1-.2 4.1-.1 1-.2 1.6-.4 1.9-.2.3-.4.5-.7.7s-.8.3-1.3.3h-1.4l-.1-1c.9 0 1.4 0 1.7-.1.2 0 .4-.1.6-.3.2-.2.3-.4.4-.7.1-.3.1-.7.2-1.3s0-1.4 0-2.6h-4.1v.3h-1.1v-8.8h6.5v.9h-2.4v1.6h1.9v.9h-1.9v1.5h2v.9h-2v1.7zm-2.8 5.1l-.2-3 .7-.1.2 3-.7.1zm-.2-11.7v1.6h1.9v-1.6h-1.9zm0 2.5v1.5h1.9v-1.5h-1.9zm0 2.5v1.6h1.9v-1.6h-1.9zm1.8 6l-.4-2.6.6-.1.4 2.6-.6.1zm1.2-.8l-.4-2 .5-.1.4 2-.5.1zm10.7 3.3c-1-.9-1.9-2.1-2.5-3.5-.7-1.4-1.1-2.9-1.3-4.5h-1.7c0 1.6-.2 3.1-.6 4.6-.4 1.5-.8 2.6-1.4 3.4l-.9-.6c.5-.7.9-1.8 1.2-3.2.3-1.4.4-3 .4-4.7v-5.9h6.6v6.5h-2.4c.2 1.3.5 2.5 1.2 3.8s1.4 2.4 2.3 3.2l-.9.9zm-1.6-13.5h-4v4.6h4v-4.6z"/><g><path class="st3" d="M27.2 110.5v-1.1h6.6V96.2h1.4v4.6h6.1v1.1h-6.1v7.6h7.4v1.1H27.2zM44.1 98v-1H51v-1.2h1.4V97h7v1H44.1zm13.4 12.8h-1.9l-.2-1.1h1.5c.4 0 .7-.2.7-.6v-4.6H46.1v6.3h-1.3v-7.3h14.1v6c0 .4-.1.6-.4.8-.3.4-.6.5-1 .5zm-11.1-8.4v-3.2h11v3.2h-11zm9.7-2.3h-8.5v1.5h8.5v-1.5zm-6.6 9.2v.4h-1.2v-3.9h7v3.5h-5.8zm4.5-2.7h-4.5v1.7H54v-1.7zM60.8 108.2l-.3-1.1c.7-.1 1.4-.3 2.1-.4v-6.2H61v-1h1.7V96h1.2v3.5h1.5v1h-1.5v5.9c.9-.2 1.5-.4 2-.5l.1 1c-1.1.4-2.8.8-5.2 1.3zm5.9-6.5l-1.4.4-.2-1 1.6-.4v-4H68v3.7l2.5-.7v-3.8h1.3v3.4l3.6-1 .4.3v6.3c0 .5-.1.8-.4 1.1-.3.3-.7.4-1.2.4h-1.4l-.2-1.1h1.2c.5 0 .8-.2.8-.7v-5.1l-2.7.8v7.4h-1.3v-7.1l-2.5.7v7.3c0 .4.2.7.5.8.4.1 1.3.2 2.9.2.7 0 1.4 0 2.2-.1.7 0 1.2-.1 1.4-.1.2-.1.3-.1.4-.3.1-.1.2-.4.2-.8s.1-.9.1-1.4l1.1.1v2c0 .3-.1.5-.2.7s-.4.4-.6.5c-.3.1-.5.2-.8.2-.3 0-.8.1-1.5.1H69.9c-.8 0-1.4-.1-1.8-.1s-.7-.2-.9-.5c-.2-.3-.4-.6-.4-1v-7.2zM13.8 130.6h-2.2l-.2-1.1h1.8c.5 0 .7-.2.7-.6V126h-4v6H8.6v-6H4.7v4.7H3.4V125h5.2v-2.1H2.9v1.7H1.7v-2.7h4.2l-1.2-2.6H2v-1h6.6v-1.5H10v1.5h6.8v1h-2.7l-1.4 2.6H17v2.7h-1.2v-1.7H9.9v2.1h5.4v4.2c0 .4-.2.7-.5 1-.2.2-.6.4-1 .4zm-7.7-11.3l1.1 2.6h4.2l1.3-2.6H6.1zM32.2 131.2H20.3v.7h-1.2v-14.5h14.3v14.5h-1.2v-.7zm-11.9-.9h11.9v-11.9H20.3v11.9zm1.2-1.6v-1h4v-3.4h-3.3v-.9h3.3v-2.6h-3.7v-.8h9.1v.9h-4.1v2.6h3.6v.9h-3.6v3.4h4.4v1h-9.7zm7.6-1.4c-.3-.5-.7-1.2-1.3-2l.9-.5c.3.4.8 1.1 1.4 1.9l-1 .6zM40.4 123.5c-.9 2.9-2.3 5.2-4.4 7l-1-.8c1.1-1 2-2.1 2.6-3.4.7-1.2 1.1-2.3 1.3-3.1l1.5.3zm3.7 8.2h-1.5v-10.2h-6.9v-1.2h6.9v-2.8h1.5v2.8h6.8v1.2h-6.8v10.2zm7.6-2.1l-1.1.9c-.9-.8-1.7-2-2.5-3.3s-1.3-2.6-1.7-3.7l1.4-.3c.7 2.3 2.1 4.5 3.9 6.4zM61.6 124.6c0 1.4-.2 2.5-.7 3.4-.5.9-1.2 1.6-2.2 2.2-1 .6-2.3 1.1-3.8 1.4l-.4-1.2c1.7-.4 3.1-1 4.1-1.8 1-.9 1.5-2.1 1.5-3.7v-.9h-7.5v-1.2h15.5v1.2h-6.5v.6zm5.5-5.1H53.6v-1.2h13.5v1.2zM74 122.2c0 1.3-.1 2.4-.2 3.2-.1.8-.4 1.6-.8 2.4-.4.8-.9 1.5-1.6 2.2-.6.7-1.3 1.2-2 1.5l-.6-1.1c.7-.4 1.3-1 1.9-1.7.6-.7 1-1.5 1.4-2.5s.5-2.4.5-4.4v-3.5H74v3.9zm11.8 3c-.7 1.5-1.8 2.8-3.3 3.9-1.5 1.1-2.9 1.9-4.4 2.3l-.6-.6v-12.9H79v11.7c.9-.3 1.9-.8 3-1.7 1.1-.9 2-2 2.9-3.5l.9.8zM91 119c-.4-.8-.8-1.4-1-1.9l1.3-.3c.4.7.8 1.5 1.2 2.2h3.8c.5-1.1.9-1.8 1.1-2.2l1.4.3c-.3.6-.7 1.2-1.1 1.9h4.5v1H86.6v-1H91zm1.8 9h-4v3.9h-1.2v-10.4h6.5v9.2c0 .4-.1.6-.4.9-.3.2-.6.3-1 .3H91l-.2-1.1h1.3c.2 0 .3-.1.5-.2.1-.1.2-.2.2-.4V128zm0-3.7v-1.9h-4v1.9h4zm-4 2.7h4v-1.8h-4v1.8zm7.3 1.7v-6.8h1.3v6.8h-1.3zm3.4 3.1h-2.2l-.1-1.1H99c.2 0 .3-.1.5-.2s.2-.3.2-.4V121h1.3v9.6c0 .4-.1.7-.4.9s-.7.3-1.1.3z"/></g><g><path class="st3" d="M183.8 391.2h-8v.7h-1.3v-5c-1.2.6-2.3 1.2-3.5 1.7l-.6-1c2.3-.9 4.3-2 6-3.2l.3-.2c-.9-.7-2-1.5-3.3-2.4-.8.6-1.6 1.1-2.4 1.6l-.7-.8c1.5-.9 2.8-1.9 4-3 1.2-1.1 2-2 2.4-2.8l1.3.3c-.2.4-.6.8-1 1.4h5.9l.5.4c-1.2 2.1-3.2 4.2-6.2 6.3h7.9v6.7h-1.3v-.7zm-9.4-10.2c1.5 1 2.6 1.7 3.4 2.3 1.8-1.4 3.1-2.7 3.8-4h-5.5c-.5.6-1.1 1.2-1.7 1.7zm1.4 9.1h8v-4h-8v4zM200.3 391h-10.1v.8h-1.3v-7.3h5.6v-3.6h-7v-1h7V377h1.4v2.9h7.2v1h-7.2v3.6h5.8v7.3h-1.3v-.8zm-10.1-1h10.1v-4.5h-10.1v4.5zM207.1 380.7v2.1c0 3.7-.7 6.7-2.2 8.9l-.9-.6c.5-.9 1-2 1.3-3.3.3-1.4.5-2.7.5-4.1v-6.4H219v3.4h-11.9zm-.3 10.9v-1.1h5.8v-1.9h-4.5v-1h4.5V386l-4.3.1-.2-1.1h2.1c.5-.7.9-1.4 1.2-2.1h-3.6v-1h11.9v1h-6.9c-.4.7-.8 1.3-1.3 2 2.5 0 4.3-.1 5.4-.2-.6-.6-1.1-1-1.3-1.2l.9-.5c1 .7 2 1.6 3.1 2.7l-1 .6-.8-.8c-.9.1-2.2.1-3.9.2v1.7h5v1h-5v1.9h6v1.1h-13.1zm.3-11.8h10.7v-1.5h-10.7v1.5z"/></g><g><path class="st3" d="M3 393v-6.9c-.8.7-1.6 1.4-2.4 1.9l-.6-.9c1.2-.8 2.2-1.7 3.2-2.8s1.7-2.2 2.1-3.1H.7v-1h2.4v-2.3h1.3v2.3h2.2l.4.4c-.5 1.4-1.4 2.8-2.6 4.2v.1c.6.6 1.5 1.2 2.5 1.8l-.5 1.1c-.8-.6-1.4-1.1-2-1.6v6.8H3zm7.9-.2V388H8.6v.8H7.4v-9H11v-2h1.3v2h3.6v9h-1.3v-.8h-2.4v4.8h-1.3zm-2.3-9.4h2.3v-2.6H8.6v2.6zm2.3.9H8.6v2.7h2.3v-2.7zm1.3-.9h2.4v-2.6h-2.4v2.6zm2.4.9h-2.4v2.7h2.4v-2.7zM30.5 387.3v-.5h-9.9c-.1 2.4-.8 4.5-2.4 6.3l-.9-.6c.8-1 1.4-2 1.6-3.1.3-1.1.4-2.4.4-3.9v-3.7h12.4v5.7h-1.2zM18 379.5v-1h15v1H18zm12.5 3.1h-9.9v3.2h9.9v-3.2zM34.9 392.1V391h14.7v1.1H34.9zm.8-11.8v-1h13.1v1H35.7zm1 5.5v-1.1h11.1v1.1H36.7zM65.6 382.1v-2H53.1v2h-1.2v-3h6.8v-1.4H60v1.4h6.9v2.9h-1.3zm-1 10.1H54.2v.7h-1.3v-5.4h4.8l.8-1.8h-4.2v-4.2h10.2v4.2h-4.7l-.9 1.8h7v5.4h-1.3v-.7zm-10.4-.9h10.4v-2.8H54.2v2.8zm9-8.8h-7.8v2.3h7.8v-2.3z"/></g><g><path class="st3" d="M406.6 16.7l-.6-.7c.6-.4 1.2-1.1 2-1.9.8-.8 1.3-1.6 1.7-2.3h-3v-1h3.1V9.1h-3.3v-1h1.8l-.7-2.6h-.9v-1h3.1V2.9h1.2v1.6h3v1h-.8l-.9 2.6h1.8v1H411v1.7h2.7v1H411v.3c.7.7 1.5 1.4 2.6 2.1l-.6 1c-.8-.6-1.5-1.2-2-1.7V18h-1.3v-4.4c-1.1 1.5-2.1 2.5-3.1 3.1zm2.2-11.2l.6 2.6h1.9l.7-2.6h-3.2zm10.3 12.3V9.2h-2.7v.8c0 3.3-.8 5.9-2.5 7.9l-.9-.7c.7-.8 1.2-1.8 1.5-3.1.4-1.3.6-2.6.6-4V4.3c2.8-.4 4.8-.8 6.2-1.3l.7 1c-1.5.5-3.4.8-5.6 1.1v3.1h6.1v1h-2.1v8.6h-1.3zM425.4 10.3c-.3-.4-1.1-1.2-2.2-2.3l.9-.8c.9.8 1.6 1.5 2.2 2.2l-.9.9zm-.9 7.1l-1-.7c.4-.6.9-1.3 1.3-2.4.5-1 .8-2 1.1-2.9l1.1.4c-.2.7-.6 1.7-1.1 2.9-.5 1.2-1 2.1-1.4 2.7zm1.9-10.9c-.3-.3-1-1.1-2.2-2.3l.9-.7c.5.5 1.3 1.2 2.3 2.2l-1 .8zm1.3 7.2l-.6-.7c1.3-1.1 2.3-2.3 3-3.4h-1.6V3.8c1.7-.4 2.9-.7 3.5-.9l.7.9c-.8.3-1.8.5-2.9.7v1.6h2.8V7h-2.8v1.8h7.1V7H434v-.9h2.8V4.4H434v-.9h4v6.2h-6.6c-.3.5-.6 1-1 1.5h8v.4c0 1.4-.1 2.6-.2 3.5-.1.9-.2 1.5-.4 1.8-.1.3-.4.5-.6.7s-.5.3-.7.3c-.2 0-1 .1-2.4.1l-.2-1.1h1.5c.6 0 1-.3 1.3-.9.2-.6.3-1.6.3-2.9v-.9h-7.5c-.6.6-1.3 1.2-1.8 1.5zm.6 3.7l-1.1-.4c.5-.8 1-1.9 1.5-3.4l1.1.2c-.4 1.2-.9 2.4-1.5 3.6zm2.7-.6c-.2-1.6-.4-2.7-.5-3.2l1-.2c.3 1.3.5 2.3.6 3.1l-1.1.3zm2.4-1l-.9-2.5 1-.3c.3.6.6 1.5.9 2.4l-1 .4zm2.2-1c-.2-.5-.6-1.2-1-1.9l.8-.3c.3.5.7 1.1 1.1 1.8l-.9.4zM440.9 17.3l-.9-.4c.4-1.2.6-2.5.7-3.8l.9.1c0 .5-.1 1.2-.2 2.1-.2.9-.3 1.5-.5 2zm4.3-6.3h2.3c0 1.8-.1 3.1-.2 4.1-.1 1-.2 1.6-.4 1.9-.2.3-.4.5-.7.7-.3.2-.8.3-1.3.3h-1.4l-.1-1c.9 0 1.4 0 1.7-.1.2 0 .4-.1.6-.3.2-.2.3-.4.4-.7.1-.3.1-.7.2-1.3V12h-4.1v.3h-1.1V3.5h6.5v.9h-2.4V6h1.9v.9h-1.9v1.5h2v.9h-2V11zm-2.8 5.1l-.2-3 .7-.1.2 3-.7.1zm-.2-11.7V6h1.9V4.4h-1.9zm0 2.5v1.5h1.9V6.9h-1.9zm0 2.5V11h1.9V9.4h-1.9zm1.8 6l-.4-2.6.6-.1.4 2.6-.6.1zm1.2-.8l-.4-2 .5-.1.4 2-.5.1zm10.7 3.3c-1-.9-1.9-2.1-2.5-3.5-.7-1.4-1.1-2.9-1.3-4.5h-1.7c0 1.6-.2 3.1-.6 4.6-.4 1.5-.8 2.6-1.4 3.4l-.9-.6c.5-.7.9-1.8 1.2-3.2.3-1.4.4-3 .4-4.7V3.5h6.6V10h-2.4c.2 1.3.5 2.5 1.2 3.8s1.4 2.4 2.3 3.2l-.9.9zm-1.6-13.5h-4V9h4V4.4zM462 5c-.4-.8-.8-1.4-1-1.9l1.3-.3c.4.7.8 1.5 1.2 2.2h3.8c.5-1.1.9-1.8 1.1-2.2l1.4.3c-.3.6-.7 1.2-1.1 1.9h4.5v1h-15.5V5h4.3zm1.8 9h-4v3.9h-1.2V7.5h6.5v9.2c0 .4-.1.6-.4.9-.3.2-.6.3-1 .3H462l-.2-1.1h1.3c.2 0 .3-.1.5-.2.1-.1.2-.2.2-.4V14zm0-3.7V8.4h-4v1.9h4zm-4 2.7h4v-1.8h-4V13zm7.3 1.7V7.9h1.3v6.8h-1.3zm3.4 3.1h-2.2l-.1-1.1h1.8c.2 0 .3-.1.5-.2.1-.1.2-.3.2-.4V7h1.3v9.6c0 .4-.1.7-.4.9s-.7.3-1.1.3z"/></g><g><path class="st3" d="M411 124c-.4-.8-.8-1.4-1-1.9l1.3-.3c.4.7.8 1.5 1.2 2.2h3.8c.5-1.1.9-1.8 1.1-2.2l1.4.3c-.3.6-.7 1.2-1.1 1.9h4.5v1h-15.5v-1h4.3zm1.8 9h-4v3.9h-1.2v-10.4h6.5v9.2c0 .4-.1.6-.4.9-.3.2-.6.3-1 .3H411l-.2-1.1h1.3c.2 0 .3-.1.5-.2.1-.1.2-.2.2-.4V133zm0-3.7v-1.9h-4v1.9h4zm-4 2.7h4v-1.8h-4v1.8zm7.3 1.7v-6.8h1.3v6.8h-1.3zm3.4 3.1h-2.2l-.1-1.1h1.8c.2 0 .3-.1.5-.2.1-.1.2-.3.2-.4V126h1.3v9.6c0 .4-.1.7-.4.9s-.7.3-1.1.3zM423.8 133.2l-.8-.6c.5-.7 1-1.6 1.5-2.9s.9-2.5 1.1-3.6h-2v-1h2.2v-3.3h1.2v3.3h1.5v1H427v1.6c.6.7 1.2 1.4 1.8 1.9l-.6 1c-.4-.4-.9-.9-1.2-1.4v7.7h-1.2v-7.8c-.6 1.8-1.3 3.1-2 4.1zm6.9-5.8c-.6.4-1.2.8-1.9 1.2l-.5-.7c1.2-.5 2.2-1.4 3.3-2.5h-2.4v-.9h3.1c.3-.4.5-.8.7-1.1-1.1.1-2 .1-2.9.1l-.2-.9c1 0 2.3-.1 4-.3 1.6-.2 2.8-.3 3.5-.5l.5.9c-.9.2-2.1.3-3.6.5-.2.4-.4.9-.7 1.2h5.5v.9h-2.8c1 1 2.2 1.8 3.6 2.4l-.7.8c-.6-.3-1.2-.7-2-1.3v2.1h-6.4v-1.9zm6.8 9.5h-1.4l-.2-1h1c.4 0 .6-.2.6-.5v-4h-7.2v5.6h-1.2v-6.5h9.6v5.3c0 .3-.1.6-.4.8-.1.2-.4.3-.8.3zm-4.6-11.5l-1.2 1.2h4.5c-.5-.4-.9-.8-1.2-1.2h-2.1zm3.1 1.9h-4.3v1.4h4.3v-1.4zm-3.2 8v.2h-1v-3.3h4.2v3h-3.2zm2.2-2.2h-2.2v1.5h2.2v-1.5zM440.9 136.3l-.9-.4c.4-1.2.6-2.5.7-3.8l.9.1c0 .5-.1 1.2-.2 2.1-.2.9-.3 1.5-.5 2zm4.3-6.3h2.3c0 1.8-.1 3.1-.2 4.1-.1 1-.2 1.6-.4 1.9-.2.3-.4.5-.7.7-.3.2-.8.3-1.3.3h-1.4l-.1-1c.9 0 1.4 0 1.7-.1.2 0 .4-.1.6-.3.2-.2.3-.4.4-.7.1-.3.1-.7.2-1.3V131h-4.1v.3h-1.1v-8.8h6.5v.9h-2.4v1.6h1.9v.9h-1.9v1.5h2v.9h-2v1.7zm-2.8 5.1l-.2-3 .7-.1.2 3-.7.1zm-.2-11.7v1.6h1.9v-1.6h-1.9zm0 2.5v1.5h1.9v-1.5h-1.9zm0 2.5v1.6h1.9v-1.6h-1.9zm1.8 6l-.4-2.6.6-.1.4 2.6-.6.1zm1.2-.8l-.4-2 .5-.1.4 2-.5.1zm10.7 3.3c-1-.9-1.9-2.1-2.5-3.5-.7-1.4-1.1-2.9-1.3-4.5h-1.7c0 1.6-.2 3.1-.6 4.6-.4 1.5-.8 2.6-1.4 3.4l-.9-.6c.5-.7.9-1.8 1.2-3.2.3-1.4.4-3 .4-4.7v-5.9h6.6v6.5h-2.4c.2 1.3.5 2.5 1.2 3.8s1.4 2.4 2.3 3.2l-.9.9zm-1.6-13.5h-4v4.6h4v-4.6z"/></g><g><path class="st3" d="M302.5 194v-1h3v-1.3H303v-6h2.5v-1.4h-2.8v-1h2.8v-1.5h1.3v1.5h2.7v1h-2.7v1.4h2.5v6h-2.5v1.3h2.7v1h-2.7v3h-1.3v-3h-3zm1.7-5.7h1.4v-1.7h-1.4v1.7zm1.4.9h-1.4v1.7h1.4v-1.7zm1.1-.9h1.4v-1.7h-1.4v1.7zm1.4.9h-1.4v1.7h1.4v-1.7zm1.4 7.4v-1h3.7v-3.2h-2.9v-1h2.9v-1.9h1.3v1.9h3v1h-3v3.2h3.6v1h-8.6zm4.5-8.9c-1 .7-2.3 1.4-4 2l-.4-.9c1.3-.5 2.4-1.1 3.5-1.8-1.1-.9-1.9-1.9-2.5-2.9l1-.5c.7 1.1 1.5 2 2.4 2.7 1.1-.9 1.8-1.8 2.1-2.8h-5.9v-1h7.2l.4.5c-.5 1.4-1.5 2.8-2.9 4 1.2.7 2.3 1.3 3.5 1.7l-.7 1c-1.2-.4-2.4-1.1-3.7-2zM320.6 196.9l-.7-.8c.9-.6 1.7-1.3 2.2-2 .5-.7.9-1.6 1-2.7h-3.6v-1.1h3.7c0-.5.1-1.4.1-2.6V186h-3.4v-1.1h3.4v-3h1.3v3h5.6v-3h1.3v3h3.2v1.1h-3.2v4.3h3.5v1.1h-3.5v5.4h-1.3v-5.4h-5.8c-.2 1.3-.6 2.4-1.3 3.3-.6.8-1.5 1.6-2.5 2.2zm4-10.9v2c0 .9 0 1.7-.1 2.3h5.7V186h-5.6zM339.8 188.3l-.9 1c-.6-.6-1.5-1.4-2.7-2.2l.8-.9c.9.5 1.8 1.3 2.8 2.1zm.7 2.4c-.3.8-.7 1.8-1.3 3-.6 1.2-1.1 2.1-1.6 2.8l-1.1-.7c.4-.6.9-1.4 1.5-2.6s1-2.1 1.2-2.9l1.3.4zm.5-6.4l-.9 1c-.8-.7-1.7-1.5-2.8-2.3l.8-.8c1.1.6 2 1.3 2.9 2.1zm11.4 11.7l-.8 1c-2.5-1.8-4.1-4.5-4.7-8h-3.5c0 1.2-.3 2.5-.7 4-.4 1.5-1.1 2.8-2 3.9l-.9-.7c.6-.7 1.1-1.8 1.6-3.1.5-1.4.8-3 .8-4.8v-5.7h9.1v6.4h-3c.4 3.1 1.8 5.4 4.1 7zm-2.6-8v-4.4h-6.5v4.4h6.5z"/></g><g><path class="st3" d="M320.6 64v-8.7c-.6 1.1-1.2 2-1.8 2.8l-.8-.7c.8-1.1 1.6-2.6 2.4-4.4.8-1.8 1.2-3.3 1.4-4.3l1.3.2c-.3 1.5-.9 3-1.6 4.7h.4V64h-1.3zm7.8-5.8c-.2 1.3-.5 2.4-1.1 3.3-.6.9-1.4 1.8-2.4 2.6l-.8-.8c.8-.7 1.5-1.5 2-2.3.5-.8.8-1.7 1-2.8h-3.6v-1.1h3.7v-2.9h-4.3v-1h4.3v-2.7H324v-1h9.4v3.8h1.4v1h-1.4V59h-1.3v-.8h-3.7zm.1-3.9v2.8h3.6v-2.9h-3.6zm0-3.8v2.7h3.6v-2.7h-3.6zM335.5 57.3l-.5-.9c2.5-.9 4.5-1.9 6.1-3.2h-5.2v-1h6.7v-1.6c-1.7.1-3.5.1-5.4.2l-.2-1c5.7-.1 9.4-.4 11.3-.8l.6 1c-1.1.2-2.7.4-5.1.5v1.7h6.8v1h-5.4c1.8 1.3 3.9 2.3 6.3 2.9l-.7 1c-2.8-.8-5.1-2.1-7.1-3.8v2.9h-1.3v-2.9c-1.4 1.6-3.8 2.9-6.9 4zm12.6 6h-9.5v.6h-1.3V57h12.1v6.8h-1.3v-.5zm0-3.6V58h-9.5v1.7h9.5zm-9.5 2.6h9.5v-1.7h-9.5v1.7zM354.7 64v-8.8c-.6.9-1.2 1.8-1.9 2.6l-.8-.7c.8-1 1.6-2.4 2.5-4 .8-1.7 1.4-3.1 1.7-4.4l1.2.2c-.3 1.4-.9 2.9-1.8 4.6h.4V64h-1.3zm1.8-.7l-.5-.9c1.1-.6 2.1-1.3 3.1-2.1s1.7-1.6 2.2-2.4h-4.5v-1h4.8v-2h-3.8v-5.3h9.1V55h-4v2h5v1h-4.8c.4.7 1.2 1.4 2.3 2.3 1.1.9 2.2 1.5 3.3 2l-.7 1c-.9-.4-1.9-1-2.9-1.8s-1.8-1.5-2.4-2.2V64h-1.2v-4.6c-1.1 1.5-2.8 2.8-5 3.9zm9.1-12.7h-6.5V54h6.5v-3.4z"/></g><g><path class="st3" d="M459.3 56.8v2.4c0 3.7-.7 6.5-2.2 8.6l-.9-.6c.6-.9 1-2 1.3-3.3s.5-2.7.5-4.1v-6.4h13.3v3.4h-12zm0-.9H470v-1.6h-10.8v1.6zm.4 8.7l-.1-1 4.5-.3v-1.7l-3.9.3V61l4-.3v-1.5c-1.5.2-2.8.3-3.8.3l-.2-.9c1.4-.1 3-.2 4.8-.5 1.9-.3 3.3-.5 4.2-.8l.6 1c-.9.3-2.4.5-4.4.8v1.6l5.8-.4v.9l-5.9.4v1.6l6.3-.4.1 1-6.3.5V66c0 .3.1.5.3.6s.9.1 1.9.1h1.5c.5 0 .8-.1.9-.1.1 0 .2-.1.3-.2.1-.1.1-.3.2-.5 0-.2.1-.7.1-1.4l1.1.2v1.8c0 .2-.1.4-.2.6-.1.2-.3.3-.5.4-.2.1-.5.2-.7.2H466.4c-.5 0-.8 0-1.1-.1-.2 0-.4-.1-.6-.2-.2-.1-.3-.3-.4-.4s-.1-.4-.1-.6v-2.2l-4.5.4zM474.9 60.1c-.5-.7-1.1-1.5-1.9-2.4l.9-.7c.8.9 1.4 1.6 1.9 2.3l-.9.8zm.4-4c-.3-.4-.9-1.2-1.9-2.3l.9-.7c.8.8 1.4 1.6 1.9 2.3l-.9.7zm-1 11.4l-.9-.7c.7-1.2 1.4-3 2-5.3l1.1.3c-.7 2.4-1.4 4.3-2.2 5.7zm2.3-1l-.7-.7c.6-.6 1.2-1.4 1.7-2.3.6-.9 1-1.7 1.2-2.4h-2.1v-4.3h2.3v-1.4h-2.4v-.9h2.4v-1.7h1.1v1.7h2.5v.9h-2.5v1.4h2.3v4.3H480v.2c.5.8 1.2 1.6 2.2 2.5l-.6.8c-.5-.5-1.1-1.1-1.6-1.9V68h-1v-4.8c-.7 1.3-1.5 2.4-2.4 3.3zm2.5-8.8h-1.4v2.7h1.4v-2.7zm2.3 0H480v2.7h1.4v-2.7zm1 10.3l-.5-.8c1-.5 1.9-1.2 2.7-2l.8.8c-.4.4-.9.8-1.5 1.2s-1.1.6-1.5.8zm1.2-3.2v-8.9h1.6l.4-1.7h-2.5v-.9h6.1v.9h-2.4l-.6 1.7h2.6v8.9h-5.2zm4.1-8.1h-2.9v1.8h2.9v-1.8zm-3 4.4h2.9v-1.8h-2.9v1.8zm3 .9h-2.9v2h2.9v-2zm1.4 6c-.9-.5-1.7-1.1-2.5-2l.7-.7c.8.8 1.6 1.4 2.4 1.9l-.6.8z"/></g><g><path class="st3" d="M280.8 87v1h-1.2v-1H275v1.1h-1.2V87h-4.3v-.9h4.3V85h1.2v1.1h4.5V85h1.2v1.1h4.3v.9h-4.2zm-4.3 13v-2.7h-7v-1h7v-1.5H271v-6.1h12.6v6.1h-5.8v1.5h7.2v1h-7.2v2.7h-1.3zm-4.2-8.8h10.1v-1.6h-10.1v1.6zm10.1.9h-10.1v1.8h10.1v-1.8zM288.4 92.1c-.7-.8-1.5-1.5-2.3-2.2l.9-.9c.8.6 1.6 1.3 2.4 2.1l-1 1zm-.9 7.3l-1.1-.8c.4-.6.9-1.5 1.4-2.6.5-1.1.9-2.1 1.2-2.9l1.1.4c-.3.8-.6 1.8-1.2 3s-.9 2.2-1.4 2.9zm1.9-11.3c-.7-.7-1.5-1.5-2.4-2.2l.9-.8c1.1.9 1.9 1.6 2.4 2.2l-.9.8zm.8 9.3v-1.1h5v-1.7H291v-1h4.2V92h-3.9v-1h3.9v-1.7h-4.9v-.9h4.9v-1.6h-3.8v-1h3.8v-1.2h1.3v1.2h4.3v2.6h1.4v.9h-1.4V92h-4.3v1.6h5v1h-5v1.7h5.4v1.1h-5.4v2.6h-1.3v-2.6h-5zm6.3-10.5v1.6h3.1v-1.6h-3.1zm0 2.5v1.7h3.1v-1.7h-3.1z"/></g><g><path class="st3" d="M26 16.5c.3-.6.8-1.8 1.4-3.4l1.4.3c-.3.7-.9 1.8-1.5 3.1h3.3v1H16.1v-1h3.1c-.5-1.5-.9-2.5-1.2-3.1l1.3-.3 1.3 3.4h2V12h-5.9v-1h5.9V8.5h-3.3v-1c-1.2.8-2.4 1.5-3.5 2.1l-.6-.9c1.1-.4 2.4-1.3 4-2.5s2.7-2.4 3.3-3.4h1.8c.7 1 1.7 2 3.1 3.1 1.4 1.1 2.8 1.9 4.3 2.5l-.7 1c-1.3-.5-2.6-1.3-4.1-2.5-1.5-1.1-2.6-2.2-3.4-3.2-1 1.3-2.4 2.6-4.1 3.8h8.2v1H24V11h6v1h-6.1v4.4H26zM35.8 9.3l-.9 1c-.6-.6-1.5-1.4-2.7-2.2l.8-.9c.9.5 1.8 1.3 2.8 2.1zm.7 2.4c-.3.8-.7 1.8-1.3 3-.6 1.2-1.1 2.1-1.6 2.8l-1.1-.7c.4-.6.9-1.4 1.5-2.6s1-2.1 1.2-2.9l1.3.4zm.5-6.4l-.9 1c-.8-.7-1.7-1.5-2.8-2.3l.8-.8c1.1.6 2 1.3 2.9 2.1zM48.4 17l-.8 1c-2.5-1.8-4.1-4.5-4.7-8h-3.5c0 1.2-.3 2.5-.7 4-.4 1.5-1.1 2.8-2 3.9l-.9-.7c.6-.7 1.1-1.8 1.6-3.1.5-1.4.8-3 .8-4.8V3.5h9.1V10h-3c.4 3.1 1.8 5.4 4.1 7zm-2.6-8V4.6h-6.5V9h6.5z"/></g><g><path class="st3" d="M111.6 6.5V4.8H99.1v1.7h-1.2V3.9h6.6V2.7h1.4v1.2h6.8v2.6h-1.1zm-.8 10.8h-11v.5h-1.3v-6.1H112v6.1h-1.3v-.5zm-6.2-4.6h-4.8V14h4.8v-1.3zm-4.8 3.7h4.8V15h-4.8v1.4zm.1-5.7v-3h10.9v3H99.9zm.5-4v-.9h9.9v.9h-9.9zm9.2 1.8H101v1.3h8.5V8.5zm1.2 5.5v-1.4h-4.9V14h4.9zm-4.9 2.4h4.9V15h-4.9v1.4zM115.4 17.8V6.1h1.3v9.7h4.8V3.4h1.3v12.3h4.9V6.1h1.3v11.7h-1.3v-1h-11.1v1h-1.2zM131.9 17.3l-.9-.4c.4-1.2.6-2.5.7-3.8l.9.1c0 .5-.1 1.2-.2 2.1-.2.9-.3 1.5-.5 2zm4.3-6.3h2.3c0 1.8-.1 3.1-.2 4.1-.1 1-.2 1.6-.4 1.9-.2.3-.4.5-.7.7s-.8.3-1.3.3h-1.4l-.1-1c.9 0 1.4 0 1.7-.1.2 0 .4-.1.6-.3.2-.2.3-.4.4-.7.1-.3.1-.7.2-1.3s0-1.4 0-2.6h-4.1v.3h-1.1V3.5h6.5v.9h-2.4V6h1.9v.9h-1.9v1.5h2v.9h-2V11zm-2.8 5.1l-.2-3 .7-.1.2 3-.7.1zm-.2-11.7V6h1.9V4.4h-1.9zm0 2.5v1.5h1.9V6.9h-1.9zm0 2.5V11h1.9V9.4h-1.9zm1.8 6l-.4-2.6.6-.1.4 2.6-.6.1zm1.2-.8l-.4-2 .5-.1.4 2-.5.1zm10.7 3.3c-1-.9-1.9-2.1-2.5-3.5-.7-1.4-1.1-2.9-1.3-4.5h-1.7c0 1.6-.2 3.1-.6 4.6-.4 1.5-.8 2.6-1.4 3.4l-.9-.6c.5-.7.9-1.8 1.2-3.2.3-1.4.4-3 .4-4.7V3.5h6.6V10h-2.4c.2 1.3.5 2.5 1.2 3.8s1.4 2.4 2.3 3.2l-.9.9zm-1.6-13.5h-4V9h4V4.4zM153 5c-.4-.8-.8-1.4-1-1.9l1.3-.3c.4.7.8 1.5 1.2 2.2h3.8c.5-1.1.9-1.8 1.1-2.2l1.4.3c-.3.6-.7 1.2-1.1 1.9h4.5v1h-15.5V5h4.3zm1.8 9h-4v3.9h-1.2V7.5h6.5v9.2c0 .4-.1.6-.4.9-.3.2-.6.3-1 .3H153l-.2-1.1h1.3c.2 0 .3-.1.5-.2.1-.1.2-.2.2-.4V14zm0-3.7V8.4h-4v1.9h4zm-4 2.7h4v-1.8h-4V13zm7.3 1.7V7.9h1.3v6.8h-1.3zm3.4 3.1h-2.2l-.1-1.1h1.8c.2 0 .3-.1.5-.2s.2-.3.2-.4V7h1.3v9.6c0 .4-.1.7-.4.9s-.7.3-1.1.3z"/></g><g><path class="st3" d="M146.2 105.9l-.2-1.1 2.2-.2v-4.8h-2.6v-1h2.6v-7.4h11.6v.9h-10.4V94h9.8v.9h-9.8v1.5h9.7v.9h-9.7v1.6H161v1h-6.9c.5.9 1.1 1.7 1.9 2.4 1.3-.6 2.5-1.3 3.4-1.9l.9.8c-.9.6-2.1 1.2-3.4 1.8 1 .8 2.4 1.4 4.2 1.9l-.7 1c-1.7-.4-3.2-1.1-4.5-2.2-1.4-1.1-2.4-2.3-3.1-3.8h-3.3v4.6c2.6-.3 4.2-.5 5-.6v1c-.6.1-1.9.3-3.9.5s-3.4.5-4.4.5zM165.9 104v-2.4h-3.3v-1h3.3v-2H163v-7h7.1v7h-2.9v2h3v1h-3v2.2c1.7-.2 2.8-.4 3.5-.5v1c-1.5.3-4.2.8-8.1 1.2l-.3-1.1c.6 0 1.8-.2 3.6-.4zm-1.7-9.4h1.7v-2.1h-1.7v2.1zm1.8.9h-1.7v2.1h1.7v-2.1zm1.1-.9h1.8v-2.1h-1.8v2.1zm1.8.9h-1.8v2.1h1.8v-2.1zm4.7 10.3h-1.9l-.2-1.2h1.6c.4 0 .7-.2.7-.6v-6.5H171v-1h3.9c-.5-.5-1.6-1.3-3.1-2.5l.8-.7c.4.3 1 .7 1.8 1.4 1-.9 1.7-1.7 2-2.3h-5.3v-1h6.6l.4.4c-.3.5-.7 1-1.3 1.7-.6.7-1.2 1.3-1.7 1.7.4.3.7.6.8.7l-.7.5h2.9l.3.3c-.6 1.8-1.2 3.2-1.8 4l-.9-.4c.4-.7.8-1.7 1.2-2.9h-2v7c0 .4-.1.7-.4.9-.1.4-.5.5-.9.5z"/></g><g><path class="st3" d="M172.1 193.2l-1-.7c.9-1 1.6-2.3 2.1-3.8s.9-2.8 1-3.8l1.4.2c-.2 1.4-.7 2.9-1.3 4.4-.7 1.5-1.4 2.7-2.2 3.7zm6 3.6h-2.5l-.1-1.2h2.2c.5 0 .8-.2.8-.6v-13h1.4v13.5c0 .4-.2.7-.5 1-.4.2-.8.3-1.3.3zm8-3.7c-.7-1-1.3-2.4-2-4.1s-1.2-3-1.4-4l1.3-.3c.4 1.4.9 2.8 1.6 4.2.7 1.5 1.2 2.6 1.8 3.4l-1.3.8zM188.6 185.7v-1h5.5v1h-5.5zm1.6 10.6v.6H189v-5.2h4.6v4.6h-3.4zm-1-12.9v-1h4.5v1h-4.5zm0 4.6v-1h4.4v.9h-4.4zm0 2.2v-.9h4.4v.9h-4.4zm3.2 2.4h-2.2v2.8h2.2v-2.8zm9.5 3.6h-4.7v.7h-1.3v-6.3c-.2.1-.7.3-1.5.7l-.5-.9c1.7-.7 3.4-1.6 4.8-2.8h-4.2v-1h3.1v-2.1h-2.5v-1h2.5v-1.7h1.3v1.7h2.2v1H199v2.1h1c.5-.5 1.1-1.2 1.6-2.1.6-.8 1-1.5 1.2-2.1l1.2.4c-.2.5-.6 1.1-1.2 1.9s-1 1.4-1.4 1.9h2.7v.9h-3.7c-.6.5-1.2 1-1.9 1.5h4.7v7.8h-1.3v-.6zm0-4.1V190h-4.7v2.1h4.7zm-4.7 3.1h4.7v-2.1h-4.7v2.1z"/></g><path class="st0" d="M431.4 287.4v129M555.4 446.4v-46"/><path d="M677.5 389.6c-.1-.2-1.6-5.1-3.1-10.2l1.4-1.4c.6-.6.6-1.5 0-2.1-.6-.6-1.5-.6-2.1 0l-.3.3c-1.4-4.5-2.6-8.3-2.6-8.3l9.9-9.9c1.3-1.3 2-3.9.8-5.1-1.3-1.3-3.9-.5-5.1.8l-9.9 9.9s-3.9-1.2-8.3-2.6l.3-.3c.6-.6.6-1.5 0-2.1-.6-.6-1.5-.6-2.1 0L655 360c-5.1-1.6-10-3.1-10.2-3.1-1-.3-1.9.8-1 1.5 2.1 1.7 15.7 12.3 15.7 12.3L650 380s-6.1-1.9-6.6-2c-.6-.1-1.2 0-1.5.3l-.7.7 7.2 4.8c-.4.5-.7 1.6-.1 2.2.6.6 1.8.4 2.2-.1l4.8 7.2.7-.7c.3-.3.4-1 .3-1.5-.1-.6-2-6.6-2-6.6l9.4-9.4s10.5 13.6 12.3 15.7c.7.8 1.8-.1 1.5-1z" fill="#00993e"/><path d="M444.5 473.6c-.1-.2-1.6-5.1-3.1-10.2l1.4-1.4c.6-.6.6-1.5 0-2.1-.6-.6-1.5-.6-2.1 0l-.3.3c-1.4-4.5-2.6-8.3-2.6-8.3l9.9-9.9c1.3-1.3 2-3.9.8-5.1-1.3-1.3-3.9-.5-5.1.8l-9.9 9.9s-3.9-1.2-8.3-2.6l.3-.3c.6-.6.6-1.5 0-2.1-.6-.6-1.5-.6-2.1 0L422 444c-5.1-1.6-10-3.1-10.2-3.1-1-.3-1.9.8-1 1.5 2.1 1.7 15.7 12.3 15.7 12.3L417 464s-6.1-1.9-6.6-2c-.6-.1-1.2 0-1.5.3l-.7.7 7.2 4.8c-.4.5-.7 1.6-.1 2.2.6.6 1.8.4 2.2-.1l4.8 7.2.7-.7c.3-.3.4-1 .3-1.5-.1-.6-2-6.6-2-6.6l9.4-9.4s10.5 13.6 12.3 15.7c.7.8 1.8-.1 1.5-1z" fill="#910782"/><path class="st0" d="M390.4 265.4V9.4M286.9 114.2h52.7l50.5 50.5"/><path class="st0" d="M32.4 33.4h96.5v130.5h261M343.4 79.4h47M391.9 59.4h47M52.4 151.9v126h380.5M338.3 277.9v164.5"/><circle class="st1" cx="439.3" cy="59.8" r="9.8"/><circle class="st1" cx="343.3" cy="79.8" r="9.8"/><circle class="st1" cx="288.3" cy="115.8" r="9.8"/><circle class="st1" cx="129.3" cy="33.8" r="9.8"/><circle class="st1" cx="129.3" cy="98.8" r="9.8"/><circle class="st1" cx="32.3" cy="33.8" r="9.8"/><circle class="st1" cx="52.3" cy="151.8" r="9.8"/><circle class="st1" cx="121.3" cy="410.8" r="9.8"/><circle class="st1" cx="44.3" cy="410.8" r="9.8"/><circle class="st1" cx="193.3" cy="410.8" r="9.8"/><circle class="st1" cx="196.3" cy="303.8" r="9.8"/><circle class="st1" cx="390.3" cy="9.8" r="9.8"/><circle class="st1" cx="390.3" cy="125.8" r="9.8"/><circle class="st1" cx="326.3" cy="163.8" r="9.8"/><circle class="st1" cx="338.3" cy="442.8" r="9.8"/><circle class="st1" cx="431.3" cy="416.8" r="9.8"/><circle class="st1" cx="555.3" cy="446.8" r="9.8"/><circle class="st1" cx="622.3" cy="400.8" r="9.8"/><circle class="st1" cx="186.3" cy="163.8" r="9.8"/><g><path class="st3" d="M113.7 196.5v-1.1h6.6v-13.3h1.4v4.6h6.1v1.1h-6.1v7.6h7.4v1.1h-15.4zM144 195.8h-11.2v.9h-1.3V183h13.8v13.7H144v-.9zm-6.4-11.8h-4.9v4.6h4.9V184zm-4.9 10.8h4.9v-5.1h-4.9v5.1zm11.3-6.1V184h-5.1v4.6h5.1zm-5.1 6.1h5.1v-5.1h-5.1v5.1z"/></g><circle class="st1" cx="128.3" cy="163.8" r="9.8"/><g><path class="st3" d="M238.7 197v-8.7c-.6.9-1.2 1.8-1.9 2.6l-.8-.7c1-1.3 1.9-2.8 2.7-4.4s1.3-3 1.6-4.1l1.3.2c-.4 1.3-1 2.9-2 4.7h.4V197h-1.3zm3.4-.4v-1h4.8V190h-2.8c-.7 1.5-1.6 2.9-2.8 4.2l-.8-.7c1.6-1.8 2.9-4.4 3.7-7.7h-2.8v-1h3c.2-.8.3-1.8.4-3.1l1.3.1c-.1 1.1-.3 2.2-.4 3h6.8v1h-7c-.2 1.1-.6 2.2-1 3.2h7.3v1h-3.6v5.5h4.2v1h-10.3zM254 197l-.5-.9c2.3-1 4.3-2.5 6.1-4.5 1.8-2 2.9-4.1 3.3-6.2h-5.2c-1 1.8-2.2 3.3-3.5 4.6l-.8-.6c1.1-1.2 2-2.6 2.8-4 .8-1.4 1.4-2.7 1.7-3.7l1.4.2c-.2.5-.5 1.3-1 2.5h5.9l.4.3c-.5 1.9-1.1 3.4-1.8 4.6.8 1.3 1.7 2.5 2.9 3.6s2.5 2.2 3.8 3l-.9 1c-3.1-2.2-5.3-4.3-6.5-6.5-.9 1.3-2 2.5-3.4 3.7-1.4 1.2-3 2.2-4.7 2.9z"/></g><circle class="st1" cx="251.3" cy="163.8" r="9.8"/><circle cx="432.9" cy="278.9" r="35"/><circle cx="391.4" cy="252.4" r="20"/><circle cx="431.4" cy="230.4" r="20"/><g><path class="st3" d="M118.5 391.3l-.9 1c-1.5-.9-2.9-2.1-4.1-3.6-1.2-1.5-2-3-2.6-4.5-.5 1.8-1.4 3.4-2.7 4.9-1.3 1.4-2.9 2.5-4.8 3.2l-.5-1c1.8-.7 3.4-1.8 4.7-3.4 1.3-1.6 2.1-3.3 2.3-5.1h-6.6v-1.1h6.8v-4.2h1.4v4.2h6.8v1.1h-6.7c.5 1.6 1.3 3.2 2.6 4.8s2.7 2.9 4.3 3.7zM124 382.8c.1.1.3.4.6 1s.6 1.1.7 1.5c.1.4.1.8.1 1.2 0 .4 0 .8-.1 1.1l-.3.9c-.1.3-.3.4-.5.6-.2.2-.4.3-.7.3-.2.1-.6.1-1 .1h-.4l-.2-1.1h1.1c.3 0 .5-.2.7-.5.2-.3.2-.8.2-1.4 0-1.2-.4-2.4-1.3-3.4l-.1-.3c.2-.5.5-1.3.8-2.2.3-.9.5-1.5.5-1.7h-2.3v13.6h-1.2V378h4.7l.2.3c-.1.5-.3 1.3-.7 2.4-.3 1.1-.6 1.8-.8 2.1zm8.5 6.2c.9 1 2.1 1.8 3.4 2.4l-.8 1c-1.3-.6-2.5-1.5-3.4-2.5-1 1.1-2.3 1.9-3.8 2.5l-.5-.8c1.3-.6 2.5-1.5 3.6-2.6-1.3-1.8-2.1-3.9-2.2-6.2h-.8v.6c0 1.8-.2 3.4-.7 5-.5 1.5-1 2.8-1.8 3.7l-.9-.6c.7-.9 1.2-2 1.5-3.4.4-1.4.5-2.8.5-4.2v-5.8h8.6v1H128v2.8h6.9c0 1.2-.2 2.5-.6 3.7-.5 1.2-1.1 2.3-1.8 3.4zm-.8-1c1.1-1.5 1.7-3.3 1.8-5.2h-3.6c.1 1.9.7 3.6 1.8 5.2z"/></g><g><path class="st3" d="M116.4 470.5c0 1.8-.4 3.1-1.2 4-.8.8-2 1.3-3.6 1.3-3.2 0-4.8-1.7-4.8-5.2v-7.5h1.5v7.7c0 1.3.3 2.3.8 2.9.5.6 1.4.9 2.4.9 1.1 0 1.9-.3 2.4-.9.5-.6.8-1.5.8-2.9v-7.7h1.5v7.4zM123.1 475.7c-1.4 0-2.9-.3-4.4-1v-1.9h.1c1.3 1.1 2.7 1.6 4.3 1.6 1 0 1.8-.2 2.3-.6.6-.4.9-.9.9-1.6 0-.5-.1-.9-.4-1.2-.2-.3-.7-.5-1.3-.7l-2.8-.6c-1-.2-1.8-.6-2.4-1.2s-.8-1.3-.8-2.2c0-1 .4-1.9 1.2-2.5.8-.7 1.9-1 3.2-1 1.4 0 2.8.3 4.2.9v1.8h-.1c-1.2-1-2.5-1.4-4.1-1.4-.9 0-1.6.2-2.1.6s-.8.9-.8 1.5c0 1 .6 1.7 1.8 2 .7.1 1.5.3 2.3.5.9.2 1.5.4 1.8.6.4.2.7.4.9.7s.4.6.5.9c.1.3.2.7.2 1.1 0 1.1-.4 2-1.3 2.7s-1.7 1-3.2 1zM134.7 472.2c0 1.1-.3 1.9-1 2.5-.7.6-1.5.9-2.7.9-.7 0-1.4-.1-2.2-.2V474h.1c.7.2 1.3.4 1.9.4.8 0 1.4-.2 1.8-.5.4-.3.6-1.1.6-2.2v-7.5h-2.7V463h4.3v9.2z"/></g><path class="st0" d="M195.9 293.9v-16"/></svg>