<svg version="1.1" id="レイヤー_1" xmlns="http://www.w3.org/2000/svg" x="0" y="0" viewBox="0 0 365 766" xml:space="preserve"><style>.st0{stroke:#fbb03b;stroke-width:4;stroke-miterlimit:10}.st0,.st2,.st3{fill:#fff}.st3{stroke:#000;stroke-miterlimit:10}</style><path class="st0" d="M84.1 209.7v418M272.1 263.7v364M84 114.7v160.5"/><path d="M255.7 712.3v-8.4l7.2 4.2-7.2 4.2zM268.1 710.2c0 .7-.2 1.2-.6 1.6-.4.4-1 .6-1.7.6-.4 0-.9-.1-1.4-.2v-.9h.1c.5.2.9.2 1.2.2.5 0 .9-.1 1.1-.3s.4-.7.4-1.4V705h-1.8v-.8h2.8v6zM276.6 712.2h-1.3l-2.7-3.3H271v3.3h-1v-8.1h2.3c1.1 0 1.8.2 2.3.6.5.4.7.9.7 1.6 0 1.1-.5 1.9-1.6 2.4l2.9 3.5zM271 705v3.2h1.2c.7 0 1.3-.2 1.6-.5s.5-.7.5-1.3c0-.9-.6-1.4-1.9-1.4H271zM280.3 712.8v-7.6h.9v6.3h3.1v-8h.9v8h3.2v-6.3h.9v7.6h-.9v-.6h-7.2v.7h-.9zM290.8 709.5v-.7h4.8v-1.9h-4.3v-.7h4.3v-1.7c-1.5.1-2.8.2-4 .2l-.1-.7c3.7-.1 6.4-.3 8.1-.7l.4.6c-.8.2-2 .4-3.5.5v1.8h4v.7h-4v1.9h4.5v.7h-4.5v2.5c0 .3-.1.5-.3.6-.2.2-.5.2-.7.2h-1.6l-.1-.8h1.4c.1 0 .2 0 .3-.1s.2-.2.2-.3v-2.2h-4.9zM302 712.1l-.6-.1c.3-1 .5-1.9.5-2.7l.7.1-.3 1.5c-.1.5-.2.9-.3 1.2zm1.2.8v-4.5l-1.6.1-.1-.7h.6c.3-.3.6-.8 1-1.3l-1.5-1.5.5-.5.2.2c.4-.6.8-1.2 1-1.7l.7.3c-.4.7-.8 1.3-1.3 1.9l.8.8c.5-.7.9-1.3 1.1-1.8l.7.3c-.7 1.1-1.5 2.1-2.4 3.3.8 0 1.4-.1 1.9-.1l-.2-.8.6-.2c.2.6.4 1.2.5 1.8l-.7.2c0-.1 0-.2-.1-.4-.3 0-.6.1-.9.1v4.6h-.8zm1.6-1.8c-.1-.5-.2-1.1-.3-1.8l.6-.1c.1.5.2 1.1.3 1.8l-.6.1zm.6 1.5l-.4-.5c.6-.4 1-.9 1.4-1.4s.6-1.1.6-1.6h-1.2v-.6h1.9l.2.2c-.1.7-.3 1.5-.8 2.2-.5.8-1 1.4-1.7 1.7zm2.9.2h-1.1l-.1-.7h.8c.3 0 .4-.1.4-.4v-4.1h-2.2v-3.8h1.9l.3-.9.8.2-.4.8h2.6v3.8h-2.2v.6c.1.4.4.9.7 1.3.7-.5 1.3-.9 1.6-1.3l.6.5c-.4.3-1 .8-1.8 1.3.6.8 1.3 1.4 2 2l-.5.6c-1.1-.8-1.9-1.8-2.5-3v2.5c0 .2-.1.4-.3.6h-.6zm-1.4-7.3h3.7v-1h-3.7v1zm3.7.6h-3.7v1h3.7v-1zM316.8 708.3c0-.3.1-.5.3-.7s.4-.3.7-.3.5.1.7.3.3.4.3.7c0 .3-.1.5-.3.7s-.4.3-.7.3-.5-.1-.7-.3-.3-.4-.3-.7zM323.7 710.9l-.2-.7c.5-.1 1-.2 1.4-.3V706h-1.1v-.6h1.1v-2.3h.8v2.3h1v.6h-1v3.7c.5-.1.9-.3 1.2-.4v.7c-.4.2-1.5.5-3.2.9zm8.3 1.9h-1.4l-.1-.8h1.2c.3 0 .4-.1.4-.4v-3.9h-5.3v-.6h7.1v.6h-1v4.2c0 .7-.3.9-.9.9zm-1.7-7.8c-.3.5-.7.8-1.2 1.1-.5.3-1.1.5-1.8.6l-.2-.6c.7-.1 1.2-.3 1.7-.6.4-.3.7-.6.9-1h-2.2v-.5h2.4v-.9h.8v.9h2.5v.6h-2.4c.3.3.6.6 1.2.9.5.3 1 .5 1.5.6l-.4.6c-.5-.1-1.1-.3-1.6-.6s-.9-.7-1.2-1.1zm-1.9 6.2v.4h-.8v-2.9h3.3v2.5h-2.5zm1.8-2h-1.8v1.4h1.8v-1.4zM335 712.3l-.5-.6c1.3-.8 2.2-1.6 2.8-2.4l.7.4c-.4.5-.8.9-1.4 1.4-.6.6-1.1 1-1.6 1.2zm-.2-7.6v-.7h4.5v-1h.9v1h4.6v.7h-10zm4.4 8.1h-1.4l-.1-.7h1.1c.3 0 .5-.1.5-.4v-2.9h-3.5v-3h7.8v3h-3.5v3.3c0 .2-.1.4-.3.6s-.3.1-.6.1zm3.6-6.4h-6.2v1.8h6.2v-1.8zm1.7 5.8c-.4-.2-.9-.5-1.6-1.1s-1.2-1-1.5-1.3l.6-.5c.4.4.9.8 1.5 1.3s1.1.8 1.4.9l-.4.7zM346 712.1l-.6-.1c.3-1 .5-1.9.5-2.7l.7.1-.3 1.5c-.1.5-.2.9-.3 1.2zm1.2.8v-4.5l-1.6.1-.1-.7h.6c.3-.3.6-.8 1-1.3l-1.5-1.5.5-.5.2.2c.4-.6.8-1.2 1-1.7l.7.3c-.4.7-.8 1.3-1.3 1.9l.8.8c.5-.7.9-1.3 1.1-1.8l.7.3c-.7 1.1-1.5 2.1-2.4 3.3.8 0 1.4-.1 1.9-.1l-.2-.8.6-.2c.2.6.4 1.2.5 1.8l-.7.2c0-.1 0-.2-.1-.4-.3 0-.6.1-.9.1v4.6h-.8zm1.6-1.8c-.1-.5-.2-1.1-.3-1.8l.6-.1c.1.5.2 1.1.3 1.8l-.6.1zm.6 1.5l-.4-.5c.6-.4 1-.9 1.4-1.4s.6-1.1.6-1.6h-1.2v-.6h1.9l.2.2c-.1.7-.3 1.5-.8 2.2-.5.8-1 1.4-1.7 1.7zm2.9.2h-1.1l-.1-.7h.8c.3 0 .4-.1.4-.4v-4.1h-2.2v-3.8h1.9l.3-.9.8.2-.4.8h2.6v3.8h-2.2v.6c.1.4.4.9.7 1.3.7-.5 1.3-.9 1.6-1.3l.6.5c-.4.3-1 .8-1.8 1.3.6.8 1.3 1.4 2 2l-.5.6c-1.1-.8-1.9-1.8-2.5-3v2.5c0 .2-.1.4-.3.6h-.6zm-1.4-7.3h3.7v-1h-3.7v1zm3.7.6h-3.7v1h3.7v-1zM265.7 724.9c-.4-.6-.9-1.1-1.2-1.5l.6-.5c.4.4.8.8 1.3 1.4l-.7.6zm-.5 4.8l-.7-.5c.5-.8.9-1.9 1.3-3.5l.7.2c-.4 1.7-.9 3-1.3 3.8zm.8-7.4c-.2-.3-.6-.8-1.2-1.5l.6-.5c.5.6.9 1.1 1.2 1.5l-.6.5zm1.1 5.1l-.5-.4c.4-.6.7-1.3 1.1-2.1.4-.8.6-1.5.7-2.2H267v-.7h1.5v-2h.8v2h1.1v.7h-1.1v1.2c.4.4.8.8 1.3 1.2l-.4.6-.9-.9v4.9h-.8v-5c-.4 1-.8 1.8-1.4 2.7zm6.3 2.3v-.5h-1.7v.5h-.8v-9.2h3.4v9.2h-.9zm0-8.6h-1.7v2h1.7v-2zm-1.8 4.6h1.7v-2h-1.7v2zm1.8.7h-1.7v2.2h1.7v-2.2zM280.2 729.8v-2.2h-2.5v-.6h2.5v-1.3h-2.4v-.7h1.2l-.6-1.6H277v6.4h-.8v-7h4v-1.2h-4.6v-.6h4.6v-1h.8v1h4.6v.7H281v1.2h4v6c0 .3-.1.5-.3.7s-.4.3-.7.3h-1.3l-.1-.8h1.2c.1 0 .2 0 .3-.1s.1-.2.1-.3v-5.2h-1.5l-.7 1.6h1.4v.6H281v1.3h2.5v.6H281v2.2h-.8zm1.7-6.3h-2.6l.5 1.6h1.5l.6-1.6zM286.6 729.1l-.4-.5c.4-.3.8-.7 1.3-1.2s.8-1 1.1-1.5h-2v-.6h2v-1.1h-2.1v-.7h1.2l-.4-1.7h-.6v-.7h2v-1h.8v1h2v.7h-.5l-.6 1.7h1.2v.7h-2.1v1.1h1.8v.6h-1.8v.2c.4.5 1 .9 1.7 1.4l-.4.6c-.5-.4-1-.8-1.3-1.1v2.9h-.8v-2.8c-.8.9-1.4 1.6-2.1 2zm1.4-7.3l.4 1.7h1.3l.5-1.7H288zm6.7 8v-5.6h-1.8v.5c0 2.1-.5 3.8-1.6 5.1l-.6-.4c.4-.5.8-1.2 1-2 .2-.8.4-1.7.4-2.6V721c1.8-.2 3.1-.5 4-.8l.4.6c-1 .3-2.2.5-3.6.7v2h4v.7h-1.4v5.6h-.8zM299.1 729.9v-4.5c-.4.7-.8 1.2-1.2 1.6l-.5-.4c.5-.6.9-1.3 1.4-2.1.4-.9.7-1.6.9-2.4l.8.2c-.2.8-.5 1.6-.9 2.3h.4v5.3h-.9zm7-.5h-3.8v.4h-.8v-5.5h1.9l.4-1.2H301v-.6h5.6v-.9h-8v1.2h-.8V721h4.3v-.9h.9v.9h4.4v1.6h.3v.6h-3.1l-.5 1.2h2.9v5.5h-.8v-.5zm0-2.9V725h-3.8v1.5h3.8zm-3.9 2.2h3.8v-1.6h-3.8v1.6zM318 723.7c0 .6-.1 1.1-.2 1.5-.1.4-.3.8-.6 1.5-.3.6-.8 1.2-1.3 1.6s-1.3.8-2.2 1-1.9.4-3.1.4l-.2-.8c2 0 3.6-.4 4.6-1.2s1.7-1.8 1.9-3.3h-7.8v-.8h8.9zm-.3-1.9h-8v-.8h8v.8zM326 729.7h-1v-5.3c-1.6.8-3.2 1.5-5 1.9l-.3-.7c2.3-.6 4.2-1.3 5.5-2.3 1.3-.9 2.4-1.8 3-2.8l.9.3c-.7 1-1.7 2-3.1 2.9v6zM340.6 724.4c-.6 1-1.4 2-2.3 2.7-1 .8-2 1.3-3 1.7-1 .4-2.3.6-3.7.8l-.2-.8c1.2-.1 2.2-.3 3.1-.6s1.7-.7 2.3-1.1c.6-.4 1.2-.9 1.6-1.3.4-.4.9-1 1.3-1.8l.9.4zm-4.7-1.4l-.6.7c-1.3-.8-2.6-1.5-3.8-2l.5-.7c1.2.5 2.6 1.2 3.9 2zM255.7 746.3v-8.4l7.2 4.2-7.2 4.2zM264.6 746.5l-.3-.7c.6-.2 1.1-.4 1.7-.6s1.1-.6 1.6-.9 1-.7 1.2-.9h-3.1v-3.8h3.5v-.9h-4.5v-.7h4.5v-1h.8v1h4.6v.7H270v.9h3.5v3.8h-3.2c.7.6 1.4 1.1 2.3 1.5.9.4 1.7.7 2.4.9l-.4.7c-.8-.2-1.6-.5-2.4-1-.9-.5-1.6-.9-2.1-1.4v2.9h-.8v-3c-.5.5-1.2 1-2.1 1.4s-1.8.9-2.6 1.1zm1.9-5.3h2.7v-1h-2.7v1zm2.7.5h-2.7v1.1h2.7v-1.1zm.8-.5h2.7v-1H270v1zm2.7.5H270v1.1h2.7v-1.1zM275.8 746.3l-.5-.6c1.3-.8 2.2-1.6 2.8-2.4l.7.4c-.4.5-.8.9-1.4 1.4-.5.6-1.1 1-1.6 1.2zm-.2-7.6v-.7h4.5v-1h.9v1h4.6v.7h-10zm4.5 8.1h-1.4l-.1-.7h1.1c.3 0 .5-.1.5-.4v-2.9h-3.5v-3h7.8v3H281v3.3c0 .2-.1.4-.3.6s-.4.1-.6.1zm3.6-6.4h-6.2v1.8h6.2v-1.8zm1.6 5.8c-.4-.2-.9-.5-1.6-1.1s-1.2-1-1.5-1.3l.6-.5c.4.4.9.8 1.5 1.3s1.1.8 1.4.9l-.4.7zM295.1 737.8c-.3 1.6-.9 3.1-1.9 4.5 1.1.7 2 1.5 2.8 2.1l-.7.7c-.5-.5-1.4-1.2-2.7-2.1-1.5 1.8-3.3 3-5.5 3.7l-.4-.7c2-.6 3.7-1.7 5.1-3.4-.8-.6-2.1-1.3-3.7-2.2l.5-.6c1.4.7 2.7 1.5 3.7 2.1.9-1.3 1.5-2.6 1.7-4.1h1.1zM307.6 742.9l-.6.7c-.7-.5-1.6-1-2.7-1.5-1-.5-2-.8-2.8-1.1v5.7h-1v-9.4h1v2.9c2.2.7 4.2 1.6 6.1 2.7zM317.9 746.3h-8.6v-7.8h8.6v7.8zm-.9-.7v-6.4h-6.8v6.4h6.8zM264.7 755.3v-.6h6.1v.6h-6.1zm5 8.1h-4v.3h-.8v-4.6h5.6v4.6h-.8v-.3zm-4.4-5.1V756h5v2.3h-5zm2.1 1.5h-1.6v1.2h1.6v-1.2zm-1.6 3h1.6v-1.2h-1.6v1.2zm3.7-6.2h-3.4v1.1h3.4v-1.1zm.2 4.4v-1.2h-1.6v1.2h1.6zm-1.6 1.8h1.6v-1.2h-1.6v1.2zm3.4-1.5V755h.8v6.3h-.8zm1.8 2.5H272l-.2-.8h1c.3 0 .5-.1.5-.4v-8.4h.9v8.8c0 .2-.1.4-.3.6-.1.1-.3.2-.6.2zM280.1 763.4h-2.8v.4h-.8v-4.1c-.3.2-.6.3-1 .5l-.3-.6c1.1-.4 2.2-1.1 3.1-1.9h-2.8v-.6h2.1v-1.3h-1.7v-.6h1.7v-1.1h.8v1.1h1.5v.6h-1.5v1.3h.8c.7-.8 1.3-1.6 1.7-2.4l.7.2c-.5.9-1 1.7-1.5 2.2h1.4v.6h-2.1c-.4.4-.9.8-1.4 1.1h2.9v5h-.8v-.4zm0-2.6v-1.3h-2.8v1.3h2.8zm-2.8 2h2.8v-1.4h-2.8v1.4zm6-.6l-.1-.7h.9c.1 0 .2-.1.4-.2.1-.1.2-.3.3-.5.1-.2.1-.5.1-.8 0-.7-.3-1.4-1-2.2v-.1-.1c.5-1.5.7-2.3.7-2.5h-1.8v8.7h-.8v-9.4h3.4l.2.2c-.1.2-.2.7-.5 1.5-.3.7-.4 1.2-.6 1.4.4.6.7 1 .8 1.4s.2.7.3 1v.1c0 .4 0 .7-.1 1-.1.3-.2.5-.3.7s-.3.3-.4.4c-.1.1-.3.1-.4.1h-1.1zM287.3 762.5l-.8-.3c.4-.8.7-2.1.9-3.8l.8.1c0 .5-.1 1.3-.3 2.1-.2.9-.4 1.5-.6 1.9zm2.1-6.1h.8v6c0 .2.1.4.3.5.2.1.7.1 1.5.1h1.1c.3 0 .5-.1.6-.1s.2-.1.2-.2.1-.3.1-.7v-1l.8.1v1.6c0 .2 0 .3-.1.4l-.3.3c-.1.1-.2.1-.4.2-.1 0-.4.1-.8.1h-2.7c-.5 0-.8-.1-.9-.3s-.2-.4-.2-.7v-6.3zm3.3.3c-.4-.4-1.3-1.1-2.7-2l.5-.5c.4.2.8.5 1.5.9.6.4 1.1.8 1.3 1l-.6.6zm3.3 4.7c-.1-.5-.4-1.1-.7-1.9-.3-.8-.6-1.3-.8-1.7l.7-.3c.3.5.6 1.1.9 1.9.3.8.6 1.3.6 1.7l-.7.3zM297.9 763.1l-.6-.1c.3-1 .5-1.9.5-2.7l.7.1-.3 1.5c-.1.5-.2.9-.3 1.2zm1.2.8v-4.5l-1.6.1-.1-.7h.6c.3-.3.6-.8 1-1.3l-1.5-1.5.5-.5.2.2c.4-.6.8-1.2 1-1.7l.7.3c-.4.7-.8 1.3-1.3 1.9l.8.8c.5-.7.9-1.3 1.1-1.8l.7.3c-.7 1.1-1.5 2.1-2.4 3.3.8 0 1.4-.1 1.9-.1l-.2-.8.6-.2c.2.6.4 1.2.5 1.8l-.7.2c0-.1 0-.2-.1-.4-.3 0-.6.1-.9.1v4.6h-.8zm1.6-1.8c-.1-.5-.2-1.1-.3-1.8l.6-.1c.1.5.2 1.1.3 1.8l-.6.1zm.6 1.5l-.4-.5c.6-.4 1-.9 1.4-1.4s.6-1.1.6-1.6h-1.2v-.6h1.9l.2.2c-.1.7-.3 1.5-.8 2.2-.5.8-1.1 1.4-1.7 1.7zm2.8.2H303l-.1-.7h.8c.3 0 .4-.1.4-.4v-4.1H302v-3.8h1.9l.3-.9.8.2-.4.8h2.6v3.8H305v.6c.1.4.4.9.7 1.3.7-.5 1.3-.9 1.6-1.3l.6.5c-.4.3-1 .8-1.8 1.3.6.8 1.3 1.4 2 2l-.5.6c-1.1-.8-1.9-1.8-2.5-3v2.5c0 .2-.1.4-.3.6h-.7zm-1.4-7.3h3.7v-1h-3.7v1zm3.7.6h-3.7v1h3.7v-1zM312.7 759.3c0-.3.1-.5.3-.7s.4-.3.7-.3.5.1.7.3.3.4.3.7c0 .3-.1.5-.3.7s-.4.3-.7.3-.5-.1-.7-.3-.3-.4-.3-.7zM327.8 761.4h-5.2v2.5h-.8v-5.6c-.6.9-1.3 1.6-2 2.1l-.5-.5c.5-.5 1.1-1 1.6-1.6.5-.6 1-1.4 1.5-2.3h-2.7v-.6h3c.2-.4.3-.9.4-1.3l.9.1c-.1.4-.2.8-.4 1.2h6.1v.6h-6.5c-.2.4-.4.8-.7 1.2h6.1v5.7c0 .2-.1.4-.3.6-.2.2-.4.3-.7.3H326l-.1-.8h1.4c.3 0 .5-.1.5-.4v-1.2zm0-2.4v-1.2h-5.2v1.2h5.2zm-5.1 1.8h5.2v-1.2h-5.2v1.2zM330.6 763.6l-.3-.6c1.8-.5 3.2-1.2 4.4-2.2h-4v-.7h4.4v-.8h-1.7v-4.2h1.5c.2-.5.3-.8.4-1.1l.9.1c-.1.3-.3.7-.4 1h2v4.2H336v.8h4.5v.7h-4.3c1.3 1 2.8 1.7 4.6 2.1l-.4.7c-1.8-.5-3.3-1.2-4.5-2.2v2.5h-.9v-2.5c-.6.5-1.3.9-2.2 1.3-.6.4-1.4.7-2.2.9zm.2-4.2l-.3-.7c.8-.3 1.5-.8 2.4-1.3l.3.6c-.2.1-.5.4-1.1.7s-1 .5-1.3.7zm1.5-2.7c-.3-.4-.8-.9-1.4-1.5l.6-.4 1.5 1.5-.7.4zm2 .2h2.7v-1.1h-2.7v1.1zm2.7.6h-2.7v1.2h2.7v-1.2zm3.2 1.9l-1.9-1.5.5-.5c.9.6 1.5 1 2 1.4l-.6.6zm-1.4-2.8l-.5-.5c.8-.7 1.3-1.2 1.5-1.6l.7.5c-.2.2-.4.5-.8.8-.4.4-.7.7-.9.8zM342.9 761.5v.8h-.8v-7.9h5v.5h4.6v.6h-1.5v7.4c0 .2-.1.4-.3.6-.2.2-.4.2-.7.2h-1.7l-.1-.8h1.4c.1 0 .2 0 .4-.1.1-.1.2-.2.2-.3v-7.1h-2.3v6h-4.2zm1.3-3.9V755h-1.4v2.5h1.4zm0 3.3v-2.8h-1.4v2.8h1.4zm.8-5.9v2.5h1.3V755H345zm0 3.1v2.8h1.3v-2.8H345zM352.9 763.1l-.6-.1c.3-1 .5-1.9.5-2.7l.7.1-.3 1.5c-.1.5-.2.9-.3 1.2zm1.2.8v-4.5l-1.6.1-.1-.7h.6c.3-.3.6-.8 1-1.3l-1.5-1.5.5-.5.2.2c.4-.6.8-1.2 1-1.7l.7.3c-.4.7-.8 1.3-1.3 1.9l.8.8c.5-.7.9-1.3 1.1-1.8l.7.3c-.7 1.1-1.5 2.1-2.4 3.3.8 0 1.4-.1 1.9-.1l-.2-.8.6-.2c.2.6.4 1.2.5 1.8l-.7.2c0-.1 0-.2-.1-.4-.3 0-.6.1-.9.1v4.6h-.8zm1.6-1.8c-.1-.5-.2-1.1-.3-1.8l.6-.1c.1.5.2 1.1.3 1.8l-.6.1zm.6 1.5l-.4-.5c.6-.4 1-.9 1.4-1.4s.6-1.1.6-1.6h-1.2v-.6h1.9l.2.2c-.1.7-.3 1.5-.8 2.2-.5.8-1.1 1.4-1.7 1.7zm2.8.2H358l-.1-.7h.8c.3 0 .4-.1.4-.4v-4.1H357v-3.8h1.9l.3-.9.8.2-.4.8h2.6v3.8H360v.6c.1.4.4.9.7 1.3.7-.5 1.3-.9 1.6-1.3l.6.5c-.4.3-1 .8-1.8 1.3.6.8 1.3 1.4 2 2l-.5.6c-1.1-.8-1.9-1.8-2.5-3v2.5c0 .2-.1.4-.3.6h-.7zm-1.4-7.3h3.7v-1h-3.7v1zm3.7.6h-3.7v1h3.7v-1z"/><g><path d="M103.7 569.3v-8.4l7.2 4.2-7.2 4.2zM116.1 567.2c0 .7-.2 1.2-.6 1.6-.4.4-1 .6-1.7.6-.4 0-.9-.1-1.4-.2v-.9h.1c.5.2.9.2 1.2.2.5 0 .9-.1 1.1-.3s.4-.7.4-1.4V562h-1.8v-.8h2.8v6zM124.6 569.2h-1.3l-2.7-3.3H119v3.3h-1v-8.1h2.3c1.1 0 1.8.2 2.3.6.5.4.7.9.7 1.6 0 1.1-.5 1.9-1.6 2.4l2.9 3.5zM119 562v3.2h1.2c.7 0 1.3-.2 1.6-.5s.5-.7.5-1.3c0-.9-.6-1.4-1.9-1.4H119zM128.3 569.8v-7.6h.9v6.3h3.1v-8h.9v8h3.2v-6.3h.9v7.6h-.9v-.6h-7.2v.7h-.9zM138.8 566.5v-.7h4.8v-1.9h-4.3v-.7h4.3v-1.7c-1.5.1-2.8.2-4 .2l-.1-.7c3.7-.1 6.4-.3 8.1-.7l.4.6c-.8.2-2 .4-3.5.5v1.8h4v.7h-4v1.9h4.5v.7h-4.5v2.5c0 .3-.1.5-.3.6-.2.2-.5.2-.7.2h-1.6l-.1-.8h1.4c.1 0 .2 0 .3-.1s.2-.2.2-.3v-2.2h-4.9zM150 569.1l-.6-.1c.3-1 .5-1.9.5-2.7l.7.1-.3 1.5c-.1.5-.2.9-.3 1.2zm1.2.8v-4.5l-1.6.1-.1-.7h.6c.3-.3.6-.8 1-1.3l-1.5-1.5.5-.5.2.2c.4-.6.8-1.2 1-1.7l.7.3c-.4.7-.8 1.3-1.3 1.9l.8.8c.5-.7.9-1.3 1.1-1.8l.7.3c-.7 1.1-1.5 2.1-2.4 3.3.8 0 1.4-.1 1.9-.1l-.2-.8.6-.2c.2.6.4 1.2.5 1.8l-.7.2c0-.1 0-.2-.1-.4-.3 0-.6.1-.9.1v4.6h-.8zm1.6-1.8c-.1-.5-.2-1.1-.3-1.8l.6-.1c.1.5.2 1.1.3 1.8l-.6.1zm.6 1.5l-.4-.5c.6-.4 1-.9 1.4-1.4s.6-1.1.6-1.6h-1.2v-.6h1.9l.2.2c-.1.7-.3 1.5-.8 2.2-.5.8-1 1.4-1.7 1.7zm2.9.2h-1.1l-.1-.7h.8c.3 0 .4-.1.4-.4v-4.1h-2.2v-3.8h1.9l.3-.9.8.2-.4.8h2.6v3.8h-2.2v.6c.1.4.4.9.7 1.3.7-.5 1.3-.9 1.6-1.3l.6.5c-.4.3-1 .8-1.8 1.3.6.8 1.3 1.4 2 2l-.5.6c-1.1-.8-1.9-1.8-2.5-3v2.5c0 .2-.1.4-.3.6h-.6zm-1.4-7.3h3.7v-1h-3.7v1zm3.7.6h-3.7v1h3.7v-1zM103.7 583.3v-8.4l7.2 4.2-7.2 4.2zM112.6 583.5l-.3-.7c.6-.2 1.1-.4 1.7-.6s1.1-.6 1.6-.9 1-.7 1.2-.9h-3.1v-3.8h3.5v-.9h-4.5v-.7h4.5v-1h.8v1h4.6v.7H118v.9h3.5v3.8h-3.2c.7.6 1.4 1.1 2.3 1.5.9.4 1.7.7 2.4.9l-.4.7c-.8-.2-1.6-.5-2.4-1-.9-.5-1.6-.9-2.1-1.4v2.9h-.8v-3c-.5.5-1.2 1-2.1 1.4s-1.8.9-2.6 1.1zm1.9-5.3h2.7v-1h-2.7v1zm2.7.5h-2.7v1.1h2.7v-1.1zm.8-.5h2.7v-1H118v1zm2.7.5H118v1.1h2.7v-1.1zM123.8 583.3l-.5-.6c1.3-.8 2.2-1.6 2.8-2.4l.7.4c-.4.5-.8.9-1.4 1.4-.5.6-1.1 1-1.6 1.2zm-.2-7.6v-.7h4.5v-1h.9v1h4.6v.7h-10zm4.5 8.1h-1.4l-.1-.7h1.1c.3 0 .5-.1.5-.4v-2.9h-3.5v-3h7.8v3H129v3.3c0 .2-.1.4-.3.6s-.4.1-.6.1zm3.6-6.4h-6.2v1.8h6.2v-1.8zm1.6 5.8c-.4-.2-.9-.5-1.6-1.1s-1.2-1-1.5-1.3l.6-.5c.4.4.9.8 1.5 1.3s1.1.8 1.4.9l-.4.7zM143.1 574.8c-.3 1.6-.9 3.1-1.9 4.5 1.1.7 2 1.5 2.8 2.1l-.7.7c-.5-.5-1.4-1.2-2.7-2.1-1.5 1.8-3.3 3-5.5 3.7l-.4-.7c2-.6 3.7-1.7 5.1-3.4-.8-.6-2.1-1.3-3.7-2.2l.5-.6c1.4.7 2.7 1.5 3.7 2.1.9-1.3 1.5-2.6 1.7-4.1h1.1zM155.6 579.9l-.6.7c-.7-.5-1.6-1-2.7-1.5-1-.5-2-.8-2.8-1.1v5.7h-1v-9.4h1v2.9c2.2.7 4.2 1.6 6.1 2.7zM165.9 583.3h-8.6v-7.8h8.6v7.8zm-.9-.7v-6.4h-6.8v6.4h6.8zM112.6 597.5l-.3-.7c.6-.2 1.1-.4 1.7-.6s1.1-.6 1.6-.9 1-.7 1.2-.9h-3.1v-3.8h3.5v-.9h-4.5v-.7h4.5v-1h.8v1h4.6v.7H118v.9h3.5v3.8h-3.2c.7.6 1.4 1.1 2.3 1.5.9.4 1.7.7 2.4.9l-.4.7c-.8-.2-1.6-.5-2.4-1-.9-.5-1.6-.9-2.1-1.4v2.9h-.8v-3c-.5.5-1.2 1-2.1 1.4s-1.8.9-2.6 1.1zm1.9-5.3h2.7v-1h-2.7v1zm2.7.5h-2.7v1.1h2.7v-1.1zm.8-.5h2.7v-1H118v1zm2.7.5H118v1.1h2.7v-1.1zM132.3 597.1h-7.4v.6h-.8v-6.5h2.6v-1.9h-3.2v-.7h10.1v.7h-3.8v1.9h3.3v6.5h-.8v-.6zm-7.4-.6h7.4v-4.7h-2.5v2c0 .1 0 .2.1.3 0 .1.1.1.2.1h.5c.2 0 .3-.1.3-.2.1-.1.1-.5.1-1.1l.6.1v1.1c0 .2 0 .4-.1.5-.1.1-.2.2-.4.3-.2 0-.4.1-.8.1-.7 0-1.1-.1-1.2-.2-.1-.2-.2-.4-.2-.6V592h-1.5c-.1 1.5-.7 2.7-1.7 3.6l-.5-.4c.9-.8 1.3-1.9 1.4-3.2h-1.8v4.5zm2.7-5.3h1.5v-1.9h-1.5v1.9zM134.9 597.1l-.6-.1c.3-1 .5-1.9.5-2.7l.7.1-.3 1.5c-.1.5-.2.9-.3 1.2zm1.2.8v-4.5l-1.6.1-.1-.7h.6c.3-.3.6-.8 1-1.3l-1.5-1.5.5-.5.2.2c.4-.6.8-1.2 1-1.7l.7.3c-.4.7-.8 1.3-1.3 1.9l.8.8c.5-.7.9-1.3 1.1-1.8l.7.3c-.7 1.1-1.5 2.1-2.4 3.3.8 0 1.4-.1 1.9-.1l-.2-.8.6-.2c.2.6.4 1.2.5 1.8l-.7.2c0-.1 0-.2-.1-.4-.3 0-.6.1-.9.1v4.6h-.8zm1.6-1.8c-.1-.5-.2-1.1-.3-1.8l.6-.1c.1.5.2 1.1.3 1.8l-.6.1zm.6 1.5l-.4-.5c.6-.4 1-.9 1.4-1.4s.6-1.1.6-1.6h-1.2v-.6h1.9l.2.2c-.1.7-.3 1.5-.8 2.2-.5.8-1.1 1.4-1.7 1.7zm2.8.2H140l-.1-.7h.8c.3 0 .4-.1.4-.4v-4.1H139v-3.8h1.9l.3-.9.8.2-.4.8h2.6v3.8H142v.6c.1.4.4.9.7 1.3.7-.5 1.3-.9 1.6-1.3l.6.5c-.4.3-1 .8-1.8 1.3.6.8 1.3 1.4 2 2l-.5.6c-1.1-.8-1.9-1.8-2.5-3v2.5c0 .2-.1.4-.3.6h-.7zm-1.4-7.3h3.7v-1h-3.7v1zm3.7.6h-3.7v1h3.7v-1z"/></g><g><path d="M95.7 438.3v-8.4l7.2 4.2-7.2 4.2zM109.1 438.4h-2.8v.4h-.8v-4.1c-.3.2-.6.3-1 .5l-.3-.6c1.1-.4 2.2-1.1 3.1-1.9h-2.8v-.6h2.1v-1.3h-1.7v-.6h1.7v-1.1h.8v1.1h1.5v.6h-1.5v1.3h.8c.7-.8 1.3-1.6 1.7-2.4l.7.2c-.5.9-1 1.7-1.5 2.2h1.4v.6h-2.1c-.4.4-.9.8-1.4 1.1h2.9v5h-.8v-.4zm0-2.6v-1.3h-2.8v1.3h2.8zm-2.8 2h2.8v-1.4h-2.8v1.4zm6-.6l-.1-.7h.9c.1 0 .2-.1.4-.2.1-.1.2-.3.3-.5.1-.2.1-.5.1-.8 0-.7-.3-1.4-1-2.2v-.1-.1c.5-1.5.7-2.3.7-2.5h-1.8v8.7h-.8v-9.4h3.4l.2.2c-.1.2-.2.7-.5 1.5-.3.7-.4 1.2-.6 1.4.4.6.7 1 .8 1.4s.2.7.3 1v.1c0 .4 0 .7-.1 1-.1.3-.2.5-.3.7s-.3.3-.4.4c-.1.1-.3.1-.4.1h-1.1zM117.7 430.7l-.6-1.2.7-.2c.2.3.5.8.8 1.5h1.9c-.3-.7-.5-1.1-.7-1.4l.8-.2c.4.7.6 1.3.8 1.6h1.6c.4-.6.6-1.2.8-1.6l.9.2c-.2.3-.4.7-.9 1.4h1.8v1.8h-.8v-1.2h-8.2v1.2h-.8v-1.8h1.9zm6.3 7.8h-6.8v.4h-.8v-3.4h3.2l.4-1h-2.7V432h6.5v2.5H121l-.5 1h4.4v3.4h-.9v-.4zm-6.8-.7h6.8v-1.7h-6.8v1.7zm5.9-5.1h-5v1.2h5v-1.2zM136.6 438.1l-.6.7c-1-.6-1.9-1.3-2.6-2.3-.8-1-1.3-2-1.7-2.9-.3 1.2-.9 2.2-1.8 3.1-.8.9-1.9 1.6-3.1 2.1l-.3-.6c1.2-.4 2.2-1.2 3-2.2.8-1 1.3-2.1 1.5-3.3h-4.3v-.7h4.4v-2.7h.9v2.7h4.4v.7h-4.3c.3 1 .8 2 1.7 3.1s1.8 1.8 2.8 2.3zM139.2 433.9c-.4-.4-1-.9-1.8-1.4l.5-.6c.8.6 1.4 1 1.8 1.4l-.5.6zm-.9 4.9l-.7-.5c.3-.4.6-.9 1-1.7s.7-1.4.9-1.9l.7.3c-.1.5-.4 1.1-.8 1.9s-.7 1.4-1.1 1.9zm1.5-7.4c-.8-.7-1.4-1.2-1.8-1.5l.5-.5c.8.6 1.4 1.1 1.8 1.4l-.5.6zm.3 7.1v-.7h3.3v-7.2h-2.7v-.7h6.6v.7h-3.1v7.2h3.5v.7h-7.6zM157 435.2v-.4h-6.4c0 1.6-.5 2.9-1.5 4l-.6-.4c.5-.6.9-1.3 1-2 .2-.7.3-1.6.3-2.5v-2.4h8.1v3.7h-.9zm-8.1-5v-.6h9.7v.6h-9.7zm8.1 2h-6.4v2.1h6.4v-2.1zM159.9 438.1l-.6-.1c.3-1 .5-1.9.5-2.7l.7.1-.3 1.5c-.1.5-.2.9-.3 1.2zm1.2.8v-4.5l-1.6.1-.1-.7h.6c.3-.3.6-.8 1-1.3l-1.5-1.5.5-.5.2.2c.4-.6.8-1.2 1-1.7l.7.3c-.4.7-.8 1.3-1.3 1.9l.8.8c.5-.7.9-1.3 1.1-1.8l.7.3c-.7 1.1-1.5 2.1-2.4 3.3.8 0 1.4-.1 1.9-.1l-.2-.8.6-.2c.2.6.4 1.2.5 1.8l-.7.2c0-.1 0-.2-.1-.4-.3 0-.6.1-.9.1v4.6h-.8zm1.6-1.8c-.1-.5-.2-1.1-.3-1.8l.6-.1c.1.5.2 1.1.3 1.8l-.6.1zm.6 1.5l-.4-.5c.6-.4 1-.9 1.4-1.4s.6-1.1.6-1.6h-1.2v-.6h1.9l.2.2c-.1.7-.3 1.5-.8 2.2-.5.8-1.1 1.4-1.7 1.7zm2.8.2H165l-.1-.7h.8c.3 0 .4-.1.4-.4v-4.1H164v-3.8h1.9l.3-.9.8.2-.4.8h2.6v3.8H167v.6c.1.4.4.9.7 1.3.7-.5 1.3-.9 1.6-1.3l.6.5c-.4.3-1 .8-1.8 1.3.6.8 1.3 1.4 2 2l-.5.6c-1.1-.8-1.9-1.8-2.5-3v2.5c0 .2-.1.4-.3.6h-.7zm-1.4-7.3h3.7v-1h-3.7v1zm3.7.6h-3.7v1h3.7v-1z"/></g><g><path d="M324.5 203.8h-1.4v-8.7l-1.5.9v-1.5l1.5-1h1.4v10.3zM328.3 203.6c-.4-.2-.7-.5-1-.9s-.4-.9-.5-1.4h1.4c.1.4.2.7.5.9.3.2.6.3 1 .3.5 0 .8-.2 1.1-.5.3-.3.4-.7.4-1.3v-.9c0-.6-.1-1-.4-1.3s-.6-.5-1.1-.5c-.3 0-.5.1-.7.2-.2.1-.4.3-.6.6h-1.3v-5.4h5.3v1.4h-3.8v2.3c.2-.1.4-.3.6-.3.2-.1.4-.1.7-.1.6 0 1.1.1 1.5.4.4.2.7.6 1 1.1.2.5.3 1 .3 1.7v.9c0 .7-.1 1.2-.3 1.7-.2.5-.6.8-1 1.1-.4.2-1 .4-1.6.4-.6-.1-1.1-.2-1.5-.4zM334.8 196.5h1.4v7.4h-1.4v-7.4zm4.4 2.9c0-.5-.1-.9-.4-1.2-.3-.3-.6-.4-1.1-.4-.5 0-.8.1-1.1.4-.3.3-.4.6-.4 1.1l-.1-1.4c.2-.4.5-.8.9-1 .4-.2.8-.4 1.2-.4.5 0 1 .1 1.3.4.4.2.6.6.8 1s.3 1 .3 1.6v4.5h-1.4v-4.6zm4.4 0c0-.5-.1-.9-.4-1.2-.3-.3-.6-.4-1.1-.4-.4 0-.8.1-1 .4s-.4.7-.4 1.2l-.3-1.4c.2-.5.5-.9.9-1.1.4-.3.8-.4 1.3-.4s1 .1 1.4.4c.4.2.7.6.9 1s.3 1 .3 1.6v4.5h-1.4v-4.6zM347.3 193.5h1.4v1.4h-1.4v-1.4zm0 3h1.4v7.4h-1.4v-7.4zM350.9 196.5h1.4v7.4h-1.4v-7.4zm4.5 2.9c0-.5-.1-.9-.4-1.2-.3-.3-.6-.4-1.1-.4-.5 0-.8.1-1.1.4-.3.3-.4.6-.4 1.1l-.1-1.4c.2-.4.5-.8.9-1 .4-.2.8-.4 1.2-.4.8 0 1.4.3 1.9.8.4.5.7 1.3.7 2.2v4.5h-1.4v-4.6z"/></g><g><path d="M128.5 619.9c-.4-.2-.8-.6-1-1.1-.2-.5-.3-1-.3-1.7 0-.4 0-.8.1-1.2s.2-.8.4-1.2c0-.1.1-.1.1-.2s.1-.1.1-.2l2.2-4.4h1.6l-2.6 5.1v-.3c.1-.2.3-.4.5-.5.2-.1.5-.2.8-.2.5 0 1 .1 1.4.4s.7.6.9 1.1c.2.5.3 1 .3 1.7s-.1 1.2-.3 1.7-.6.8-1 1.1c-.4.2-1 .4-1.6.4s-1.1-.2-1.6-.5zm2.6-1.4c.2-.3.4-.7.4-1.2 0-.6-.1-1-.4-1.3s-.6-.5-1.1-.5c-.4 0-.8.2-1 .5s-.4.8-.4 1.3.1.9.4 1.2c.2.3.6.4 1.1.4.4 0 .8-.1 1-.4zM135.6 619.5c-.5-.5-.7-1.2-.7-2.2v-4.7c0-.9.3-1.6.8-2.2.5-.5 1.2-.8 2.2-.8 1 0 1.7.3 2.2.8.5.5.7 1.2.7 2.2v4.7c0 .9-.3 1.6-.8 2.2-.5.5-1.2.8-2.2.8-.9 0-1.7-.3-2.2-.8zm3.4-1c.2-.3.4-.7.4-1.2v-4.7c0-.5-.1-.9-.4-1.2s-.6-.4-1.1-.4c-.5 0-.9.1-1.1.4s-.4.7-.4 1.2v4.7c0 .5.1.9.4 1.2.2.3.6.4 1.1.4s.8-.1 1.1-.4zM143 612.8h1.4v7.4H143v-7.4zm4.4 2.9c0-.5-.1-.9-.4-1.2-.3-.3-.6-.4-1.1-.4-.5 0-.8.1-1.1.4-.3.3-.4.6-.4 1.1l-.1-1.4c.2-.4.5-.8.9-1 .4-.2.8-.4 1.2-.4.5 0 1 .1 1.3.4.4.2.6.6.8 1s.3 1 .3 1.6v4.5h-1.4v-4.6zm4.4 0c0-.5-.1-.9-.4-1.2-.3-.3-.6-.4-1.1-.4-.4 0-.8.1-1 .4s-.4.7-.4 1.2l-.3-1.4c.2-.5.5-.9.9-1.1.4-.3.8-.4 1.3-.4s1 .1 1.4.4c.4.2.7.6.9 1s.3 1 .3 1.6v4.5H152v-4.6zM155.4 609.9h1.4v1.4h-1.4v-1.4zm0 2.9h1.4v7.4h-1.4v-7.4zM159.1 612.8h1.4v7.4h-1.4v-7.4zm4.4 2.9c0-.5-.1-.9-.4-1.2-.3-.3-.6-.4-1.1-.4-.5 0-.8.1-1.1.4-.3.3-.4.6-.4 1.1l-.1-1.4c.2-.4.5-.8.9-1 .4-.2.8-.4 1.2-.4.8 0 1.4.3 1.9.8.4.5.7 1.3.7 2.2v4.5h-1.4v-4.6z"/></g><g><path d="M128.5 478c-.4-.2-.7-.5-1-.9s-.4-.9-.5-1.4h1.4c.1.4.2.7.5.9.3.2.6.3 1 .3.5 0 .8-.2 1.1-.5s.4-.7.4-1.3v-.9c0-.6-.1-1-.4-1.3-.3-.3-.6-.5-1.1-.5-.3 0-.5.1-.7.2-.2.1-.4.3-.6.6h-1.3v-5.4h5.3v1.4h-3.8v2.3c.2-.1.4-.3.6-.3.2-.1.4-.1.7-.1.6 0 1.1.1 1.5.4.4.2.7.6 1 1.1.2.5.3 1 .3 1.7v.9c0 .7-.1 1.2-.3 1.7-.2.5-.6.8-1 1.1-.4.2-1 .4-1.6.4-.6-.1-1.1-.2-1.5-.4zM136.4 478c-.4-.2-.7-.5-1-.9s-.4-.9-.5-1.4h1.4c.1.4.2.7.5.9.3.2.6.3 1 .3.5 0 .8-.2 1.1-.5s.4-.7.4-1.3v-.9c0-.6-.1-1-.4-1.3-.3-.3-.6-.5-1.1-.5-.3 0-.5.1-.7.2-.2.1-.4.3-.6.6h-1.3v-5.4h5.3v1.4h-3.8v2.3c.2-.1.4-.3.6-.3.2-.1.4-.1.7-.1.6 0 1.1.1 1.5.4.4.2.7.6 1 1.1.2.5.3 1 .3 1.7v.9c0 .7-.1 1.2-.3 1.7-.2.5-.6.8-1 1.1-.4.2-1 .4-1.6.4-.6-.1-1.1-.2-1.5-.4zM142.9 470.9h1.4v7.4h-1.4v-7.4zm4.4 2.9c0-.5-.1-.9-.4-1.2-.3-.3-.6-.4-1.1-.4-.5 0-.8.1-1.1.4s-.4.6-.4 1.1l-.1-1.4c.2-.4.5-.8.9-1 .4-.2.8-.4 1.2-.4.5 0 1 .1 1.3.4s.6.6.8 1 .3 1 .3 1.6v4.5h-1.4v-4.6zm4.4 0c0-.5-.1-.9-.4-1.2-.3-.3-.6-.4-1.1-.4-.4 0-.8.1-1 .4s-.4.7-.4 1.2l-.3-1.4c.2-.5.5-.9.9-1.1.4-.3.8-.4 1.3-.4s1 .1 1.4.4.7.6.9 1 .3 1 .3 1.6v4.5h-1.4v-4.6zM155.4 467.9h1.4v1.4h-1.4v-1.4zm0 3h1.4v7.4h-1.4v-7.4zM159 470.9h1.4v7.4H159v-7.4zm4.5 2.9c0-.5-.1-.9-.4-1.2-.3-.3-.6-.4-1.1-.4-.5 0-.8.1-1.1.4s-.4.6-.4 1.1l-.1-1.4c.2-.4.5-.8.9-1 .4-.2.8-.4 1.2-.4.8 0 1.4.3 1.9.8.4.5.7 1.3.7 2.2v4.5h-1.4v-4.6z"/></g><g><path d="M129.9 346.6c-.4-.2-.7-.5-1-.9s-.4-.9-.5-1.4h1.4c.1.4.2.7.5.9.3.2.6.3 1 .3.5 0 .8-.2 1.1-.5.3-.3.4-.7.4-1.3v-.9c0-.6-.1-1-.4-1.3s-.6-.5-1.1-.5c-.3 0-.5.1-.7.2-.2.1-.4.3-.6.6h-1.3v-5.4h5.3v1.4h-3.8v2.3c.2-.1.4-.3.6-.3.2-.1.4-.1.7-.1.6 0 1.1.1 1.5.4.4.2.7.6 1 1.1.2.5.3 1 .3 1.7v.9c0 .7-.1 1.2-.3 1.7-.2.5-.6.8-1 1.1-.4.2-1 .4-1.6.4-.6-.1-1.1-.2-1.5-.4zM136.2 344l3.5-7.5h1.5l-3.4 7.4h5.1v1.3h-6.6V344zm4.4-3.2h1.4v6.1h-1.4v-6.1zM144.7 339.5h1.4v7.4h-1.4v-7.4zm4.4 2.9c0-.5-.1-.9-.4-1.2-.3-.3-.6-.4-1.1-.4-.5 0-.8.1-1.1.4-.3.3-.4.6-.4 1.1l-.1-1.4c.2-.4.5-.8.9-1 .4-.2.8-.4 1.2-.4.5 0 1 .1 1.3.4.4.2.6.6.8 1s.3 1 .3 1.6v4.5h-1.4v-4.6zm4.4 0c0-.5-.1-.9-.4-1.2-.3-.3-.6-.4-1.1-.4-.4 0-.8.1-1 .4s-.4.7-.4 1.2l-.3-1.4c.2-.5.5-.9.9-1.1.4-.3.8-.4 1.3-.4s1 .1 1.4.4c.4.2.7.6.9 1s.3 1 .3 1.6v4.5h-1.4v-4.6zM157.1 336.5h1.4v1.4h-1.4v-1.4zm0 3h1.4v7.4h-1.4v-7.4zM160.8 339.5h1.4v7.4h-1.4v-7.4zm4.4 2.9c0-.5-.1-.9-.4-1.2-.3-.3-.6-.4-1.1-.4-.5 0-.8.1-1.1.4-.3.3-.4.6-.4 1.1l-.1-1.4c.2-.4.5-.8.9-1 .4-.2.8-.4 1.2-.4.8 0 1.4.3 1.9.8.4.5.7 1.3.7 2.2v4.5h-1.4v-4.6z"/></g><path stroke="#000" stroke-miterlimit="10" d="M0 113.9h359.9v65.8H0z"/><g><path class="st2" d="M163.5 143.1c.3-.4.5-.8.7-.8.3 0 2 1.5 2 1.8 0 .3-.3.4-.6.4h-8.1c2 4 5.6 7.5 9.1 9.2v.2c-.6.1-1.2.5-1.4 1.3-3.3-2.1-6.3-5.9-8.1-10.7v9.3h2l.5-.7c.3-.4.5-.7.6-.7.3 0 1.8 1.4 1.8 1.7-.1.3-.3.4-.6.4H157v1.4c0 1.4 0 1.9.1 2.7-.1.3-.7.7-1.3.7-.3 0-.5-.2-.5-.5.1-.9.1-1.4.2-2.8v-1.6H154c-1 0-1.9.1-2.8.3l-.6-1.2c1 .1 2 .2 3 .2h1.9v-8c-2 3.9-5.1 7.2-9.1 9.6l-.2-.3c3.6-2.6 6.6-6.6 8.2-10.5h-4.1c-1.2 0-2.3.1-3.4.3l-.6-1.2c1 .1 2 .2 3 .2h6.3v-.8c0-1.6-.1-3.4-.3-4.7 2.6.7 2.6 1 2.2 1.2l-.4.3v4h6l.4-.7zM171.9 139.4c2.4.7 2.4.9 2 1.2l-.4.3v6.6c0 4.4-.8 9-4.2 11.9l-.3-.4c2.6-3.1 3.2-7.3 3.2-11.6v-3.9c-.1-1.3-.1-3-.3-4.1zm6.7 5.5c0-1.5-.1-3.4-.3-4.7 2.5.7 2.5.9 2.1 1.2l-.4.3v9.3c0 2.7.1 3.6.2 5.4-.2.3-.8.6-1.3.6-.3 0-.5-.2-.5-.5.1-1.7.2-2.5.2-5.1v-6.5zm6.9-.9c0-1.5-.1-3.4-.3-4.7 2.5.7 2.5.9 2.1 1.2l-.4.3v12.4c0 2.7.1 3.6.2 5.4-.2.3-.8.7-1.3.7-.3 0-.5-.2-.5-.5.1-2 .2-3 .3-5.9V144zM198.9 150c.2-.3.4-.7.6-.7.3 0 1.6 1.2 1.6 1.6 0 .3-.2.4-.5.4h-3v5.2c1.5.7 3.4.8 5.8.8 2.1 0 6.8 0 8.9-.1v.3c-.6.1-.9.6-1 1.2h-8c-4.9 0-7.5-.8-9.1-5.2-.4 2.2-1.1 4.3-2.3 5.9l-.3-.3c.8-1.5 1.2-3.6 1.5-5.8.2-1.5 0-5.9-.1-4.7 2.5.1 2.5.4 2.1.6l-.4.2c0 1-.1 2.1-.3 3.3.5 1.3 1.1 2.2 1.9 2.9v-4.1c0-1.6-.1-3.4-.3-4.7 2.4.7 2.4.9 2 1.2l-.4.3v2.3h1l.3-.6zm.4-4.5c.2-.3.4-.6.6-.6.3 0 1.7 1.3 1.7 1.6-.1.3-.3.4-.6.4h-5.3c-1.2 0-2.3.1-3.4.3l-.6-1.2c.9.1 1.8.2 2.8.2h1.3v-3.6h-1.1c-.7 0-1.3.1-1.9.3l-.6-1.2c.8.1 1.6.2 2.5.2h1.2c0-1.1-.1-2.6-.2-3.5 2.4.7 2.4.9 2 1.2l-.4.3v2.1h1.1l.4-.6c.2-.3.4-.6.6-.6.3 0 1.7 1.2 1.7 1.6-.1.3-.3.4-.6.4h-3.2v3.6h1.7l.3-.9zm10.3-3.6c.2-.3.4-.6.6-.6.3 0 1.7 1.2 1.7 1.5-.1.3-.3.4-.5.4h-4.5c.2 2.2.4 4.4 1 6.3l.3-.6c.6-1.4 1-3.3 1.1-4.6 2.4.7 2.4 1 1.9 1.1l-.4.2c-.5 2.1-1.4 3.9-2.4 5.4.5 1.2 1 2.1 1.8 2.7.3.2.4.2.5 0 .3-.5.6-1.5.8-2.2l.3.1-.4 3c.4.5.6 1.1.4 1.3-.5.5-1.5 0-2.3-.6-.9-.7-1.6-1.7-2.2-2.9-1.4 1.6-3 2.9-5 3.8l-.3-.3c1.9-1.1 3.5-2.7 4.8-4.7-.8-2.3-1.2-5.1-1.4-8H203v8.2c.8-.4 1.7-.8 2.6-1.1l.1.3c-1.2.8-2.9 2-5.2 3.4 0 .3-.2.5-.4.6l-1.1-1.7c.6-.2 1.4-.5 2.5-.9v-5.6c0-1.5-.1-3.4-.3-4.7l1.9.9h2.1c-.1-1.4-.1-2.7-.2-4 2.2.1 2.2.4 1.8.6l-.4.3c0 1 0 2.1.1 3.1h2.4l.7-.7zm-2.2-2.6c3.5.6 2.7 3.1 1.5 2.4-.2-.8-1-1.7-1.7-2.2l.2-.2z"/></g><path class="st3" d="M0 210.9h359.9v65.8H0z"/><g><path d="M165.2 240.7c.2-.3.3-.5.5-.5.3 0 1.6 1.2 1.6 1.5-.1.2-.5.4-.9.5v2c0 2 .1 2.7.1 3.9-.2.3-.9.6-1.3.6-.2 0-.3-.2-.3-.5 0-.1 0-.2.1-.5v-.5h-4.4c-.2 2.9-.8 6.5-3 9.1l-.3-.3c1.7-3.4 1.9-7.4 1.9-11v-2.4c0-.8 0-1.8-.1-2.5l1.8.9h3.9l.4-.3zm.7-4.1c.3-.3.5-.7.6-.7.3 0 1.8 1.3 1.8 1.6-.1.3-.3.4-.6.4h-6c-1.2 0-2.3.1-3.4.3l-.6-1.2c1 .1 2 .2 3 .2h4.7l.5-.6zm-.8 10v-4.8h-4.4v4.8h4.4zm10-3.6l.5-.7c.3-.3.4-.7.6-.7.3 0 1.8 1.3 1.8 1.6-.1.3-.3.4-.6.4H175v6.7c0 2.7.1 3.6.2 5.4-.2.2-.7.6-1.4.6-.3 0-.5-.2-.5-.5.1-2 .2-3 .3-5.9v-6.3h-3.4c0 4.1-.5 9.2-5.2 12.6l-.3-.3c3.5-3.6 4.1-8 4.1-12.3v-3.1c0-1 0-2.3-.2-3.2l1.7.6c.5-.2.9-.3 1.3-.5 1.4-.6 3-1.5 3.9-2.3 2 1.8 2 2.1 1.4 2h-.6c-1.5.5-3.9 1.1-6.1 1.5v4.3h4.9zM180.5 240.8c4.7.6 3.9 3.9 2.3 3-.4-1-1.5-2.1-2.5-2.8l.2-.2zm1.2 8.9c.3 0 .3 0 .6-.5.4-.8.4-.8 4.8-9.8l.4.1c-1.1 2.8-3.3 8.1-3.6 9.1-.3.7-.4 1.4-.4 2 0 1 .6 2 .5 3.9 0 1-.5 1.6-1.2 1.6-.4 0-.6-.4-.7-1.1.3-2.3.2-4.1-.3-4.4-.3-.2-.7-.3-1.1-.3v-.5h1zm.6-14c4.8.8 3.9 4.1 2.3 3.2-.4-1.1-1.6-2.3-2.5-3l.2-.2zm15.1.9c.2-.3.4-.5.5-.5.3 0 1.7 1.2 1.7 1.6-.1.2-.5.4-1 .5v2.6c0 2.6.1 3.5.2 5.1-.2.3-.9.6-1.4.6-.2 0-.3-.2-.3-.5 0-.2 0-.3.1-.5v-.5H194c.9 4.6 3.3 8.1 6.7 9.9l-.1.2c-.6 0-1.1.5-1.4 1.1-3.2-2.3-5-6-5.8-11.2h-3.7c-.2 3.9-1 8.2-4.7 11.3l-.3-.3c3.2-3.7 3.7-8.3 3.7-12.9v-3.4c0-1.1-.1-2.5-.2-3.5l1.9.9h6.9l.4-.5zm-.2 7.7v-6.5h-7.4v6.6h7.4z"/></g><path class="st3" d="M193.3 627h166.8v65.8H193.3z"/><g><path d="M255.7 657.3c4.6.6 3.8 3.9 2.2 3-.3-1-1.4-2.1-2.4-2.7l.2-.3zm1.2 8.9c.3 0 .3 0 .5-.5.4-.8.4-.8 4.2-10.1l.4.1c-.9 2.8-2.8 8.2-3.1 9.3-.2.7-.3 1.4-.3 2 0 1 .6 2.1.6 3.9 0 1-.5 1.6-1.2 1.6-.4 0-.6-.4-.7-1.1.3-2.3.2-4.1-.3-4.4-.3-.2-.6-.3-1.1-.3v-.5h1zm.5-14.3c4.7.7 3.9 4.1 2.3 3.2-.3-1-1.5-2.3-2.5-3l.2-.2zm15.8 4.1c.2-.3.3-.5.5-.5.3 0 1.5 1.2 1.5 1.5-.2.2-.4.3-.8.3-.1 5.6-.3 7.8-1 8.6-.5.5-1.1.7-1.8.7 0-.4-.1-.8-.3-1-.2-.2-.7-.4-1.3-.5v-.4c.5 0 1.4.1 1.8.1.3 0 .4 0 .6-.2.4-.5.5-2.6.6-7.5l-3.6 1.4v3.7c0 2.7.1 3.6.2 5.4-.2.3-.8.6-1.3.6-.3 0-.5-.2-.5-.5.1-1.9.2-2.8.2-5.6V659l-3.3 1.3v9c0 .7.3 1 1.7 1h3.5c1.7 0 2.8 0 3.4-.1.3 0 .5-.1.6-.4.2-.4.5-1.6.8-3.3h.3l.1 3.4c.6.2.7.4.7.7 0 .8-1 1.1-5.9 1.1h-3.5c-2.3 0-3-.4-3-2.1V661l-2.2.9-.4-.6 2.6-1v-3.1c0-1.1-.1-2.3-.2-3.2 2.3.7 2.3.9 2 1.2l-.4.3v4.4l3.3-1.3v-3.3c0-1.1-.1-2.4-.2-3.4 2.3.7 2.3.9 1.9 1.2l-.4.3v4.7l3.4-1.3h.1l.3-.8zM296.1 662.6c.3-.3.4-.7.6-.7.3 0 1.8 1.3 1.8 1.6-.1.3-.3.4-.6.4h-8.6c.5 1.2 1.3 2.3 2.3 3.2 1.2-.8 2.6-2.2 3.2-3.2 1.9 1.4 1.9 1.6 1.5 1.7h-.3c-1 .6-2.5 1.4-4 2 1.8 1.5 4 2.6 6.5 3.2v.2c-.6.1-1.1.5-1.3 1.3-4-1.5-7-4.1-8.4-8.3h-.2c-.9.9-1.9 1.7-3.1 2.3v3.7c1.8-.3 3.8-.6 5.8-.9v.4c-2 .6-4.7 1.5-8.7 2.5-.1.3-.3.4-.5.5l-1.1-1.9c.7-.1 1.7-.2 3-.4V667c-1.7.8-3.7 1.5-5.7 2l-.2-.4c3.3-1.1 6.3-2.8 8.3-4.8h-4.3c-1.2 0-2.3.1-3.4.3l-.6-1.2c1 .1 2 .2 3 .2h6.5c0-.9 0-2.1-.2-2.8 2.3.7 2.3.9 2 1.2l-.3.2v1.4h6.5l.5-.5zm-17.6-3.8l-.2-.3c1.1-.9 2.1-2 3.1-3.2.9-1.2 1.8-2.8 2.1-4 2.3 1.2 2.3 1.4 1.9 1.5l-.4.1c-.5.8-1.2 1.6-2 2.5 1 .7 1 1 .7 1.1l-.3.1v1.4c0 1.8.1 2.4.1 3.5-.2.2-.8.6-1.3.6-.3 0-.4-.2-.4-.5.1-1.1.1-1.7.2-3.4v-1.9c-1.1 1-2.3 1.9-3.5 2.5zm17.2-4.6c.2-.3.4-.7.6-.7.3 0 1.8 1 1.8 1.3 0 .3-.3.4-.5.4l-7.2.8c1 1.8 2.7 3.4 5.3 4 .5.1.6.1.8-.2.2-.4.5-1.3.6-2h.3l-.1 2.4c.7.4.7.6.6.9-.3.7-1.4.5-2.6.2-3.2-.9-5.2-2.8-6.4-5.2l-4.5.5-.2-.6 4.5-.5c-.5-1.2-.9-2.5-1.1-3.9 2.2 0 2.2.3 1.9.5l-.3.2c.2 1 .5 2.1.9 3.1l5.2-.6.4-.6zm-4.8-2.1c4.6-.2 4.4 2.7 2.9 2.3-.6-.8-2-1.6-3.1-2l.2-.3z"/></g><path class="st3" d="M.3 627h166.8v65.8H.3z"/><g><path d="M57.2 652.8c.3-.4.5-.7.7-.7.3 0 2 1.4 2 1.7 0 .3-.3.4-.6.4h-6.9v3.8H57l.3-.5c.2-.2.3-.5.5-.5.3 0 1.6 1 1.6 1.4-.2.2-.4.3-.9.4v7.5c0 2.7.1 3.6.2 5.4-.2.2-.7.6-1.4.6-.2 0-.3-.2-.3-.5s0-.5.1-1v-.7H42.7v.6c0 .6 0 .8.1 1.1-.1.2-.5.6-1.3.6-.2 0-.5-.2-.5-.5.1-2 .2-3 .3-5.9v-4.1c0-1.6-.1-3.4-.3-4.7l2 .8h3.8v-3.8h-3c-1.2 0-2.3.1-3.4.3l-.6-1.2c1 .1 2 .2 3 .2h13.9l.5-.7zm-14.5 5.9v10.8H57v-10.8h-4.7v5c0 .3.1.4.5.4h2c.1 0 .2 0 .3-.2.1-.3.4-1.6.5-2.8h.3l.1 2.9c.4.1.5.3.5.6 0 .6-.6.9-2.7.9h-1.3c-1.3 0-1.5-.4-1.5-1.4v-5.4h-2.8c-.1 3-.8 6.2-5.1 8.3l-.3-.3c3.2-2.3 3.9-5.1 3.9-8h-4zm5.5-.7H51v-3.8h-2.8v3.8zM80.1 656.8c.3-.3.5-.7.6-.7.3 0 1.9 1.3 1.9 1.7-.1.3-.3.4-.6.4h-6c.4 5 1.7 9.4 4.5 11.7.3.3.5.3.7-.1.3-.5.7-1.6.9-2.6h.3l-.4 3.5c.6.9.7 1.3.5 1.5-.5.7-1.8 0-2.8-.8-3.2-2.8-4.7-7.5-5.2-13.2h-8.1c-1.2 0-2.3.1-3.4.3l-.6-1.2c1 .1 2 .2 3 .2h9c-.1-1.8-.2-3.8-.2-5.7 2.3.2 2.3.4 1.9.7l-.4.3c0 1.6 0 3.2.1 4.8h3.6l.7-.8zm-7.6 5.7c.2-.3.4-.7.6-.7.3 0 1.7 1.3 1.7 1.6-.1.3-.3.4-.6.4h-4v5.3c1.6-.3 3.3-.6 4.9-1l.1.4c-2.6.9-6.1 2-11 3.3-.1.3-.3.5-.5.5l-1-1.8c.6-.1 1.3-.2 2.2-.4v-4.5c0-1.5-.1-3.4-.3-4.6 2.3.7 2.3.9 2 1.1l-.3.2v7.5c.8-.2 1.6-.3 2.5-.5v-6.1c0-1.6-.1-3.4-.3-4.7 2.4.7 2.4.9 2 1.2l-.3.2v3.2h1.9l.4-.6zm-1.5-9.3c.3-.3.4-.7.6-.7.3 0 1.7 1.3 1.7 1.6-.1.3-.3.4-.6.4h-4.2c-1.2 0-2.3.1-3.4.3l-.6-1.2c1 .1 2 .2 3 .2h3l.5-.6zm6.3-.6c4.8.6 4.1 3.8 2.5 3-.4-1-1.7-2.1-2.7-2.8l.2-.2zM93.9 659.1c.3-.3.4-.7.6-.7.3 0 1.7 1.3 1.7 1.6 0 .2-.3.3-.5.3h-6.5c-1.2 0-2.3.1-3.4.3l-.6-1.1c1 .1 2 .2 3 .2h3c.5-1.4.8-3.3.9-4.5 2.4.7 2.4 1 2 1.1l-.4.2c-.5.9-1.2 2.2-2 3.2h1.8l.4-.6zm-.2 3.6c.2-.3.4-.6.6-.6.3 0 1.6 1.2 1.6 1.6-.1.3-.3.4-.6.4h-4.1v1c4.8 1.3 3.9 4.5 2.4 3.5-.3-1.1-1.4-2.4-2.4-3.2v2.2c0 2.2.1 3 .2 4.3-.2.3-.8.6-1.3.6-.3 0-.5-.2-.5-.5.1-1.3.1-1.9.2-3.8V666c-1.1 1.8-2.5 3.4-4.3 4.7l-.3-.3c1.7-1.8 3.1-4.1 3.9-6.5h-1.2c-.7 0-1.4.1-2.1.3l-.6-1.2c1 .1 2 .2 3 .2h1.4c0-.9 0-1.9-.2-2.7 2.2.7 2.2.9 1.9 1.2l-.3.2v1.3h2.1l.6-.5zm-.3-8.7c.2-.3.4-.7.6-.7.3 0 1.7 1.2 1.7 1.6-.1.3-.3.4-.6.4h-5.6c-1.2 0-2.3.1-3.4.3l-.6-1.1c1 .1 1.9.2 2.9.2h1.4c0-1 0-2.3-.2-3.1 2.3.7 2.3.9 2 1.2l-.4.2v1.7H93l.4-.7zm-5.9 1.5c3.4 2.3 1.9 5 .8 3.8 0-1.2-.6-2.7-1-3.6l.2-.2zm15.3 4l.5-.7c.3-.3.5-.7.7-.7.3 0 1.8 1.4 1.8 1.7 0 .3-.3.4-.5.4h-2.4v6.3c0 2.7.1 3.6.2 5.4-.2.2-.7.6-1.3.6-.3 0-.5-.2-.5-.5.1-2 .2-3 .3-5.9v-5.9h-3.3v.7c0 4.1-.5 8.6-4.9 11.6l-.3-.3c3.3-3.1 3.9-7 3.9-11.3v-3.7c0-1.3-.1-2.8-.2-3.9l1.8.7c.3-.1.7-.3 1-.4 1.4-.5 3-1.4 3.9-2.3 1.8 1.7 1.8 1.9 1.3 1.9h-.5c-1.5.5-3.9 1.2-6 1.5v4.9h4.5zM108.4 665l-.3-.3c1-1 2.1-2.4 3-4.1.8-1.3 1.6-3.4 1.9-4.7 2.3 1 2.3 1.2 1.9 1.3l-.4.1c-.6 1.1-1.2 2.2-1.9 3.2.8.6.8.9.5 1l-.3.1v4.7c0 2.7.1 3.6.2 5.4-.2.2-.8.6-1.3.6-.3 0-.5-.2-.5-.5.1-2 .2-3 .3-5.9v-3.8c-1.2 1.3-2.2 2.2-3.1 2.9zm17.4-11.3c.2-.3.4-.6.6-.6.3 0 1.6 1.5 1.6 1.8-.2.2-.4.2-.8.2-.7.7-2 1.6-2.9 2.2l-.3-.2c.4-.6 1-1.5 1.4-2.3h-14c0 1.6-.7 2.6-1.4 3.1-.6.4-1.4.4-1.6-.1-.2-.5.1-1 .5-1.3 1-.5 1.9-1.9 1.9-3.5h.4c.1.4.2.8.2 1.2h6.1c0-1 0-2.2-.2-3 2.4.7 2.4.9 2.1 1.2l-.4.3v1.5h6.5l.3-.5zm-1 7.3c.2-.3.3-.5.5-.5.3 0 1.7 1.3 1.7 1.6-.2.2-.5.3-.9.4v4c0 2.7.1 3.6.2 5.4-.2.3-.9.6-1.4.6-.2 0-.3-.2-.3-.5 0-.2 0-.3.1-.5v-.5h-7v1.1c0 .2-.5.5-1.2.5-.2 0-.4-.2-.4-.5.1-1.4.2-2.2.2-4.3v-2.4c0-1.5-.1-3.4-.3-4.7l1.8.9h1.8c.2-.9.4-2 .5-2.8h-1.7c-1.1 0-2.1.1-3.1.3l-.6-1.2c1 .1 2 .2 3 .2h7.7l.4-.6c.3-.3.4-.6.6-.6.3 0 1.7 1.1 1.7 1.5 0 .2-.3.3-.5.3h-5.7c-.4.9-.9 2-1.4 2.8h4.1l.2-.5zm-.2 1.2h-7v3.5h7v-3.5zm-7 8h7v-3.9h-7v3.9z"/></g><path class="st3" d="M.3 485h166.8v65.8H.3z"/><g><path d="M56.5 512.2l.5-.7c.3-.4.5-.7.7-.7.3 0 2 1.4 2 1.8-.1.2-.3.3-.6.3H44c-1.2 0-2.3.1-3.4.3L40 512c1 .1 2 .2 3 .2h6c0-.9 0-1.9-.2-2.7 2.4.7 2.4.9 2 1.2l-.4.3v1.2h6.1zm-13.8 12.3c0 2.7.1 3.6.2 5.4-.2.3-.8.6-1.3.6-.2 0-.4-.2-.4-.5.1-1.2.1-1.8.2-3.5v-2c0-1.5-.1-3.4-.3-4.7l1.8.8h13.9l.3-.5c.2-.2.3-.5.5-.5.3 0 1.8 1.1 1.8 1.4-.1.2-.5.4-1 .4v6.8c0 1.1-.3 1.9-2.2 2.1 0-.4-.2-.8-.5-1-.3-.2-.8-.4-1.8-.5v-.3s2.1.2 2.6.2c.4 0 .5-.1.5-.5v-6.9H42.7v3.2zm11.2-10.4c.2-.3.4-.5.5-.5.3 0 1.7 1.2 1.7 1.5-.2.2-.5.4-1 .5v1.2c0 1.2 0 1.6.1 2.3-.1.3-.9.6-1.3.6h-.2v-1h-7.8v.7c0 .1-.6.5-1.2.5-.2 0-.3-.2-.3-.5.1-.5.1-.7.1-1.5v-1c0-1 0-2.2-.2-3l1.7.8h7.4l.5-.6zm-1.2 8.5c.2-.2.3-.5.5-.5.3 0 1.5 1.1 1.5 1.4-.1.2-.4.3-.8.4v1.3c0 1.3 0 1.7.1 2.4-.1.3-.8.6-1.3.6h-.2v-1H47v.9c0 .1-.6.5-1.2.5-.2 0-.3-.2-.3-.5.1-.5.1-.8.1-1.6v-1c0-1-.1-2.3-.2-3.2l1.7.8h5.3l.3-.5zm-6.8-4.6h7.8v-2.7h-7.8v2.7zm1.1 8.7h5.5v-2.8H47v2.8zM66 528.6c0 .5 0 .6.1.8-.1.3-.6.7-1.2.7-.2 0-.5-.2-.5-.5.1-2 .2-3 .3-5.9v-7.8c0-1.6-.1-3.4-.3-4.7l1.8.9h13.1l.4-.5c.2-.3.3-.5.5-.5.3 0 1.7 1.1 1.7 1.5-.2.2-.5.4-1 .5V524c0 2.7.1 3.6.2 5.4-.2.3-.9.7-1.4.7-.2 0-.3-.2-.3-.5 0-.2 0-.4.1-.7v-.6H66v.3zm5.9-15.8H66v6.8h5.9v-6.8zm-5.9 7.5v7.2h5.9v-7.2H66zm13.5-7.5h-6.1v6.8h6.1v-6.8zm-6.2 14.7h6.1v-7.2h-6.1v7.2zM88.4 523.8c.7 2.8-.3 4.5-1.2 5.2-.6.4-1.4.5-1.6 0-.2-.5.1-.9.5-1.2 1-.6 1.9-2.2 1.9-3.9l.4-.1zm12.3-6.3c.3-.3.5-.7.6-.7.3 0 1.8 1.3 1.8 1.6-.1.3-.3.4-.6.4h-6.2v2.7h6.5l.4-.5c.2-.2.4-.5.5-.5.3 0 1.6 1.1 1.6 1.4-.2.2-.4.3-.9.3-.3 3.9-1 6.6-2 7.4-.6.5-1.4.7-2.3.7 0-.4-.1-.8-.4-1-.3-.3-1.2-.5-2-.6v-.4c.9.1 2.5.2 2.9.2.4 0 .6 0 .9-.2.6-.5 1.2-2.9 1.5-6.3H90.2v.6c0 .1-.5.5-1.2.5-.3 0-.5-.2-.5-.5.1-1.6.2-2.5.2-4.9V515c0-1.5-.1-3.4-.3-4.7l2 .9h10.2l.5-.7c.3-.3.5-.7.7-.7.3 0 1.8 1.3 1.8 1.7-.1.3-.3.4-.5.4h-6.7v2.7h3.8l.5-.6c.3-.3.5-.6.6-.6.3 0 1.8 1.3 1.8 1.6 0 .3-.3.4-.6.4h-6.1v2.7h3.8l.5-.6zm-5.7-5.4h-4.8v2.7H95v-2.7zm0 6.1v-2.7h-4.8v2.7H95zm-4.8.6v2.7H95v-2.7h-4.8zm.9 5c2.9 3.1 1.3 5.9.2 4.5.2-1.4-.1-3.2-.5-4.4l.3-.1zm3.1-.2c3.9 2.2 2.6 5.2 1.3 4.1-.1-1.3-.9-2.9-1.6-3.9l.3-.2zm3.2-.5c4.4 1.2 3.6 4.2 2.2 3.3-.3-1-1.5-2.4-2.4-3.1l.2-.2zM113.2 515.1c.2-.3.4-.7.6-.7.3 0 1.6 1.3 1.6 1.7-.1.3-.3.3-.6.3h-2.5v6.3c1-.4 2-.9 3.1-1.4l.1.3c-1.4 1-3.5 2.4-6.2 4.1 0 .3-.2.5-.4.6l-.9-1.9c.6-.2 1.6-.6 2.9-1.2v-6.9h-.8c-.5 0-1 .1-1.4.3l-.6-1.2c.6.1 1.3.2 1.9.2h.9v-1.3c0-1.6-.1-3.4-.3-4.7 2.5.7 2.5.9 2.1 1.2l-.4.3v4.6h.5l.4-.6zm12.8 3.6c.3-.3.4-.7.6-.7.3 0 1.8 1.3 1.8 1.6-.1.3-.3.4-.5.4h-8.6c-.3.7-.7 1.3-1.2 1.9h7.7l.3-.4c.2-.2.3-.5.5-.5.3 0 1.6 1 1.6 1.4-.1.2-.4.3-.9.3-.3 3.9-.9 6.3-1.9 7.1-.6.5-1.3.7-2.1.7 0-.4-.1-.8-.4-1-.3-.3-.9-.4-1.6-.5v-.4c.8.1 2 .2 2.4.2.4 0 .6 0 .8-.2.5-.5 1.1-2.6 1.4-5.9h-1.7c-1.2 3.4-3.4 6-6.9 7.9l-.2-.4c2.8-1.9 4.6-4.5 5.5-7.5h-1.8c-1.5 2.9-4 5.2-7.3 6.8l-.3-.4c2.6-1.6 4.7-3.9 6-6.5h-1.9c-1.3 1.4-2.8 2.6-4.7 3.5l-.3-.3c2.2-1.5 3.9-3.5 4.9-5.7h-1.1c-.7 0-1.3.1-2 .3l-.6-1.2c1 .1 2 .2 3 .2h8.6l.9-.7zm-1.5-8.5c.2-.3.3-.5.5-.5.3 0 1.7 1.2 1.7 1.5-.2.2-.5.4-.9.5v2c0 2 .1 2.7.1 3.9-.2.3-.8.6-1.3.6h-.2v-.9H118v.7c0 .1-.6.5-1.2.5-.2 0-.3-.2-.3-.5.1-.8.1-1.2.1-2.4v-1.4c0-1.4-.1-3.2-.3-4.3l1.8.8h6l.4-.5zm-.2 1.2H118v2.3h6.4v-2.3zm-6.3 5.3h6.4v-2.3H118v2.3z"/></g><path class="st3" d="M.3 355h166.8v65.8H.3z"/><g><path d="M79.5 384.4l.4-.5c.2-.2.3-.5.5-.5.3 0 1.7 1.1 1.7 1.5-.1.2-.5.4-.9.5v2.6c0 2.6.1 3.5.2 5.1-.2.3-.9.6-1.4.6-.3 0-.3-.2-.3-.5s0-.4.1-.8v-.6h-6.4v2.7c0 2.7.1 3.6.2 5.3-.2.3-.8.7-1.4.7-.3 0-.5-.2-.5-.5.1-1.8.2-2.7.2-5.4v-2.9h-6.4v.5c0 .5 0 .7.1 1-.1.3-.7.6-1.3.6-.2 0-.4-.2-.4-.5.1-1.1.1-1.7.2-3.4V388c0-1.5-.1-3.4-.3-4.7l1.9.9h6.2v-.3c0-1.5-.1-3.4-.3-4.7 2.6.7 2.6 1 2.2 1.2l-.4.3v3.4h6.1zm-14 6.7h6.4v-6h-6.4v6zm7.8 0h6.4v-6h-6.4v6zM102.4 384.2c.3-.3.5-.7.6-.7.3 0 1.9 1.3 1.9 1.7-.1.3-.3.4-.6.4h-4.7v5.7h2.8l.5-.7c.3-.4.5-.7.7-.7.3 0 1.9 1.4 1.9 1.8-.1.3-.3.4-.6.4h-5.4v2.7c0 2.7.1 3.6.2 5.2-.2.3-.8.7-1.3.7-.3 0-.5-.2-.5-.5.1-1.8.2-2.6.2-5.3V392h-5.6c-.4 3.7-1.9 6.7-5.8 8.7l-.3-.3c3.1-2.1 4.3-4.9 4.6-8.4h-1.9c-1.2 0-2.3.1-3.4.3l-.6-1.2c1 .1 2 .2 3 .2H91V385.6h-1.6c-1 0-2.1.1-3.1.3l-.6-1.2c1 .1 2 .2 3 .2H91v-.5c0-1.6-.1-3.4-.3-4.7 2.5.7 2.5.9 2.1 1.2l-.4.3v3.8h5.5v-.6c0-1.5-.1-3.4-.3-4.7 2.5.7 2.5.9 2.1 1.2l-.4.3v3.8h2.3l.8-.8zm-9.7 5.4c0 .5 0 1.1-.1 1.6h5.6v-5.7h-5.5v4.1z"/></g><g><path d="M291.6 433.1h-8.1v.6h-.9v-7.1h2.9v-2H282v-.7h11v.7h-4.2v2h3.6v7.1h-.9v-.6zm-8-.7h8.1v-5.1H289v2.2c0 .1 0 .2.1.3s.1.1.2.1h.6c.2 0 .3-.1.4-.2s.1-.5.1-1.2l.7.1v1.2c0 .2 0 .4-.1.5s-.2.2-.4.3-.5.1-.9.1c-.7 0-1.2-.1-1.3-.3s-.2-.4-.2-.7v-2.4h-1.6c-.1 1.6-.7 2.9-1.8 3.9l-.5-.5c.9-.9 1.4-2.1 1.5-3.4h-2v5.1zm2.9-5.7h1.6v-2h-1.6v2zM282.3 445.8l-.2-.8c.2 0 .6-.1 1.2-.1v-4.5h.9v4.4l1.5-.2v-5.4h.9v1.9h1.7v.7h-1.7v2.7c1.3-.2 2.1-.3 2.5-.4v.7c-.4.1-1.3.2-2.8.4s-2.7.5-4 .6zm-.1-7v-.8h6.5v-2.7h.9v2.7h3.1v.7h-3.1c.1 1.1.1 2 .2 2.5s.2 1.1.4 1.5.4.9.6 1.2.4.6.5.7.2.2.3.2c.1 0 .1 0 .2-.1s.1-.1.1-.2.1-.3.1-.6.1-.7.1-1.1l.8.2c0 .6-.1 1.1-.2 1.6s-.2.8-.2.9-.2.2-.3.3-.3.1-.5.1-.5-.1-.7-.2-.5-.4-.8-.8-.6-.9-.9-1.4-.4-1.2-.6-2-.2-1.7-.3-2.8h-6.2zm.9-2v-.7h4.4v.7h-4.4zm8.5.8l-1.3-1.6.7-.4c.6.6 1 1.2 1.3 1.5l-.7.5zM283.7 452.5c-.5-.5-1.1-1-1.9-1.5l.6-.6c.9.6 1.5 1.1 1.9 1.5l-.6.6zm-.9 5.1l-.8-.5c.3-.4.7-.9 1.1-1.7s.7-1.4 1-2.1l.8.3c-.2.5-.4 1.2-.9 2s-.8 1.5-1.2 2zm1.8-7.8c-.6-.6-1.3-1.1-2-1.6l.6-.6c.9.7 1.5 1.2 1.9 1.5l-.5.7zm1.3 1.5l-1 .3-.2-.7 1.2-.3v-2.7h.9v2.4l1.8-.4v-2.6h.9v2.4l2.7-.6.3.2v4.5c0 .3-.1.6-.3.8s-.5.3-.8.3h-1l-.1-.8h.8c.4 0 .6-.2.6-.5V450l-2.1.5v5.3h-.9v-5l-1.8.4v5.3c0 .3.1.5.4.6s1 .1 2.1.1h1.6c.5 0 .9-.1 1-.1s.2-.1.3-.2.1-.3.1-.6v-1l.8.1v1.4c0 .1 0 .3-.1.4l-.3.3c-.1.1-.3.2-.5.2s-.6.1-1.1.1h-3c-.6 0-1 0-1.3-.1s-.5-.2-.7-.4-.2-.4-.2-.7v-5.3zM293 469.3l-.5.7c-1.1-.3-2.2-.9-3.1-1.7s-1.6-1.6-2-2.4c-.5.4-1.2.8-2.1 1.2v2c1.8-.2 2.9-.3 3.5-.4v.7c-.5.1-2.3.3-5.6.6l-.1-.7c.4 0 .9-.1 1.4-.1v-1.7c-.8.3-1.6.6-2.3.7l-.3-.6c.7-.2 1.5-.4 2.4-.8s1.6-.7 2.1-1.1h-4.2v-.7h4.8v-1h.9v1h5v.7h-4.7c.4.7.9 1.3 1.4 1.7.8-.4 1.4-.8 2-1.2l.7.6c-.5.4-1.2.7-2 1.1.9.6 1.8 1 2.7 1.4zm-7.1-9.8c-.3.5-.7 1-1.1 1.5v3.3h-.8v-2.5c-.6.6-1 1-1.3 1.2l-.5-.5c.6-.5 1.2-1 1.7-1.6s.9-1.2 1.2-1.6l.8.2zm7.3 2.8c0 .7-.1 1.2-.1 1.4s-.2.4-.3.5-.4.2-.8.2c-.7 0-1.4-.3-2.1-.8s-1.3-1.2-1.6-1.8l-2.6.1-.1-.7 2.3-.1c-.2-.5-.3-1-.4-1.7l.8-.1c.1.7.3 1.3.5 1.7l4-.2v.7l-3.8.2c.4.6.8 1.1 1.3 1.4s1 .6 1.3.6c.2 0 .3-.1.4-.2s.2-.6.3-1.3l.9.1zm-1.7-2l-.6.5-1.5-1 .5-.5 1.6 1zM282.4 481l-.7-.2c.3-1.1.5-2.1.6-2.9l.8.1c-.1.5-.2 1-.3 1.7s-.3 1.1-.4 1.3zm1.3 1v-4.9l-1.8.1-.1-.7h.6c.3-.4.7-.8 1.1-1.4l-1.6-1.6.5-.5.2.2c.5-.7.8-1.3 1.1-1.9l.8.3c-.4.7-.9 1.4-1.4 2.1l.8.8c.6-.8 1-1.5 1.2-1.9l.8.3c-.7 1.2-1.6 2.3-2.6 3.6.8 0 1.5-.1 2-.1l-.3-.9.7-.2c.2.7.4 1.3.6 1.9l-.7.2c0-.1-.1-.2-.1-.4-.3 0-.6.1-1 .1v5h-.8zm1.8-2c-.1-.5-.2-1.2-.3-2l.7-.1c.1.5.2 1.2.3 2l-.7.1zm.6 1.7l-.4-.5c.6-.4 1.1-.9 1.5-1.5s.6-1.2.7-1.7h-1.3v-.6h2.1l.2.2c-.1.8-.4 1.6-.9 2.4s-1.2 1.3-1.9 1.7zm3.1.2H288l-.1-.8h.9c.3 0 .4-.1.4-.4v-4.4h-2.4v-4.2h2.1l.3-1 .9.2-.4.8h2.9v4.2h-2.4v.6c.2.4.4.9.7 1.4.8-.5 1.4-1 1.8-1.4l.6.5c-.4.4-1.1.8-2 1.4.6.8 1.4 1.6 2.2 2.2l-.6.6c-1.2-.9-2.1-2-2.8-3.3v2.7c0 .3-.1.5-.3.6s-.3.3-.6.3zm-1.5-8h4.1v-1.1h-4.1v1.1zm4.1.6h-4.1v1.1h4.1v-1.1z"/></g><g><path d="M71.6 296.1h-8.1v.6h-.9v-7.1h2.9v-2H62v-.7h11v.7h-4.2v2h3.6v7.1h-.9v-.6zm-8-.7h8.1v-5.1H69v2.2c0 .1 0 .2.1.3s.1.1.2.1h.6c.2 0 .3-.1.4-.2s.1-.5.1-1.2l.7.1v1.2c0 .2 0 .4-.1.5s-.2.2-.4.3-.5.1-.9.1c-.7 0-1.2-.1-1.3-.3s-.2-.4-.2-.7v-2.4h-1.6c-.1 1.6-.7 2.9-1.8 3.9l-.5-.5c.9-.9 1.4-2.1 1.5-3.4h-2v5.1zm2.9-5.7h1.6v-2h-1.6v2zM62.3 308.8l-.2-.8c.2 0 .6-.1 1.2-.1v-4.5h.9v4.4l1.5-.2v-5.4h.9v1.9h1.7v.7h-1.7v2.7c1.3-.2 2.1-.3 2.5-.4v.7c-.4.1-1.3.2-2.8.4s-2.7.5-4 .6zm-.1-7v-.8h6.5v-2.7h.9v2.7h3.1v.7h-3.1c.1 1.1.1 2 .2 2.5s.2 1.1.4 1.5.4.9.6 1.2.4.6.5.7.2.2.3.2c.1 0 .1 0 .2-.1s.1-.1.1-.2.1-.3.1-.6.1-.7.1-1.1l.8.2c0 .6-.1 1.1-.2 1.6s-.2.8-.2.9-.2.2-.3.3-.3.1-.5.1-.5-.1-.7-.2-.5-.4-.8-.8-.6-.9-.9-1.4-.4-1.2-.6-2-.2-1.7-.3-2.8h-6.2zm.9-2v-.7h4.4v.7h-4.4zm8.5.8l-1.3-1.6.7-.4c.6.6 1 1.2 1.3 1.5l-.7.5zM62.2 320.1l-.4-.5c.4-.3.9-.8 1.4-1.4s.9-1.1 1.2-1.6h-2.2v-.7h2.2v-1.2H62v-.7h1.3l-.5-1.8h-.6v-.7h2.2v-1.1h.9v1.1h2.1v.7h-.6l-.6 1.8h1.3v.7h-2.3v1.2h1.9v.7h-1.9v.2c.5.5 1.1 1 1.8 1.5l-.4.7c-.6-.4-1-.8-1.4-1.2v3.2h-.9v-3.1c-.7 1-1.5 1.8-2.1 2.2zm1.5-7.9l.4 1.8h1.4l.5-1.8h-2.3zm7.3 8.7v-6.1h-2v.6c0 2.3-.6 4.2-1.8 5.6l-.6-.5c.5-.6.8-1.3 1.1-2.2s.4-1.8.4-2.8v-4.2c2-.3 3.4-.6 4.4-.9l.5.7c-1 .3-2.4.6-4 .8v2.2h4.3v.7h-1.5v6.1H71zM63.8 333v-4.9c-.4.7-.9 1.3-1.3 1.8l-.6-.5c.5-.6 1-1.4 1.5-2.3s.8-1.8 1-2.6l.9.2c-.3.8-.6 1.7-1 2.5h.4v5.8h-.9zm7.6-.6h-4.2v.5h-.9v-6h2l.5-1.3h-2.9v-.7H72v-1h-8.7v1.3h-.8v-2H67v-1h1v1h4.8v1.7h.3v.7h-3.4l-.6 1.3h3.2v6h-.9v-.5zm0-3.2v-1.6h-4.2v1.6h4.2zm-4.2 2.5h4.2v-1.8h-4.2v1.8zM62.4 344l-.7-.2c.3-1.1.5-2.1.6-2.9l.8.1c-.1.5-.2 1-.3 1.7s-.3 1.1-.4 1.3zm1.3 1v-4.9l-1.8.1-.1-.7h.6c.3-.4.7-.8 1.1-1.4l-1.6-1.6.5-.5.2.2c.5-.7.8-1.3 1.1-1.9l.8.3c-.4.7-.9 1.4-1.4 2.1l.8.8c.6-.8 1-1.5 1.2-1.9l.8.3c-.7 1.2-1.6 2.3-2.6 3.6.8 0 1.5-.1 2-.1l-.3-.9.7-.2c.2.7.4 1.3.6 1.9l-.7.2c0-.1-.1-.2-.1-.4-.3 0-.6.1-1 .1v5h-.8zm1.8-2c-.1-.5-.2-1.2-.3-2l.7-.1c.1.5.2 1.2.3 2l-.7.1zm.6 1.7l-.4-.5c.6-.4 1.1-.9 1.5-1.5s.6-1.2.7-1.7h-1.3v-.6h2.1l.2.2c-.1.8-.4 1.6-.9 2.4s-1.2 1.3-1.9 1.7zm3.1.2H68l-.1-.8h.9c.3 0 .4-.1.4-.4v-4.4h-2.4v-4.2h2.1l.3-1 .9.2-.4.8h2.9v4.2h-2.4v.6c.2.4.4.9.7 1.4.8-.5 1.4-1 1.8-1.4l.6.5c-.4.4-1.1.8-2 1.4.6.8 1.4 1.6 2.2 2.2l-.6.6c-1.2-.9-2.1-2-2.8-3.3v2.7c0 .3-.1.5-.3.6s-.3.3-.6.3zm-1.5-8h4.1v-1.1h-4.1v1.1zm4.1.6h-4.1v1.1h4.1v-1.1z"/></g></svg>