<svg version="1.1" id="レイヤー_1" xmlns="http://www.w3.org/2000/svg" x="0" y="0" viewBox="0 0 365 766" xml:space="preserve"><style>.st1{fill:#fff;stroke:#22b573;stroke-width:4;stroke-miterlimit:10}.st2{fill:#fff;stroke:#000}.st2,.st3,.st4{stroke-miterlimit:10}.st3{fill:#fff;stroke:#29abe2;stroke-width:4}.st4{stroke:#000}.st5{fill:#fff}</style><path fill="#fff" stroke="#8c6239" stroke-width="4" stroke-miterlimit="10" d="M53.8 469.9v209"/><path class="st1" d="M276.8 245.4v188M277.3 78.9v188"/><path class="st2" d="M193.2 18.9h167.3v65.8H193.2z"/><path class="st3" d="M83.8 132.9v331.5"/><path d="M257.4 713.5v-8.4l7.2 4.2-7.2 4.2zM269.8 711.4c0 .7-.2 1.2-.6 1.6-.4.4-1 .6-1.7.6-.4 0-.9-.1-1.4-.2v-.9h.1c.5.2.9.2 1.2.2.5 0 .9-.1 1.1-.3s.4-.7.4-1.4v-4.8H267v-.8h2.8v6zM278.3 713.4H277l-2.7-3.3h-1.6v3.3h-1v-8.1h2.3c1.1 0 1.8.2 2.3.6.5.4.7.9.7 1.6 0 1.1-.5 1.9-1.6 2.4l2.9 3.5zm-5.6-7.2v3.2h1.2c.7 0 1.3-.2 1.6-.5s.5-.7.5-1.3c0-.9-.6-1.4-1.9-1.4h-1.4zM281.9 714v-7.6h.9v6.3h3.1v-8h.9v8h3.2v-6.3h.9v7.6h-.9v-.6h-7.2v.7h-.9zM292.4 710.7v-.7h4.8v-1.9h-4.3v-.7h4.3v-1.7c-1.5.1-2.8.2-4 .2l-.1-.7c3.7-.1 6.4-.3 8.1-.7l.4.6c-.8.2-2 .4-3.5.5v1.8h4v.7h-4v1.9h4.5v.7H298v2.5c0 .3-.1.5-.3.6-.2.2-.5.2-.7.2h-1.6l-.1-.8h1.4c.1 0 .2 0 .3-.1s.2-.2.2-.3v-2.2h-4.8zM303.7 713.3l-.6-.1c.3-1 .5-1.9.5-2.7l.7.1-.3 1.5c-.1.5-.2.9-.3 1.2zm1.2.8v-4.5l-1.6.1-.1-.7h.6c.3-.3.6-.8 1-1.3l-1.5-1.5.5-.5.2.2c.4-.6.8-1.2 1-1.7l.7.3c-.4.7-.8 1.3-1.3 1.9l.8.8c.5-.7.9-1.3 1.1-1.8l.7.3c-.7 1.1-1.5 2.1-2.4 3.3.8 0 1.4-.1 1.9-.1l-.2-.8.6-.2c.2.6.4 1.2.5 1.8l-.7.2c0-.1-.1-.2-.1-.4-.3 0-.6.1-.9.1v4.6h-.8zm1.6-1.8c-.1-.5-.2-1.1-.3-1.8l.6-.1c.1.5.2 1.1.3 1.8l-.6.1zm.6 1.5l-.4-.5c.6-.4 1-.9 1.4-1.4s.6-1.1.6-1.6h-1.2v-.6h1.9l.2.2c-.1.7-.3 1.5-.8 2.2-.5.8-1.1 1.4-1.7 1.7zm2.8.2h-1.1l-.1-.7h.8c.3 0 .4-.1.4-.4v-4.1h-2.2V705h1.9l.3-.9.8.2-.4.8h2.6v3.8h-2.2v.6c.1.4.4.9.7 1.3.7-.5 1.3-.9 1.6-1.3l.6.5c-.4.3-1 .8-1.8 1.3.6.8 1.3 1.4 2 2l-.5.6c-1.1-.8-1.9-1.8-2.5-3v2.5c0 .2-.1.4-.3.6h-.6zm-1.4-7.3h3.7v-1h-3.7v1zm3.7.6h-3.7v1h3.7v-1zM318.5 709.5c0-.3.1-.5.3-.7s.4-.3.7-.3c.3 0 .5.1.7.3s.3.4.3.7c0 .3-.1.5-.3.7s-.4.3-.7.3c-.3 0-.5-.1-.7-.3s-.3-.4-.3-.7zM325.3 712.1l-.2-.7c.5-.1 1-.2 1.4-.3v-3.9h-1.1v-.6h1.1v-2.3h.8v2.3h.9v.6h-.9v3.7c.5-.1.9-.3 1.2-.4v.7c-.3.2-1.4.5-3.2.9zm8.3 1.9h-1.4l-.1-.8h1.2c.3 0 .4-.1.4-.4V709h-5.3v-.6h7.1v.6h-1v4.2c.1.6-.2.8-.9.8zm-1.6-7.8c-.3.5-.7.8-1.2 1.1-.5.3-1.1.5-1.8.6l-.2-.6c.7-.1 1.2-.3 1.7-.6.4-.3.7-.6.9-1h-2.2v-.6h2.4v-.9h.8v.9h2.5v.6h-2.4c.3.3.6.6 1.2.9.5.3 1 .5 1.5.6l-.4.6c-.5-.1-1.1-.3-1.6-.6-.6-.2-1-.6-1.2-1zm-2 6.2v.4h-.8v-2.9h3.3v2.5H330zm1.8-2H330v1.4h1.8v-1.4zM336.6 713.5l-.5-.6c1.3-.8 2.2-1.6 2.8-2.4l.7.4c-.4.5-.8.9-1.4 1.4-.5.6-1.1 1-1.6 1.2zm-.2-7.6v-.7h4.5v-1h.9v1h4.6v.7h-10zm4.5 8.2h-1.4l-.1-.7h1.1c.3 0 .5-.1.5-.4v-3h-3.5v-3h7.8v3h-3.5v3.3c0 .2-.1.4-.3.6s-.4.2-.6.2zm3.6-6.5h-6.2v1.8h6.2v-1.8zm1.6 5.8c-.4-.2-.9-.5-1.6-1.1s-1.2-1-1.5-1.3l.6-.5c.4.4.9.8 1.5 1.3s1.1.8 1.4.9l-.4.7zM347.7 713.3l-.6-.1c.3-1 .5-1.9.5-2.7l.7.1-.3 1.5c-.1.5-.2.9-.3 1.2zm1.2.8v-4.5l-1.6.1-.1-.7h.6c.3-.3.6-.8 1-1.3l-1.5-1.5.5-.5.2.2c.4-.6.8-1.2 1-1.7l.7.3c-.4.7-.8 1.3-1.3 1.9l.8.8c.5-.7.9-1.3 1.1-1.8l.7.3c-.7 1.1-1.5 2.1-2.4 3.3.8 0 1.4-.1 1.9-.1l-.2-.8.6-.2c.2.6.4 1.2.5 1.8l-.7.2c0-.1-.1-.2-.1-.4-.3 0-.6.1-.9.1v4.6h-.8zm1.6-1.8c-.1-.5-.2-1.1-.3-1.8l.6-.1c.1.5.2 1.1.3 1.8l-.6.1zm.6 1.5l-.4-.5c.6-.4 1-.9 1.4-1.4s.6-1.1.6-1.6h-1.2v-.6h1.9l.2.2c-.1.7-.3 1.5-.8 2.2-.5.8-1.1 1.4-1.7 1.7zm2.8.2h-1.1l-.1-.7h.8c.3 0 .4-.1.4-.4v-4.1h-2.2V705h1.9l.3-.9.8.2-.4.8h2.6v3.8h-2.2v.6c.1.4.4.9.7 1.3.7-.5 1.3-.9 1.6-1.3l.6.5c-.4.3-1 .8-1.8 1.3.6.8 1.3 1.4 2 2l-.5.6c-1.1-.8-1.9-1.8-2.5-3v2.5c0 .2-.1.4-.3.6h-.6zm-1.4-7.3h3.7v-1h-3.7v1zm3.7.6h-3.7v1h3.7v-1zM267.3 726.1c-.4-.6-.9-1.1-1.2-1.5l.6-.5c.4.4.8.8 1.3 1.4l-.7.6zm-.4 4.8l-.7-.5c.5-.8.9-1.9 1.3-3.5l.7.2c-.5 1.7-.9 3-1.3 3.8zm.8-7.4c-.2-.3-.6-.8-1.2-1.5l.6-.5c.5.6.9 1.1 1.2 1.5l-.6.5zm1 5.1l-.5-.4c.4-.6.7-1.3 1.1-2.1.4-.8.6-1.5.7-2.2h-1.4v-.7h1.5v-2h.8v2h1.1v.7h-1.1v1.2c.4.4.8.8 1.3 1.2l-.4.6-.9-.9v4.9h-.8v-5c-.3 1-.8 1.8-1.4 2.7zm6.3 2.3v-.5h-1.7v.5h-.8v-9.2h3.4v9.2h-.9zm0-8.6h-1.7v2h1.7v-2zm-1.7 4.6h1.7v-2h-1.7v2zm1.7.7h-1.7v2.2h1.7v-2.2zM281.8 731v-2.2h-2.5v-.6h2.5v-1.3h-2.4v-.6h1.2l-.6-1.6h-1.4v6.4h-.8v-7h4v-1.2h-4.6v-.7h4.6v-1h.8v1h4.6v.7h-4.6v1.2h4v6c0 .3-.1.5-.3.7s-.4.3-.7.3h-1.3l-.1-.8h1.2c.1 0 .2 0 .3-.1s.1-.2.1-.3v-5.2h-1.5l-.7 1.6h1.4v.6h-2.4v1.3h2.5v.6h-2.5v2.2h-.8zm1.7-6.3h-2.6l.5 1.6h1.5l.6-1.6zM288.3 730.3l-.4-.5c.4-.3.8-.7 1.3-1.2s.8-1 1.1-1.5h-2v-.6h2v-1.1h-2.1v-.7h1.2l-.4-1.7h-.6v-.7h2v-1h.8v1h2v.7h-.5l-.6 1.7h1.2v.7h-2.1v1.1h1.8v.6h-1.8v.2c.4.5 1 .9 1.7 1.4l-.4.6c-.5-.4-1-.8-1.3-1.1v2.9h-.8v-2.8c-.8.9-1.5 1.6-2.1 2zm1.4-7.3l.4 1.7h1.3l.5-1.7h-2.2zm6.7 8v-5.6h-1.8v.5c0 2.1-.5 3.8-1.6 5.1l-.6-.4c.4-.5.8-1.2 1-2 .2-.8.4-1.7.4-2.6v-3.8c1.8-.2 3.1-.5 4-.8l.4.6c-1 .3-2.2.5-3.6.7v2h4v.7h-1.4v5.6h-.8zM300.8 731.1v-4.5c-.4.7-.8 1.2-1.2 1.6l-.5-.4c.5-.6.9-1.3 1.4-2.1.4-.9.7-1.6.9-2.4l.8.2c-.2.8-.5 1.6-.9 2.3h.4v5.3h-.9zm6.9-.5h-3.8v.4h-.9v-5.5h1.9l.4-1.2h-2.7v-.6h5.6v-.9h-8v1.2h-.8v-1.9h4.3v-.9h.9v.9h4.4v1.6h.3v.6h-3.1l-.5 1.2h2.9v5.5h-.8v-.4zm0-2.9v-1.5h-3.8v1.5h3.8zm-3.8 2.2h3.8v-1.6h-3.8v1.6zM319.7 724.9c0 .6-.1 1.1-.2 1.5-.1.4-.3.8-.6 1.5-.3.6-.8 1.2-1.3 1.6s-1.3.8-2.2 1c-.9.2-1.9.4-3.1.4l-.2-.8c2 0 3.6-.4 4.6-1.2 1.1-.7 1.7-1.8 1.9-3.3h-7.8v-.8h8.9zm-.4-1.9h-8v-.8h8v.8zM327.7 730.9h-1v-5.3c-1.6.8-3.2 1.5-5 1.9l-.3-.7c2.3-.6 4.2-1.3 5.5-2.3 1.3-.9 2.4-1.8 3-2.8l.9.3c-.7 1-1.7 2-3.1 2.9v6zM342.2 725.6c-.6 1-1.4 2-2.3 2.7-1 .8-2 1.3-3 1.7-1 .4-2.3.6-3.7.8l-.2-.8c1.2-.1 2.2-.3 3.1-.6s1.7-.7 2.3-1.1c.6-.4 1.2-.9 1.6-1.3.4-.4.9-1 1.3-1.8l.9.4zm-4.7-1.4l-.6.7c-1.3-.8-2.6-1.5-3.8-2l.5-.7c1.3.5 2.6 1.2 3.9 2zM257.4 747.5v-8.4l7.2 4.2-7.2 4.2zM266.2 747.7l-.3-.7c.6-.2 1.1-.4 1.7-.6s1.1-.6 1.6-.9 1-.7 1.2-.9h-3.1v-3.8h3.5v-.9h-4.5v-.7h4.5v-1h.8v1h4.6v.7h-4.6v.9h3.5v3.8h-3.2c.7.6 1.4 1.1 2.3 1.5s1.7.7 2.4.9l-.4.7c-.8-.2-1.6-.5-2.4-1-.9-.5-1.6-.9-2.1-1.4v2.9h-.8v-2.9c-.5.5-1.2 1-2.1 1.4s-1.8.8-2.6 1zm1.9-5.3h2.7v-1h-2.7v1zm2.7.5h-2.7v1.1h2.7v-1.1zm.8-.5h2.7v-1h-2.7v1zm2.8.5h-2.7v1.1h2.7v-1.1zM277.5 747.5l-.5-.6c1.3-.8 2.2-1.6 2.8-2.4l.7.4c-.4.5-.8.9-1.4 1.4-.6.6-1.1 1-1.6 1.2zm-.2-7.6v-.7h4.5v-1h.9v1h4.6v.7h-10zm4.4 8.2h-1.4l-.1-.7h1.1c.3 0 .5-.1.5-.4v-3h-3.5v-3h7.8v3h-3.5v3.3c0 .2-.1.4-.3.6s-.3.2-.6.2zm3.6-6.5h-6.2v1.8h6.2v-1.8zm1.7 5.8c-.4-.2-.9-.5-1.6-1.1s-1.2-1-1.5-1.3l.6-.5c.4.4.9.8 1.5 1.3s1.1.8 1.4.9l-.4.7zM296.8 739c-.3 1.6-.9 3.1-1.9 4.5 1.1.7 2 1.5 2.8 2.1l-.7.7c-.5-.5-1.4-1.2-2.7-2.1-1.5 1.8-3.3 3-5.5 3.7l-.4-.7c2-.6 3.7-1.7 5.1-3.4-.8-.6-2.1-1.3-3.7-2.2l.5-.6c1.4.7 2.7 1.5 3.7 2.1.9-1.3 1.5-2.6 1.7-4.1h1.1zM309.2 744.1l-.6.7c-.7-.5-1.6-1-2.7-1.5-1-.5-2-.8-2.8-1.1v5.7h-1v-9.4h1v2.9c2.3.7 4.3 1.6 6.1 2.7zM319.5 747.5H311v-7.8h8.6v7.8zm-.9-.7v-6.4h-6.8v6.4h6.8zM266.4 756.5v-.6h6.1v.6h-6.1zm5 8.2h-4v.3h-.8v-4.6h5.6v4.6h-.8v-.3zm-4.4-5.2v-2.3h5v2.3h-5zm2 1.5h-1.6v1.2h1.6V761zm-1.6 3h1.6v-1.2h-1.6v1.2zm3.8-6.2h-3.4v1.1h3.4v-1.1zm.2 4.4V761h-1.6v1.2h1.6zm-1.6 1.8h1.6v-1.2h-1.6v1.2zm3.3-1.5v-6.3h.8v6.3h-.8zm1.9 2.5h-1.3l-.2-.8h1c.3 0 .5-.1.5-.4v-8.4h.9v8.8c0 .2-.1.4-.3.6-.2.1-.4.2-.6.2zM281.7 764.6H279v.4h-.8v-4.1c-.3.2-.6.3-1 .5l-.3-.6c1.1-.4 2.2-1.1 3.1-1.9h-2.8v-.6h2.1V757h-1.7v-.6h1.7v-1.1h.8v1.1h1.5v.6H280v1.3h.8c.7-.8 1.3-1.6 1.7-2.4l.7.2c-.5.9-1 1.7-1.5 2.2h1.4v.6H281c-.4.4-.9.8-1.4 1.1h2.9v5h-.8v-.4zm0-2.6v-1.3H279v1.3h2.7zm-2.7 2h2.8v-1.4H279v1.4zm5.9-.6l-.1-.7h.9c.1 0 .2-.1.4-.2.1-.1.2-.3.3-.5.1-.2.1-.5.1-.8 0-.7-.3-1.4-1-2.2v-.1-.1c.5-1.5.7-2.3.7-2.5h-1.8v8.7h-.8v-9.4h3.4l.2.2c-.1.2-.2.7-.5 1.5-.3.7-.4 1.2-.6 1.4.4.6.7 1 .8 1.4.2.3.2.7.3 1v.1c0 .4 0 .7-.1 1-.1.3-.2.5-.3.7s-.3.3-.4.4c-.1.1-.3.1-.4.1h-1.1zM289 763.7l-.8-.3c.4-.8.7-2.1.9-3.8l.8.1c0 .5-.1 1.3-.3 2.1s-.5 1.6-.6 1.9zm2.1-6.1h.8v6c0 .2.1.4.3.5.2.1.7.1 1.5.1h1.1c.3 0 .5-.1.6-.1.1-.1.2-.1.2-.2s.1-.3.1-.7v-1l.8.1v1.6c0 .2 0 .3-.1.4l-.3.3c-.1.1-.2.1-.4.2-.1 0-.4.1-.8.1h-2.7c-.5 0-.8-.1-.9-.3s-.2-.4-.2-.7v-6.3zm3.3.3c-.4-.4-1.3-1.1-2.7-2l.5-.5c.4.2.8.5 1.5.9.6.4 1.1.8 1.3 1l-.6.6zm3.2 4.7c-.1-.5-.4-1.1-.7-1.9-.3-.8-.6-1.3-.8-1.7l.7-.3c.3.5.6 1.1.9 1.9s.6 1.3.6 1.7l-.7.3zM299.5 764.3l-.6-.1c.3-1 .5-1.9.5-2.7l.7.1-.3 1.5c-.1.5-.2.9-.3 1.2zm1.2.8v-4.5l-1.6.1-.1-.7h.6c.3-.3.6-.8 1-1.3l-1.5-1.5.5-.5.2.2c.4-.6.8-1.2 1-1.7l.7.3c-.4.7-.8 1.3-1.3 1.9l.8.8c.5-.7.9-1.3 1.1-1.8l.7.3c-.7 1.1-1.5 2.1-2.4 3.3.8 0 1.4-.1 1.9-.1l-.2-.8.6-.2c.2.6.4 1.2.5 1.8l-.7.2c0-.1-.1-.2-.1-.4-.3 0-.6.1-.9.1v4.6h-.8zm1.6-1.8c-.1-.5-.2-1.1-.3-1.8l.6-.1c.1.5.2 1.1.3 1.8l-.6.1zm.6 1.5l-.4-.5c.6-.4 1-.9 1.4-1.4s.6-1.1.6-1.6h-1.2v-.6h1.9l.2.2c-.1.7-.3 1.5-.8 2.2-.5.8-1 1.4-1.7 1.7zm2.9.2h-1.1l-.1-.7h.8c.3 0 .4-.1.4-.4v-4.1h-2.2V756h1.9l.3-.9.8.2-.4.8h2.6v3.8h-2.2v.6c.1.4.4.9.7 1.3.7-.5 1.3-.9 1.6-1.3l.6.5c-.4.3-1 .8-1.8 1.3.6.8 1.3 1.4 2 2l-.5.6c-1.1-.8-1.9-1.8-2.5-3v2.5c0 .2-.1.4-.3.6h-.6zm-1.4-7.3h3.7v-1h-3.7v1zm3.7.6h-3.7v1h3.7v-1zM314.3 760.5c0-.3.1-.5.3-.7s.4-.3.7-.3c.3 0 .5.1.7.3s.3.4.3.7c0 .3-.1.5-.3.7s-.4.3-.7.3c-.3 0-.5-.1-.7-.3s-.3-.4-.3-.7zM329.5 762.7h-5.2v2.5h-.8v-5.6c-.6.9-1.3 1.6-2 2.1l-.5-.5c.5-.5 1.1-1 1.6-1.6.5-.6 1-1.4 1.5-2.3h-2.7v-.6h3c.2-.4.3-.9.4-1.3l.9.1c-.1.4-.2.8-.4 1.2h6.1v.6H325c-.2.4-.4.8-.7 1.2h6.1v5.7c0 .2-.1.4-.3.6-.2.2-.4.3-.7.3h-1.6l-.1-.8h1.4c.3 0 .5-.1.5-.4v-1.2zm0-2.5V759h-5.2v1.2h5.2zm-5.2 1.8h5.2v-1.2h-5.2v1.2zM332.3 764.8l-.3-.6c1.8-.5 3.2-1.2 4.4-2.2h-4v-.7h4.4v-.8h-1.7v-4.2h1.5c.2-.5.3-.8.4-1.1l.9.1c-.1.3-.3.7-.4 1h2v4.2h-1.8v.8h4.5v.7H338c1.3 1 2.8 1.7 4.6 2.1l-.4.7c-1.8-.5-3.3-1.2-4.5-2.2v2.5h-.9v-2.5c-.6.5-1.3.9-2.2 1.3-.8.4-1.6.7-2.3.9zm.2-4.2l-.3-.7c.8-.3 1.5-.8 2.4-1.3l.3.6c-.2.1-.5.4-1.1.7s-1 .5-1.3.7zm1.5-2.7c-.3-.4-.8-.9-1.4-1.5l.6-.4 1.5 1.5-.7.4zm2 .2h2.7V757H336v1.1zm2.7.6H336v1.2h2.7v-1.2zm3.1 1.9l-1.9-1.5.5-.5c.9.6 1.5 1 2 1.4l-.6.6zm-1.4-2.7l-.5-.5c.8-.7 1.3-1.2 1.5-1.6l.7.5c-.2.2-.4.5-.8.8-.4.3-.7.6-.9.8zM344.5 762.8v.8h-.8v-7.9h5v.5h4.6v.6h-1.5v7.4c0 .2-.1.4-.3.6s-.4.2-.7.2h-1.7l-.1-.8h1.4c.1 0 .3 0 .4-.1.1-.1.2-.2.2-.3v-7.1h-2.3v6h-4.2zm1.4-4v-2.5h-1.4v2.5h1.4zm0 3.3v-2.8h-1.4v2.8h1.4zm.8-5.9v2.5h1.3v-2.5h-1.3zm0 3.1v2.8h1.3v-2.8h-1.3zM354.5 764.3l-.6-.1c.3-1 .5-1.9.5-2.7l.7.1-.3 1.5c-.1.5-.2.9-.3 1.2zm1.2.8v-4.5l-1.6.1-.1-.7h.6c.3-.3.6-.8 1-1.3l-1.5-1.5.5-.5.2.2c.4-.6.8-1.2 1-1.7l.7.3c-.4.7-.8 1.3-1.3 1.9l.8.8c.5-.7.9-1.3 1.1-1.8l.7.3c-.7 1.1-1.5 2.1-2.4 3.3.8 0 1.4-.1 1.9-.1l-.2-.8.6-.2c.2.6.4 1.2.5 1.8l-.7.2c0-.1-.1-.2-.1-.4-.3 0-.6.1-.9.1v4.6h-.8zm1.6-1.8c-.1-.5-.2-1.1-.3-1.8l.6-.1c.1.5.2 1.1.3 1.8l-.6.1zm.6 1.5l-.4-.5c.6-.4 1-.9 1.4-1.4s.6-1.1.6-1.6h-1.2v-.6h1.9l.2.2c-.1.7-.3 1.5-.8 2.2-.5.8-1 1.4-1.7 1.7zm2.9.2h-1.1l-.1-.7h.8c.3 0 .4-.1.4-.4v-4.1h-2.2V756h1.9l.3-.9.8.2-.4.8h2.6v3.8h-2.2v.6c.1.4.4.9.7 1.3.7-.5 1.3-.9 1.6-1.3l.6.5c-.4.3-1 .8-1.8 1.3.6.8 1.3 1.4 2 2l-.5.6c-1.1-.8-1.9-1.8-2.5-3v2.5c0 .2-.1.4-.3.6h-.6zm-1.4-7.3h3.7v-1h-3.7v1zm3.7.6h-3.7v1h3.7v-1z"/><g><path d="M132.5 397.3h-1.4v-8.7l-1.5.9V388l1.5-1h1.4v10.3zM140.2 388.3l-2.7 9H136l2.7-8.9H136v1.5h-1.4V387h5.6v1.3zM142.2 390h1.4v7.4h-1.4V390zm4.4 2.9c0-.5-.1-.9-.4-1.2-.3-.3-.6-.4-1.1-.4-.5 0-.8.1-1.1.4s-.4.6-.4 1.1l-.1-1.4c.2-.4.5-.8.9-1 .4-.2.8-.4 1.2-.4.5 0 1 .1 1.3.4.4.2.6.6.8 1s.3 1 .3 1.6v4.5h-1.4v-4.6zm4.4 0c0-.5-.1-.9-.4-1.2-.3-.3-.6-.4-1.1-.4-.4 0-.8.1-1 .4s-.4.7-.4 1.2l-.3-1.4c.2-.5.5-.9.9-1.1.4-.3.8-.4 1.3-.4s1 .1 1.4.4c.4.2.7.6.9 1 .2.4.3 1 .3 1.6v4.5H151v-4.6zM154.7 387h1.4v1.4h-1.4V387zm0 3h1.4v7.4h-1.4V390zM158.3 390h1.4v7.4h-1.4V390zm4.5 2.9c0-.5-.1-.9-.4-1.2-.3-.3-.6-.4-1.1-.4-.5 0-.8.1-1.1.4s-.4.6-.4 1.1l-.1-1.4c.2-.4.5-.8.9-1 .4-.2.8-.4 1.2-.4.8 0 1.4.3 1.9.8.4.5.7 1.3.7 2.2v4.5H163v-4.6z"/></g><g><path d="M136 301h-1.4v-8.7l-1.5.9v-1.5l1.5-1h1.4V301zM139.4 300.8c-.4-.2-.8-.5-1.1-.9-.3-.4-.4-.9-.5-1.4h1.5c0 .3.1.5.3.7s.3.3.5.4c.2.1.5.1.8.1.5 0 .8-.1 1.1-.4.3-.3.4-.6.4-1.1v-.3c0-.5-.1-.9-.4-1.2-.3-.3-.6-.4-1.1-.4h-.7v-1.4h.7c.4 0 .7-.1.9-.4s.3-.6.3-1v-.3c0-.4-.1-.7-.4-.9-.2-.2-.6-.3-1-.3-.2 0-.5 0-.7.1-.2.1-.4.2-.5.4-.1.2-.2.4-.3.7H138c.1-.6.3-1 .5-1.4.3-.4.6-.7 1-.9.4-.2.9-.3 1.4-.3.9 0 1.6.2 2.1.7.5.5.7 1.1.7 2v.2c0 .5-.1 1-.4 1.3-.3.4-.7.7-1.2.8.6.1 1 .4 1.3.8.3.4.5 1 .5 1.6v.2c0 .6-.1 1.1-.3 1.5s-.6.7-1 1c-.4.2-1 .3-1.6.3-.6.1-1.1 0-1.6-.2zM146.1 293.6h1.4v7.4h-1.4v-7.4zm4.3 2.9c0-.5-.1-.9-.4-1.2-.3-.3-.6-.4-1.1-.4-.5 0-.8.1-1.1.4s-.4.6-.4 1.1l-.1-1.4c.2-.4.5-.8.9-1 .4-.2.8-.4 1.2-.4.5 0 1 .1 1.3.4.4.2.6.6.8 1s.3 1 .3 1.6v4.5h-1.4v-4.6zm4.4 0c0-.5-.1-.9-.4-1.2-.3-.3-.6-.4-1.1-.4-.4 0-.8.1-1 .4s-.4.7-.4 1.2l-.3-1.4c.2-.5.5-.9.9-1.1.4-.3.8-.4 1.3-.4s1 .1 1.4.4c.4.2.7.6.9 1 .2.4.3 1 .3 1.6v4.5H155v-4.6zM158.5 290.7h1.4v1.4h-1.4v-1.4zm0 2.9h1.4v7.4h-1.4v-7.4zM162.1 293.6h1.4v7.4h-1.4v-7.4zm4.5 2.9c0-.5-.1-.9-.4-1.2-.3-.3-.6-.4-1.1-.4-.5 0-.8.1-1.1.4s-.4.6-.4 1.1l-.1-1.4c.2-.4.5-.8.9-1 .4-.2.8-.4 1.2-.4.8 0 1.4.3 1.9.8.4.5.7 1.3.7 2.2v4.5h-1.4v-4.6z"/></g><g><path d="M322.1 9.2l3.6-4.8c.2-.3.4-.6.5-.9s.2-.6.2-.8c0-.4-.1-.7-.4-1-.2-.2-.6-.3-1-.3s-.8.1-1 .4-.4.6-.5 1.1H322c.1-.6.3-1.1.5-1.5.3-.4.6-.7 1-1 .4-.2.9-.3 1.4-.3.6 0 1.1.1 1.6.3.4.2.8.5 1 .9.2.4.3.9.3 1.5 0 .4-.1.7-.2 1.1-.2.4-.4.8-.6 1.1l-3 4.1h3.9v1.4h-5.8V9.2zM330.5 9.8c-.5-.5-.7-1.2-.7-2.2V2.9c0-.9.3-1.6.8-2.2.5-.5 1.2-.8 2.2-.8 1 0 1.7.3 2.2.8.5.5.7 1.2.7 2.2v4.7c0 .9-.3 1.6-.8 2.2-.5.5-1.2.8-2.2.8-1-.1-1.7-.3-2.2-.8zm3.3-1c.2-.3.4-.7.4-1.2V2.9c0-.5-.1-.9-.4-1.2-.2-.3-.6-.4-1.1-.4s-.9.1-1.1.4c-.2.3-.4.7-.4 1.2v4.7c0 .5.1.9.4 1.2.2.3.6.4 1.1.4.5 0 .9-.2 1.1-.4zM337.8 3.1h1.4v7.4h-1.4V3.1zm4.4 2.9c0-.5-.1-.9-.4-1.2-.3-.3-.6-.4-1.1-.4-.5 0-.8.1-1.1.4-.3.3-.4.6-.4 1.1l-.1-1.4c.2-.4.5-.8.9-1s.8-.4 1.2-.4c.5 0 1 .1 1.3.4.4.2.6.6.8 1 .2.4.3 1 .3 1.6v4.5h-1.4V6zm4.4 0c0-.5-.1-.9-.4-1.2-.3-.3-.6-.4-1.1-.4-.4 0-.8.1-1 .4s-.4.7-.4 1.2l-.3-1.4c.2-.5.5-.9.9-1.1s.8-.4 1.3-.4 1 .1 1.4.4c.4.2.7.6.9 1 .2.4.3 1 .3 1.6v4.5h-1.4V6zM350.3.1h1.4v1.4h-1.4V.1zm0 3h1.4v7.4h-1.4V3.1zM353.9 3.1h1.4v7.4h-1.4V3.1zm4.5 2.9c0-.5-.1-.9-.4-1.2-.3-.3-.6-.4-1.1-.4-.5 0-.8.1-1.1.4-.3.3-.4.6-.4 1.1l-.1-1.4c.2-.4.5-.8.9-1s.8-.4 1.2-.4c.8 0 1.4.3 1.9.8s.7 1.3.7 2.2v4.5h-1.4V6z"/></g><g><path d="M140.7 107.8h-1.4v-8.7l-1.5.9v-1.5l1.5-1h1.4v10.3zM143.2 100.4h1.4v7.4h-1.4v-7.4zm4.4 2.9c0-.5-.1-.9-.4-1.2-.3-.3-.6-.4-1.1-.4-.5 0-.8.1-1.1.4s-.4.6-.4 1.1l-.1-1.4c.2-.4.5-.8.9-1s.8-.4 1.2-.4c.5 0 1 .1 1.3.4.4.2.6.6.8 1s.3 1 .3 1.6v4.5h-1.4v-4.6zm4.4 0c0-.5-.1-.9-.4-1.2-.3-.3-.6-.4-1.1-.4-.4 0-.8.1-1 .4s-.4.7-.4 1.2l-.3-1.4c.2-.5.5-.9.9-1.1.4-.3.8-.4 1.3-.4s1 .1 1.4.4c.4.2.7.6.9 1 .2.4.3 1 .3 1.6v4.5H152v-4.6zM155.6 97.5h1.4v1.4h-1.4v-1.4zm0 2.9h1.4v7.4h-1.4v-7.4zM159.2 100.4h1.4v7.4h-1.4v-7.4zm4.5 2.9c0-.5-.1-.9-.4-1.2-.3-.3-.6-.4-1.1-.4-.5 0-.8.1-1.1.4s-.4.6-.4 1.1l-.1-1.4c.2-.4.5-.8.9-1s.8-.4 1.2-.4c.8 0 1.4.3 1.9.8.4.5.7 1.3.7 2.2v4.5h-1.4v-4.6z"/></g><g><path d="M321.5 620.2l3.6-4.8c.2-.3.4-.6.5-.9s.2-.6.2-.8c0-.4-.1-.7-.4-1-.2-.2-.6-.3-1-.3s-.8.1-1 .4-.4.6-.5 1.1h-1.5c.1-.6.3-1.1.5-1.5.3-.4.6-.7 1-1 .4-.2.9-.3 1.4-.3.6 0 1.1.1 1.6.3.4.2.8.5 1 .9.2.4.3.9.3 1.5 0 .4-.1.7-.2 1.1-.2.4-.4.8-.6 1.1l-3 4.1h3.9v1.4h-5.8v-1.3zM334.4 612.4l-2.7 9h-1.5l2.7-8.9h-2.6v1.5h-1.4v-2.9h5.6v1.3zM336.5 614.1h1.4v7.4h-1.4v-7.4zm4.4 2.9c0-.5-.1-.9-.4-1.2-.3-.3-.6-.4-1.1-.4-.5 0-.8.1-1.1.4-.3.3-.4.6-.4 1.1l-.1-1.4c.2-.4.5-.8.9-1 .4-.2.8-.4 1.2-.4.5 0 1 .1 1.3.4.4.2.6.6.8 1 .2.4.3 1 .3 1.6v4.5h-1.4V617zm4.4 0c0-.5-.1-.9-.4-1.2-.3-.3-.6-.4-1.1-.4-.4 0-.8.1-1 .4s-.4.7-.4 1.2l-.3-1.4c.2-.5.5-.9.9-1.1.4-.3.8-.4 1.3-.4s1 .1 1.4.4c.4.2.7.6.9 1 .2.4.3 1 .3 1.6v4.5h-1.4V617zM348.9 611.1h1.4v1.4h-1.4v-1.4zm0 3h1.4v7.4h-1.4v-7.4zM352.6 614.1h1.4v7.4h-1.4v-7.4zm4.5 2.9c0-.5-.1-.9-.4-1.2-.3-.3-.6-.4-1.1-.4-.5 0-.8.1-1.1.4-.3.3-.4.6-.4 1.1l-.1-1.4c.2-.4.5-.8.9-1 .4-.2.8-.4 1.2-.4.8 0 1.4.3 1.9.8s.7 1.3.7 2.2v4.5h-1.4V617z"/></g><path class="st4" d="M.7 115h166.8v65.8H.7zM.7 211.1h359.9v65.8H.7z"/><g><path class="st5" d="M161.1 236.6c2.4.7 2.4.9 2 1.2l-.4.3v6.6c0 4.4-.8 9-4.2 11.9l-.3-.3c2.6-3.1 3.2-7.3 3.2-11.6v-3.9c0-1.4-.1-3.1-.3-4.2zm6.7 5.5c0-1.5-.1-3.4-.3-4.7 2.5.7 2.5.9 2.1 1.2l-.4.3v9.3c0 2.7.1 3.6.2 5.4-.2.3-.8.6-1.3.6-.3 0-.5-.2-.5-.5.1-1.7.2-2.5.2-5.1v-6.5zm6.9-.9c0-1.5-.1-3.4-.3-4.7 2.5.7 2.5.9 2.1 1.2l-.4.3v12.4c0 2.7.1 3.6.2 5.4-.2.3-.8.7-1.3.7-.3 0-.5-.2-.5-.5.1-2 .2-3 .3-5.9v-8.9zM188.1 247.2c.2-.3.4-.7.6-.7.3 0 1.6 1.2 1.6 1.6 0 .3-.2.4-.5.4h-3v5.2c1.5.7 3.3.8 5.8.8 2.1 0 6.8 0 8.9-.1v.3c-.6.1-.9.6-1 1.2h-8c-4.9 0-7.5-.8-9.1-5.2-.4 2.2-1.1 4.3-2.3 5.9l-.3-.3c.8-1.5 1.2-3.6 1.5-5.8.2-1.5 0-5.9-.1-4.7 2.5.1 2.5.4 2.1.6l-.4.2c0 1-.1 2.1-.3 3.3.5 1.3 1.1 2.2 1.9 2.9v-4.1c0-1.6-.1-3.4-.3-4.7 2.4.7 2.4.9 2 1.2l-.4.3v2.3h1l.3-.6zm.4-4.5c.2-.3.4-.6.6-.6.3 0 1.7 1.3 1.7 1.6-.1.3-.3.4-.6.4h-5.3c-1.2 0-2.3.1-3.4.3l-.6-1.2c.9.1 1.8.2 2.8.2h1.3v-3.6h-1c-.7 0-1.3.1-1.9.3l-.6-1.2c.8.1 1.6.2 2.5.2h1.2c0-1.1-.1-2.6-.2-3.5 2.4.7 2.4.9 2 1.2l-.4.3v2.1h1.1l.4-.6c.2-.3.4-.6.6-.6.3 0 1.7 1.2 1.7 1.6-.1.3-.3.4-.6.4h-3.2v3.6h1.7l.2-.9zm10.3-3.6c.2-.3.4-.6.6-.6.3 0 1.7 1.2 1.7 1.5-.1.3-.3.4-.5.4h-4.5c.2 2.2.4 4.4 1 6.3l.3-.6c.6-1.4 1-3.3 1.1-4.6 2.4.7 2.4 1 1.9 1.1l-.4.2c-.5 2.1-1.4 3.9-2.4 5.4.5 1.2 1 2.1 1.8 2.7.3.2.4.2.5 0 .3-.5.6-1.5.8-2.2l.3.1-.4 3c.4.5.6 1.1.4 1.3-.5.5-1.5 0-2.3-.6-.9-.7-1.6-1.7-2.2-2.9-1.4 1.6-3 2.9-5 3.8l-.3-.3c1.9-1.1 3.5-2.7 4.8-4.7-.8-2.3-1.2-5.1-1.4-8h-2.4v8.2c.8-.4 1.7-.8 2.6-1.1l.1.3c-1.2.8-2.9 2-5.2 3.4 0 .3-.2.5-.4.6l-1.1-1.7c.6-.2 1.4-.5 2.5-.9v-5.6c0-1.5-.1-3.4-.3-4.7l1.9.9h2.1c-.1-1.4-.1-2.7-.2-4 2.2.1 2.2.4 1.8.6l-.4.3c0 1 0 2.1.1 3.1h2.4l.7-.7zm-2.1-2.6c3.5.6 2.7 3.1 1.5 2.4-.2-.8-1-1.7-1.7-2.2l.2-.2z"/></g><g><path class="st5" d="M54.3 139.3c2.4.7 2.4.9 2 1.2l-.4.3v6.6c0 4.4-.8 9-4.2 11.9l-.3-.3c2.6-3.1 3.2-7.3 3.2-11.6v-3.9c-.1-1.5-.1-3.1-.3-4.2zm6.7 5.5c0-1.5-.1-3.4-.3-4.7 2.5.7 2.5.9 2.1 1.2l-.4.3v9.3c0 2.7.1 3.6.2 5.4-.2.3-.8.6-1.3.6-.3 0-.5-.2-.5-.5.1-1.7.2-2.5.2-5.1v-6.5zm6.9-.9c0-1.5-.1-3.4-.3-4.7 2.5.7 2.5.9 2.1 1.2l-.4.3v12.4c0 2.7.1 3.6.2 5.4-.2.3-.8.7-1.3.7-.3 0-.5-.2-.5-.5.1-2 .2-3 .3-5.9v-8.9zM81.3 149.8c.2-.3.4-.7.6-.7.3 0 1.6 1.2 1.6 1.6 0 .3-.2.4-.5.4h-3v5.2c1.5.7 3.3.8 5.8.8 2.1 0 6.8 0 8.9-.1v.3c-.6.1-.9.6-1 1.2h-8c-4.9 0-7.5-.8-9.1-5.2-.4 2.2-1.1 4.3-2.3 5.9l-.3-.3c.8-1.5 1.2-3.6 1.5-5.8.2-1.5 0-5.9-.1-4.7 2.5.1 2.5.4 2.1.6l-.4.2c0 1-.1 2.1-.3 3.3.5 1.3 1.1 2.2 1.9 2.9v-4.1c0-1.5-.1-3.4-.3-4.7 2.4.7 2.4.9 2 1.2l-.4.3v2.3h1l.3-.6zm.4-4.5c.2-.3.4-.6.6-.6.3 0 1.7 1.3 1.7 1.6-.1.3-.3.4-.6.4h-5.3c-1.2 0-2.3.1-3.4.3l-.6-1.2c.9.1 1.8.2 2.8.2h1.3v-3.6h-1.1c-.7 0-1.3.1-1.9.3l-.6-1.2c.8.1 1.6.2 2.5.2h1.2c0-1.1-.1-2.6-.2-3.5 2.4.7 2.4.9 2 1.2l-.4.3v2.1h1.1l.4-.6c.2-.3.4-.6.6-.6.3 0 1.7 1.2 1.7 1.5-.1.3-.3.4-.6.4h-3.2v3.6h1.7l.3-.8zm10.3-3.6c.2-.3.4-.6.6-.6.3 0 1.7 1.2 1.7 1.6-.1.3-.3.4-.5.4h-4.5c.2 2.2.4 4.4 1 6.3l.3-.6c.6-1.4 1-3.3 1.1-4.6 2.4.7 2.4 1 1.9 1.1l-.4.2c-.5 2.1-1.4 3.9-2.4 5.4.5 1.2 1 2.1 1.8 2.7.3.2.4.2.5 0 .3-.5.6-1.5.8-2.2l.3.1-.4 3c.4.5.6 1.1.4 1.3-.5.5-1.5 0-2.3-.6-.9-.7-1.6-1.7-2.2-2.9-1.4 1.6-3 2.9-5 3.8l-.3-.3c1.9-1.1 3.5-2.7 4.8-4.7-.8-2.3-1.2-5.1-1.4-8h-2.4v8.2c.8-.4 1.7-.8 2.6-1.1l.1.3c-1.2.8-2.9 2-5.2 3.4 0 .3-.2.5-.4.6l-1.1-1.7c.6-.2 1.4-.5 2.5-.9v-5.6c0-1.6-.1-3.4-.3-4.7l1.9.9h2.1c-.1-1.4-.1-2.7-.2-4 2.2.1 2.2.4 1.8.6l-.4.3c0 1 0 2.1.1 3.1h2.4l.7-.8zm-2.1-2.6c3.5.6 2.7 3.1 1.5 2.4-.2-.8-1-1.7-1.7-2.2l.2-.2zM113.1 145.2c.2-.3.3-.5.5-.5.3 0 1.8 1.2 1.8 1.6-.1.2-.5.4-.9.5v7.8c0 1.1-.3 1.9-2.4 2.1-.1-.4-.2-.8-.5-1-.3-.3-1-.5-2-.6v-.3s2.3.2 2.9.2c.4 0 .6-.1.6-.5v-7.9h-5.2v6.5c0 2.7.1 3.6.2 5.4-.2.3-.9.8-1.4.8-.3 0-.5-.2-.5-.5.1-2 .2-3 .3-5.9v-6.2h-5.1v4.3c0 2.7.1 3.6.2 5.4-.2.3-.8.6-1.4.6-.3 0-.4-.2-.4-.5.1-1.4.1-2.1.2-4.3v-2.4c0-1.5-.1-3.4-.3-4.7l1.8.8h5v-3.4h-5.4c-1.2 0-2.3.1-3.4.3l-.6-1.2c1 .1 2 .2 3 .2h6.3c0-1.2-.1-2.6-.2-3.5 2.5.7 2.5.9 2.1 1.2l-.4.3v2.1h6.1l.5-.7c.3-.4.5-.7.7-.7.3 0 2 1.4 2 1.8-.1.3-.3.4-.6.4h-9c1 .5 1 .7.6.9l-.3.2v2.2h4.9l.3-.8z"/></g><g><path d="M261 47.3l.5-.7c.3-.4.5-.7.7-.7.3 0 2 1.4 2 1.8-.1.2-.3.3-.6.3h-15.2c-1.2 0-2.3.1-3.4.3l-.6-1.2c1 .1 2 .2 3 .2h6c0-.9 0-1.9-.2-2.7 2.4.7 2.4.9 2 1.2l-.4.3v1.2h6.2zm-13.8 12.3c0 2.7.1 3.6.2 5.4-.2.3-.8.6-1.3.6-.2 0-.4-.2-.4-.5.1-1.2.1-1.8.2-3.5v-2c0-1.6-.1-3.4-.3-4.7l1.8.8h13.9l.3-.5c.2-.2.3-.5.5-.5.3 0 1.8 1.1 1.8 1.4-.1.2-.5.4-1 .4v6.8c0 1.1-.3 1.9-2.2 2.1 0-.4-.2-.8-.5-1-.3-.2-.8-.4-1.8-.5v-.3s2.1.2 2.6.2c.4 0 .5-.1.5-.5v-6.9h-14.2v3.2zm11.2-10.4c.2-.3.4-.5.5-.5.3 0 1.7 1.2 1.7 1.5-.2.2-.5.4-1 .5v1.2c0 1.2 0 1.6.1 2.3-.1.3-.9.6-1.3.6h-.2v-1h-7.8v.7c0 .1-.6.5-1.2.5-.2 0-.3-.2-.3-.5.1-.5.1-.7.1-1.5v-1c0-1 0-2.2-.2-3l1.7.8h7.4l.5-.6zm-1.2 8.5c.2-.2.3-.5.5-.5.3 0 1.5 1.1 1.5 1.4-.1.2-.4.3-.8.4v1.3c0 1.3 0 1.7.1 2.4-.1.3-.8.6-1.3.6h-.2v-1h-5.5v.9c0 .1-.6.5-1.2.5-.2 0-.3-.2-.3-.5.1-.5.1-.8.1-1.6v-1c0-1-.1-2.3-.2-3.2l1.7.8h5.3l.3-.5zm-6.7-4.6h7.8v-2.7h-7.8v2.7zm1 8.6h5.5v-2.8h-5.5v2.8zM283.6 54.7c.2-.3.3-.5.5-.5.3 0 1.6 1.1 1.6 1.4-.1.2-.4.3-.8.4v1c0 1 0 1.3.1 1.8-.1.2-.8.6-1.3.6h-.2v-.8h-13c-.2 2.3-.9 5-3.2 6.9l-.3-.3c1.9-2.5 2.1-5.7 2.1-8.6V49.7c0-.8 0-1.7-.1-2.4l1.6.8h4.1l.3-.4c.2-.2.3-.4.5-.4.3 0 1.5.8 1.5 1.2-.1.1-.4.3-.7.4v.9c0 .8 0 1.1.1 1.6-.1.3-.8.5-1.2.5-.2 0-.3-.2-.3-.5.1-.5.1-.8.1-1.6v-1h-4.4v2.8c0 .1-.6.4-1.2.4h-.1l1.6.7h5.8v-2.1l1.9.2c0-1.2-.1-2.6-.2-3.6l1.7.8h3.9l.3-.4c.2-.2.3-.4.5-.4.3 0 1.7 1 1.7 1.3-.1.2-.5.3-.9.4v2.4s0 .1-.1.1c.3.2 1.1.9 1.8 1.5-.1.3-.3.3-.6.3h-6.3v1.7h3.2v-.2zm-8.6-9.2c.2-.3.4-.6.6-.6.3 0 1.6 1.1 1.6 1.5-.1.3-.3.4-.6.4h-4.4c-1.2 0-2.3.1-3.4.3l-.6-1.2c1 .1 2 .2 3 .2h3.4l.4-.6zm1.3 14.8c.2-.3.4-.6.5-.6.3 0 1.5 1 1.5 1.4-.1.3-.3.4-.5.4h-4.1v1.9c1.4-.2 3-.3 4.7-.5v.4c-1.6.5-3.9 1.1-7.1 1.8-.1.3-.3.5-.5.5l-.9-1.8c.6 0 1.4-.1 2.4-.2v-2.4c0-.8 0-1.8-.1-2.5 2.1.7 2.1.9 1.8 1.1l-.3.2v.8h2.2l.4-.5zm-2.3-2.4v-2.1h-3.5v2.1h3.5zm0-4.5h-3.5v1.7h3.5v-1.7zm-2.4-4.2c3.1.8 2.1 3 1 2.1-.1-.7-.7-1.5-1.2-2l.2-.1zm7.2 6v-1.7h-3.4v1.7h3.4zm-3.5.6v2.1h3.4v-2.1h-3.4zm9.1-10.3c.2-.3.4-.6.6-.6.3 0 1.7 1.2 1.7 1.5-.1.3-.3.4-.6.4h-4.6c-1.2 0-2.3.1-3.4.3l-.6-1.2c1 .1 2 .2 3 .2h3.5l.4-.6zm-.2 6.4h-.2v-3.1h-4.1v.9c0 .9 0 1.3.1 1.8-.1.3-.7.6-1.3.6h-.2v-.9c-.1.1-.3.2-.5.3v1.3h6.2l.9-1.1c-.3.1-.6.2-.9.2zm.2 7.3c1.6 1.3 1.6 1.6 1.2 1.6h-.4c-1.1.5-3.1 1-4.8 1.3v1.3c0 .3.1.4.8.4h3.9c.2 0 .3 0 .4-.2.1-.2.4-1 .5-1.8h.3l.1 1.9c.5.2.6.3.6.6 0 .6-.6.8-3.8.8H281c-1.6 0-1.9-.3-1.9-1.4v-2.4c0-.8 0-1.8-.2-2.5 2.2.7 2.2.9 1.9 1.1l-.3.2v1.6c1.4-.6 3.1-1.6 3.9-2.5zm-.9-3.4h-3.3v2.1h3.3v-2.1zm-2.7-6.7c3.2.7 2.2 3.1 1 2.2-.1-.7-.7-1.6-1.3-2l.3-.2zM292.7 45.7c2.4.7 2.4.9 2 1.2l-.4.3v6.6c0 4.4-.8 9-4.2 11.9l-.3-.3c2.6-3.1 3.2-7.3 3.2-11.6v-3.9c0-1.4-.1-3.1-.3-4.2zm6.8 5.5c0-1.5-.1-3.4-.3-4.7 2.5.7 2.5.9 2.1 1.2l-.4.3v9.3c0 2.7.1 3.6.2 5.4-.2.3-.8.6-1.3.6-.3 0-.5-.2-.5-.5.1-1.7.2-2.5.2-5.1v-6.5zm6.9-.9c0-1.5-.1-3.4-.3-4.7 2.5.7 2.5.9 2.1 1.2l-.4.3v12.4c0 2.7.1 3.6.2 5.4-.2.3-.8.7-1.3.7-.3 0-.5-.2-.5-.5.1-2 .2-3 .3-5.9v-8.9z"/></g><path class="st2" d="M.7 307.2h166.8V373H.7z"/><g><path d="M60.1 345.2c.2-.3.4-.6.6-.6.3 0 1.6 1.2 1.6 1.5-.1.3-.3.4-.6.4h-4.3v1.5c0 1.5 0 2 .1 2.8-.1.2-.6.6-1.3.6-.2 0-.4-.2-.4-.5.1-.9.1-1.4.2-2.8v-1.6h-1.5c-.9 0-1.8.1-2.7.3l-.6-1.2c1 .1 2 .2 3 .2H56v-2.6h-1.9v.6c0 .2-.6.5-1.1.5-.2 0-.4-.2-.4-.5.1-.8.1-1.2.1-2.4V340c0-1.5-.1-3.3-.3-4.4l1.7.8H56v-2.3h-1.5c-.9 0-1.8.1-2.7.3l-.6-1.2c1 .1 2 .2 3 .2H56c0-1 0-2.2-.2-3 2.3.7 2.3.9 1.9 1.2l-.4.2v1.6h2.2l.4-.7c.3-.3.4-.7.6-.7.3 0 1.7 1.3 1.7 1.6 0 .3-.2.4-.5.4h-4.4v2.3H59l.4-.4c.2-.2.3-.5.5-.5.3 0 1.7 1 1.7 1.4-.1.2-.5.4-.9.4v2.1c0 2.1.1 2.8.2 4.1-.2.3-.8.6-1.3.6h-.2v-.9h-1.9v2.6h2.2l.4-.5zm-.7-8.2h-5.2v2.4h5.2V337zm-5.3 3.1v2.4h5.2v-2.4h-5.2zm10.4 2.6c-.4 3.3-1.5 6.4-4.8 8.6l-.3-.3c3.3-3 3.9-7 3.9-11.4v-4.1c0-1.4-.1-3.1-.3-4.2l1.9.8h3.9l.3-.5c.2-.3.3-.5.5-.5.3 0 1.8 1.2 1.8 1.5-.2.2-.6.4-1 .5V349c0 1.2-.3 1.9-2.3 2.1 0-.5-.2-.8-.5-1-.3-.3-.9-.4-1.9-.6v-.4s2.3.2 2.7.2c.4 0 .5-.1.5-.5v-6.3h-4.4zm.1-3.1c0 .8 0 1.6-.1 2.4H69v-4.4h-4.4v2zM69 333h-4.4v4.1H69V333zM92.3 333.3c.2-.3.4-.5.5-.5.3 0 1.5 1.4 1.5 1.7-.2.2-.4.2-.8.2-.5.6-1.3 1.3-1.9 1.8l-.3-.2c.2-.5.5-1.2.7-1.8h-7.1v1.5c0 1.5 0 2 .1 2.9-.1.2-.6.5-1.3.5-.2 0-.4-.2-.4-.5.1-.9.1-1.4.2-2.8v-1.6h-6.6c0 1.2-.5 1.9-1.1 2.3-.5.3-1.2.3-1.4-.3-.2-.5.1-.9.6-1.2.7-.3 1.4-1.4 1.3-2.4h.4c.1.3.2.6.2.9h6.7v-1.3h-3.1c-1.2 0-2.3.1-3.4.3l-.6-1.2c1 .1 2 .2 3 .2h10.3l.4-.6c.3-.3.4-.6.6-.6.3 0 1.8 1.2 1.8 1.5 0 .3-.3.4-.5.4h-7v1.3h7l.2-.5zm-10.5 14.3c.2-.3.4-.6.5-.6.3 0 1.6 1.1 1.6 1.4 0 .2-.3.3-.5.3h-5.9v.7c0 .7 0 .9.1 1.3-.1.3-.6.6-1.3.6-.2 0-.4-.2-.4-.5.1-1.5.2-2.2.2-4.5V344c0-1.6-.1-3.4-.3-4.7l1.8.8h3.8l.3-.4c.2-.2.3-.4.5-.4.3 0 1.6 1 1.6 1.3-.1.1-.4.3-.8.4v1c0 1 0 1.3.1 1.8-.1.3-.8.6-1.3.6h-.2v-.8h-4.1v2h3.6l.4-.5c.2-.3.3-.5.5-.5.3 0 1.4 1 1.4 1.3 0 .3-.2.4-.5.4h-5.4v1.9h3.9l.4-.6zm-.9-10.2c.2-.2.3-.4.5-.4.3 0 1.3.8 1.3 1.1-.1.3-.3.4-.5.4h-1.6c-1 0-2 .1-3 .3l-.6-1.2c.8.1 1.6.2 2.5.2h1.2l.2-.4zm-1.9-.9c-.4 0-.8.1-1.2.3l-.6-1.2c.7.1 1.4.2 2.1.2h1l.7-.8s.8.6 1.3 1.1c0 .3-.3.4-.5.4H79zm2.6 4.3h-4.1v2.1h4.1v-2.1zm12.8 9.1v.3c-.5.1-1 .5-1.1 1.2-1.9-.5-3.5-1.2-4.8-2.1-1.8 1-4 1.7-6.7 2.1l-.1-.4c2.3-.5 4.4-1.3 6-2.3-.9-.8-1.6-1.8-2.1-2.9h-.5c-.3 0-.5.1-.7.3l-.6-1.2c1 .1 2 .2 3 .2h3.9l.4-.4c.2-.2.4-.4.6-.4.3 0 1.4 1 1.4 1.4-.2.2-.4.3-.9.3-.7 1.1-1.6 2-2.6 2.7 1.4.6 3 1 4.8 1.2zm-3.6-10.3c.2-.3.3-.5.5-.5.3 0 1.6 1.1 1.6 1.5-.1.2-.5.3-.8.4v.9c0 .9 0 1.2.1 1.7-.1.3-.8.6-1.3.6h-.2v-.6h-2.3c-1.2 0-2.3.1-3.4.3l-.6-1.2c1 .1 2 .2 3 .2h3.3v-2.1h-2.1c-1.2 0-2.3.1-3.4.3l-.6-1.2c1 .1 2 .2 3 .2h3l.2-.5zm-1-2.3c.2-.2.3-.4.5-.4.3 0 1.3.8 1.3 1.2 0 .3-.3.4-.5.4h-1.7c-1.1 0-2.1.1-3.1.3l-.6-1.2c.8.1 1.7.2 2.6.2h1.2l.3-.5zm-2.2-.8c-.5 0-.8.1-1.2.3l-.6-1.2c.7.1 1.5.2 2.2.2h1l.8-.8s.8.6 1.3 1.2c0 .3-.2.4-.5.4h-3zm-1.4 9.2c.6.9 1.4 1.7 2.4 2.3.9-.7 1.6-1.4 2.1-2.3h-4.5zM113.1 337.4c-1.1-1.4-2.4-2.8-3.6-3.8l.3-.2c7.7 3.7 6.9 8.3 5 7-.3-.8-.8-1.7-1.4-2.6-3.7.5-8.4 1.1-14.7 1.7-.2.3-.4.4-.6.5l-.6-2.1c.9 0 2.2 0 3.7-.1.6-1.1 1.3-2.3 1.9-3.6.7-1.3 1.4-3.1 1.6-4.3 2.7 1 2.7 1.2 2.2 1.4l-.4.1c-1.1 1.8-2.8 4.3-4.5 6.3 3.1.1 7-.1 11.1-.3zm-11.3 12.4c0 .5 0 .7.1.9-.1.3-.7.6-1.3.6-.3 0-.4-.2-.4-.5.1-1.1.1-1.6.2-3.2v-1.8c0-1.6-.1-3.4-.3-4.7l1.9.9h10.2l.4-.5c.2-.3.3-.5.5-.5.3 0 1.8 1.1 1.8 1.5-.2.2-.5.4-1 .5v2.6c0 2.5.1 3.4.2 4.9-.2.3-.9.6-1.4.6-.2 0-.3-.2-.3-.5 0-.2 0-.4.1-.7v-.6H102v.5zm0-1.1h10.5v-5.9h-10.5v5.9z"/></g><path class="st2" d="M193.2 403.3H360v65.8H193.2z"/><g><path d="M273 433.8c.3-.4.5-.8.7-.8.3 0 2.1 1.5 2.1 1.9 0 .3-.3.4-.6.4h-8.7c.8 4.3 3.1 8.9 9.6 12v.3c-.8.1-1.3.4-1.5 1.3-6.1-3.5-7.8-8.9-8.5-13.5-.6 5.3-2.6 10-10.1 13.5l-.3-.4c6.4-3.6 8.3-8 8.8-13.1h-4.8c-1.2 0-2.3.1-3.4.3l-.6-1.2c1 .1 2 .2 3 .2h5.8c.1-.7.1-1.4.1-2.1.1-1.5 0-3.5-.2-4.7 2.6.3 2.6.5 2.3.8l-.4.3c0 2-.1 3.9-.3 5.8h6.3l.7-1zM281.7 431.3c0 1.5-.6 2.6-1.2 3.1-.5.5-1.3.6-1.6.1-.2-.4 0-.9.5-1.3.8-.6 1.7-2.2 1.6-3.9h.4c.1.5.2 1 .3 1.4h6.1c0-1 0-2.1-.2-2.9 2.4.7 2.4.9 2.1 1.2l-.4.3v1.5h6.8l.9-1c1.7 1.6 1.7 1.8 1.3 1.9h-.4c-.6.8-1.6 1.8-2.3 2.3l-.3-.1c.3-.7.6-1.7.8-2.5h-14.4zm11.1 1.8c.2-.3.3-.5.5-.5.3 0 1.7 1.2 1.7 1.5-.2.2-.5.4-.9.5v1.5c0 1.5 0 2 .1 2.9-.1.3-.9.6-1.3.6-.2 0-.3-.2-.3-.5 0-.1 0-.2.1-.3v-.4h-3.3c-.4.9-.9 2.2-1.4 3.1h6.2l.3-.5c.2-.2.3-.5.5-.5.3 0 1.8 1.1 1.8 1.5-.1.2-.5.4-1 .5v1.8c0 1.8.1 2.4.1 3.5-.2.3-.9.6-1.3.6-.2 0-.3-.2-.3-.5 0-.2 0-.3.1-.5v-.5H283v1.1c0 .1-.6.5-1.2.5-.2 0-.3-.2-.3-.5.1-.7.1-1.1.1-2.1v-1.3c0-1.3-.1-2.9-.3-4l1.8.8h4c.2-1 .4-2.3.6-3.1h-3v.9c0 .2-.6.5-1.2.5-.2 0-.3-.2-.3-.5.1-.6.1-.9.1-1.8v-1.2c0-1.2-.1-2.6-.2-3.6l1.7.8h7.7l.3-.3zm-9.8 13.3h11.3v-4.1H283v4.1zm1.7-12.1v3.5h8v-3.5h-8z"/></g><path class="st2" d="M0 403.3h166.8v65.8H0zM0 628.5h359.7v65.8H0z"/><g><path d="M62.3 445l-.3-.3c2.1-2.4 3.5-5.7 4.3-8.9H65c-.8 0-1.5.1-2.3.3l-.6-1.2c1 .1 2 .2 3 .2H67v-4.4c-1.4.3-3 .6-4.4.8l-.1-.4c1.4-.4 3-.9 4.4-1.4 1.4-.5 2.8-1.3 3.8-2.1 1.8 1.7 1.8 1.9 1.3 1.9h-.5c-.9.3-1.9.6-3.1.9v4.7H70l.4-.7c.3-.3.4-.7.6-.7.3 0 1.8 1.3 1.8 1.6-.1.3-.3.4-.6.4h-3.9v1.8c5.1 2.1 4.1 5.1 2.7 4.1-.4-1.1-1.7-2.6-2.7-3.6v4.7c0 2.7.1 3.6.2 5.4-.2.2-.7.6-1.3.6-.2 0-.5-.2-.5-.5.1-2 .2-3 .3-5.9v-3.8c-1.1 2.5-2.7 4.7-4.7 6.5zm12.2 1.4c0 .6 0 .8.1 1-.1.3-.6.7-1.3.7-.3 0-.5-.2-.5-.5.1-2 .2-3 .3-5.9v-6.8c0-1.6-.1-3.4-.3-4.7l1.8.9h5.1l.4-.5c.2-.3.3-.5.5-.5.3 0 1.8 1.2 1.8 1.5-.2.2-.5.4-1 .5v9.8c0 2.7.1 3.6.2 5.4-.2.2-.9.5-1.4.5-.2 0-.3-.2-.3-.5s0-.4.1-.8v-.6h-5.4v.5zm0-1.2H80v-13.4h-5.4v13.4zM102.4 435.9c.3-.4.5-.7.7-.7.3 0 2 1.4 2 1.8 0 .3-.3.4-.6.4h-6.6v8.8c0 .4.1.5 1 .5H103.2c.3 0 .4-.1.4-.4.2-.4.5-2.1.7-3.8h.3v4c.5.2.6.4.6.7 0 .7-.7 1-4.2 1h-2.4c-1.8 0-2.2-.3-2.2-1.6v-9.2h-3c-.5 6-2.3 9.4-8.4 11.4l-.1-.3c5.2-2.4 6.6-5.7 6.9-11.1h-2.9c-1.2 0-2.3.1-3.4.3l-.6-1.2c1 .1 2 .2 3 .2h6.4v-4.2c0-1.6-.1-3.4-.3-4.7 2.6.7 2.6.9 2.2 1.2l-.4.3v7.4h6.2l.4-.8zm-15.1-6.7c5.5 3.3 4.2 7.2 2.6 5.8-.3-1.8-1.7-4.1-2.8-5.6l.2-.2zm15.9 1.2l-.4.1c-1.3 1.9-3 3.8-4.4 5l-.3-.3c.4-.5.8-1.1 1.2-1.8.8-1.3 1.6-3.3 2-4.6l1.3.8c1 .5 1 .7.6.8z"/></g><g><path d="M159.3 657.5c4.6.6 3.8 3.9 2.2 3-.3-1-1.4-2.1-2.4-2.7l.2-.3zm1.3 8.9c.3 0 .3 0 .5-.5.4-.8.4-.8 4.2-10.1l.4.1c-.9 2.8-2.8 8.2-3.1 9.3-.2.7-.3 1.4-.3 2 0 1 .6 2.1.6 3.9 0 1-.5 1.6-1.2 1.6-.4 0-.6-.4-.7-1.1.3-2.3.2-4.1-.3-4.4-.3-.2-.6-.3-1.1-.3v-.5h1zm.4-14.3c4.7.7 3.9 4.1 2.3 3.2-.3-1-1.5-2.3-2.5-3l.2-.2zm15.8 4.1c.2-.3.3-.5.5-.5.3 0 1.6 1.2 1.6 1.5-.2.2-.4.3-.8.3-.1 5.6-.3 7.8-1 8.6-.5.5-1.1.7-1.8.7 0-.4-.1-.8-.3-1-.2-.2-.7-.4-1.3-.5v-.4c.5 0 1.4.1 1.8.1.3 0 .4 0 .6-.2.4-.5.5-2.6.6-7.5l-3.6 1.4v3.7c0 2.7.1 3.6.2 5.4-.2.3-.8.6-1.3.6-.3 0-.5-.2-.5-.5.1-1.9.2-2.8.2-5.6v-3.1l-3.3 1.3v9c0 .7.3 1 1.7 1h3.5c1.7 0 2.8 0 3.3-.1.3 0 .5-.1.6-.4.2-.4.5-1.6.8-3.3h.3l.1 3.4c.6.2.7.4.7.7 0 .8-1 1.1-5.9 1.1H170c-2.3 0-3-.4-3-2.1v-8.9l-2.2.9-.4-.6 2.6-1v-3.1c0-1.1-.1-2.3-.2-3.2 2.3.7 2.3.9 2 1.2l-.4.3v4.4l3.3-1.3v-3.3c0-1.1-.1-2.4-.2-3.4 2.3.7 2.3.9 1.9 1.2l-.4.3v4.7l3.4-1.3h.1l.3-.5zM199.7 662.9c.3-.3.4-.7.6-.7.3 0 1.8 1.3 1.8 1.6-.1.3-.3.4-.6.4h-8.6c.5 1.2 1.3 2.3 2.3 3.2 1.2-.8 2.6-2.2 3.2-3.2 1.9 1.4 1.9 1.6 1.5 1.7h-.4c-1 .6-2.5 1.4-4 2 1.8 1.5 4 2.6 6.5 3.2v.2c-.6.1-1.1.5-1.3 1.3-4-1.5-7-4.1-8.4-8.3h-.2c-.9.9-1.9 1.7-3.1 2.3v3.7c1.8-.3 3.8-.6 5.8-.9v.4c-2 .6-4.7 1.5-8.7 2.5-.1.3-.3.4-.5.5l-1.1-1.9c.7-.1 1.7-.2 3-.4v-3.2c-1.7.8-3.7 1.5-5.7 2l-.2-.4c3.3-1.1 6.3-2.8 8.3-4.8h-4.3c-1.2 0-2.3.1-3.4.3l-.6-1.2c1 .1 2 .2 3 .2h6.5c0-.9 0-2.1-.2-2.8 2.3.7 2.3.9 2 1.2l-.3.2v1.4h6.5l.6-.5zm-17.6-3.8l-.2-.3c1.1-.9 2.1-2 3.1-3.2s1.8-2.8 2.1-4c2.3 1.2 2.3 1.4 1.9 1.5l-.4.1c-.5.8-1.2 1.6-2 2.5 1 .7 1 1 .7 1.1l-.3.1v1.4c0 1.8.1 2.4.1 3.5-.2.2-.8.6-1.3.6-.3 0-.4-.2-.4-.5.1-1.1.1-1.7.2-3.4v-1.9c-1.1 1-2.3 1.8-3.5 2.5zm17.2-4.6c.2-.3.4-.7.6-.7.3 0 1.8 1 1.8 1.3 0 .3-.3.4-.5.4l-7.2.8c1 1.8 2.7 3.4 5.3 4 .5.1.6.1.8-.2.2-.4.5-1.3.6-2h.3l-.1 2.4c.7.4.7.6.6.9-.3.7-1.4.5-2.6.2-3.2-.9-5.2-2.8-6.4-5.2l-4.5.6-.2-.6 4.5-.5c-.5-1.2-.9-2.5-1.1-3.9 2.2 0 2.2.3 1.9.5l-.3.2c.2 1 .5 2.1.9 3.1l5.2-.6.4-.7zm-4.8-2.2c4.6-.2 4.4 2.7 2.9 2.3-.6-.8-2-1.6-3.1-2l.2-.3z"/></g><g><path d="M195.6 489v-8.4l7.2 4.2-7.2 4.2zM207.9 486.8c0 .7-.2 1.2-.6 1.6s-1 .6-1.7.6c-.4 0-.9-.1-1.4-.2v-.9h.1c.5.2.9.2 1.2.2.5 0 .9-.1 1.1-.3s.4-.7.4-1.4v-4.8h-1.8v-.8h2.8v6zM216.5 488.9h-1.3l-2.7-3.3h-1.7v3.3h-1v-8.1h2.3c1.1 0 1.8.2 2.3.6.5.4.7.9.7 1.6 0 1.1-.5 1.9-1.6 2.4l3 3.5zm-5.7-7.2v3.2h1.2c.7 0 1.3-.2 1.6-.5s.5-.7.5-1.3c0-.9-.6-1.4-1.9-1.4h-1.4zM219.6 481.2v-.6h4.5v-.8h.9v.8h4.5v.6h-9.9zm8.6 8.3H227l-.1-.7h1c.3 0 .4-.1.4-.4v-3h-7.4v4.1h-.9v-4.7h9.1v3.9c0 .2-.1.4-.3.5-.1.2-.3.3-.6.3zM221 484v-2h7.1v2H221zm6.3-1.5h-5.5v.9h5.5v-.9zm-4.2 6v.3h-.8v-2.5h4.5v2.3h-3.7zm2.9-1.7h-2.9v1.1h2.9v-1.1zM231.4 488.4h-.7v-6.9h.7v5.5h.8v-7.1h.7v7.1h.8v-5.5h.7v6.1h-2.9v.8zm6.2-6.7c-.2.5-.6.9-1 1.1-.4.3-1 .5-1.6.6l-.2-.5c.6-.1 1-.3 1.4-.6.4-.3.6-.6.8-1h-2v-.6h2.2v-.9h.8v.9h2.3v.6h-2.1c.2.4.5.7.8.9.4.3.8.5 1.3.6l-.3.6c-.5-.1-.9-.4-1.3-.7-.6-.3-.9-.6-1.1-1zm2.2 7c0 .5-.3.8-1 .8h-1.2l-.1-.7h1.1c.3 0 .4-.1.4-.4v-4h-4.3v-.6h6v.6h-.9v4.3zm-1.8-.9h-2.1v.3h-.7v-2.8h2.8v2.5zm-.7-.6v-1.3h-1.4v1.3h1.4zM241.8 488.7l-.6-.1c.3-1 .5-1.9.5-2.7l.7.1-.3 1.5c-.1.6-.2 1-.3 1.2zm1.2.9v-4.5l-1.6.1-.1-.7h.6c.3-.3.6-.8 1-1.3l-1.5-1.5.5-.5.2.2c.4-.6.8-1.2 1-1.7l.7.3c-.4.7-.8 1.3-1.3 1.9l.8.8c.5-.7.9-1.3 1.1-1.8l.7.3c-.7 1.1-1.5 2.1-2.4 3.3.8 0 1.4-.1 1.9-.1l-.2-.8.7-.2c.2.6.4 1.2.5 1.8l-.7.2c0-.1 0-.2-.1-.4-.3 0-.6.1-.9.1v4.6h-.9zm1.6-1.8c-.1-.5-.2-1.1-.3-1.8l.6-.1c.1.5.2 1.1.3 1.8l-.6.1zm.6 1.5l-.4-.5c.6-.4 1-.9 1.4-1.4s.6-1.1.6-1.6h-1.2v-.6h1.9l.2.2c-.1.7-.3 1.5-.8 2.2-.5.8-1 1.3-1.7 1.7zm2.9.2H247l-.1-.7h.8c.3 0 .4-.1.4-.4v-4.1h-2.2v-3.8h1.9l.3-.9.8.2-.4.8h2.6v3.8h-2.2v.6c.1.4.4.9.7 1.3.7-.5 1.3-.9 1.6-1.3l.6.5c-.4.3-1 .8-1.8 1.3.6.8 1.3 1.4 2 2l-.5.6c-1.1-.8-1.9-1.8-2.5-3v2.5c0 .2-.1.4-.3.6-.2-.1-.4 0-.6 0zm-1.4-7.3h3.7v-1h-3.7v1zm3.7.6h-3.7v1h3.7v-1zM256.6 485c0-.3.1-.5.3-.7s.4-.3.7-.3c.3 0 .5.1.7.3s.3.4.3.7c0 .3-.1.5-.3.7s-.4.3-.7.3c-.3 0-.5-.1-.7-.3s-.3-.5-.3-.7zM268.1 489.5h-1.7l-.1-.7h1.5c.3 0 .5-.1.5-.4V486h-4.6v-.7h4.6v-1.9h-3.1v-.7h7v.7h-3v1.9h4.5v.7H269v2.5c0 .3-.1.5-.3.7-.1.2-.4.3-.6.3zm4.5-6.7v-1.2h-8.1v1.3h-.8v-2h4.4v-1.1h.8v1.1h4.5v1.9h-.8zM279 489.1h-2.8v.4h-.8v-4.1c-.3.2-.6.3-1 .5l-.3-.6c1.1-.4 2.2-1.1 3.1-1.9h-2.8v-.6h2.1v-1.3h-1.7v-.6h1.7v-1.1h.8v1.1h1.5v.6h-1.5v1.3h.8c.7-.8 1.3-1.6 1.7-2.4l.7.2c-.5.9-1 1.7-1.5 2.2h1.4v.6h-2.1c-.4.4-.9.8-1.4 1.1h2.9v5h-.8v-.4zm0-2.6v-1.3h-2.8v1.3h2.8zm-2.7 2h2.8v-1.4h-2.8v1.4zm6-.6l-.1-.7h.9c.1 0 .2-.1.4-.2.1-.1.2-.3.3-.5.1-.2.1-.5.1-.8 0-.7-.3-1.4-1-2.2v-.1-.1c.5-1.5.7-2.3.7-2.5h-1.8v8.7h-.8v-9.4h3.4l.2.2c-.1.2-.2.7-.5 1.5-.3.7-.4 1.2-.6 1.4.4.6.7 1 .8 1.4.2.3.2.7.3 1v.1c0 .4 0 .7-.1 1-.1.3-.2.5-.3.7s-.3.3-.4.4-.3.1-.4.1h-1.1zM294.7 482.6v-1.3h-8.1v1.3h-.8v-1.9h4.4v-.9h.9v.9h4.4v1.9h-.8zm-.7 6.5h-6.8v.4h-.8V486h3.1l.5-1.1h-2.7v-2.7h6.6v2.7h-3l-.6 1.1h4.5v3.5h-.8v-.4zm-6.8-.6h6.8v-1.8h-6.8v1.8zm5.9-5.7h-5v1.5h5v-1.5zM296.8 488.7l-.6-.1c.3-1 .5-1.9.5-2.7l.7.1-.3 1.5c-.1.6-.2 1-.3 1.2zm1.2.9v-4.5l-1.6.1-.1-.7h.6c.3-.3.6-.8 1-1.3l-1.5-1.5.5-.5.2.2c.4-.6.8-1.2 1-1.7l.7.3c-.4.7-.8 1.3-1.3 1.9l.8.8c.5-.7.9-1.3 1.1-1.8l.7.3c-.7 1.1-1.5 2.1-2.4 3.3.8 0 1.4-.1 1.9-.1l-.2-.8.7-.2c.2.6.4 1.2.5 1.8l-.7.2c0-.1 0-.2-.1-.4-.3 0-.6.1-.9.1v4.6h-.9zm1.6-1.8c-.1-.5-.2-1.1-.3-1.8l.6-.1c.1.5.2 1.1.3 1.8l-.6.1zm.6 1.5l-.4-.5c.6-.4 1-.9 1.4-1.4s.6-1.1.6-1.6h-1.2v-.6h1.9l.2.2c-.1.7-.3 1.5-.8 2.2-.5.8-1 1.3-1.7 1.7zm2.9.2H302l-.1-.7h.8c.3 0 .4-.1.4-.4v-4.1h-2.2v-3.8h1.9l.3-.9.8.2-.4.8h2.6v3.8h-2.2v.6c.1.4.4.9.7 1.3.7-.5 1.3-.9 1.6-1.3l.6.5c-.4.3-1 .8-1.8 1.3.6.8 1.3 1.4 2 2l-.5.6c-1.1-.8-1.9-1.8-2.5-3v2.5c0 .2-.1.4-.3.6-.2-.1-.4 0-.6 0zm-1.4-7.3h3.7v-1h-3.7v1zm3.7.6h-3.7v1h3.7v-1zM311.6 485c0-.3.1-.5.3-.7s.4-.3.7-.3c.3 0 .5.1.7.3s.3.4.3.7c0 .3-.1.5-.3.7s-.4.3-.7.3c-.3 0-.5-.1-.7-.3s-.3-.5-.3-.7zM318.5 489.2l-.3-.7c.6-.2 1.1-.4 1.7-.6s1.1-.6 1.6-.9 1-.7 1.2-.9h-3.1v-3.8h3.5v-.9h-4.5v-.7h4.5v-1h.8v1h4.6v.7h-4.6v.9h3.5v3.8h-3.3c.7.6 1.4 1.1 2.3 1.5.9.4 1.7.7 2.4.9l-.4.7c-.8-.2-1.6-.5-2.4-1-.9-.5-1.6-.9-2.1-1.4v2.9h-.8v-2.9c-.5.5-1.2 1-2.1 1.4s-1.6.8-2.5 1zm1.9-5.4h2.7v-1h-2.7v1zm2.7.6h-2.7v1.1h2.7v-1.1zm.8-.6h2.7v-1h-2.7v1zm2.8.6H324v1.1h2.7v-1.1zM329.5 488.2l-.2-.7c.8-.1 1.9-.4 3.2-.8v-3.6h-2.7v-.7h2.7V480h.9v9.5h-.9v-2.1c-.7.2-1.7.5-3 .8zm5.9-8.3h.9v3.5c1.1-.5 2-1 2.8-1.6l.5.6c-.7.5-1.8 1.1-3.3 1.7v3.9c0 .2.1.3.2.4.1.1.4.2.9.2.6 0 1 0 1.1-.1l.3-.3c0-.1.1-.7.1-1.5l.8.1v1.6c0 .2-.1.4-.2.6-.2.2-.4.3-.6.3-.2.1-.6.1-1.2.1h-1.1c-.4 0-.7-.1-.9-.3-.2-.2-.2-.4-.2-.7v-8.5zM340.6 488.1l-.4-.6c.9-.5 1.7-1.2 2.6-2.1.8-.9 1.5-1.8 2.1-2.9h-4.1v-.7h4.4v-2h.9v2h4.5v.7h-4.3c1.3 2.1 3 3.7 4.9 4.8l-.5.7c-.9-.6-1.8-1.3-2.6-2.1s-1.5-1.6-2-2.4v3.2h2v.7h-2v2.1h-.8v-2.1h-2v-.7h2v-3.1c-.7 1.1-1.5 2.1-2.4 2.8-1.1.9-1.8 1.4-2.3 1.7zM351.8 488.7l-.6-.1c.3-1 .5-1.9.5-2.7l.7.1-.3 1.5c-.1.6-.2 1-.3 1.2zm1.2.9v-4.5l-1.6.1-.1-.7h.6c.3-.3.6-.8 1-1.3l-1.5-1.5.5-.5.2.2c.4-.6.8-1.2 1-1.7l.7.3c-.4.7-.8 1.3-1.3 1.9l.8.8c.5-.7.9-1.3 1.1-1.8l.7.3c-.7 1.1-1.5 2.1-2.4 3.3.8 0 1.4-.1 1.9-.1l-.2-.8.7-.2c.2.6.4 1.2.5 1.8l-.7.2c0-.1 0-.2-.1-.4-.3 0-.6.1-.9.1v4.6h-.9zm1.6-1.8c-.1-.5-.2-1.1-.3-1.8l.6-.1c.1.5.2 1.1.3 1.8l-.6.1zm.6 1.5l-.4-.5c.6-.4 1-.9 1.4-1.4s.6-1.1.6-1.6h-1.2v-.6h1.9l.2.2c-.1.7-.3 1.5-.8 2.2-.5.8-1 1.3-1.7 1.7zm2.9.2H357l-.1-.7h.8c.3 0 .4-.1.4-.4v-4.1h-2.2v-3.8h1.9l.3-.9.8.2-.4.8h2.6v3.8h-2.2v.6c.1.4.4.9.7 1.3.7-.5 1.3-.9 1.6-1.3l.6.5c-.4.3-1 .8-1.8 1.3.6.8 1.3 1.4 2 2l-.5.6c-1.1-.8-1.9-1.8-2.5-3v2.5c0 .2-.1.4-.3.6-.2-.1-.4 0-.6 0zm-1.4-7.3h3.7v-1h-3.7v1zm3.7.6h-3.7v1h3.7v-1zM204.4 502.2l-.2-.7c.8-.1 1.9-.4 3.2-.8v-3.6h-2.7v-.7h2.7V494h.9v9.5h-.9v-2.1c-.8.2-1.8.5-3 .8zm5.9-8.3h.9v3.5c1.1-.5 2-1 2.8-1.6l.5.6c-.7.5-1.8 1.1-3.3 1.7v3.9c0 .2.1.3.2.4.1.1.4.2.9.2.6 0 1 0 1.1-.1l.3-.3c0-.1.1-.7.1-1.5l.8.1v1.6c0 .2-.1.4-.2.6-.2.2-.4.3-.6.3-.2.1-.6.1-1.2.1h-1.1c-.4 0-.7-.1-.9-.3-.2-.2-.2-.4-.2-.7v-8.5zM217.9 497l.4.8c.2.3.3.7.4.9s.1.5.1.8c0 .4 0 .7-.1 1-.1.3-.2.5-.3.6-.1.1-.3.2-.5.3-.2.1-.4.1-.8.1h-.3l-.2-.7h.8c.1 0 .2-.1.3-.2.1-.1.1-.2.2-.4s.1-.4.1-.6c0-.4-.1-.8-.3-1.3-.2-.5-.4-.8-.6-1.1v-.2c.2-.6.5-1.4.8-2.4h-1.4v8.9h-.8V494h3.1l.2.2c-.1.3-.3.8-.5 1.5s-.5 1.1-.6 1.3zm.7 6.4v-.7h3.1v-1.5h-2.4v-.7h2.4v-1h.9v1h2.5v.7h-2.5v1.5h2.9v.7h-6.9zm.8-4l-.3-.5c.4-.1.7-.3 1.1-.7s.6-.7.6-1.3H219v-.6h2.7v-1.1h-2.2v-.6h2.2v-.7h.9v.7h2.4v.6h-2.4v1.1h2.7v.6h-2v1.2c0 .1 0 .2.1.3.1.1.2.1.4.1.4 0 .7 0 .9-.1.1-.1.2-.4.2-.9l.6.1v.6c0 .2 0 .4-.1.5-.1.1-.2.2-.4.3-.2 0-.5.1-1.1.1h-.7c-.2 0-.3-.1-.4-.2-.1-.1-.2-.3-.2-.5V497h-1c-.1.7-.3 1.2-.7 1.6-.4.3-.9.6-1.5.8zM230.5 499c0-.3.1-.5.3-.7s.4-.3.7-.3c.3 0 .5.1.7.3s.3.4.3.7c0 .3-.1.5-.3.7s-.4.3-.7.3c-.3 0-.5-.1-.7-.3s-.3-.5-.3-.7zM237.4 503.2l-.3-.7c.6-.2 1.1-.4 1.7-.6s1.1-.6 1.6-.9 1-.7 1.2-.9h-3.1v-3.8h3.5v-.9h-4.5v-.7h4.5v-1h.8v1h4.6v.7h-4.6v.9h3.5v3.8H243c.7.6 1.4 1.1 2.3 1.5.9.4 1.7.7 2.4.9l-.4.7c-.8-.2-1.6-.5-2.4-1-.9-.5-1.6-.9-2.1-1.4v2.9h-.8v-2.9c-.5.5-1.2 1-2.1 1.4s-1.7.8-2.5 1zm1.9-5.4h2.7v-1h-2.7v1zm2.7.6h-2.7v1.1h2.7v-1.1zm.8-.6h2.7v-1h-2.7v1zm2.7.6h-2.7v1.1h2.7v-1.1zM248.4 502.2l-.2-.7c.8-.1 1.9-.4 3.2-.8v-3.6h-2.7v-.7h2.7V494h.9v9.5h-.9v-2.1c-.8.2-1.8.5-3 .8zm5.9-8.3h.9v3.5c1.1-.5 2-1 2.7-1.6l.5.6c-.7.5-1.8 1.1-3.3 1.7v3.9c0 .2.1.3.2.4.1.1.4.2.9.2.6 0 1 0 1.1-.1l.3-.3c0-.1.1-.7.1-1.5l.8.1v1.6c0 .2-.1.4-.2.6-.2.2-.4.3-.6.3-.2.1-.6.1-1.2.1h-1.1c-.4 0-.7-.1-.9-.3-.2-.2-.2-.4-.2-.7v-8.5zM263.5 499c0-.3.1-.5.3-.7s.4-.3.7-.3c.3 0 .5.1.7.3s.3.4.3.7c0 .3-.1.5-.3.7s-.4.3-.7.3c-.3 0-.5-.1-.7-.3s-.3-.5-.3-.7zM270.5 503.3v-.7h4.2V494h.9v3h4v.7h-4v4.9h4.8v.7h-9.9zM281.6 503.5l-.6-.3c.3-.5.5-1.2.7-2 .2-.8.2-1.6.2-2.4v-.1h.8c0 .7-.1 1.3-.2 2 .3.3.6.6 1 .9v-3.9h-2v-.7h2v-1.5h-1.7v-.5h1.7v-1.2h.8v1.2h1.4v.6h-1.4v1.5h1.5v.7h-1.5v1.3h1.4v.6h-1.4v2.4c.5.2 1 .4 1.5.4.5.1 1.4.1 2.6.1 1.5 0 2.6 0 3.2-.1l-.1.7h-5.1c-.5 0-1.1-.1-1.6-.2s-1-.3-1.4-.6-.8-.6-1.1-.9c-.1.9-.4 1.6-.7 2zm4-2.3l-.2-.7c.3-.1.6-.2 1-.3v-4.7h2V493.8h.8v1.7h2.2v.6h-2.2c0 1.2.1 2.2.3 2.9.4-.7.8-1.5 1-2.3l.7.2c-.4 1-.9 2-1.5 3 .1.4.3.7.4 1 .2.2.3.4.4.4.1 0 .2-.1.2-.3 0-.2.1-.6.1-1.1l.6.1c-.1 1-.1 1.6-.2 1.8-.1.2-.3.3-.6.3-.5 0-1-.5-1.4-1.5-.5.6-1 1.2-1.5 1.6l-.5-.4c.6-.6 1.2-1.2 1.7-1.9-.3-1-.5-2.2-.5-3.7h-1.2v3.7c.4-.2.7-.3 1-.4l.2.6c-.4.2-1.3.6-2.8 1.1zm4.9-6c-.2-.3-.5-.7-.8-1.1l.6-.3c.2.2.4.6.8 1.1l-.6.3zM296.5 499c0-.3.1-.5.3-.7s.4-.3.7-.3c.3 0 .5.1.7.3s.3.4.3.7c0 .3-.1.5-.3.7s-.4.3-.7.3c-.3 0-.5-.1-.7-.3s-.3-.5-.3-.7zM303.5 501.4l-.5-.4c.3-.4.7-.9 1.1-1.7.4-.7.7-1.4.9-2h-1.7v-.6h1.8V495c-.6.1-1.1.2-1.6.3l-.1-.6c1.4-.2 2.6-.4 3.6-.8l.3.6c-.4.1-.8.3-1.4.4v1.9h1.3v.6H306v.8c.2.3.7.7 1.3 1.3l-.4.7c-.3-.2-.6-.6-.9-1v4.5h-.8V499c-.7 1.2-1.2 2-1.7 2.4zm3.4 2.2l-.3-.6c1-.5 1.8-1.3 2.4-2.4.6-1.1.9-2.2.9-3.4v-3.4h.9V497.5c.2 1.3.6 2.4 1.1 3.3.6.9 1.2 1.6 2 2.1l-.5.6c-.7-.5-1.3-1.1-1.8-1.8-.5-.8-.9-1.5-1.1-2.4-.3 1-.8 1.9-1.4 2.6-.8.8-1.5 1.3-2.2 1.7zm1.3-4.6l-.8-.2c.3-.9.5-2 .7-3.4l.8.1c-.1 1.2-.4 2.3-.7 3.5zm4.2-.1l-.7-.2c.1-.3.3-.9.5-1.6s.3-1.4.4-1.9l.8.2c-.4 1.7-.7 2.9-1 3.5zM323.1 502.8h-7.3v.6h-.8v-8.9h8.9v8.9h-.8v-.6zm-4.1-7.6h-3.2v3h3.2v-3zm-3.2 7h3.2v-3.3h-3.2v3.3zm7.3-4v-3h-3.3v3h3.3zm-3.3 4h3.3v-3.3h-3.3v3.3zM325.4 502.8l-.4-.5c.4-.3.8-.7 1.3-1.2s.8-1 1.1-1.5h-2v-.6h2v-1.1h-2.1v-.7h1.2l-.4-1.7h-.6v-.7h2v-1h.8v1h2v.7h-.5l-.6 1.7h1.2v.7h-2.1v1.1h1.8v.6h-1.8v.2c.4.5 1 .9 1.7 1.4l-.4.6c-.5-.4-1-.8-1.3-1.1v2.9h-.8v-2.8c-.8.9-1.4 1.6-2.1 2zm1.4-7.3l.4 1.7h1.3l.5-1.7h-2.2zm6.7 8v-5.6h-1.8v.5c0 2.1-.5 3.8-1.6 5.1l-.6-.4c.4-.5.8-1.2 1-2 .2-.8.4-1.7.4-2.6v-3.8c1.8-.2 3.1-.5 4-.8l.4.6c-1 .3-2.2.5-3.6.7v2h4v.7h-1.4v5.6h-.8zM338.3 503.6v-1.8h-2.1v-.6h2.1v-1.1h-1.6v-3.7h1.6v-1h-2v-.6h2v-.9h.8v.9h2v.6h-2v1h1.6v3.7h-1.6v1.1h2v.6h-2v1.8h-.8zm-.8-5.7h2.5v-1h-2.5v1zm2.5.5h-2.5v1h2.5v-1zm6.3-.9c-.4-.4-.9-.9-1.3-1.4s-.8-1.1-1.1-1.7c-.3.7-.7 1.3-1.2 1.9s-.9 1-1.3 1.4l-.5-.5c.5-.4.9-.9 1.4-1.5s.8-1.2 1-1.8h1.1c.2.5.5 1 1 1.7s1 1.1 1.4 1.5l-.5.4zm-2.8 6v-3.1h-2.1v-.6h2.1v-2h-1.3v-.6h3.6v.6h-1.4v2h2.2v.6h-2.2v3.1h-.9zM347.7 502.7l-.6-.1c.3-1 .5-1.9.5-2.7l.7.1-.3 1.5c-.1.6-.2 1-.3 1.2zm1.2.9v-4.5l-1.6.1-.1-.7h.6c.3-.3.6-.8 1-1.3l-1.5-1.5.5-.5.2.2c.4-.6.8-1.2 1-1.7l.7.3c-.4.7-.8 1.3-1.3 1.9l.8.8c.5-.7.9-1.3 1.1-1.8l.7.3c-.7 1.1-1.5 2.1-2.4 3.3.8 0 1.4-.1 1.9-.1l-.2-.8.7-.2c.2.6.4 1.2.5 1.8l-.7.2c0-.1 0-.2-.1-.4-.3 0-.6.1-.9.1v4.6h-.9zm1.6-1.8c-.1-.5-.2-1.1-.3-1.8l.6-.1c.1.5.2 1.1.3 1.8l-.6.1zm.6 1.5l-.4-.5c.6-.4 1-.9 1.4-1.4s.6-1.1.6-1.6h-1.2v-.6h1.9l.2.2c-.1.7-.3 1.5-.8 2.2-.5.8-1.1 1.3-1.7 1.7zm2.8.2h-1.1l-.1-.7h.8c.3 0 .4-.1.4-.4v-4.1h-2.2v-3.8h1.9l.3-.9.8.2-.4.8h2.6v3.8h-2.2v.6c.1.4.4.9.7 1.3.7-.5 1.3-.9 1.6-1.3l.6.5c-.4.3-1 .8-1.8 1.3.6.8 1.3 1.4 2 2l-.5.6c-1.1-.8-1.9-1.8-2.5-3v2.5c0 .2-.1.4-.3.6-.1-.1-.3 0-.6 0zm-1.4-7.3h3.7v-1h-3.7v1zm3.8.6h-3.7v1h3.7v-1zM195.6 517v-8.4l7.2 4.2-7.2 4.2zM207.9 514.8c0 .7-.2 1.2-.6 1.6s-1 .6-1.7.6c-.4 0-.9-.1-1.4-.2v-.9h.1c.5.2.9.2 1.2.2.5 0 .9-.1 1.1-.3s.4-.7.4-1.4v-4.8h-1.8v-.8h2.8v6zM216.5 516.9h-1.3l-2.7-3.3h-1.7v3.3h-1v-8.1h2.3c1.1 0 1.8.2 2.3.6.5.4.7.9.7 1.6 0 1.1-.5 1.9-1.6 2.4l3 3.5zm-5.7-7.2v3.2h1.2c.7 0 1.3-.2 1.6-.5s.5-.7.5-1.3c0-.9-.6-1.4-1.9-1.4h-1.4zM219.8 517l-.5-.6c1.3-.8 2.2-1.6 2.8-2.4l.7.4c-.4.5-.8.9-1.4 1.4-.6.6-1.1.9-1.6 1.2zm-.2-7.6v-.7h4.5v-1h.9v1h4.6v.7h-10zm4.4 8.1h-1.4l-.1-.7h1.1c.3 0 .5-.1.5-.4v-2.9h-3.5v-3h7.8v3H225v3.3c0 .2-.1.4-.3.6s-.4.1-.7.1zm3.6-6.4h-6.2v1.8h6.2v-1.8zm1.7 5.8c-.4-.2-.9-.5-1.6-1.1s-1.2-1-1.5-1.3l.6-.5c.4.4.9.8 1.5 1.3s1.1.8 1.4.9l-.4.7zM232 512.5c-.4-.4-.9-.8-1.8-1.4l.5-.6c.7.5 1.3.9 1.8 1.4l-.5.6zm-.8 4.8l-.7-.5c.3-.4.6-.9.9-1.7.4-.8.6-1.4.8-1.9l.7.2c-.1.5-.3 1.1-.7 1.9-.3.8-.6 1.5-1 2zm1.6-7.3c-.7-.6-1.3-1.1-1.8-1.5l.6-.5c.9.6 1.5 1.1 1.8 1.4l-.6.6zm.4 7.5l-.5-.6c.4-.3.9-.6 1.3-1 .5-.4.8-.7 1-1l.8.4c-.3.4-.7.8-1.2 1.2-.5.5-1 .8-1.4 1zm.1-2.8v-.7h.9v-5.3c.9-.1 1.9-.2 2.9-.3 1-.2 1.8-.3 2.2-.5l.4.7c-.5.1-1.3.3-2.3.4-1 .2-1.8.3-2.4.3v1.3h5.3v.6h-1.1v2.8h1.5v.7h-7.4zm1.7-.7h3.4v-2.8H235v2.8zm5 3.5c-.3-.2-.7-.5-1.2-.9-.5-.5-.9-.9-1.1-1.2l.7-.4c.2.3.5.6 1 1s.9.7 1.2.9l-.6.6zM241.5 517.2l-.3-.7c.6-.2 1.1-.4 1.7-.6s1.1-.6 1.6-.9 1-.7 1.2-.9h-3.1v-3.8h3.5v-.9h-4.5v-.7h4.5v-1h.8v1h4.6v.7h-4.6v.9h3.5v3.8h-3.3c.7.6 1.4 1.1 2.3 1.5.9.4 1.7.7 2.4.9l-.4.7c-.8-.2-1.6-.5-2.4-1-.9-.5-1.6-.9-2.1-1.4v2.9h-.8v-2.9c-.5.5-1.2 1-2.1 1.4s-1.6.8-2.5 1zm1.9-5.4h2.7v-1h-2.7v1zm2.7.6h-2.7v1.1h2.7v-1.1zm.8-.6h2.7v-1h-2.7v1zm2.8.6H247v1.1h2.7v-1.1zM252.5 516.2l-.2-.7c.8-.1 1.9-.4 3.2-.8v-3.6h-2.7v-.7h2.7V508h.9v9.5h-.9v-2.1c-.7.2-1.7.5-3 .8zm5.9-8.3h.9v3.5c1.1-.5 2-1 2.8-1.6l.5.6c-.7.5-1.8 1.1-3.3 1.7v3.9c0 .2.1.3.2.4.1.1.4.2.9.2.6 0 1 0 1.1-.1l.3-.3c0-.1.1-.7.1-1.5l.8.1v1.6c0 .2-.1.4-.2.6-.2.2-.4.3-.6.3-.2.1-.6.1-1.2.1h-1.1c-.4 0-.7-.1-.9-.3-.2-.2-.2-.4-.2-.7v-8.5zM263.8 516.7l-.6-.1c.3-1 .5-1.9.5-2.7l.7.1-.3 1.5c-.1.6-.2 1-.3 1.2zm1.2.9v-4.5l-1.6.1-.1-.7h.6c.3-.3.6-.8 1-1.3l-1.5-1.5.5-.5.2.2c.4-.6.8-1.2 1-1.7l.7.3c-.4.7-.8 1.3-1.3 1.9l.8.8c.5-.7.9-1.3 1.1-1.8l.7.3c-.7 1.1-1.5 2.1-2.4 3.3.8 0 1.4-.1 1.9-.1l-.2-.8.7-.2c.2.6.4 1.2.5 1.8l-.7.2c0-.1 0-.2-.1-.4-.3 0-.6.1-.9.1v4.6h-.9zm1.6-1.8c-.1-.5-.2-1.1-.3-1.8l.6-.1c.1.5.2 1.1.3 1.8l-.6.1zm.6 1.5l-.4-.5c.6-.4 1-.9 1.4-1.4s.6-1.1.6-1.6h-1.2v-.6h1.9l.2.2c-.1.7-.3 1.5-.8 2.2-.5.8-1 1.3-1.7 1.7zm2.9.2H269l-.1-.7h.8c.3 0 .4-.1.4-.4v-4.1h-2.2v-3.8h1.9l.3-.9.8.2-.4.8h2.6v3.8h-2.2v.6c.1.4.4.9.7 1.3.7-.5 1.3-.9 1.6-1.3l.6.5c-.4.3-1 .8-1.8 1.3.6.8 1.3 1.4 2 2l-.5.6c-1.1-.8-1.9-1.8-2.5-3v2.5c0 .2-.1.4-.3.6-.2-.1-.4 0-.6 0zm-1.4-7.3h3.7v-1h-3.7v1zm3.7.6h-3.7v1h3.7v-1zM207.9 528.8c0 .7-.2 1.2-.6 1.6s-1 .6-1.7.6c-.4 0-.9-.1-1.4-.2v-.9h.1c.5.2.9.2 1.2.2.5 0 .9-.1 1.1-.3s.4-.7.4-1.4v-4.8h-1.8v-.8h2.8v6zM216.5 530.9h-1.3l-2.7-3.3h-1.7v3.3h-1v-8.1h2.3c1.1 0 1.8.2 2.3.6.5.4.7.9.7 1.6 0 1.1-.5 1.9-1.6 2.4l3 3.5zm-5.7-7.2v3.2h1.2c.7 0 1.3-.2 1.6-.5s.5-.7.5-1.3c0-.9-.6-1.4-1.9-1.4h-1.4zM219.6 531.3v-.7h4.2V522h.9v3h4v.7h-4v4.9h4.8v.7h-9.9zM232.7 530.3v-1.5h-2.1v-.7h2.1v-1.3h-1.9v-4.6h4.6v4.6h-1.9v1.3h2v.7h-2v1.4c1.1-.1 1.8-.3 2.3-.3v.7c-1 .2-2.7.5-5.3.8l-.2-.7c.5-.1 1.2-.2 2.4-.4zm-1.1-6.1h1.1v-1.4h-1.1v1.4zm1.2.6h-1.1v1.4h1.1v-1.4zm.7-.6h1.1v-1.4h-1.1v1.4zm1.2.6h-1.1v1.4h1.1v-1.4zm3 6.7h-1.3l-.1-.8h1c.3 0 .4-.1.4-.4v-4.2H236v-.7h2.5c-.3-.3-1-.9-2-1.6l.5-.5c.2.2.6.5 1.2.9.7-.6 1.1-1.1 1.3-1.5h-3.4v-.6h4.3l.3.3c-.2.3-.4.7-.8 1.1l-1.1 1.1c.3.2.4.4.5.5l-.4.3h1.9l.2.2c-.4 1.2-.8 2-1.2 2.6l-.6-.3c.3-.5.5-1.1.8-1.9h-1.3v4.5c0 .2-.1.4-.3.6-.2.3-.4.4-.7.4zM241.5 531.2l-.3-.7c.6-.2 1.1-.4 1.7-.6s1.1-.6 1.6-.9 1-.7 1.2-.9h-3.1v-3.8h3.5v-.9h-4.5v-.7h4.5v-1h.8v1h4.6v.7h-4.6v.9h3.5v3.8h-3.3c.7.6 1.4 1.1 2.3 1.5.9.4 1.7.7 2.4.9l-.4.7c-.8-.2-1.6-.5-2.4-1-.9-.5-1.6-.9-2.1-1.4v2.9h-.8v-2.9c-.5.5-1.2 1-2.1 1.4s-1.6.8-2.5 1zm1.9-5.4h2.7v-1h-2.7v1zm2.7.6h-2.7v1.1h2.7v-1.1zm.8-.6h2.7v-1h-2.7v1zm2.8.6H247v1.1h2.7v-1.1zM252.8 531l-.5-.6c1.3-.8 2.2-1.6 2.8-2.4l.7.4c-.4.5-.8.9-1.4 1.4-.6.6-1.1.9-1.6 1.2zm-.2-7.6v-.7h4.5v-1h.9v1h4.6v.7h-10zm4.4 8.1h-1.4l-.1-.7h1.1c.3 0 .5-.1.5-.4v-2.9h-3.5v-3h7.8v3H258v3.3c0 .2-.1.4-.3.6s-.4.1-.7.1zm3.6-6.4h-6.2v1.8h6.2v-1.8zm1.7 5.8c-.4-.2-.9-.5-1.6-1.1s-1.2-1-1.5-1.3l.6-.5c.4.4.9.8 1.5 1.3s1.1.8 1.4.9l-.4.7zM273 525.4c0 .6-.1 1.1-.2 1.5-.1.4-.3.8-.6 1.5-.3.6-.8 1.2-1.3 1.6s-1.3.8-2.2 1c-.9.2-1.9.4-3.1.4l-.2-.8c2 0 3.6-.4 4.6-1.2 1.1-.7 1.7-1.8 1.9-3.3h-7.8v-.8h8.9zm-.4-1.9h-8v-.8h8v.8zM281 531.4h-1v-5.3c-1.6.8-3.2 1.5-5 1.9l-.3-.7c2.3-.6 4.2-1.3 5.5-2.3 1.3-.9 2.4-1.8 3-2.8l.9.3c-.7 1-1.7 2-3.1 2.9v6zM295.5 526c-.6 1-1.4 2-2.3 2.7-1 .8-2 1.3-3 1.7-1 .4-2.3.6-3.7.8l-.2-.8c1.2-.1 2.2-.3 3.1-.6s1.7-.7 2.3-1.1c.6-.4 1.2-.9 1.6-1.3.4-.4.9-1 1.3-1.8l.9.4zm-4.7-1.3l-.6.7c-1.3-.8-2.6-1.5-3.8-2l.5-.7c1.3.5 2.6 1.2 3.9 2zM207.9 542.8c0 .7-.2 1.2-.6 1.6s-1 .6-1.7.6c-.4 0-.9-.1-1.4-.2v-.9h.1c.5.2.9.2 1.2.2.5 0 .9-.1 1.1-.3s.4-.7.4-1.4v-4.8h-1.8v-.8h2.8v6zM216.5 544.9h-1.3l-2.7-3.3h-1.7v3.3h-1v-8.1h2.3c1.1 0 1.8.2 2.3.6.5.4.7.9.7 1.6 0 1.1-.5 1.9-1.6 2.4l3 3.5zm-5.7-7.2v3.2h1.2c.7 0 1.3-.2 1.6-.5s.5-.7.5-1.3c0-.9-.6-1.4-1.9-1.4h-1.4zM220.6 540.5c-.4-.6-.9-1.1-1.2-1.5l.6-.5c.4.4.8.8 1.3 1.4l-.7.6zm-.4 4.8l-.7-.5c.5-.8.9-1.9 1.3-3.5l.7.2c-.4 1.8-.9 3.1-1.3 3.8zm.8-7.3c-.2-.3-.6-.8-1.2-1.5l.6-.5c.5.6.9 1.1 1.2 1.5l-.6.5zm1 5.1l-.5-.4c.4-.6.7-1.3 1.1-2.1.4-.8.6-1.5.7-2.2h-1.4v-.7h1.5v-2h.8v2h1.1v.7h-1.1v1.2c.4.4.8.8 1.3 1.2l-.4.6-.9-.9v4.9h-.8v-5c-.3.9-.8 1.8-1.4 2.7zm6.3 2.3v-.5h-1.7v.5h-.8v-9.2h3.4v9.2h-.9zm0-8.6h-1.7v2h1.7v-2zm-1.7 4.6h1.7v-2h-1.7v2zm1.7.6h-1.7v2.2h1.7V542zM235.1 545.4v-2.2h-2.5v-.6h2.5v-1.3h-2.4v-.6h1.2l-.6-1.6H232v6.4h-.8v-7h4v-1.2h-4.6v-.7h4.6v-1h.8v1h4.6v.7H236v1.2h4v6c0 .3-.1.5-.3.7s-.4.3-.7.3h-1.3l-.1-.8h1.2c.1 0 .2 0 .3-.1s.1-.2.1-.3v-5.2h-1.5l-.7 1.6h1.4v.6H236v1.3h2.5v.6H236v2.2h-.9zm1.7-6.3h-2.6l.5 1.6h1.5l.6-1.6zM241.6 544.8l-.4-.5c.4-.3.8-.7 1.3-1.2s.8-1 1.1-1.5h-2v-.6h2v-1.1h-2.1v-.7h1.2l-.4-1.7h-.6v-.7h2v-1h.8v1h2v.7h-.5l-.6 1.7h1.2v.7h-2.1v1.1h1.8v.6h-1.8v.2c.4.5 1 .9 1.7 1.4l-.4.6c-.5-.4-1-.8-1.3-1.1v2.9h-.8v-2.8c-.8.9-1.5 1.6-2.1 2zm1.4-7.3l.4 1.7h1.3l.5-1.7H243zm6.7 8v-5.6h-1.8v.5c0 2.1-.5 3.8-1.6 5.1l-.6-.4c.4-.5.8-1.2 1-2 .2-.8.4-1.7.4-2.6v-3.8c1.8-.2 3.1-.5 4-.8l.4.6c-1 .3-2.2.5-3.6.7v2h4v.7h-1.4v5.6h-.8zM254.1 545.6v-4.5c-.4.7-.8 1.2-1.2 1.6l-.5-.4c.5-.6.9-1.3 1.4-2.1.4-.9.7-1.6.9-2.4l.8.2c-.2.8-.6 1.6-.9 2.3h.4v5.3h-.9zm6.9-.5h-3.8v.4h-.8V540h1.9l.4-1.2H256v-.6h5.6v-.9h-8v1.2h-.8v-1.9h4.3v-.9h.9v.9h4.4v1.6h.3v.6h-3.1l-.6 1.2h2.9v5.5h-.9v-.4zm0-3v-1.5h-3.8v1.5h3.8zm-3.8 2.3h3.8v-1.6h-3.8v1.6zM273 539.4c0 .6-.1 1.1-.2 1.5-.1.4-.3.8-.6 1.5-.3.6-.8 1.2-1.3 1.6s-1.3.8-2.2 1c-.9.2-1.9.4-3.1.4l-.2-.8c2 0 3.6-.4 4.6-1.2 1.1-.7 1.7-1.8 1.9-3.3h-7.8v-.8h8.9zm-.4-1.9h-8v-.8h8v.8zM281 545.4h-1v-5.3c-1.6.8-3.2 1.5-5 1.9l-.3-.7c2.3-.6 4.2-1.3 5.5-2.3 1.3-.9 2.4-1.8 3-2.8l.9.3c-.7 1-1.7 2-3.1 2.9v6zM295.5 540c-.6 1-1.4 2-2.3 2.7-1 .8-2 1.3-3 1.7-1 .4-2.3.6-3.7.8l-.2-.8c1.2-.1 2.2-.3 3.1-.6s1.7-.7 2.3-1.1c.6-.4 1.2-.9 1.6-1.3.4-.4.9-1 1.3-1.8l.9.4zm-4.7-1.3l-.6.7c-1.3-.8-2.6-1.5-3.8-2l.5-.7c1.3.5 2.6 1.2 3.9 2zM311.1 542.8c0 .7-.2 1.2-.6 1.6s-1 .6-1.7.6c-.4 0-.9-.1-1.4-.2v-.9h.1c.5.2.9.2 1.2.2.5 0 .9-.1 1.1-.3s.4-.7.4-1.4v-4.8h-1.8v-.8h2.8v6zM319.6 544.9h-1.3l-2.7-3.3H314v3.3h-1v-8.1h2.3c1.1 0 1.8.2 2.3.6.5.4.7.9.7 1.6 0 1.1-.5 1.9-1.6 2.4l2.9 3.5zm-5.6-7.2v3.2h1.2c.7 0 1.3-.2 1.6-.5s.5-.7.5-1.3c0-.9-.6-1.4-1.9-1.4H314zM322.6 543.6l-.2-.7c.5-.1 1-.2 1.4-.3v-3.9h-1.1v-.6h1.1v-2.3h.8v2.3h1v.6h-1v3.7c.5-.1.9-.3 1.2-.4v.7c-.3.2-1.4.5-3.2.9zm8.3 1.9h-1.4l-.1-.8h1.2c.3 0 .4-.1.4-.4v-3.9h-5.3v-.6h7.1v.6h-1v4.2c.1.6-.2.9-.9.9zm-1.6-7.8c-.3.5-.7.8-1.2 1.1-.5.3-1.1.5-1.8.6l-.2-.6c.7-.1 1.2-.3 1.7-.6.4-.3.7-.6.9-1h-2.2v-.6h2.4v-.9h.8v.9h2.5v.6h-2.4c.3.3.6.6 1.2.9s1 .5 1.5.6l-.4.6c-.5-.1-1.1-.3-1.6-.6-.6-.3-1-.6-1.2-1zm-2 6.2v.4h-.8v-2.9h3.3v2.5h-2.5zm1.8-2h-1.8v1.4h1.8v-1.4zM333.9 545l-.5-.6c1.3-.8 2.2-1.6 2.8-2.4l.7.4c-.4.5-.8.9-1.4 1.4-.5.6-1.1.9-1.6 1.2zm-.2-7.6v-.7h4.5v-1h.9v1h4.6v.7h-10zm4.5 8.1h-1.4l-.1-.7h1.1c.3 0 .5-.1.5-.4v-2.9h-3.5v-3h7.8v3h-3.5v3.3c0 .2-.1.4-.3.6s-.4.1-.6.1zm3.6-6.4h-6.2v1.8h6.2v-1.8zm1.6 5.8c-.4-.2-.9-.5-1.6-1.1s-1.2-1-1.5-1.3l.6-.5c.4.4.9.8 1.5 1.3s1.1.8 1.4.9l-.4.7zM345 544.7l-.6-.1c.3-1 .5-1.9.5-2.7l.7.1-.3 1.5c-.1.6-.2 1-.3 1.2zm1.2.9v-4.5l-1.6.1-.1-.7h.6c.3-.3.6-.8 1-1.3l-1.5-1.5.5-.5.2.2c.4-.6.8-1.2 1-1.7l.7.3c-.4.7-.8 1.3-1.3 1.9l.8.8c.5-.7.9-1.3 1.1-1.8l.7.3c-.7 1.1-1.5 2.1-2.4 3.3.8 0 1.4-.1 1.9-.1l-.2-.8.7-.2c.2.6.4 1.2.5 1.8l-.7.2c0-.1 0-.2-.1-.4-.3 0-.6.1-.9.1v4.6h-.9zm1.6-1.8c-.1-.5-.2-1.1-.3-1.8l.6-.1c.1.5.2 1.1.3 1.8l-.6.1zm.6 1.5l-.4-.5c.6-.4 1-.9 1.4-1.4s.6-1.1.6-1.6h-1.2v-.6h1.9l.2.2c-.1.7-.3 1.5-.8 2.2-.5.8-1.1 1.3-1.7 1.7zm2.8.2h-1.1l-.1-.7h.8c.3 0 .4-.1.4-.4v-4.1H349v-3.8h1.9l.3-.9.8.2-.4.8h2.6v3.8H352v.6c.1.4.4.9.7 1.3.7-.5 1.3-.9 1.6-1.3l.6.5c-.4.3-1 .8-1.8 1.3.6.8 1.3 1.4 2 2l-.5.6c-1.1-.8-1.9-1.8-2.5-3v2.5c0 .2-.1.4-.3.6-.1-.1-.3 0-.6 0zm-1.4-7.3h3.7v-1h-3.7v1zm3.7.6h-3.7v1h3.7v-1zM195.6 559v-8.4l7.2 4.2-7.2 4.2zM204.4 559.2l-.3-.7c.6-.2 1.1-.4 1.7-.6s1.1-.6 1.6-.9 1-.7 1.2-.9h-3.1v-3.8h3.5v-.9h-4.5v-.7h4.5v-1h.8v1h4.6v.7h-4.6v.9h3.5v3.8H210c.7.6 1.4 1.1 2.3 1.5.9.4 1.7.7 2.4.9l-.4.7c-.8-.2-1.6-.5-2.4-1-.9-.5-1.6-.9-2.1-1.4v2.9h-.8v-2.9c-.5.5-1.2 1-2.1 1.4s-1.7.8-2.5 1zm1.9-5.4h2.7v-1h-2.7v1zm2.7.6h-2.7v1.1h2.7v-1.1zm.8-.6h2.7v-1h-2.7v1zm2.7.6h-2.7v1.1h2.7v-1.1zM215.6 559.4l-.1-.7c.2 0 .6-.1 1.1-.1v-4.1h.8v4l1.4-.2v-5h.9v1.7h1.6v.6h-1.6v2.5c1.2-.2 1.9-.3 2.3-.3v.7c-.4.1-1.2.2-2.6.4s-2.7.4-3.8.5zm-.1-6.4v-.7h6v-2.5h.8v2.5h2.9v.7h-2.8c.1 1 .1 1.8.2 2.3s.2 1 .4 1.4c.2.4.3.8.6 1.1s.4.5.5.6c.1.1.2.2.3.2.1 0 .1 0 .2-.1 0-.1.1-.1.1-.2s.1-.3.1-.5.1-.6.1-1l.7.2c0 .5-.1 1-.1 1.4-.1.4-.1.7-.2.8l-.3.3c-.1.1-.3.1-.4.1-.2 0-.4-.1-.6-.2-.2-.1-.4-.3-.7-.7s-.6-.8-.8-1.3c-.2-.5-.4-1.1-.5-1.8-.1-.7-.2-1.5-.3-2.6h-6.2zm.8-1.8v-.6h4v.6h-4zm7.8.7l-1.2-1.4.6-.4c.5.6.9 1.1 1.2 1.4l-.6.4zM228.6 558.3v-1.5h-2.1v-.7h2.1v-1.3h-1.9v-4.6h4.6v4.6h-1.9v1.3h2v.7h-2v1.4c1.1-.1 1.8-.3 2.3-.3v.7c-1 .2-2.7.5-5.3.8l-.2-.7c.4-.1 1.2-.2 2.4-.4zm-1.1-6.1h1.1v-1.4h-1.1v1.4zm1.1.6h-1.1v1.4h1.1v-1.4zm.8-.6h1.1v-1.4h-1.1v1.4zm1.1.6h-1.1v1.4h1.1v-1.4zm3 6.7h-1.3l-.1-.8h1c.3 0 .4-.1.4-.4v-4.2h-1.8v-.7h2.5c-.3-.3-1-.9-2-1.6l.5-.5c.2.2.6.5 1.2.9.7-.6 1.1-1.1 1.3-1.5h-3.4v-.6h4.3l.3.3c-.2.3-.4.7-.8 1.1l-1.1 1.1c.3.2.4.4.5.5l-.4.3h1.9l.2.2c-.4 1.2-.8 2-1.2 2.6l-.5-.2c.3-.5.5-1.1.8-1.9h-1.3v4.5c0 .2-.1.4-.3.6-.2.2-.4.3-.7.3zM246.1 558.8h-7.3v.6h-.8v-8.9h8.9v8.9h-.8v-.6zm-4.1-7.6h-3.2v3h3.2v-3zm-3.2 7h3.2v-3.3h-3.2v3.3zm7.3-4v-3h-3.3v3h3.3zm-3.3 4h3.3v-3.3h-3.3v3.3zM248.7 558.7l-.6-.1c.3-1 .5-1.9.5-2.7l.7.1-.3 1.5c-.1.6-.2 1-.3 1.2zm1.2.9v-4.5l-1.6.1-.1-.7h.6c.3-.3.6-.8 1-1.3l-1.5-1.5.5-.5.2.2c.4-.6.8-1.2 1-1.7l.7.3c-.4.7-.8 1.3-1.3 1.9l.8.8c.5-.7.9-1.3 1.1-1.8l.7.3c-.7 1.1-1.5 2.1-2.4 3.3.8 0 1.4-.1 1.9-.1l-.2-.8.7-.2c.2.6.4 1.2.5 1.8l-.7.2c0-.1 0-.2-.1-.4-.3 0-.6.1-.9.1v4.6h-.9zm1.6-1.8c-.1-.5-.2-1.1-.3-1.8l.6-.1c.1.5.2 1.1.3 1.8l-.6.1zm.6 1.5l-.4-.5c.6-.4 1-.9 1.4-1.4s.6-1.1.6-1.6h-1.2v-.6h1.9l.2.2c-.1.7-.3 1.5-.8 2.2-.5.8-1.1 1.3-1.7 1.7zm2.8.2h-1.1l-.1-.7h.8c.3 0 .4-.1.4-.4v-4.1h-2.2v-3.8h1.9l.3-.9.8.2-.4.8h2.6v3.8h-2.2v.6c.1.4.4.9.7 1.3.7-.5 1.3-.9 1.6-1.3l.6.5c-.4.3-1 .8-1.8 1.3.6.8 1.3 1.4 2 2l-.5.6c-1.1-.8-1.9-1.8-2.5-3v2.5c0 .2-.1.4-.3.6-.1-.1-.3 0-.6 0zm-1.4-7.3h3.7v-1h-3.7v1zm3.8.6h-3.7v1h3.7v-1zM270.3 557.6l-.2-.7c.5-.1 1-.2 1.4-.3v-3.9h-1.1v-.6h1.1v-2.3h.8v2.3h1v.6h-1v3.7c.5-.1.9-.3 1.2-.4v.7c-.3.2-1.4.5-3.2.9zm8.3 1.9h-1.4l-.1-.8h1.2c.3 0 .4-.1.4-.4v-3.9h-5.3v-.6h7.1v.6h-1v4.2c.1.6-.2.9-.9.9zm-1.6-7.8c-.3.5-.7.8-1.2 1.1-.5.3-1.1.5-1.8.6l-.2-.6c.7-.1 1.2-.3 1.7-.6.4-.3.7-.6.9-1h-2.2v-.6h2.4v-.9h.8v.9h2.5v.6h-2.4c.3.3.6.6 1.2.9s1 .5 1.5.6l-.4.6c-.5-.1-1.1-.3-1.6-.6-.6-.3-1-.6-1.2-1zm-2 6.2v.4h-.8v-2.9h3.3v2.5H275zm1.8-2H275v1.4h1.8v-1.4zM281.4 559.2v-.7h4.4v-3.6h-3.6v-.7h3.6v-3.1h-3.9v-.7h8.9v.7h-4.2v3.1h3.8v.7h-3.8v3.6h4.7v.7h-9.9zm8.3-1.2c-.5-.7-1.1-1.4-1.9-2.2l.7-.4c.5.5 1.1 1.2 1.9 2.1l-.7.5zM292.4 558.8l-.4-.5c.4-.3.8-.7 1.3-1.2s.8-1 1.1-1.5h-2v-.6h2v-1.1h-2.1v-.7h1.2l-.4-1.7h-.6v-.7h2v-1h.8v1h2v.7h-.5l-.6 1.7h1.2v.7h-2.1v1.1h1.8v.6h-1.8v.2c.4.5 1 .9 1.7 1.4l-.4.6c-.5-.4-1-.8-1.3-1.1v2.9h-.8v-2.8c-.8.9-1.4 1.6-2.1 2zm1.4-7.3l.4 1.7h1.3l.5-1.7h-2.2zm6.7 8v-5.6h-1.8v.5c0 2.1-.5 3.8-1.6 5.1l-.6-.4c.4-.5.8-1.2 1-2 .2-.8.4-1.7.4-2.6v-3.8c1.8-.2 3.1-.5 4-.8l.4.6c-1 .3-2.2.5-3.6.7v2h4v.7h-1.4v5.6h-.8zM307.9 559.1h-2.8v.4h-.8v-4.1c-.3.2-.6.3-1 .5l-.3-.6c1.1-.4 2.2-1.1 3.1-1.9h-2.8v-.6h2.1v-1.3h-1.7v-.6h1.7v-1.1h.8v1.1h1.5v.6h-1.5v1.3h.8c.7-.8 1.3-1.6 1.7-2.4l.7.2c-.5.9-1 1.7-1.5 2.2h1.4v.6h-2.1c-.4.4-.9.8-1.4 1.1h2.9v5h-.8v-.4zm0-2.6v-1.3h-2.8v1.3h2.8zm-2.8 2h2.8v-1.4h-2.8v1.4zm6-.6l-.1-.7h.9c.1 0 .2-.1.4-.2.1-.1.2-.3.3-.5.1-.2.1-.5.1-.8 0-.7-.3-1.4-1-2.2v-.1-.1c.5-1.5.7-2.3.7-2.5h-1.8v8.7h-.8v-9.4h3.4l.2.2c-.1.2-.2.7-.5 1.5-.3.7-.4 1.2-.6 1.4.4.6.7 1 .8 1.4.2.3.2.7.3 1v.1c0 .4 0 .7-.1 1-.1.3-.2.5-.3.7s-.3.3-.4.4-.3.1-.4.1h-1.1zM315.1 558.2l-.8-.3c.4-.8.7-2.1.9-3.8l.8.1c0 .5-.1 1.3-.3 2.1-.2.9-.4 1.5-.6 1.9zm2.2-6.2h.8v6c0 .2.1.4.3.5.2.1.7.1 1.5.1h1.1c.3 0 .5-.1.6-.1.1-.1.2-.1.2-.2s.1-.3.1-.7v-1l.8.1v1.6c0 .2 0 .3-.1.4l-.3.3c-.1.1-.2.1-.4.2-.1 0-.4.1-.8.1h-2.7c-.5 0-.8-.1-.9-.3s-.2-.4-.2-.7V552zm3.2.4c-.4-.4-1.3-1.1-2.7-2l.5-.5c.4.2.8.5 1.5.9.6.4 1.1.8 1.3 1l-.6.6zm3.3 4.6c-.1-.5-.4-1.1-.7-1.9-.3-.8-.6-1.3-.8-1.7l.7-.3c.3.5.6 1.1.9 1.9.3.8.6 1.3.6 1.7l-.7.3zM333.1 554.4c-.4 1-1.1 1.9-2 2.6 1.4.8 2.9 1.4 4.4 1.7l-.4.7c-1.7-.4-3.2-1-4.6-1.9-1.4 1-3 1.6-4.8 2l-.3-.7c.7-.1 1.5-.3 2.3-.7.8-.3 1.5-.6 2-1l.1-.1c-.9-.7-1.6-1.5-2-2.5l.7-.3c.5.9 1.1 1.7 2 2.3.8-.7 1.5-1.5 1.8-2.4l.8.3zm-4.1-1.9c-.3.4-.8.9-1.4 1.3-.6.5-1.2.8-1.8 1.1l-.4-.5c1.2-.6 2.2-1.3 2.8-2.1l.8.2zm6.2-.8h-9.7v-.6h4.4v-1.2h.9v1.2h4.4v.6zm.2 2.5l-.5.6c-.5-.2-1.1-.6-1.7-1.1-.6-.5-1.1-.9-1.4-1.2l.7-.4c.3.3.7.7 1.3 1.1s1.1.8 1.6 1zM346.6 559.3h-4.4c-1.2 0-2.2-.1-2.8-.3-.6-.2-1-.5-1.3-.9-.6.6-1.2 1.1-1.8 1.3l-.3-.7c.2-.1.5-.2.8-.5.3-.2.6-.4.8-.6v-3.3h-1.4v-.7h2.3v3.4c0 .3.1.6.4.8.2.2.5.4.8.4.3.1.6.1.9.2.3 0 1.1.1 2.4.1 1.7 0 3 0 3.7-.1l-.1.9zm-8.7-7.1c-.3-.6-.7-1.2-1.3-1.9l.7-.4c.6.7 1 1.3 1.4 1.8l-.8.5zm7.2 3.9h-1.9v1.9h-.8v-1.9h-1.8v2h-.8v-5.7h2.5c-.4-.3-.9-.6-1.6-1l.5-.4c.4.2.8.5 1.4.8.8-.4 1.5-.7 2-1.1h-5v-.6h5.8l.5.5c-.5.5-1.4 1-2.7 1.6.1 0 .2.1.3.2h2.3v4.9c0 .3-.1.4-.3.6-.2.1-.4.2-.7.2h-1l-.1-.7h.8c.3 0 .4-.1.4-.4v-.9zm-2.7-2.2v-1h-1.8v1h1.8zm-1.8 1.6h1.8v-1h-1.8v1zm2.6-2.6v1h1.9v-1h-1.9zm0 2.6h1.9v-1h-1.9v1z"/></g><g><path d="M183.7 342.4V334l7.2 4.2-7.2 4.2zM196 340.2c0 .7-.2 1.2-.6 1.6s-1 .6-1.7.6c-.4 0-.9-.1-1.4-.2v-.9h.1c.5.2.9.2 1.2.2.5 0 .9-.1 1.1-.3s.4-.7.4-1.4V335h-1.8v-.8h2.8v6zM204.6 342.3h-1.3l-2.7-3.3h-1.7v3.3h-1v-8.1h2.3c1.1 0 1.8.2 2.3.6.5.4.7.9.7 1.6 0 1.1-.5 1.9-1.6 2.4l3 3.5zm-5.7-7.3v3.2h1.2c.7 0 1.3-.2 1.6-.5s.5-.7.5-1.3c0-.9-.6-1.4-1.9-1.4h-1.4zM207.8 342.8l-.1-.7c.2 0 .6-.1 1.1-.1v-4.1h.8v4l1.4-.2v-5h.9v1.7h1.6v.6h-1.6v2.5c1.2-.2 1.9-.3 2.3-.3v.7c-.4.1-1.2.2-2.6.4s-2.6.4-3.8.5zm-.1-6.4v-.7h6v-2.5h.8v2.5h2.9v.7h-2.8c.1 1 .1 1.8.2 2.3s.2 1 .4 1.4c.2.4.3.8.6 1.1.2.3.4.5.5.6.1.1.2.2.3.2.1 0 .1 0 .2-.1 0 0 .1-.1.1-.2s.1-.3.1-.5c0-.3.1-.6.1-1l.7.2c0 .5-.1 1-.1 1.4-.1.4-.1.7-.2.8l-.3.3c-.1.1-.3.1-.4.1-.2 0-.4-.1-.6-.2-.2-.1-.4-.3-.7-.7s-.6-.8-.8-1.3-.4-1.1-.5-1.8c-.1-.7-.2-1.5-.3-2.6h-6.2zm.8-1.9v-.6h4v.6h-4zm7.9.7l-1.2-1.4.6-.4c.5.6.9 1.1 1.2 1.4l-.6.4zM228.9 340.6c0 .9-.1 1.6-.2 1.9-.1.3-.3.5-.7.5-.2 0-.3 0-.5-.1s-.4-.2-.6-.5c-.2-.3-.4-.5-.6-.7-.4.5-.9 1-1.5 1.4l-.4-.4c.6-.5 1.1-1 1.5-1.5-.2-.4-.4-1-.6-1.6-.1-.6-.2-1.7-.2-3H220v1.8c0 1-.1 1.9-.4 2.8-.2.9-.5 1.5-.8 1.9l-.5-.3c.3-.6.6-1.2.7-2 .2-.8.2-1.5.2-2.2V336h5.9v-.6h-.3v-.6H222v.6h-.8v-.6h-2.6v-.6h2.6v-.6h.8v.6h2.8v-.6h.8v.6h2.9v.6h-2.9v.5h.3v.7h1.4v.6H226v.2c0 1 0 1.8.1 2.3s.2 1 .4 1.5c.5-.8.8-1.8 1.1-3l.8.2c-.3 1.3-.8 2.5-1.5 3.6.5.7.8 1.1 1.1 1.1.1 0 .2-.1.2-.2s.1-.6.1-1.4l.6-.3zm-4.2 1.6h-3.2v.3h-.7V337h3.9v.5h-1.3v.9h1.3v2.1h-1.3v1.1h1.3v.6zm-2-3.7v-.9h-1.2v.9h1.2zm1.2 1.5v-1h-2.4v1h2.4zm-1.2 1.7v-1.1h-1.2v1.1h1.2zm6-5.7c-.2.2-.4.3-.6.4-.1-.2-.4-.6-.9-1.2l.6-.3c.4.4.7.8.9 1.1zM231.8 341.7v-1.5h-2.1v-.7h2.1v-1.3H230v-4.6h4.6v4.6h-1.9v1.3h2v.7h-2v1.4c1.1-.1 1.8-.3 2.3-.3v.7c-1 .2-2.7.5-5.3.8l-.2-.7c.4-.2 1.2-.3 2.3-.4zm-1.1-6.1h1.1v-1.4h-1.1v1.4zm1.2.6h-1.1v1.4h1.1v-1.4zm.7-.6h1.1v-1.4h-1.1v1.4zm1.2.6h-1.1v1.4h1.1v-1.4zm3 6.7h-1.3l-.1-.8h1c.3 0 .4-.1.4-.4v-4.2H235v-.7h2.5c-.3-.3-1-.9-2-1.6l.5-.5c.2.2.6.5 1.2.9.7-.6 1.1-1.1 1.3-1.5h-3.4v-.6h4.3l.3.3c-.2.3-.4.7-.8 1.1l-1.1 1.1c.3.2.4.4.5.5l-.4.3h1.9l.2.2c-.4 1.2-.8 2-1.2 2.6l-.6-.3c.3-.5.5-1.1.8-1.9h-1.3v4.5c0 .2-.1.4-.3.6-.1.3-.3.4-.6.4zM240.9 342.1l-.6-.1c.3-1 .5-1.9.5-2.7l.7.1-.3 1.5c-.1.5-.2 1-.3 1.2zm1.2.9v-4.5l-1.6.1-.1-.7h.6c.3-.3.6-.8 1-1.3l-1.5-1.5.5-.5.2.2c.4-.6.8-1.2 1-1.7l.7.3c-.4.7-.8 1.3-1.3 1.9l.8.8c.5-.7.9-1.3 1.1-1.8l.7.3c-.7 1.1-1.5 2.1-2.4 3.3.8 0 1.4-.1 1.9-.1l-.2-.8.7-.2c.2.6.4 1.2.5 1.8l-.7.2c0-.1 0-.2-.1-.4-.3 0-.6.1-.9.1v4.6h-.9zm1.6-1.8c-.1-.5-.2-1.1-.3-1.8l.6-.1c.1.5.2 1.1.3 1.8l-.6.1zm.6 1.5l-.4-.5c.6-.4 1-.9 1.4-1.4s.6-1.1.6-1.6h-1.2v-.6h1.9l.2.2c-.1.7-.3 1.5-.8 2.2-.5.8-1 1.3-1.7 1.7zm2.9.2h-1.1l-.1-.7h.8c.3 0 .4-.1.4-.4v-4.1H245v-3.8h1.9l.3-.9.8.2-.4.8h2.6v3.8H248v.6c.1.4.4.9.7 1.3.7-.5 1.3-.9 1.6-1.3l.6.5c-.4.3-1 .8-1.8 1.3.6.8 1.3 1.4 2 2l-.5.6c-1.1-.8-1.9-1.8-2.5-3v2.5c0 .2-.1.4-.3.6-.2-.1-.4 0-.6 0zm-1.4-7.3h3.7v-1h-3.7v1zm3.7.5h-3.7v1h3.7v-1z"/></g><g><path d="M307.4 105.3v-8.4l7.2 4.2-7.2 4.2zM319.8 103.1c0 .7-.2 1.2-.6 1.6s-1 .6-1.7.6c-.4 0-.9-.1-1.4-.2v-.9h.1c.5.2.9.2 1.2.2.5 0 .9-.1 1.1-.3s.4-.7.4-1.4v-4.8h-1.8v-.8h2.8v6zM328.3 105.2H327l-2.7-3.3h-1.7v3.3h-1v-8.1h2.3c1.1 0 1.8.2 2.3.6.5.4.7.9.7 1.6 0 1.1-.5 1.9-1.6 2.4l3 3.5zm-5.6-7.2v3.2h1.2c.7 0 1.3-.2 1.6-.5s.5-.7.5-1.3c0-.9-.6-1.4-1.9-1.4h-1.4zM331.7 105.7l-.5-.5c.9-.8 1.5-1.7 2-2.9s.8-2.5.8-3.8h.9c-.2 3.2-1.2 5.6-3.2 7.2zm9.4 0c-.9-1-1.6-2.2-2.2-3.7-.6-1.5-.9-3-1-4.5h-4.4v-.7h5.3v.1c0 1 .1 1.9.3 2.8.2.9.5 1.8 1.1 2.8.5 1 1.1 1.9 1.7 2.6l-.8.6zM342.5 97.5v-.6h4.5v-.8h.9v.8h4.5v.6h-9.9zm8.6 8.3h-1.2l-.1-.7h1c.3 0 .4-.1.4-.4v-3h-7.4v4.1h-.9v-4.7h9.1v3.9c0 .2-.1.4-.3.5-.1.2-.3.3-.6.3zm-7.2-5.5v-2h7.1v2h-7.1zm6.3-1.5h-5.5v.9h5.5v-.9zm-4.2 6v.3h-.8v-2.5h4.5v2.3H346zm2.9-1.7H346v1.1h2.9v-1.1zM353.7 105l-.6-.1c.3-1 .5-1.9.5-2.7l.7.1-.3 1.5c-.1.6-.2 1-.3 1.2zm1.2.9v-4.5l-1.6.1-.1-.7h.6c.3-.3.6-.8 1-1.3l-1.5-1.5.5-.5.2.2c.4-.6.8-1.2 1-1.7l.7.3c-.4.7-.8 1.3-1.3 1.9l.8.8c.5-.7.9-1.3 1.1-1.8l.7.3c-.7 1.1-1.5 2.1-2.4 3.3.8 0 1.4-.1 1.9-.1l-.2-.8.7-.2c.2.6.4 1.2.5 1.8l-.7.2c0-.1 0-.2-.1-.4-.3 0-.6.1-.9.1v4.6h-.9zm1.6-1.8c-.1-.5-.2-1.1-.3-1.8l.6-.1c.1.5.2 1.1.3 1.8l-.6.1zm.6 1.5l-.4-.5c.6-.4 1-.9 1.4-1.4s.6-1.1.6-1.6h-1.2v-.6h1.9l.2.2c-.1.7-.3 1.5-.8 2.2-.5.8-1 1.4-1.7 1.7zm2.9.2h-1.1l-.1-.7h.8c.3 0 .4-.1.4-.4v-4.1h-2.2v-3.8h1.9l.3-.9.8.2-.4.8h2.6v3.8h-2.2v.6c.1.4.4.9.7 1.3.7-.5 1.3-.9 1.6-1.3l.6.5c-.4.3-1 .8-1.8 1.3.6.8 1.3 1.4 2 2l-.5.6c-1.1-.8-1.9-1.8-2.5-3v2.5c0 .2-.1.4-.3.6h-.6zm-1.4-7.3h3.7v-1h-3.7v1zm3.7.6h-3.7v1h3.7v-1z"/></g><path class="st3" d="M113.8 469.9v158.6"/><g><path d="M320.9 392.5l3.6-4.8c.2-.3.4-.6.5-.9.1-.3.2-.6.2-.8 0-.4-.1-.7-.4-1-.2-.2-.6-.3-1-.3s-.8.1-1 .4c-.3.2-.4.6-.5 1.1h-1.5c.1-.6.3-1.1.5-1.5.3-.4.6-.7 1-1s.9-.3 1.4-.3c.6 0 1.1.1 1.6.3s.8.5 1 .9c.2.4.3.9.3 1.5 0 .4-.1.7-.2 1.1-.2.4-.4.8-.6 1.1l-3 4.1h3.9v1.4h-5.8v-1.3zM329.7 393.5c-.4-.2-.8-.5-1.1-.9-.3-.4-.4-.9-.5-1.4h1.5c0 .3.1.5.3.7.1.2.3.3.6.4.2.1.5.1.8.1.5 0 .8-.1 1.1-.4.3-.3.4-.6.4-1.1v-.3c0-.5-.1-.9-.4-1.2s-.6-.4-1.1-.4h-.7v-1.4h.7c.4 0 .7-.1.9-.4.2-.2.3-.6.3-1v-.2c0-.4-.1-.7-.3-.9-.2-.2-.6-.3-1-.3-.2 0-.5 0-.7.1-.2.1-.4.2-.5.4-.1.2-.2.4-.3.7h-1.5c.1-.6.3-1 .5-1.4.3-.4.6-.7 1-.9s.9-.3 1.4-.3c.9 0 1.6.2 2.1.7.5.5.7 1.1.7 2v.2c0 .5-.1 1-.4 1.3s-.7.7-1.2.8c.6.1 1 .4 1.3.8.3.4.5 1 .5 1.6v.2c0 .6-.1 1.1-.3 1.5-.2.4-.6.7-1 1-.4.2-1 .3-1.6.3-.6 0-1.1-.1-1.5-.3zM336.3 386.4h1.4v7.4h-1.4v-7.4zm4.4 2.9c0-.5-.1-.9-.4-1.2-.3-.3-.6-.4-1.1-.4-.5 0-.8.1-1.1.4s-.4.6-.4 1.1l-.1-1.4c.2-.4.5-.8.9-1s.8-.4 1.2-.4c.5 0 1 .1 1.3.4.4.2.6.6.8 1s.3 1 .3 1.6v4.5h-1.4v-4.6zm4.4 0c0-.5-.1-.9-.4-1.2-.3-.3-.6-.4-1.1-.4-.4 0-.8.1-1 .4s-.4.7-.4 1.2l-.3-1.4c.2-.5.5-.9.9-1.1.4-.3.8-.4 1.3-.4s1 .1 1.4.4c.4.2.7.6.9 1 .2.4.3 1 .3 1.6v4.5h-1.4v-4.6zM348.7 383.4h1.4v1.4h-1.4v-1.4zm0 3h1.4v7.4h-1.4v-7.4zM352.4 386.4h1.4v7.4h-1.4v-7.4zm4.4 2.9c0-.5-.1-.9-.4-1.2-.3-.3-.6-.4-1.1-.4-.5 0-.8.1-1.1.4s-.4.6-.4 1.1l-.1-1.4c.2-.4.5-.8.9-1s.8-.4 1.2-.4c.8 0 1.4.3 1.9.8.4.5.7 1.3.7 2.2v4.5H357v-4.6z"/></g><g><path d="M32.9 518.7v-.7h6.7v.7h-6.7zm5.5 9H34v.4h-.9v-5h6.2v5h-.9v-.4zm-4.8-5.6v-2.5H39v2.5h-5.4zm2.2 1.6H34v1.3h1.8v-1.3zM34 527h1.8v-1.3H34v1.3zm4.1-6.8h-3.7v1.2h3.7v-1.2zm.3 4.8v-1.3h-1.7v1.3h1.7zm-1.8 2h1.7v-1.3h-1.7v1.3zm3.7-1.7v-6.9h.9v6.9h-.9zm2 2.7h-1.4l-.2-.8h1.1c.3 0 .5-.2.5-.5v-9.2h.9v9.6c0 .3-.1.5-.3.6s-.3.3-.6.3zM37.6 539.6h-3v.5h-.9v-4.5c-.3.2-.7.3-1.1.5l-.3-.7c1.2-.5 2.4-1.2 3.4-2h-3.1v-.7h2.3v-1.4h-1.8v-.7h1.8v-1.2h.9v1.2h1.6v.7h-1.6v1.4h.9c.8-.9 1.4-1.8 1.8-2.7l.8.3c-.6 1-1.1 1.8-1.6 2.4h1.5v.7h-2.3l-1.5 1.2h3.1v5.4h-.9v-.4zm0-2.8v-1.5h-3v1.5h3zm-3 2.2h3v-1.5h-3v1.5zm6.6-.7l-.2-.8h1c.1 0 .3-.1.4-.2s.2-.3.3-.5.1-.5.1-.9c0-.7-.4-1.5-1.1-2.4v-.1-.1c.5-1.6.8-2.5.8-2.7h-1.9v9.5h-.9v-10.2h3.7l.2.2c-.1.3-.2.8-.5 1.6s-.5 1.3-.6 1.6c.4.6.7 1.1.9 1.5s.3.7.3 1.1v.1c0 .4 0 .8-.1 1.1s-.2.5-.3.7-.3.3-.4.4-.3.1-.5.1h-1.2zM33.5 550.7l-.8-.3c.4-.9.7-2.3 1-4.1l.9.1c0 .6-.2 1.4-.4 2.3s-.5 1.6-.7 2zm2.4-6.8h.9v6.5c0 .3.1.4.3.5s.7.1 1.6.1h1.2c.4 0 .5-.1.6-.1s.2-.1.2-.2.1-.4.1-.8v-1.1l.8.1v1.8c0 .2 0 .3-.1.5s-.2.3-.3.3-.3.2-.4.2-.4.1-.9.1H37c-.5 0-.8-.1-1-.4s-.3-.5-.3-.8v-6.7zm3.6.4c-.5-.5-1.5-1.2-3-2.2l.6-.6c.4.2.9.5 1.6 1s1.2.8 1.5 1.1l-.7.7zm3.5 5.1c-.2-.5-.4-1.2-.8-2s-.6-1.4-.9-1.9l.8-.3c.3.6.6 1.2 1 2.1s.6 1.5.7 1.9l-.8.2zM33.1 563.3l-.7-.2c.3-1.1.5-2.1.6-2.9l.8.1c-.1.5-.2 1-.3 1.7s-.3 1-.4 1.3zm1.3.9v-4.9l-1.8.1-.1-.7h.6c.3-.4.7-.8 1.1-1.4l-1.6-1.6.5-.5.2.2c.5-.7.8-1.3 1.1-1.9l.8.3c-.4.7-.9 1.4-1.4 2.1l.8.8c.6-.8 1-1.5 1.2-1.9l.8.3c-.7 1.2-1.6 2.3-2.6 3.6.8 0 1.5-.1 2-.1l-.3-.9.7-.2c.2.7.4 1.3.6 1.9l-.7.2c0-.1-.1-.2-.1-.4-.3 0-.6.1-1 .1v5h-.8zm1.7-2c-.1-.5-.2-1.2-.3-2l.7-.1c.1.5.2 1.2.3 2l-.7.1zm.7 1.7l-.4-.5c.6-.4 1.1-.9 1.5-1.5s.6-1.2.7-1.7h-1.3v-.6h2.1l.2.2c-.1.8-.4 1.6-.9 2.4s-1.2 1.3-1.9 1.7zm3.1.2h-1.2l-.1-.8h.9c.3 0 .4-.1.4-.4v-4.4h-2.4v-4.2h2.1l.3-1 .9.2-.4.8h2.9v4.2h-2.4v.6c.2.4.4.9.7 1.4.8-.5 1.4-1 1.8-1.4l.6.5c-.4.4-1.1.8-2 1.4.6.8 1.4 1.6 2.2 2.2l-.6.6c-1.2-.9-2.1-2-2.8-3.3v2.7c0 .3-.1.5-.3.6s-.3.3-.6.3zm-1.5-8h4.1V555h-4.1v1.1zm4 .7h-4.1v1.1h4.1v-1.1zM36 574.2v-6h2v-1.1h-5.1v-.7H38v-.9h1v.9h4.6v.7H39v1.1h3.4v6H36zm-2.5 1.9v-7.6h.9v6.5h9.3v.7h-9.3v.4h-.9zm8-6.2v-1h-4.6v1h4.6zm-4.6 1.8h4.6v-1.1h-4.6v1.1zm0 1.8h4.6v-1.2h-4.6v1.2zM43.9 587.9h-4.8c-1.4 0-2.4-.1-3-.3s-1.1-.6-1.4-1c-.6.7-1.3 1.2-1.9 1.5l-.3-.8c.2-.1.5-.3.9-.5s.7-.5.8-.6v-3.6h-1.6v-.7h2.5v3.8c0 .4.1.7.4.9s.6.4.9.5.7.1 1 .2 1.2.1 2.7.1c1.9 0 3.2 0 4-.1l-.2.6zm-9.5-7.8c-.3-.6-.8-1.3-1.4-2l.7-.5c.6.8 1.1 1.4 1.5 2l-.8.5zm7.8 4.3h-2v2.1h-.9v-2.1h-1.9v2.2h-.9v-6.3h2.7c-.4-.3-1-.6-1.8-1.1l.6-.5c.4.2.9.5 1.6.9.9-.4 1.6-.8 2.2-1.2h-5.4v-.7h6.3l.6.5c-.5.5-1.5 1.1-3 1.7.1.1.2.1.4.2h2.5v5.4c0 .3-.1.5-.3.6s-.4.2-.7.2h-1.1l-.1-.7h.9c.3 0 .5-.1.5-.4v-.8zm-2.9-2.4v-1.1h-1.9v1.1h1.9zm-1.9 1.7h1.9v-1.1h-1.9v1.1zm2.8-2.8v1.1h2v-1.1h-2zm0 2.8h2v-1.1h-2v1.1z"/></g><g><path d="M122.7 527.8l-.3-.7c.6-.2 1.2-.4 1.8-.7s1.2-.6 1.8-1 1-.7 1.3-1h-3.4v-4.2h3.8v-1h-4.9v-.7h4.9v-1.1h.9v1.1h5v.7h-5v1h3.9v4.2H129c.7.6 1.5 1.2 2.5 1.6s1.8.8 2.6 1l-.5.8c-.8-.2-1.7-.6-2.6-1.1s-1.7-1-2.3-1.6v3.1h-.9V525c-.6.5-1.3 1.1-2.3 1.6s-1.9.9-2.8 1.2zm2.1-5.9h2.9v-1.1h-2.9v1.1zm3 .6h-2.9v1.2h2.9v-1.2zm.8-.6h3v-1.1h-3v1.1zm3 .6h-3v1.2h3v-1.2zM122.9 540l-.2-.8c.2 0 .6-.1 1.2-.1v-4.5h.9v4.4l1.5-.2v-5.4h.9v1.9h1.7v.7h-1.7v2.7c1.3-.2 2.1-.3 2.5-.4v.7c-.4.1-1.3.2-2.8.4-1.3.3-2.7.5-4 .6zm-.1-7v-.7h6.5v-2.7h.9v2.7h3.1v.7h-3.1c.1 1.1.1 2 .2 2.5s.2 1.1.4 1.5.4.9.6 1.2.4.6.5.7.2.2.3.2c.1 0 .1 0 .2-.1s.1-.1.1-.2.1-.3.1-.6.1-.7.1-1.1l.8.2c0 .6-.1 1.1-.2 1.6s-.2.8-.2.9-.2.2-.3.3-.3.1-.5.1-.5-.1-.7-.2-.5-.4-.8-.8-.6-.9-.9-1.4-.4-1.2-.6-2-.2-1.7-.3-2.8h-6.2zm.9-2v-.7h4.4v.7h-4.4zm8.6.8l-1.3-1.6.7-.4c.6.6 1 1.2 1.3 1.5l-.7.5zM122.7 551.8l-.3-.7c.6-.2 1.2-.4 1.8-.7s1.2-.6 1.8-1 1-.7 1.3-1h-3.4v-4.2h3.8v-1h-4.9v-.7h4.9v-1.1h.9v1.1h5v.7h-5v1h3.9v4.2H129c.7.6 1.5 1.2 2.5 1.6s1.8.8 2.6 1l-.5.8c-.8-.2-1.7-.6-2.6-1.1s-1.7-1-2.3-1.6v3.1h-.9V549c-.6.5-1.3 1.1-2.3 1.6s-1.9.9-2.8 1.2zm2.1-5.9h2.9v-1.1h-2.9v1.1zm3 .6h-2.9v1.2h2.9v-1.2zm.8-.6h3v-1.1h-3v1.1zm3 .6h-3v1.2h3v-1.2zM122.9 563.9v-.8h4.6v-9.4h1v3.3h4.3v.8h-4.3v5.3h5.2v.8h-10.8zM123.1 575.3l-.7-.2c.3-1.1.5-2.1.6-2.9l.8.1c-.1.5-.2 1-.3 1.7s-.3 1-.4 1.3zm1.3.9v-4.9l-1.8.1-.1-.7h.6c.3-.4.7-.8 1.1-1.4l-1.6-1.6.5-.5.2.2c.5-.7.8-1.3 1.1-1.9l.8.3c-.4.7-.9 1.4-1.4 2.1l.8.8c.6-.8 1-1.5 1.2-1.9l.8.3c-.7 1.2-1.6 2.3-2.6 3.6.8 0 1.5-.1 2-.1l-.3-.9.7-.2c.2.7.4 1.3.6 1.9l-.7.2c0-.1-.1-.2-.1-.4-.3 0-.6.1-1 .1v5h-.8zm1.7-2c-.1-.5-.2-1.2-.3-2l.7-.1c.1.5.2 1.2.3 2l-.7.1zm.7 1.7l-.4-.5c.6-.4 1.1-.9 1.5-1.5.4-.6.6-1.2.7-1.7h-1.3v-.6h2.1l.2.2c-.1.8-.4 1.6-.9 2.4s-1.2 1.3-1.9 1.7zm3.1.2h-1.2l-.1-.8h.9c.3 0 .4-.1.4-.4v-4.4h-2.4v-4.2h2.1l.3-1 .9.2-.4.8h2.9v4.2h-2.4v.6c.2.4.4.9.7 1.4.8-.5 1.4-1 1.8-1.4l.6.5c-.4.4-1.1.8-2 1.4.6.8 1.4 1.6 2.2 2.2l-.6.6c-1.2-.9-2.1-2-2.8-3.3v2.7c0 .3-.1.5-.3.6s-.3.3-.6.3zm-1.5-8h4.1V567h-4.1v1.1zm4 .7h-4.1v1.1h4.1v-1.1z"/></g><g><path d="M289.1 320.2c-.7 0-1.3-.2-1.8-.7s-.6-1.1-.6-1.9c0-.5.1-1 .2-1.5h1v.1c-.2.5-.3.9-.3 1.3 0 .5.1 1 .3 1.2s.7.4 1.6.4h5.3v-1.9h.9v3h-6.6zM286.9 329.5v-1.4l3.6-2.9v-1.8h-3.6v-1.1h8.8v2.5c0 1.2-.2 2-.7 2.5s-1 .8-1.7.8c-1.2 0-2.1-.6-2.6-1.8l-3.8 3.2zm7.9-6.1h-3.5v1.3c0 .8.2 1.4.5 1.7s.8.5 1.4.5c1 0 1.5-.7 1.5-2.1v-1.4zM286.3 343.6l-.7-.5c.9-1.3 1.4-2.9 1.4-4.9v-4.9h.9v4.8c.1 2.2-.5 4.1-1.6 5.5zm4.4-.8v-9.3h.9v9.3h-.9zm4 .7v-10.3h1v10.3h-1zM286 355.7l-.7-.3c.3-.6.6-1.3.7-2.2s.3-1.8.3-2.6v-.1h.9c0 .7-.1 1.5-.2 2.2.3.4.7.7 1.1 1v-4.3h-2.2v-.7h2.2v-1.6h-1.9v-.7h1.9v-1.3h.9v1.3h1.5v.7H289v1.6h1.7v.7H289v1.4h1.6v.7H289v2.7c.6.2 1.1.4 1.7.5s1.5.1 2.9.1c1.6 0 2.8 0 3.5-.1l-.2.8h-5.5c-.6 0-1.1-.1-1.7-.2s-1.1-.4-1.6-.6-.9-.6-1.2-1c-.3.8-.6 1.4-.9 2zm4.4-2.6l-.2-.8c.3-.1.7-.2 1-.4v-5.1h2.2v-1.9h.9v1.9h2.4v.7h-2.4c0 1.3.1 2.3.3 3.1.5-.8.8-1.6 1.1-2.5l.8.3c-.4 1.1-.9 2.2-1.6 3.2.1.4.3.8.5 1.1s.3.4.4.4c.1 0 .2-.1.2-.3s.1-.6.2-1.2l.6.1c-.1 1.1-.1 1.8-.3 2s-.3.3-.6.3c-.6 0-1.1-.5-1.6-1.6-.5.7-1.1 1.3-1.6 1.7l-.5-.5c.7-.7 1.3-1.4 1.8-2.1-.3-1-.5-2.4-.6-4.1h-1.3v4.1c.4-.2.8-.3 1-.5l.2.7c-.3.4-1.3.8-2.9 1.4zm5.3-6.5c-.2-.4-.5-.8-.8-1.2l.6-.3c.2.2.5.6.8 1.2l-.6.3zM286.1 366.8l-.7-.2c.3-1.1.5-2.1.6-2.9l.8.1c-.1.5-.2 1-.3 1.7s-.3 1-.4 1.3zm1.3.9v-4.9l-1.8.1-.1-.7h.6c.3-.4.7-.8 1.1-1.4l-1.6-1.6.5-.5.2.2c.5-.7.8-1.3 1.1-1.9l.8.3c-.4.7-.9 1.4-1.4 2.1l.8.8c.6-.8 1-1.5 1.2-1.9l.8.3c-.7 1.2-1.6 2.3-2.6 3.6.8 0 1.5-.1 2-.1l-.3-.9.7-.2c.2.7.4 1.3.6 1.9l-.7.2c0-.1-.1-.2-.1-.4-.3 0-.6.1-1 .1v5h-.8zm1.7-2c-.1-.5-.2-1.2-.3-2l.7-.1c.1.5.2 1.2.3 2l-.7.1zm.7 1.7l-.4-.5c.6-.4 1.1-.9 1.5-1.5s.6-1.2.7-1.7h-1.3v-.7h2.1l.2.2c-.1.8-.4 1.6-.9 2.4s-1.2 1.4-1.9 1.8zm3.1.2h-1.2l-.1-.8h.9c.3 0 .4-.1.4-.4V362h-2.4v-4.2h2.1l.3-1 .9.2-.4.8h2.9v4.2h-2.4v.6c.2.4.4.9.7 1.4.8-.5 1.4-1 1.8-1.4l.6.5c-.4.4-1.1.8-2 1.4.6.8 1.4 1.6 2.2 2.2l-.6.6c-1.2-.9-2.1-2-2.8-3.3v2.7c0 .3-.1.5-.3.6s-.3.3-.6.3zm-1.5-7.9h4.1v-1.1h-4.1v1.1zm4 .6h-4.1v1.1h4.1v-1.1z"/></g></svg>