<svg version="1.1" id="レイヤー_1" xmlns="http://www.w3.org/2000/svg" x="0" y="0" viewBox="0 0 309 137" xml:space="preserve"><style>.st0{fill:#231815}</style><circle class="st0" cx="151.3" cy="37.5" r="37.5"/><path d="M180.9 24.4l-30.2 32.7-11.4-8.4-6.1 5.8 3.1-8.1c-.1-.1-.4-.3-.5-.4 0 0-2.3 6.4-2.9 8.2-.3-3.5 0-7.1-.5-10.6-4.8-3.8-12.3-9.2-12.3-9.2l49.5-8.1 11.3-1.9z" fill="#b2b2b2"/><path fill="#fff" stroke="#fff" stroke-width=".013" stroke-miterlimit="10" d="M179.6 25.1l-29.1 31.1-14.2-10.4 32.2-16.3-35.7 13.6-11.2-8.4z"/><g><path class="st0" d="M36.1 105.1l-5 4.7c-3.4-3.6-7.2-5.4-11.4-5.4-3.6 0-6.6 1.2-9 3.7-2.4 2.4-3.7 5.5-3.7 9 0 2.5.5 4.7 1.6 6.6 1.1 1.9 2.6 3.5 4.6 4.6 2 1.1 4.2 1.7 6.6 1.7 2.1 0 3.9-.4 5.6-1.2 1.7-.8 3.6-2.2 5.6-4.2l4.8 5c-2.8 2.7-5.4 4.6-7.8 5.6-2.4 1-5.2 1.6-8.4 1.6-5.8 0-10.5-1.8-14.2-5.5-3.7-3.7-5.5-8.4-5.5-14.1 0-3.7.8-7 2.5-9.9 1.7-2.9 4.1-5.2 7.2-7 3.1-1.8 6.5-2.6 10.1-2.6 3.1 0 6 .6 8.9 1.9 3 1.3 5.4 3.1 7.5 5.5zM58.7 97.6c5.3 0 9.8 1.9 13.6 5.7 3.8 3.8 5.7 8.5 5.7 14 0 5.4-1.9 10-5.6 13.8-3.7 3.8-8.3 5.7-13.6 5.7-5.6 0-10.2-1.9-13.9-5.8-3.7-3.9-5.5-8.5-5.5-13.8 0-3.6.9-6.8 2.6-9.8 1.7-3 4.1-5.4 7.1-7.1 2.9-1.8 6.1-2.7 9.6-2.7zm-.1 6.8c-3.4 0-6.3 1.2-8.7 3.6-2.3 2.4-3.5 5.5-3.5 9.2 0 4.2 1.5 7.4 4.4 9.9 2.3 1.9 4.9 2.8 7.9 2.8 3.4 0 6.2-1.2 8.6-3.7 2.4-2.5 3.5-5.5 3.5-9.1 0-3.6-1.2-6.6-3.6-9.1-2.3-2.3-5.2-3.6-8.6-3.6zM83.6 98.6h18.5v6.8H90.6v6.8h11.5v6.8H90.6v16.8h-7V98.6zM107.3 98.6h18.5v6.8h-11.5v6.8h11.5v6.8h-11.5v16.8h-7V98.6zM130.9 98.6h20.4v6.8H138v6.8h13.3v6.8H138v10h13.3v6.8h-20.4V98.6zM156.6 98.6H177v6.8h-13.3v6.8H177v6.8h-13.3v10H177v6.8h-20.4V98.6zM195.8 98.6h7.5c4.1 0 7 .4 8.8 1.1 1.8.7 3.2 2 4.2 3.6 1 1.7 1.6 3.7 1.6 6 0 2.6-.7 4.7-2 6.5-1.4 1.7-3.2 2.9-5.5 3.6-1.4.4-3.9.6-7.5.6v15.8h-7V98.6zm7 14.6h2.3c1.8 0 3-.1 3.7-.4.7-.3 1.2-.7 1.6-1.3.4-.6.6-1.3.6-2.2 0-1.5-.6-2.5-1.7-3.2-.8-.5-2.3-.7-4.5-.7h-2v7.8zM241.2 97.6c5.3 0 9.8 1.9 13.6 5.7 3.8 3.8 5.7 8.5 5.7 14 0 5.4-1.9 10-5.6 13.8-3.7 3.8-8.3 5.7-13.6 5.7-5.6 0-10.2-1.9-13.9-5.8-3.7-3.9-5.5-8.5-5.5-13.8 0-3.6.9-6.8 2.6-9.8 1.7-3 4.1-5.4 7.1-7.1 2.9-1.8 6.1-2.7 9.6-2.7zm-.1 6.8c-3.4 0-6.3 1.2-8.7 3.6-2.3 2.4-3.5 5.5-3.5 9.2 0 4.2 1.5 7.4 4.4 9.9 2.3 1.9 4.9 2.8 7.9 2.8 3.4 0 6.2-1.2 8.6-3.7 2.4-2.5 3.5-5.5 3.5-9.1 0-3.6-1.2-6.6-3.6-9.1-2.3-2.3-5.2-3.6-8.6-3.6zM285.6 103.6l-5.2 4.6c-1.8-2.6-3.7-3.8-5.6-3.8-.9 0-1.7.2-2.3.7-.6.5-.9 1.1-.9 1.7 0 .6.2 1.2.6 1.8.6.7 2.3 2.3 5.2 4.8 2.7 2.3 4.3 3.7 4.9 4.3 1.4 1.5 2.5 2.8 3.1 4.2.6 1.3.9 2.8.9 4.3 0 3.1-1.1 5.6-3.2 7.6s-4.9 3-8.3 3c-2.7 0-5-.7-6.9-2-2-1.3-3.7-3.4-5.1-6.1l5.9-3.6c1.8 3.3 3.8 4.9 6.2 4.9 1.2 0 2.2-.4 3.1-1.1.8-.7 1.2-1.5 1.2-2.5 0-.8-.3-1.7-.9-2.5-.6-.8-2-2.1-4.1-3.9-4.1-3.3-6.7-5.9-7.8-7.7-1.2-1.8-1.8-3.6-1.8-5.4 0-2.6 1-4.8 3-6.6 2-1.8 4.4-2.8 7.3-2.8 1.9 0 3.6.4 5.3 1.3 1.6 1 3.4 2.6 5.4 4.8zM288.1 98.6h20.6v6.8h-6.8v30.4h-7.2v-30.4h-6.6v-6.8z"/></g></svg>