<svg xmlns="http://www.w3.org/2000/svg" viewBox="0 0 245 129"><path d="M88 41.2v-2.4C87.4 19.1 71.2 3.6 51.7 3.6h-1.1C30.6 4.2 14.8 21 15.4 41c.1 3 .6 6 1.3 8.8l1.3-.2c-.6-1.9-.9-3.9-1.2-5.9l15.9.2-10 5.1 1.9-.2 9.5-4.8 7.9.1-2.3 2.9.9-.1 2.3-2.8h2.8l-.6 2.2.7-.1.6-2.1h1.2l.3 1.6-.9.4 2.3-.3.3-.1.1.1.8-.1-.1-.1 1-.4.6.2-.1.1 1.3-.2-.3-.2.9.1 3.1-.4-.1-1.4 1.3-.4.9 1.5.7-.1-.9-1.4 3-.9 2.6 2 .9-.1-2.8-2.1 6.7-2 11 2.3 2-.2-11.8-2.5 15.7-4.7c.2 1.4.3 2.7.4 4.1v2.5l1.5-.2zm-3.3-13l-15.9 3.4L81.2 21c1.4 2.3 2.6 4.7 3.5 7.2zm-3.9-7.7L67.4 31.9l-7.3 1.6 3.2-6.4 14.6-10.3c1.1 1.1 2 2.4 2.9 3.7zM58.9 34.3l-1.2 2.4-1.2-.2.1-1.6 2.3-.6zm-2.2-.1l.1-2.6 5.4-3.8-2.9 5.8-2.6.6zm.7 3.1l-.2.5-.7-.5v-.2l.9.2zm0 1.5l1 .7-1.1.9-.4-.7.5-.9zm.3-.6l.4-.8 2.2.5-1.4 1.2-1.2-.9zm.7-1.3l1.3-2.7 6.7-1.4-5.4 4.6-2.6-.5zM76 14.7c.5.5 1 1 1.4 1.5l-13.6 9.5 7.4-14.9c1.7 1.2 3.3 2.5 4.8 3.9zm-5.3-4.2l-7.9 16-6 4.2.3-7.3 9.3-15.3c1.5.7 2.9 1.5 4.3 2.4zm-4.9-2.7L57.2 22l.7-16.6c2.7.5 5.3 1.3 7.9 2.4zM50.6 4.9h.7l-1.9 16.4-6.2-15.4c2.4-.6 4.9-.9 7.4-1zm1.9 28.8l-1-1 1.1-1.8.9 2.2-1 .6zm1.2 0l.4 1-.5.1-.6-.6.7-.5zm-.9 1.2h-.2-.5l.3-.2.4.2zm-4.4.1l.1-.5.9.4v.1h-1zm.5.6c-.2.1-.3.2-.4.3l-.2.1v-.3l.6-.1zm-.3-1.8l.3-2.7 1.7 1.7-.9 1.4-1.1-.4zm2.5-.5l.8.8-1 .7-.6-.2.8-1.3zm-.1-1l-2-1.9.8-6.5 2.5 6.3-1.3 2.1zM42.6 6.1l6.6 16.5-.8 7.2-5.8-5.6-5-16.4c1.6-.7 3.3-1.2 5-1.7zm2 32.6l1 1.2-1.1 1.3L42 40l2.6-1.3zm-3.3.9l-6.3-3 7.4-.5 1.8 2.1-2.9 1.4zm3.9-1.2l.9-.5.3 1-.4.4-.8-.9zm-.5-.6L43.1 36l2.3-.2.4 1.4-1.1.6zm-2.1-2.4l-4.3-4.9 6.3 2.5.7 2.3-2.7.1zm2.5-2.9l-2.1-7 5.3 5.1-.3 3-2.9-1.1zM37 8.1l4.6 15.2-11.5-11c2.2-1.7 4.5-3.1 6.9-4.2zm-10.8 7.8c1.1-1.2 2.2-2.2 3.5-3.2L42 24.6l2.3 7.6-7-2.8-11.4-13.2.3-.3zm-.7.8l10.6 12.1-15-6c1.2-2.1 2.7-4.2 4.4-6.1zm-4.7 6.8L37 29.9l4.8 5.5-8 .5-15.2-7.3c.6-1.7 1.3-3.5 2.2-5.1zm-2.5 5.8l14.1 6.8-15.6 1c.2-2.7.7-5.3 1.5-7.8zm15.8 14L16.9 43v.3c-.1-.8-.1-1.6-.2-2.4v-3.2l16.9-1.1 6.9 3.3-6.4 3.4zm8.5.1l-7.2-.1 5.8-3 2.8 1.3-1.4 1.8zm3.3.1h-2.4l1.2-1.5 1.4.7-.2.8zm.4-1.5l-1.2-.6.9-1.1.5.6-.2 1.1zm.1-2.2l.2-.2v.4l-.2-.2zm.2 3.7l.1-.5.7.4v.2l-.8-.1zm.3-5.3l-.2-.6.7-.3c-.2.2-.4.6-.5.9zm.4 4.3l-.4-.2.1-.5c.1.2.2.3.2.5l.1.2zm.3-6.1l-1.1.6-.3-1.1 1.6-.1-.2.6zm.2-1.3l-1.8.1-.6-1.9 2.5 1-.1.8zm.7 10.4l-.2-1.3h.3l.7 1-.8.3zm1.4-.6l-.3-.4c.1.1.2.1.4.2h.1c.1 0 .1 0 .2.1l-.4.1zm4.2-.2l-.5-.1h.1s.1 0 .1-.1c.1 0 .2-.1.3-.1h.2l-.2.3zm-.2-1.8c-.2.1-.3.2-.5.3-.1 0-.1.1-.2.1-.1.1-.2.1-.4.1-.1 0-.2.1-.3.1-.2.1-.4.1-.7.1h-.1c-.2 0-.5 0-.7-.1-.1 0-.2-.1-.3-.1-.1 0-.2 0-.3-.1-.2-.1-.3-.1-.4-.2 0 0-.1 0-.1-.1-.2-.1-.3-.2-.4-.3l-.1-.1c-.1-.1-.3-.2-.4-.4l-.1-.1c-.1-.1-.2-.3-.3-.4 0 0 0-.1-.1-.1-.1-.1-.2-.3-.2-.4 0-.1-.1-.2-.1-.3 0-.1-.1-.2-.1-.3v-.2c0-.2-.1-.4-.1-.6v-.4-.4c0-.1 0-.1.1-.2 0-.2.1-.4.1-.5.4-1.1 1.4-2 2.7-2.3.2 0 .4-.1.7-.1h.1c.2 0 .5 0 .7.1.1 0 .2.1.3.1.1 0 .2 0 .3.1.2.1.3.1.4.2 0 0 .1 0 .1.1.2.1.3.2.4.3l.1.1c.1.1.3.2.4.4l.1.1c.1.1.2.3.3.4 0 0 0 .1.1.1.1.1.2.3.2.4 0 .1.1.2.1.3 0 .1.1.2.1.3v.7c.2 1.5-.4 2.6-1.4 3.3zm2.2-.5l.1.7-.7.2c.1-.1.2-.2.2-.3.2-.2.3-.4.4-.6zm-.7-6.2l-.4-1 1-.2-.1 1.4-.5-.2zm.6-1.9l-1.3.3-.5-1.2 1.9-1.3-.1 2.2zm-1.7 1l.1.3-.2-.2.1-.1zm.5 9.4l.2-.7 1.2-.4.1 1.3-1.5-.2zm1.3-13.5L54 32.7l-1-2.5 3.4-5.7-.3 6.7zm-3.4-1.7l-2.8-6.9 2-17.6c1.8 0 3.5.2 5.3.4l-.8 17.9-3.7 6.2zm3.8 8.6l.4.3-.2.5v-.1c-.1-.2-.1-.4-.2-.7zm.1 3s0-.1 0 0c0-.1.1-.2.1-.3v-.1l.1.2-.2.2zm.2 1.8l-.1-1 .5-.4.6 1.1-1 .3zm1.7-.5l-.8-1.4 1.3-1.1 2.2 1.6-2.7.9zm3.4-1.1l-2.4-1.8 1.7-1.4 6.8 1.4-6.1 1.8zm7.4-2.2l-7.5-1.6 6-5.1L85 28.8c.6 1.7 1 3.4 1.3 5.2l-17 5.1z"/><path d="M15.8 49.9c-1.9-6.7-1.8-13.7.2-20.5 2.8-9.5 9.2-17.4 17.9-22.2.3-.2.7-.4 1-.5 8.7-4.4 18.6-5.2 27.8-2.3 9.3 2.9 17 9.2 21.7 17.8 3.2 5.9 4.8 12.5 4.5 19l2.6-.3c.2-6.7-1.4-13.6-4.8-20-10.3-19-33.8-26.2-53-16.5-.4.2-.7.4-1.1.6-16.5 9-24.1 27.9-19.4 45.3l2.6-.4zM8.8 88.2c5.9-.6 11.7-5 16.5-13.5.5-1 1-1.9 1.4-2.8 2.9.1 5.9-1.4 8.7-3.5-.8 2.6-1.5 5.1-2 6.8-1.7 5.8.7 10.4 6.8 9.8 4.5-.5 8.9-4.3 16.2-17 1.6.5 3.2.4 4.7-.1-2.4 8.7 2.1 14.7 13.1 13.6 12.5-1.3 23.5-16 30.1-28.1 1.8.5 4.4 1.4 2.6 4.9-2.1 4.2-4.4 9.8-6.1 13.7-.9 2.1-2.1 6.1 1 7 1 .3 2.3.2 3.3 0 .9-.1 1.8-.3 2.7-.5 2-.5 4-1.2 5.9-2.1 1.8-.8 3.5-1.8 5.1-2.9 6.3-4.2 11.2-8.8 8.4-7.5-2.7 1.3-5.4 2.7-8 4.3-2.1 1.2-5.7 3.6-7.5 1.6-2.1-2.4.3-7 1.4-9.3 1.8-4.2 2.1-4.4 3.2-6.9 2.8-6.6-2.2-3.5-6.6-5.3-.5-.2-2.2-.8-2.5-1.1 2.8-3.5 5-7 1.9-8.3-2.8-1.3-7.5-1.5-10.2 2.3-2.7 3.9-.2 7.1 2.5 8.8-8 12.3-16.9 22.4-25.2 23.3-4.6.5-6.8-1.8-6.4-5.8.8.6 1.8 1 3 1.2 4.8.8 9.8-2 13.7-7.7 6.5-9.5.9-15.6-6.9-14.8-4.6.4-11.2 4.8-16.1 13.7-1.5.8-2.9 1.2-4.2.5 0 0 2.4-4.9 3.2-6.6 1.9-4.2-1.1-5.9-2.6-5.8-4.4.5-9 10.1-6.6 15.1-2.4 5.3-4.9 9.3-7.9 9.7-2.4.3-2.8-1.9-2.1-4.3 2.1-7 5.6-19.2 5.6-19.2l-8.4.9s-1.3 4-2.7 8.9c-2.8 2.6-6.2 5.1-8.9 4.9.5-2 .6-3.6.7-5 .2-3.4-1-7.4-4-7.1-1.4.1-2.7 1-3.8 2.4-.3-1.2-.7-2.1-1.7-2-4.9.6-11.9 4.5-17.6 16-5.7 11.5-.9 18.5 6.3 17.8zm72.7-34.6c2.7-.3.6 5.7-2.5 8.7-2.3 2.1-5 4.3-7.9 2.7.1-.3.3-.5.3-.7 2.8-5.7 7.3-10.4 10.1-10.7zM11.7 70.5c2.1-4.2 5.2-7.9 7.7-9.7-.7 2.7-.4 5.7 1.7 8.1-2.2 5-5.8 10.9-9.4 11.2-2.8.3-2.7-4 0-9.6zM144.7 61.4l-15.9-5.2 1.5 10.1z"/><path d="M242.4 49c-1.8-2.9-4.8-5.1-8.2-5.2-3.4-.1-6.5 1.8-9 2.9-3.9 1.6-8.5 2.6-12.8 2.3.5-2 .7-3.6.7-5 .2-3.4-.9-7.4-3.9-7.1-1.4.1-2.8 1-3.8 2.3-.2-1.2-.7-2.1-1.6-2.1-1.9.2-4.1.9-6.5 2.4-.1 0-.2 0-.3.2l-.1.1c-2.6 1.7-5.3 4.4-7.9 8.3-4.5 4.7-9.5 9.7-10.5 10.7-1.3 1.2-2.4 2.3-2.9 1.9-.5-.4.7-3.1 1.4-4.5 1.9-4.1 21.7-45.1 21.7-45.1l-11-.3s-8.5 23.2-13.6 34.1c-.9-2.8-3.4-5.2-6.5-4.9-4.7.4-11.2 4.4-17.8 15.5-6.6 11.1-3.6 18.7 3.7 18.1 3.7-.3 7.3-3 10.1-6.1-1.1 3.7.7 5.2 3.7 5 2.2-.2 5.1-1.6 9.3-5.9 1.4-1.4 4.3-4.5 7.5-8-1.9 8 2.3 12.7 8.2 12.1 5.9-.5 11.8-4.9 16.7-13.4.5-1 1-1.9 1.5-2.8 3.7.2 7.3-.9 10.7-2.2 1.6-.6 3.1-1.3 4.7-2.1 2.7-1.4 5.6-2.3 8.3-1.6 2.6.7 4.1 3.6 4.2 6.2.2 9.1-6 11.1-17.8 15.2C189.5 80.6 42.6 93.2 4 94l29.2 34.7s36-21 70.8-28.1c35.4-7.2 117-20.8 126.4-25 16-7.5 16.8-18.9 12-26.6zm-73.5 5.9c-2.9 5.5-7.5 10.2-10.3 10.4-2.7.2-2.6-4.1.3-9.6 3-5.5 7.6-10.2 10.4-10.4 2.6-.3 2.5 4.1-.4 9.6zm26.2 7.7c-2.8.3-2.7-4.1.2-9.6 2.1-4.2 5.3-7.9 7.8-9.6-.7 2.7-.4 5.7 1.6 8.1-2.2 4.9-5.9 10.7-9.6 11.1z"/><path d="M117 108.7c.5-.5.7-1.2.7-2 0-.5-.1-.9-.3-1.2-.2-.3-.5-.6-.8-.8-.3-.2-.7-.4-1.1-.5-.4-.1-.8-.1-1.3-.1H110l-2.1 12.1h4.3c.7 0 1.4-.1 2.1-.2.6-.2 1.2-.4 1.6-.7.5-.3.8-.7 1.1-1.2.3-.5.4-1 .4-1.6 0-.7-.2-1.3-.6-1.7-.4-.4-1-.7-1.6-.8.6-.4 1.3-.8 1.8-1.3zm-1.8 3.6c0 .4-.1.7-.2 1-.2.3-.4.5-.6.6-.3.2-.6.3-.9.3-.3.1-.7.1-1.1.1h-2.1l.6-3.6h2.3c.7 0 1.2.1 1.5.4.3.3.5.7.5 1.2zm-.4-3.7c-.2.1-.5.3-.7.3-.3.1-.5.1-.8.1h-2.2l.6-3.2h1.9c.6 0 1 .1 1.4.3.4.2.6.6.6 1.1 0 .3-.1.6-.2.9-.2.2-.4.4-.6.5zM121.7 104c-.3 0-.6.1-.9.3-.2.2-.4.5-.4.9s.1.7.3.9c.2.2.5.3.8.3.3 0 .6-.1.9-.4.2-.2.3-.5.3-.9s-.1-.6-.3-.9c-.1-.1-.3-.2-.7-.2zM118.8 116.1h2l1.4-8.1h-2zM132.5 108h-2.6l-3.7 3.4 1.4-8.1h-2l-2.3 12.8h2l.8-4.2 2.6 4.2h2.5l-3-4.3zM139.5 108.6c-.3-.3-.7-.5-1.1-.6-.4-.1-.9-.2-1.4-.2-.7 0-1.3.1-1.9.4-.6.3-1.1.6-1.5 1.1-.4.5-.8 1-1 1.6-.2.6-.4 1.3-.4 2 0 .6.1 1.1.3 1.5.2.4.5.8.8 1.1.3.3.7.5 1.2.7.5.2 1 .2 1.5.2 1.5 0 2.7-.5 3.7-1.6l-1.1-1.1c-.3.3-.6.6-1 .8-.4.2-.8.3-1.3.3-.3 0-.6 0-.9-.1-.3-.1-.5-.2-.7-.4-.2-.2-.3-.4-.5-.6-.1-.2-.2-.5-.2-.7v-.2h6.1c.1-.3.1-.6.2-.9 0-.3.1-.6.1-.8 0-.5-.1-1-.3-1.4 0-.5-.3-.9-.6-1.1zm-.8 2.4v.2h-4.2c0-.2.1-.4.3-.7.1-.2.3-.5.5-.7.2-.2.5-.4.7-.5.3-.1.6-.2 1-.2.6 0 1 .2 1.3.5.3.3.5.7.5 1.1-.1.2-.1.3-.1.3zM147.2 109.6c.1 0 .2 0 .3.1l.3-1.9h-.5c-.5 0-1 .1-1.4.4-.4.3-.7.7-1 1.1v-.3c0-.1 0-.3.1-.4v-.4-.3h-1.9c0 .3-.1.6-.1.9-.1.3-.1.6-.1.8l-1.1 6.4h2l.8-4.4c0-.1.1-.3.2-.6.1-.2.2-.5.4-.7.2-.2.4-.4.7-.6.3-.2.7-.3 1.1-.3 0 .2.1.2.2.2zM150.5 109.5c.1-.1.3-.1.5-.2.2 0 .3-.1.5-.1.4 0 .7.1 1 .2.2.2.4.3.6.6l1.5-.9c-.3-.5-.7-.8-1.2-1.1-.5-.2-1.1-.3-1.7-.3-.5 0-1 .1-1.4.2-.4.1-.8.3-1.1.6-.3.2-.6.5-.7.9-.2.3-.3.7-.3 1.1 0 .3 0 .6.1.8.1.2.2.4.4.6.2.2.4.3.7.5.3.1.6.3 1 .4.5.2.8.3 1.1.5.2.1.3.4.3.7 0 .3-.1.6-.4.7-.3.2-.6.3-1.1.3-.4 0-.8-.1-1.1-.3-.3-.2-.6-.4-.8-.8l-1.5 1c.3.5.7.9 1.2 1.2.5.3 1.3.5 2.1.5.5 0 .9-.1 1.4-.2.4-.1.8-.3 1.1-.5.3-.2.6-.5.8-.9.2-.3.3-.7.3-1.2 0-.7-.2-1.2-.6-1.6-.4-.4-1-.7-1.8-.9-.4-.1-.8-.2-1-.4-.2-.1-.3-.3-.3-.6 0-.2 0-.3.1-.5 0-.1.1-.2.3-.3zM163.5 105.9c.2-.1.5-.2.7-.3.3-.1.5-.1.7-.1.4 0 .8.1 1.2.3.4.2.7.4.9.8l1.5-1.2c-.2-.3-.4-.5-.7-.7-.3-.2-.6-.4-.9-.5l-.9-.3c-.3-.1-.6-.1-.9-.1-.6 0-1.2.1-1.7.2-.6.2-1 .4-1.5.7-.4.3-.8.7-1 1.2-.3.5-.4 1-.4 1.6 0 .5.1.9.2 1.2.1.3.3.6.6.9.2.2.5.5.9.6.3.2.7.3 1 .5.3.1.6.2.8.3.3.1.5.3.7.4.2.2.4.3.5.6.1.2.2.5.2.7 0 .4-.1.7-.2.9-.1.2-.3.4-.5.6-.2.2-.5.3-.7.3-.3.1-.6.1-.8.1-.6 0-1.1-.1-1.5-.4-.5-.3-.8-.6-1-1l-1.7 1.2c.2.3.5.6.8.9.3.2.7.4 1 .6.4.2.7.3 1.1.4.4.1.8.1 1.2.1.6 0 1.1-.1 1.7-.2.6-.1 1.1-.4 1.5-.7.4-.3.8-.7 1.1-1.2.3-.5.4-1.1.4-1.8 0-.9-.3-1.6-.9-2.2-.6-.5-1.4-1-2.4-1.4-.5-.2-.9-.4-1.2-.6-.3-.2-.5-.6-.5-1 0-.3.1-.6.2-.9l.5-.5zM175.1 112.5c0 .3-.1.5-.2.8-.1.3-.3.5-.5.7-.2.2-.4.4-.7.5-.3.1-.5.2-.9.2-.5 0-.9-.1-1.1-.4-.2-.3-.3-.6-.3-1v-.4c0-.1 0-.3.1-.4l.8-4.5h-2l-.9 5.1c0 .2-.1.5-.1.8 0 .3.1.7.2 1 .1.3.3.6.5.8.2.2.5.4.8.5.3.1.7.2 1.2.2.6 0 1.1-.1 1.6-.4.4-.3.8-.6 1.1-1.1 0 .2-.1.4-.1.7 0 .3-.1.5-.1.6h1.9c0-.3.1-.6.1-.9.1-.3.1-.6.1-.8l1.1-6.4h-2l-.6 4.4zM187.7 108.7c-.3-.3-.7-.6-1.1-.7-.4-.2-.9-.3-1.4-.3-.6 0-1.2.1-1.7.4-.5.3-.9.6-1.3 1.1h-.1l.2-1.3h-1.9l-2.2 12.2h2l.9-5.4c.2.5.6.9 1 1.1.5.3 1.1.4 1.8.4s1.3-.1 1.8-.4c.5-.3 1-.6 1.4-1.1.4-.5.7-1 .9-1.6.2-.6.3-1.3.3-2 0-.5-.1-1-.2-1.4.1-.3-.1-.6-.4-1zm-1.3 4.1c-.1.4-.3.7-.6 1-.2.3-.5.5-.9.7-.3.2-.7.3-1.1.3-.6 0-1.1-.2-1.5-.6-.4-.4-.6-.9-.6-1.5 0-.4.1-.8.2-1.2.1-.4.3-.7.6-1 .3-.3.6-.5.9-.7.4-.2.7-.3 1.1-.3.6 0 1.1.2 1.5.6.3.4.5.9.5 1.5.1.4 0 .8-.1 1.2zM198.2 108.7c-.3-.3-.7-.6-1.1-.7-.4-.2-.9-.3-1.4-.3-.6 0-1.2.1-1.7.4-.5.3-.9.6-1.3 1.1h-.1l.2-1.3H191l-2.2 12.2h2l.9-5.4c.2.5.6.9 1 1.1.5.3 1.1.4 1.8.4s1.3-.1 1.8-.4c.5-.3 1-.6 1.4-1.1.4-.5.7-1 .9-1.6.2-.6.3-1.3.3-2 0-.5-.1-1-.2-1.4 0-.3-.2-.6-.5-1zm-1.3 4.1c-.1.4-.3.7-.6 1-.2.3-.5.5-.9.7-.3.2-.7.3-1.1.3-.6 0-1.1-.2-1.5-.6-.4-.4-.6-.9-.6-1.5 0-.4.1-.8.2-1.2.1-.4.3-.7.6-1 .3-.3.6-.5.9-.7.4-.2.7-.3 1.1-.3.6 0 1.1.2 1.5.6.3.4.5.9.5 1.5.1.4 0 .8-.1 1.2zM208.3 108.7c-.4-.3-.8-.6-1.3-.7-.5-.2-1-.3-1.6-.3-.7 0-1.4.1-2 .4-.6.3-1.1.7-1.6 1.1-.4.5-.8 1-1 1.6-.2.6-.3 1.2-.3 1.9 0 .5.1 1 .3 1.4.2.4.5.8.8 1.1.4.3.8.6 1.3.7.5.2 1 .3 1.6.3.7 0 1.4-.1 2-.4.6-.3 1.1-.6 1.6-1.1.4-.5.8-1 1-1.6.2-.6.3-1.3.3-1.9 0-.5-.1-1-.3-1.4-.2-.4-.4-.8-.8-1.1zm-1.1 4c-.1.4-.3.7-.6 1-.2.3-.5.5-.9.7-.4.2-.7.3-1.2.3-.7 0-1.2-.2-1.5-.6-.4-.4-.5-.9-.5-1.5 0-.4.1-.8.2-1.2.1-.4.3-.7.6-1 .2-.3.5-.5.9-.7.3-.2.7-.3 1.2-.3.6 0 1.2.2 1.5.6.4.4.6.9.6 1.5-.1.4-.1.8-.3 1.2zM215.8 107.7c-.5 0-1 .1-1.4.4-.4.3-.7.7-1 1.1v-.3c0-.1 0-.3.1-.4v-.4-.3h-1.9c0 .3-.1.6-.1.9-.1.3-.1.6-.1.8l-1.1 6.4h2l.8-4.4c0-.1.1-.3.2-.6.1-.2.2-.5.4-.7.2-.2.4-.4.7-.6.3-.2.7-.3 1.1-.3h.3c.1 0 .2 0 .3.1l.3-1.9h-.2c-.2.2-.3.2-.4.2zM221.2 105.6h-2l-.4 2.4h-1.4l-.3 1.6h1.4l-.7 3.8c0 .2-.1.3-.1.5v.5c0 .6.2 1 .5 1.4.4.3 1 .5 1.8.5.2 0 .4 0 .6-.1.2 0 .4-.1.6-.2l.1-1.5c-.1 0-.2.1-.4.1h-.4c-.3 0-.5-.1-.7-.2-.2-.1-.3-.3-.3-.6 0-.1 0-.3.1-.5l.7-3.8h1.8l.3-1.6h-1.8l.6-2.3z"/></svg>