<svg version="1.1" id="レイヤー_1" xmlns="http://www.w3.org/2000/svg" x="0" y="0" viewBox="0 0 193 43" xml:space="preserve"><style>.st0{fill:#fff}</style><path class="st0" d="M6 7.8c0 1.3-.5 2-1.6 2 0-.2-.1-.4-.3-.4-.1-.1-.5-.2-1.1-.3v-.3c.6.1 1.1.1 1.5.1.4 0 .6-.1.7-.4.1-.3.1-.6.1-1 0-.3 0-.6-.1-.9C4 7.7 2.4 8.6.4 9.2l-.2-.3C2.2 8.2 3.9 7.2 5 6c-.1-.3-.2-.5-.3-.7-1.1.9-2.4 1.5-4.1 2l-.1-.2c1.7-.6 3-1.4 3.9-2.3 0 0 0-.1-.1-.1 0-.1-.1-.3-.3-.5-.9.6-2 1-3.3 1.3l-.1-.2c1.6-.5 2.8-1.1 3.7-2H1.8L1.7 3h5.5l.6-.7c.3.2.5.5.8.8l-.2.2H5.9c.2.9.6 1.7 1 2.4.5-.5 1-1.2 1.5-1.9.6.3.9.6.9.7 0 .1-.1.1-.2.1h-.2c-.6.5-1.1.9-1.8 1.4.7 1 1.7 1.7 2.9 2.4-.2.1-.4.3-.6.6-2-1.3-3.3-3.2-3.8-5.7h-.4c-.3.3-.6.5-.9.8C5.4 5.3 6 6.6 6 7.8zM4.7 1.4V0c.7 0 1.1.1 1.1.3 0 .1-.1.2-.5.3v.9h3.4l.4-.5c.5.5.8.8.8 1 .1-.1 0 0-.1 0h-.4c-.2.3-.5.6-.8.8l-.2-.2c.2-.3.3-.6.4-.9H1.5v.1c0 .6-.1 1.1-.3 1.4-.1.2-.3.3-.4.3-.1 0-.2 0-.3-.1-.1-.1-.2-.2-.2-.3 0-.1.1-.3.3-.4.4-.4.6-1 .6-1.7h.3c0 .1 0 .2.1.4h3.1zM19.7 4.3c-.2.2-.5.5-.9.7-.4.2-.9.4-1.4.6-.1 0-.3.1-.4.2v.4c0 .5 0 .8-.1 1.1-.1.2-.3.4-.5.4-.3 0-.4-.2-.3-.4.1-.2.2-.7.2-1.1v-.1l-.6.3c-.4.2-.7.4-1 .8-.2.3-.4.7-.1 1.1.2.3.7.5 1.2.5s.8-.1 1.1-.1c.3-.1.6-.1.8-.2.4 0 .5 0 .7.2.2.1.2.4 0 .4-.1 0-.2.1-.7.1-.4 0-1.2.1-1.7.1-.6 0-1.2-.2-1.6-.4-.4-.2-.5-.6-.5-1.1 0-.4.2-.8.5-1.1.3-.3.7-.6 1.1-.8.2-.1.4-.2.7-.3 0-.2 0-.3-.2-.5-.2-.3-.5-.4-.8-.4-.2 0-.5 0-.8.1-.1 0-.1.1-.2.1 0 .1-.2.3-.3.5-.3.4-.6.6-.9.6-.3 0-.3-.2-.3-.4s.1-.4.3-.5c.2-.1.4-.2.6-.4.5-.3.9-.9 1.3-1.6.2-.3.3-.5.4-.8H15c-.4 0-.7 0-1-.2-.3-.2-.3-.5-.2-.7.1-.2.4-.1.6 0 .3.1.6.1 1 0h.2c.1-.3 0-.4-.2-.6-.1-.1-.1-.3-.1-.4.1-.1.3-.1.5 0 .1 0 .1.1.2.2.2 0 .4.1.4.1.1 0 .4.1.4.1.1.1 0 .2 0 .4-.1.2-.4.5-.6.7-.1 0-.1.1-.2.1-.1.2-.2.5-.3.7-.3.5-.4.8-.7 1.3 0 .1-.1.1-.1.2.1 0 .2-.1.3-.1.3-.1.5-.1.8-.1.3 0 .5.1.6.4 0-.1.1-.1.2-.2.4-.5.8-.8 1.3-1.1.5-.3 1.2-.3 1.7 0 .2.5 0 .9-.1 1.2zM16 1.4c.1 0 .1-.1.2-.1.2-.1.2-.2.2-.3 0 0-.1-.1-.3-.1H16v.5zm3.1 2.2c-.1-.1-.3-.2-.8-.1-.4.1-.7.3-1 .6-.3.2-.5.6-.7 1 0 .1.1.2.1.2.1 0 .2-.1.3-.1.5-.2 1.1-.5 1.6-.8.6-.4.6-.7.5-.8zM22.7 7.6c.7.2 1.3.6 1.7 1 .2.2.3.5.3.7 0 .4-.2.5-.5.5-.2 0-.3-.1-.4-.4-.2-.6-.6-1.2-1.2-1.7l.1-.1zM29 3.2c1-.9 1.8-1.9 2.3-3.2.6.2.9.4.9.6 0 .1-.2.1-.5.1-.6 1-1.5 1.9-2.6 2.7l-.1-.2zm2.3 1.5c0 .1-.1.2-.4.2v4.9h-.6V5.4c-.3.4-.7.9-1.1 1.3l-.2-.2c.9-1.1 1.8-2.6 2.4-4.4.6.2.8.4.8.5 0 .1-.1.2-.4.2-.3.6-.6 1.2-.9 1.7.3.1.4.2.4.2zm2.8 1.6V8c.9-.2 1.6-.4 2.2-.5v.3c-1.3.4-2.6.8-4.1 1.2 0 .3-.1.4-.2.4s-.3-.3-.5-1l1.8-.3h.1V6.3h-1.6l-.1-.3h1.7V4.4c.7 0 1 .1 1 .3 0 .1-.1.2-.4.3v1.1h.8l.5-.7c.2.2.4.4.7.8v.1h-1.9zm3.8-2.4v5c0 .6-.4.9-1.1.9 0-.2-.1-.3-.2-.4-.2-.1-.5-.2-1.1-.3v-.3c.6.1 1 .1 1.4.1.3 0 .4-.1.4-.3V3.9h-1.1l-.1.2h-4.3l-.1-.3h1.9V2.1h-1.4l-.2-.3h1.5V.1c.7 0 1.1.1 1.1.3 0 .1-.2.2-.5.3v1.2h.7l.5-.7.2.1c.2.2.3.4.5.6l-.1.2h-1.7v1.8h.8l.5-.8c.1.2.3.3.4.5h1.9l.5-.7c.2.2.5.5.7.8l-.1.2h-1zM37.5 1l.5-.6c.3.2.5.5.7.7l-.1.2h-2.7l-.1-.3h1.7zM48.6 4.3c-.2.2-.6.5-.9.7-.4.2-.9.4-1.4.6-.1 0-.3.1-.4.2v.4c0 .5 0 .8-.1 1.1-.1.2-.3.4-.5.4-.3 0-.4-.2-.3-.4.1-.2.2-.7.2-1.1v-.1l-.6.3c-.4.2-.7.4-1 .8-.2.3-.4.7-.1 1.1.2.3.7.5 1.2.5s.8-.1 1.1-.1c.3-.1.6-.1.8-.2.4 0 .5 0 .7.2.2.1.2.4 0 .4-.1 0-.2.1-.7.1-.4 0-1.2.1-1.7.1-.6 0-1.2-.2-1.6-.4-.4-.2-.5-.6-.5-1.1 0-.4.2-.8.5-1.1.3-.3.7-.6 1.1-.8.2-.1.4-.2.7-.3 0-.2 0-.3-.2-.5-.2-.3-.5-.4-.8-.4-.2 0-.5 0-.8.1-.1 0-.1.1-.2.1-.2.2-.3.4-.5.6-.1.3-.4.5-.7.5-.3 0-.3-.2-.3-.4s.1-.4.3-.5c.1-.1.3-.2.6-.3.5-.3.9-.9 1.3-1.6.2-.3.3-.5.4-.8h-.3c-.4 0-.7 0-1-.2-.3-.2-.3-.5-.2-.7.1-.2.4-.1.6 0 .3.1.6.1 1 0h.2c.1-.3 0-.4-.2-.6-.3 0-.3-.2-.2-.3.1-.1.3-.1.5 0 .1 0 .1.1.2.2.2 0 .4.1.4.1.1 0 .4.1.4.1.1.1 0 .2 0 .4-.1.2-.4.6-.6.7-.1 0-.1.1-.2.1-.1.2-.2.5-.3.7-.3.5-.4.8-.7 1.3 0 .1-.1.1-.1.2.1 0 .2-.1.3-.1.3-.1.5-.1.8-.1.3 0 .5.1.6.4 0-.1.1-.1.2-.2.4-.5.8-.8 1.3-1.1.4-.3 1.1-.3 1.5 0 .5.3.3.7.2 1zm-3.7-2.9c.1 0 .1-.1.2-.1.2-.1.2-.2.2-.3 0 0-.1-.1-.3-.1h-.1c0 .1.1.2.1.3-.1.1-.1.2-.1.2zM48 3.6c-.1-.1-.3-.2-.8-.1-.4.1-.7.3-1 .6-.3.2-.5.6-.7 1 0 .1.1.2.1.2.1 0 .2-.1.3-.1.5-.2 1.1-.5 1.6-.8.6-.4.6-.7.5-.8zM51.6 7.6c.7.2 1.3.6 1.7 1 .2.2.3.5.3.7 0 .4-.2.5-.5.5-.2 0-.3-.1-.4-.4-.2-.6-.6-1.2-1.2-1.7l.1-.1zM63.2 4.6v-2h-3.5l-.1-.3h3.6V.2c.8.1 1.2.2 1.2.3 0 .1-.2.2-.5.3v1.5h2.3l.5-.7c.3.1.5.4.7.6l.1.1-.1.2h-3.5v2H67l.6-.8c.3.3.6.5.8.8l-.1.2H64c1.2 1.5 2.7 2.6 4.5 3.5l-.6.6c-1.7-.9-3.1-2.2-4.1-3.8v4.6h-.7v-4c-1.1 1.6-2.5 2.8-4.3 3.7l-.2-.2c1.8-1.1 3.2-2.5 4.2-4.2H59l-.1-.3h4.3zM74.4 5.2V2.1h-3.8l-.1-.3h3.9V0c.8 0 1.1.1 1.1.3 0 .1-.2.2-.5.3v1.2h2.9l.5-.7c.3.2.5.5.7.8l-.1.2h-4v3.1h3.4l.6-.7c.2.2.5.4.8.8l-.1.2h-4.5l.1.1c1.3 1.3 2.8 2.2 4.6 2.8-.2.2-.4.4-.5.7-1.7-.8-3.1-1.8-4.2-3.2v4h-.7V6.1c-1.2 1.3-2.6 2.3-4.4 3l-.1-.2c1.8-.8 3.2-2 4.2-3.4h-4.1l-.1-.3h4.4zm-2.8-2.6c1 .6 1.5 1.2 1.5 1.8 0 .3-.1.4-.4.4-.2 0-.3-.1-.4-.4-.1-.6-.4-1.1-.9-1.6l.2-.2zM76 4.8c.4-.7.7-1.5 1-2.4.7.3 1 .4 1 .6 0 .1-.2.1-.5.2-.3.6-.7 1.2-1.3 1.8l-.2-.2zM89.4 4.3c-.2.2-.5.5-.9.7-.4.2-.9.4-1.4.6-.1 0-.3.1-.4.2v.4c0 .5 0 .8-.1 1.1-.1.2-.3.4-.5.4-.3 0-.4-.2-.3-.4.1-.2.2-.7.2-1.1v-.1l-.6.3c-.4.2-.7.4-1 .8-.2.3-.4.7-.1 1.1.2.3.7.5 1.2.5s.8-.1 1.1-.1c.3-.1.6-.1.8-.2.4 0 .5 0 .7.2.2.1.2.4 0 .4-.1 0-.2.1-.7.1-.4 0-1.2.1-1.7.1-.6 0-1.2-.2-1.6-.4-.4-.2-.5-.6-.5-1.1 0-.4.2-.8.5-1.1.3-.3.7-.6 1.1-.8.2-.1.4-.2.7-.3 0-.2 0-.3-.2-.5-.2-.3-.5-.4-.8-.4-.2 0-.5 0-.8.1-.1 0-.1.1-.2.1-.2.2-.3.4-.5.6-.1.3-.4.5-.7.5-.3 0-.3-.2-.3-.4s.1-.4.3-.5c.1-.1.3-.2.6-.3.5-.3.9-.9 1.3-1.6.2-.3.3-.5.4-.8h-.3c-.4 0-.7 0-1-.2-.3-.2-.3-.5-.2-.7.1-.2.4-.1.6 0 .3.1.6.1 1 0h.2c.1-.3 0-.4-.2-.6-.1-.1-.1-.3-.1-.4.1-.1.3-.1.5 0 .1 0 .1.1.2.2.2 0 .4.1.4.1.1 0 .4.1.4.1.1.1 0 .2 0 .4-.2.3-.5.7-.7.8-.1 0-.1.1-.2.1-.1.2-.2.5-.3.7-.3.5-.4.8-.7 1.3 0 .1-.1.1-.1.2.1 0 .2-.1.3-.1.3-.1.5-.1.8-.1.3 0 .5.1.6.4 0-.1.1-.1.2-.2.4-.5.8-.8 1.3-1.1.5-.3 1.2-.3 1.7 0 .3.3.1.7 0 1zm-3.7-2.9c.1 0 .1-.1.2-.1.2-.1.2-.2.2-.3 0 0-.1-.1-.3-.1h-.1c0 .1.1.2.1.3-.1.1-.1.2-.1.2zm3.1 2.2c-.1-.1-.3-.2-.8-.1-.4.1-.7.3-1 .6-.3.2-.5.6-.7 1 0 .1.1.2.1.2.1 0 .2-.1.3-.1.5-.2 1.1-.5 1.6-.8.6-.4.6-.7.5-.8zM100.4 4.5c0-.3 0-.8-.4-1.1-.4-.4-.7-.5-1.1-.5-.4 0-.8.1-1.1.2-.3.1-.8.4-1.1.7-.3.2-.7.6-1.1.8-.4.3-.8.5-1.2.5-.4 0-.8-.2-1-.4-.2-.2-.3-.4-.2-.5.1-.1.2-.1.4 0 .2 0 .4.1.7.1.3 0 .5-.2.7-.3.2-.1.9-.5 1.2-.7.3-.2.7-.4 1.2-.6.4-.2 1-.4 1.5-.4.6 0 1.2.3 1.6.6.4.3.6.8.6 1.4.1.6-.1 1.1-.4 1.6-.4.5-1 .9-1.5 1.1-.5.2-1 .5-1.6.6-.4.1-.8.1-.9.1-.1 0-.2 0-.2-.1s.1-.1.2-.1.3 0 .8-.1 1.1-.4 1.5-.6c.4-.2.9-.7 1.1-1 .2-.3.3-.9.3-1.3zM106.1 3.9c-.2.4-.3.8-.3.9 0 .1.2.4.4.5.1.2.5.6.8 1 .3.4.6.8.8 1.2.2.5.4.9.4 1.3s-.1.6-.3.6c-.2 0-.4-.1-.4-.3-.1-.2-.1-.5-.2-.9s-.4-.8-.6-1.3c-.2-.5-.6-1-.8-1.2-.2-.3-.5-.6-.5-.9 0-.3.2-.8.4-1.2.2-.4.7-1.1 1-1.4.3-.4.7-.8.8-1 .1-.2.1-.4 0-.5 0-.1 0-.3.1-.3.1-.1.3 0 .5.2s.3.4.3.6c0 .2-.1.4-.4.7-.2.2-.7.5-1 .8-.4.3-.8.8-1 1.2zM119.8 7.9c-.4.5-1 .8-1.6 1-.6.2-1.2.1-1.9 0-.7-.2-1-.4-1-.8s.5-.7.9-.7c.4-.1.9-.1 1.3.2.3.3.3.5.2.8.6-.1 1.1-.2 1.5-.6.5-.4.7-.9.7-1.5s-.4-1.2-1.1-1.5c-.7-.3-1.4-.3-2.2-.1-.8.2-1.3.6-1.6 1.1-.4.5-.6 1-.7 1.4-.1.3-.2.5-.4.6-.1 0-.2.1-.4-.1-.1-.1-.1-.4-.1-.5 0-.2.3-.5.5-.8.2-.3.5-.7 1-1.2.4-.4 1.1-1.3 1.3-1.6.3-.3 1.1-1.3 1.2-1.5.1-.2.2-.3.1-.4-.1-.1-.3 0-.4.1-.1.1-.7.4-1.1.6-.4.2-.6.3-.9.3s-.5-.2-.6-.3c-.1-.1-.2-.3-.1-.4 0-.1.2-.1.3-.1.1 0 .3.1.4.1.2 0 .3 0 .7-.2.4-.1.8-.4 1.3-.6.4-.2.7-.4.9-.4.2 0 .5.1.6.3.2.2.2.3.1.4 0 .1-.1.2-.3.3-.2.1-.5.4-.9.7-.3.3-.7.8-1 1.2l-.9.9c.2-.1.3-.2.7-.3.5-.2 1-.3 1.6-.2.6.1 1.1.3 1.6.6s.8.8.9 1.5c0 .7-.2 1.2-.6 1.7zm-3.5-.2c-.4 0-.6.2-.5.5.1.1.4.3.9.3.5-.5.1-.8-.4-.8z"/><g><path class="st0" d="M123.7 18.9v12.8c0 3-2.1 5.3-3.9 6.8l2.7 3.3c3.6-2.9 5.5-6.4 5.5-10.1V18.9h-4.3zM140.7 30.7c0 2.5-.6 4.4-1.8 5.6-.8.8-1.9 1.3-2.9 1.5V17.7h-4.3v24.7h.4c2 0 6.6.1 9.8-3.1 2.1-2 3.1-5 3.1-8.7h-4.3zM148.7 27l-1.1 4.1h19l1.1-4.1zM184.3 18.9h-14.6l-1.1 4.3h16.5c-1.1 9.1-6.1 14-15.2 14.8l-1.1 4.4c12.2-.5 19.2-7 20.5-19h-.6c-2.4 0-4.4-2-4.4-4.5z"/><path class="st0" d="M188.8 22.1c-1.8 0-3.3-1.4-3.3-3.3 0-1.8 1.4-3.3 3.3-3.3 1.8 0 3.3 1.4 3.3 3.3s-1.5 3.3-3.3 3.3zm0-4.5c-.7 0-1.3.5-1.3 1.3 0 .7.5 1.2 1.3 1.2.7 0 1.2-.5 1.2-1.2s-.5-1.3-1.2-1.3z"/><g><path class="st0" d="M118.9 20.6H112l.5-1.7h-8.8c-.6 2.8-2.4 6.4-4.5 7.4L98 30.8c4.2 0 7.2-3.7 8.8-7.7h7.7c-.5 14-6.9 14.6-13.2 14.8l-1.1 4.3h.8c6.4-.2 17.2-.6 17.8-19.1l.1-2.5zM120.6 15.7l-1.1 4H117l1.1-4h2.5z"/><path class="st0" d="M117 15.7l-1.1 4h-2.5l1.1-4h2.5z"/></g></g><g><path fill="#c71518" d="M8.6 18.4v10h8.5v10l5.7-5.7V18.4z"/><path fill="#054985" d="M14.3 41.3v-10H5.7v-10L0 27v14.3z"/></g><g><path class="st0" d="M40.3 17h-4.7l-6.1 8.8v6.8l2.2-3.2v13.1h4V23.6z"/><path class="st0" d="M50.5 33H60l1-3.8H50.5v-4.4H60l1-3.7H50.5V17h-4v4.1h-7.6l-1 3.7h8.6v4.4h-8.6l-1 3.8h9.6v5.4h-8.7l-1.1 4.1H60l1.1-4.1H50.5zM74.4 24.1h-3.1V17h-4.1v7.1h-2l-1.1 4.1h3.1v14.2h4.1V28.2h2zM86.3 28.6v1.5h-.9l-.7 3.1h1.7v5.2h-1.2l-1.2 4h1.8c2.5-.1 3.7-1.4 3.9-3.2v-6.1H92v5.2h-1.3l-1.1 4.1h2c2.5-.1 3.5-1.4 3.6-3.2V30h-5.5v-1.5l-3.4.1zM75.4 28.6v1.5h-1.1l-.7 3.1h1.8v5.2H74l-1.1 4.1h2c2.5-.1 3.7-1.4 3.9-3.2v-6.1H81v5.2h-1.3l-1.1 4.1h2c2.5-.1 3.5-1.4 3.6-3.2v-9.2h-5.5v-1.5h-3.3zM86.3 24.1h4.3v-1.5h-5.2v1.1c0 2.9-2.7 4.3-4.9 4.3h-5.3v-3.9h6.1v-1.5h-7.1l.9-3.6h6.1v-2h4v2h8.6v6c-.1 1.9-1 3-3.4 3h-4.3l.2-3.9z"/></g></svg>