<svg xmlns="http://www.w3.org/2000/svg" viewBox="0 0 230 230"><path d="M219.5 221.6l-5.6-1.1v-4.2l-2.1-.6v4.4l-5.2-1.1.1-29.7.7-.7v-1.1l-1.5-1.2V180l3.6-5.1.8-7.9 10.3-10.9 5.5 22.3h-2.9l-3.7-14.6-2.8 3.8 4.5 18.1s-8.8-2.6-10-4.9h-1.1l.1 11.4 1.4.6v21.1l2.3.8v-21.9l2.8.5.1 24.1 2.2.5 6.2 1.2v-38.5h4.8l-7.3-30.3h-2.3c0-3.8-2.2-9.1-3-9.5l-6.8.1.1 7.1-1.8.1c.2.2.3.4-.2.5-.3 0-.3.8-.4 1.3-.2.9-.9 1.3-1.2-.2-.1-.4.1-1.3.2-1.5l-1.1.1-3.8-35.5 15.8-1 1.5-1.9-1.9-.9-7.8-15.2.7-3.1c-3.5.5-10.6-.7-11.2-.7l-.4-3.8-1.6-1.2-.6-5.8.6.6.7 4.4.8.7-.6-5.5-1.5-1.2-.6-4.8.6.6.6 3.5.7.6-.6-4.8L196 72l-.2-2.2.6-.1.3 1.4.8.7-.9-8.1 1-.1V65h.9v-1.5l2.9-.3v1.3h.9v-1.4l2.7-.3c.1 0 .1.1.2.1v1.2h.9v-.7c2.1 1.1 3.3 1.5 4.7 1.7l1.3-1.9c-1.5-1.3-1.1-1.5-1.1-1.5l2.6.1 1.9.7 1.3-1.9-4.4-1.9c-1.8-3.9-6.2-11-7-18.9l1.6-.6.7-3.1c-1.6 2.1-18 2.5-28.5 2.7v-1.9L177 34l-11.5.8v4.9c-.6.1-1.3.2-1.9.3l-1.2 1.8c10.2-1.6 20.9.2 33.9-1.3-18.7 2.9-52.6 6.5-67.7 4.5v.7h-1l-1.4-2.7h-1.9l1.9 4h2.6c.3.6.4.6 1.1 1.7-.2 1.5-.2 2.3 1.8 2.5 3.3 4.4 8 10.2 11.1 13.4l-.9 1.1 1.8 1.4.8-.8h1.5l-.1.7h-.7v1.8h.6l-.7 9-3 .3v2.2l2.9-.3-1.1 13c-4.1 0-13.9 3.1-21.9 3.1l1.6 2.8 3.4.3 14.3 13.1-2.4 27h-10.1l-23.4-4.7v-6.9l4.8.2c-8.6-16.6-40.1-77.6-40.5-78.2-.6.3-49.7 22.1-69.8 31v2l59.7-26.6 42 70.3.1 7.2-35-6.8-21.9 28.8 10.7 2.7v29.3L0 176.4v53.7l225.2.2.1-8.5-5.6-1.5-.2 1.3zm-8.2-73.1c2-.4 1.9-.3 2.7-1.2v-.2c-.8-.4-1.5-.7-2-1.8v-.4h.1c-.5-2.6.3-2.6.8-2.6h2c1.1 0 1.9.2 2.1 1 1 .4 1.2 1.6 1.2 4h.2c1.1 0 1 1.5 1 3.2h-.5c0-.4-.1-1.2-1-1.2v-.9c-.8.1-1.8 1.4-2 2.1h-.6c.2-1.9 1.1-2.6 1.8-2.8v-1.2c-.2 0-.4-.1-.4-.7V144c0-.1 0-.2-.1-.3h-.6c-.4.4-.7 1.3-.6 2.4-.2.1-.9 1.8-.4 2.5-.5.6-.8 1.2-.9 2.1 0 .1-.5.6-.6-.1 0-.2-.1-.4-.1-.6-.5-.7-.9-.9-2.3-1.1l.2-.4zm-4 19.3l-.2 1.5-28.4-13.4-.2-1.8 28.8 13.7zm-20.1-76.5l-1.2 1.6h-.4v2.7h-5v-2h-.8l1.7-2.3h1.3v.5l4.4-.5zm-6.7 57.8h5.9v1h-7.1c-.2.1-.2.4-.3 1-.1.8-1 .7-1.1-.1-.2-2.2.7-2.9 1.9-2.5.2.2.5.4.7.6zm15.6-35.2l.1-4h1.4l-.1 4.1h-1.4l.4 4.6.1-3.7h1.4l-.1 4.1h-1.4l.6 7 .1-1.5h1.4l-.1 4.1h-1.1l1.7 18.8-1.9-.4-4.9-51.5 2.1.8 1 11.3.1-3.2h1.4l-.1 4.1h-1.3l.6 5.4zm5.1 25.7h-1.4l.1-4.1h1.4l-.1 4.1zm.5 2.6l-.1 4.1h-1.4l.1-4.1h1.4zm-1-10h-1.4l.1-4.1h1.4l-.1 4.1zm-.9-12.8l-.1 4.1h-1.4l.1-4.1h1.4zm-.1-9.1h1.7l.7 7.3h-1.7l-.7-7.3zm-.1-1.7h-1.4l.1-3.5h1.4l-.1 3.5zm-3.7 40.5v1h-7.1c-.1.2-.1.4-.2.9-.1.8-1 .7-1.1-.1-.2-2.2.7-2.9 1.9-2.5.4.1.8.4.8.7h5.7zm9.9.2h-7.1c-.2.1-.2.4-.3 1-.1.8-1 .7-1.1-.1-.2-2.2.7-2.9 1.9-2.5.3.1.6.3.8.5h5.9v1.1zm-.8-1.4h-1.7l-.9-10h1.7l.9 10zm-1.1-12.1h-1.7l-.7-7.3h1.7l.7 7.3zm-.9-9.3h-1.7l-.7-7.3h1.7l.7 7.3zm12.7-16.8v1.3l-13.7.9v-1.3l13.7-.9zm-18.2-20.2V86l.9.6.5 3.3-2 .2-.2.7h-.2l-.4.8 4.6.4.8-1.1h1.4V92h1.2v2.4h-2v-2.1h-2.8v2.3h-4.4v-2h-1.1l1.2-1.9h.5v-.4l-1.1-.5-2.2-.9-.8-8 1.5 1.4 1.5 2.1-.9.7.8 4.1h1.9l.1.3h1.2zm-1.1-7.7v2.4l-5.1-5-.2-2.5 5.3 5.1zm-5.2-23.6l1 9.4 1 1.7v.9l-.6-.7-.1 1.1 3.1 5.1v1.2l-3-4.8.2 2.8.6.7-.1 1.4-2.3-1.8-1.1-17.5 1.3.5zm-1.1 31.7v.9h4.3l-1 1.6h-.9v2.4H188v-2h-1.2l2.1-2.9h1.2zM181 63.5h.9v2h1v-2.1h.7v-.6h2.9V66l-.9.1v.5h-4.7v-3.1zM178.7 77h2.3v.5h.9v-6.9h-.9v-2.5h3.8v-.5h1.8v2.5h.5v4.8h.4v2.5h-2.8l.1.9-6 .3V77zm-3 15.5h4.1l-.7 1h-.5v2.2l-5.2.3v-2.1H171v2.4h-4.7V94h-.7l1.1-1.2h1.6v.5l4.1-.2 1.7-1.3 1.3.1.3.6zm-6.3 58.2h-1c.3-3 1.8-4 3-4.3v-1.9c-.3 0-.6-.2-.6-1v-2.8c0-.1-.1-.3-.1-.4h-1.3c-.6.7-1.1 2-.9 3.7-.3.2-1.4 2.8-.6 3.9-.9.9-1.4 1.8-1.5 3.2 0 .1-.7.9-1-.1-.1-.3-.1-.6-.2-.9-.8-1-1.6-1.3-3.7-1.6l.2-.8c3.3-.6 3.1-.5 4.5-1.9v-.4c-1.3-.6-2.6-1.1-3.4-2.7v-.7h.1c-.7-4.1.4-4 1.4-4 0 0 2.5-.1 3.3-.1 1.8 0 3.2.3 3.5 1.6 1.7.6 2 2.5 2 6.2h.3c1.8 0 1.7 2.3 1.7 4.9h-.8c0-.6-.2-1.8-1.6-1.9V147.3c-1.2.3-2.9 2.2-3.3 3.4zm-9.9-54v-2.2h-.8l1.2-1h1l.1.5 4.1-.3.3.3h-.1l-1.2 2.6h-4.6zm1.4 42.7v.7h-5.3c-.1 0-.1 0-.2.1-.6.1-.6.1-.7 1.1 0 .8-.8.7-1 .1-.4-1.9.4-2.6 1.5-2.4.4.1.6.2.8.5h4.9zM158 67h2.1v-2h3.7v1.5h.9v-2h3.7V66h.5v1.7h-1.4v.5h-6.1v.4H158V67zm-.5 11.7l8.6-.7-.1-2.2-8.5.7v-5.3h.3v-.9h4.9v-.6h5.7v7.4h5.8v1.7l-16.9 1.1.2-1.2zm.7 15.8l-.2.2-1.1 2.5h-4.4v-2.3h-1.2l1.2-.9h1.2v.5h4.5zM146.1 142c0 .8-.8.8-1 .1-.6-1.9.1-2.6 1.2-2.6.2 0 .3.1.5.1h6v.7h-5.6c-.1.1-.2.3-.5.4-.5.3-.6.3-.6 1.3zm4.7-74.7l2.6-.1v1.4l-1.9.1v.5h-.7v-1.9zm-.5 4l3.1-.1v4l-2.2.1v-.7h-.5v-.7h-.4v-2.6zm-.2 4.2l.6.1v.7c.3 0 2.1-.1 2.1-.1v.7l-2.1.1v.2l-.6.1v-1.8zm-.5 4.1l3.2-.3v1l-3.2.3v-1zm-4.8 15h1.8l-.1.5h4.1v2.2h-5.1v-2.1h-1.2l.5-.6zm-7.1.8l2.1-1.5 1.1-.2-1.9 1.5v.6l4.7-.4-.8 2.4h-4.6v-2.4h-.6zm3.6 15.7v-3.7l-2.6-6.2.3-2.1h2l-.3 2 2.5 6.3-.1 5.2-1.8-1.5zm-2.8 28.9c.1 0 .3.1.4.2h5.6v.7h-5.2c-.1.2-.3.3-.7.4-.6.1-.6.1-.8 1.1-.1.8-.9.6-1-.1-.2-2 .6-2.6 1.7-2.3zm-7.9.4c.3.1.6.3.7.5h4.7v.7h-5.4c-.5.1-.6.1-.7 1-.1.8-.9.6-1-.1-.2-1.8.6-2.4 1.7-2.1zM102.5 154l2 .3v23.3l-2-.3V154zm-3.5 3.8h1.7v23.3H99v-23.3zm5.5 39.7l-.1.4-27.9-5.7V191h2.3v-.6l-12.4-2.6v-1.4l12 2.4 1.2-1.7-12.1-2.5v-9l1.7.2v-11l1.3-.2V138l9 3.5.9-.7h1.2v44l6.1 1.6v-23l2.7.4v24.5l3.9.9v-29.9l2.5.5V190.9l-.4-.1.2 2.4 2 .6v-6.2l1.8.3v8.3l2.1.5v-11.4l2 .3v11.9zm34.5 16.8c.2-.8-1.8-3.1-3.1-3.1-.1-.7-1.5-2-2.1-2.3V206c-.9-1.7-15.8-4.7-16.8-4.7l-5.1-3c2.8-.3 7.1.6 8 .8l.4-.3c-.8-.9-9.4-2.6-12.1-3v.2h-1v-14.1h-1.6v2.6l-2.5-.3v-5.9l2.5.3v1.4h1.6v-26.6l1.7.1V195c2.6.3 10.6 2.4 10.6 2.4l1.9-1.8-10.4-2.4v-41.8h1.1v.9h1.4c3.7 0 3.4.7 3.4 4.7h.9v-2.2h1.1v36.4h2v-37h1.7v37h1.5l2.2-2.2v-9.1h1v-.7h.5v9.5h1.4v-16.1h-1.3v4l-1.5.2V153l1.8-.5v-2.1h1.1v20.5l1.1.3v28.5c.9.1 2.7 2.7 2.6 3.8 2.9.6 4.6 2.8 4.1 5 .8.3 2.6 1.3 2.3 2.4.5.2 1.5 2.2 1.5 3.4H139zm17.8-53.5l-28.4-13.4-.2-1.8 28.8 13.7-.2 1.5zm7.1 44.3l-.1-12.1 2.4.8v13.4l1.7-.3-.1 1.3 1.3.4v-5.2l2.6-1.9 2.7 3.5v4.9l1.7.4v-10l.8-2.8 1 .3v-5l3.5 1.2-.1 19.7-17.1-3.6-2.6-1.1-1 .1-2.6-1.6v-30.9c3.1-3.9 3.2-7.6 3.2-11.3l12.1-14.2 10.2 24.1v3.3l-18.7-6.6-2.2 1.6v31.3l1.3.3zm-87.6-57.4c-.8-.1-1.7.9-2.1 2.4-.3 1.5.1 2.8.9 2.9.8.1 1.7-.9 2.1-2.4.3-1.5-.1-2.8-.9-2.9zm45.9 51.1c1.2.5 6.2 3.5 7 4.2-.3-1-1.3-3.6-7-4.2zm-6.1-38.5c-.8-.1-1.7.9-2 2.3-.3 1.4.1 2.6.8 2.8.8.1 1.7-.9 2-2.3.3-1.4 0-2.6-.8-2.8zm-4.8-35.2l2.7-10.8h3.3l.9-1.1-1.5-.8h-2.1l-.9-1.1 1.5-.3.9-1.6-40.7-84.2c3.7-2.7 3.4-6.9 2.6-7.4-.8-.5-2.8-.9-3.9 1.4-.6 1.2-3.1 2.4-4.9 1.5v-5.3c0-2.5-.4-3.9-2.2-4 0-4.1-.7-5.5-2.3-5.6-.3-1.6-.8-3.8-8.7-3.2-.6-.1-4-.3-4.9-.3-3.5 0-7.7 2-7.6 4.4-.8.7-2 .9-3.6 2.6l-5.7.7c-.3 0-1.1.9-1.1 1.5-.1 1.5-2.1 1.4-2.1.2 0-.8 0-1 .4-1.4l-6.6.9c-1.6.2-1.8 1.5-1.7 2.1.1.9-1.4 1.1-1.8.1-.4-.8 0-1.5 0-1.7l-5 .7c-1.8.3-2 1.2-2 1.8 0 .9-1.5 1.1-1.7.3-.1-.5-.1-1.2.2-1.7L0 14.4v16.1L43.9 25l-2.3 1.6L0 33.9v17.2L72.1 23v3.7L0 55.4v22.8l70.9-31.3 40.4 78.2zM53.5 13.3c-1.4.3-1.1 2-1.1 3 0 .2-.3.4-.4.4-1 .2-1.8 1.9-1.8 4.4 0 .3-.3.3-.4 0-.6-1.5-.8-4.4-.6-5.5-1.1.1-2.1 1.4-2.4 3.9-.1.5-.2.6-.3.1-.8-3.7-3.4-5-6.8-4.7-.3 0-.5-.2-.1-.4 1.9-.8 5.2-1.4 6.7-1.1.8-1.6 2.9-2.1 4-2.3.2 0 .4.1.4.2-.2.6-.1 1.2.2 1.9.1.1.1.3.2.4.1-.1.1-.2.2-.3.7-1 1.6-.7 2.2-.4.2.1.2.4 0 .4zm.1-6.1c0 .1-.2.3-.2.3-.6.1-1.2 1.2-1.2 2.9 0 .2-.2.2-.3 0-.4-1-.5-2.8-.4-3.6-.7.1-1.4.9-1.6 2.5 0 .3-.1.4-.2.1-.5-2.4-2.2-3.3-4.4-3.1-.2 0-.3-.1 0-.2 1.2-.5 3.4-.9 4.4-.7.5-1.1 1.9-1.4 2.6-1.5.2 0 .3.1.2.2-.1.4-.1.8.1 1.3 0 .1.1.2.2.3 0-.1.1-.1.1-.2.5-.6 1-.5 1.5-.3.1.1.1.2 0 .2-.9.1-.8 1.2-.8 1.8zm14 13.1h-.8c0-.6.3-5-1.1-5l-.9.1.3-1.1c-1.4 0-3.4.9-3.3 6.2h-1c-.8-4.5 1.2-7.2 3-7.2v-1.9c-.3 0-.6-.2-.6-1V7.6c0-.1-.1-.3-.1-.4h-1.3c-.6.7-1.1 2-.9 3.7-.3.2-1.4 2.8-.6 3.9-.9.9-1.4 3.1-1.5 4.5-.1 1.5-.4 1.5-1-.1-.1-.3-.1-1.9-.2-2.2-.8-1-1.6-1.3-3.7-1.6l-.1-.8c2.7.2 3.9.1 4.8-1.8v-.4c-2 0-3.5-1.2-4.2-2.7v-.9h1c-.7-4.1.4-5 1.4-5 0 0 2.5-.1 3.3-.1 1.8 0 3.2 1.4 3.5 2.7 1.7.6 2 2.5 2 6.2h.3c1.7 0 1.7 3.6 1.7 7.7z" fill="#fff"/></svg>