<?xml version="1.0" encoding="utf-8"?>
<!-- Generator: Adobe Illustrator 24.0.2, SVG Export Plug-In . SVG Version: 6.00 Build 0)  -->
<svg version="1.1" id="レイヤー_1" xmlns="http://www.w3.org/2000/svg" xmlns:xlink="http://www.w3.org/1999/xlink" x="0px"
	 y="0px" viewBox="0 0 139 31" enable-background="new 0 0 139 31" xml:space="preserve">
<g>
	<g>
		<g>
			<path fill="#221714" d="M4.34,5.67c0,0.96-0.38,1.44-1.12,1.44c0-0.14-0.06-0.25-0.18-0.32C2.91,6.72,2.63,6.65,2.2,6.57V6.35
				c0.41,0.07,0.77,0.11,1.08,0.11c0.25,0,0.42-0.09,0.49-0.25C3.84,6,3.87,5.76,3.87,5.48c0-0.22-0.03-0.43-0.08-0.67
				C2.89,5.57,1.71,6.2,0.27,6.64L0.15,6.46c1.47-0.53,2.64-1.23,3.49-2.12c-0.08-0.21-0.16-0.38-0.23-0.5
				c-0.77,0.62-1.76,1.1-2.95,1.44L0.35,5.11c1.19-0.45,2.13-1,2.83-1.67C3.16,3.41,3.15,3.39,3.14,3.36
				C3.08,3.29,3.01,3.19,2.91,3.05C2.26,3.47,1.47,3.79,0.54,4.01L0.42,3.84C1.55,3.49,2.45,3.01,3.11,2.4h-1.8l-0.1-0.2h3.98
				L5.61,1.7c0.21,0.18,0.39,0.36,0.55,0.54L6.06,2.4H4.27c0.16,0.65,0.4,1.23,0.75,1.74C5.4,3.74,5.77,3.27,6.13,2.76
				c0.39,0.24,0.59,0.42,0.59,0.53c0,0.06-0.07,0.09-0.18,0.09c-0.03,0-0.08,0-0.18-0.02C6.01,3.69,5.61,4,5.15,4.32
				c0.51,0.69,1.19,1.26,2.07,1.72C7.06,6.16,6.93,6.32,6.81,6.5c-1.49-0.93-2.43-2.3-2.8-4.1H3.76C3.53,2.6,3.31,2.77,3.09,2.93
				C3.93,3.83,4.34,4.74,4.34,5.67z M3.43,1.04V0c0.53,0,0.79,0.06,0.79,0.18c0,0.07-0.11,0.14-0.34,0.22v0.63h2.48l0.29-0.37
				c0.39,0.37,0.57,0.6,0.57,0.69c0,0.04-0.03,0.07-0.1,0.09L6.83,1.48C6.65,1.67,6.46,1.85,6.24,2.02L6.08,1.9
				C6.2,1.71,6.3,1.48,6.39,1.23H1.11v0.06c0,0.44-0.08,0.78-0.25,1.04c-0.1,0.14-0.19,0.21-0.31,0.21c-0.08,0-0.16-0.04-0.24-0.11
				C0.27,2.39,0.24,2.33,0.24,2.26c0-0.08,0.07-0.18,0.19-0.32C0.7,1.66,0.84,1.26,0.88,0.75l0.18,0.02
				C1.08,0.83,1.1,0.91,1.11,1.04H3.43z"/>
			<path fill="#221714" d="M14.21,3.1c-0.13,0.18-0.39,0.35-0.65,0.49C13.31,3.72,12.88,3.86,12.55,4
				c-0.09,0.04-0.18,0.08-0.28,0.12c0.01,0.1,0.03,0.2,0.04,0.31c0.04,0.34-0.02,0.6-0.11,0.76c-0.08,0.17-0.2,0.26-0.36,0.29
				c-0.18,0.02-0.25-0.12-0.2-0.3c0.06-0.18,0.11-0.5,0.13-0.81c0-0.02,0-0.04,0-0.05c-0.15,0.06-0.29,0.12-0.41,0.19
				c-0.27,0.15-0.51,0.3-0.7,0.57c-0.15,0.21-0.26,0.54-0.1,0.78c0.17,0.22,0.52,0.39,0.86,0.39c0.36-0.02,0.58-0.04,0.83-0.09
				c0.24-0.05,0.46-0.11,0.59-0.11c0.26-0.02,0.38,0.03,0.54,0.14c0.14,0.11,0.14,0.25,0.01,0.32c-0.06,0.04-0.17,0.06-0.47,0.1
				c-0.3,0.04-0.87,0.1-1.26,0.08c-0.4-0.02-0.84-0.12-1.18-0.32c-0.29-0.18-0.39-0.46-0.38-0.79c0.01-0.32,0.16-0.54,0.38-0.76
				c0.21-0.21,0.51-0.41,0.83-0.59c0.15-0.08,0.32-0.17,0.48-0.25c-0.01-0.14-0.04-0.25-0.11-0.35c-0.14-0.2-0.38-0.29-0.56-0.32
				c-0.18-0.03-0.38,0-0.56,0.09c-0.06,0.03-0.11,0.05-0.16,0.09c-0.11,0.15-0.23,0.28-0.33,0.43C9.83,4.21,9.59,4.37,9.4,4.37
				C9.2,4.36,9.18,4.25,9.18,4.09c0-0.15,0.07-0.31,0.18-0.39C9.5,3.63,9.65,3.56,9.82,3.45c0.34-0.24,0.65-0.68,0.91-1.12
				C10.86,2.1,10.94,1.93,11,1.76c-0.07,0.01-0.14,0.02-0.21,0.03c-0.27,0.03-0.54,0-0.73-0.11C9.88,1.55,9.83,1.28,9.9,1.18
				C10,1.04,10.15,1.13,10.34,1.2c0.18,0.06,0.42,0.08,0.69,0.02c0.04-0.01,0.09-0.02,0.13-0.03c0.04-0.25-0.03-0.32-0.11-0.42
				C10.95,0.67,10.95,0.53,11,0.46c0.06-0.05,0.19-0.07,0.33,0.01c0.05,0.03,0.09,0.06,0.12,0.11c0.12,0.02,0.27,0.05,0.32,0.06
				c0.08,0.01,0.25,0.05,0.32,0.11c0.08,0.06,0.03,0.14-0.04,0.28c-0.06,0.13-0.26,0.39-0.47,0.51c-0.05,0.04-0.11,0.06-0.16,0.08
				c-0.05,0.18-0.13,0.36-0.21,0.5c-0.19,0.38-0.32,0.58-0.54,0.92c-0.03,0.04-0.05,0.09-0.09,0.13c0.07-0.03,0.15-0.06,0.2-0.08
				c0.19-0.08,0.39-0.1,0.6-0.05c0.19,0.03,0.33,0.11,0.47,0.26c0.04-0.04,0.07-0.11,0.11-0.14c0.29-0.38,0.54-0.61,0.94-0.79
				c0.39-0.18,0.9-0.24,1.2-0.02C14.45,2.58,14.34,2.92,14.21,3.1z M11.57,1.04c0.04-0.03,0.08-0.04,0.11-0.06
				c0.13-0.07,0.18-0.16,0.15-0.18c-0.03-0.04-0.09-0.06-0.21-0.08c-0.03-0.01-0.07-0.01-0.1-0.02c0.03,0.07,0.04,0.14,0.04,0.22
				C11.58,0.96,11.58,0.99,11.57,1.04z M13.85,2.57c-0.05-0.1-0.24-0.18-0.54-0.11C13,2.53,12.77,2.7,12.56,2.89
				c-0.18,0.18-0.39,0.47-0.47,0.73c0.03,0.05,0.05,0.11,0.07,0.16c0.08-0.03,0.15-0.07,0.23-0.11c0.37-0.16,0.79-0.35,1.15-0.55
				C13.91,2.92,13.91,2.68,13.85,2.57z"/>
			<path fill="#221714" d="M16.4,5.48c0.52,0.17,0.94,0.4,1.26,0.72c0.16,0.16,0.23,0.33,0.23,0.53c0,0.26-0.13,0.39-0.38,0.39
				c-0.14,0-0.23-0.11-0.31-0.3c-0.16-0.44-0.46-0.85-0.89-1.21L16.4,5.48z"/>
			<path fill="#221714" d="M20.94,2.33c0.71-0.63,1.28-1.4,1.69-2.28c0.42,0.17,0.64,0.31,0.64,0.4c0,0.07-0.11,0.11-0.34,0.11
				c-0.47,0.75-1.09,1.39-1.86,1.92L20.94,2.33z M22.63,3.43c0,0.06-0.08,0.12-0.27,0.18v3.51h-0.45V3.93
				c-0.24,0.32-0.51,0.62-0.82,0.93l-0.15-0.14c0.68-0.81,1.27-1.86,1.76-3.16c0.4,0.15,0.61,0.29,0.61,0.4
				c0,0.07-0.11,0.11-0.32,0.12c-0.2,0.46-0.41,0.85-0.63,1.19C22.56,3.32,22.63,3.37,22.63,3.43z M24.66,4.57v1.21
				c0.64-0.14,1.17-0.25,1.57-0.37l0.04,0.21c-0.9,0.32-1.89,0.6-2.94,0.85c-0.03,0.2-0.07,0.31-0.14,0.31
				c-0.1,0-0.23-0.24-0.37-0.7c0.44-0.05,0.87-0.12,1.3-0.2c0.01,0,0.03,0,0.06,0c0.02,0,0.04,0,0.04-0.01v-1.3h-1.17l-0.08-0.19
				h1.25V3.19c0.51,0.01,0.76,0.08,0.76,0.19c0,0.07-0.11,0.14-0.31,0.21v0.79h0.58l0.37-0.54c0.14,0.14,0.3,0.32,0.48,0.55L26,4.57
				H24.66z M27.37,2.79v3.64c0,0.42-0.26,0.62-0.79,0.62c0-0.13-0.06-0.22-0.18-0.28c-0.12-0.06-0.39-0.13-0.81-0.2v-0.2
				c0.4,0.04,0.75,0.06,1.02,0.06c0.2,0,0.31-0.08,0.31-0.24V2.79h-0.81l0.03,0.03l0.03,0.04L26.07,3h-3.13l-0.07-0.2h1.34V1.51
				h-1.03l-0.08-0.2h1.11V0.08C24.74,0.09,25,0.15,25,0.26c0,0.06-0.11,0.13-0.33,0.21v0.83h0.54l0.37-0.48l0.11,0.11
				c0.12,0.12,0.23,0.27,0.34,0.42l-0.1,0.16h-1.26V2.8h0.66l0.38-0.54c0.11,0.13,0.2,0.24,0.28,0.33h1.37l0.37-0.5
				c0.18,0.18,0.35,0.36,0.51,0.55l-0.09,0.15H27.37z M27.15,0.75l0.36-0.49c0.18,0.18,0.35,0.36,0.49,0.54l-0.09,0.16h-1.96
				l-0.08-0.2H27.15z"/>
			<path fill="#221714" d="M35.11,3.1c-0.13,0.18-0.39,0.35-0.65,0.49C34.2,3.72,33.77,3.86,33.44,4c-0.09,0.04-0.18,0.08-0.28,0.12
				c0.01,0.1,0.03,0.2,0.04,0.31c0.04,0.34-0.02,0.6-0.11,0.76c-0.08,0.17-0.2,0.26-0.36,0.29c-0.18,0.02-0.25-0.12-0.2-0.3
				c0.06-0.18,0.11-0.5,0.13-0.81c0-0.02,0-0.04,0-0.05c-0.15,0.06-0.29,0.12-0.41,0.19c-0.27,0.15-0.51,0.3-0.7,0.57
				c-0.15,0.21-0.26,0.54-0.1,0.78c0.17,0.22,0.52,0.39,0.86,0.39c0.36-0.02,0.58-0.04,0.83-0.09c0.24-0.05,0.46-0.11,0.59-0.11
				c0.26-0.02,0.38,0.03,0.54,0.14c0.14,0.11,0.14,0.25,0.01,0.32c-0.06,0.04-0.17,0.06-0.47,0.1c-0.3,0.04-0.87,0.1-1.26,0.08
				c-0.4-0.02-0.84-0.12-1.18-0.32c-0.29-0.18-0.39-0.46-0.38-0.79c0.01-0.32,0.16-0.54,0.38-0.76c0.21-0.21,0.51-0.41,0.83-0.59
				c0.15-0.08,0.32-0.17,0.48-0.25c-0.01-0.14-0.04-0.25-0.11-0.35c-0.14-0.2-0.38-0.29-0.56-0.32c-0.18-0.03-0.38,0-0.56,0.09
				c-0.06,0.03-0.11,0.05-0.16,0.09c-0.11,0.15-0.23,0.28-0.33,0.43c-0.21,0.3-0.45,0.46-0.64,0.46c-0.19-0.01-0.21-0.12-0.21-0.28
				c0-0.15,0.07-0.31,0.18-0.39c0.13-0.07,0.28-0.14,0.45-0.25c0.34-0.24,0.65-0.68,0.91-1.12c0.13-0.23,0.21-0.39,0.27-0.56
				c-0.07,0.01-0.14,0.02-0.21,0.03c-0.27,0.03-0.54,0-0.73-0.11c-0.18-0.12-0.24-0.39-0.17-0.5c0.11-0.14,0.25-0.04,0.45,0.03
				c0.18,0.06,0.42,0.08,0.69,0.02c0.04-0.01,0.09-0.02,0.13-0.03c0.04-0.25-0.03-0.32-0.11-0.42c-0.11-0.11-0.11-0.25-0.05-0.32
				c0.06-0.05,0.19-0.07,0.33,0.01c0.05,0.03,0.09,0.06,0.12,0.11c0.12,0.02,0.27,0.05,0.32,0.06c0.08,0.01,0.25,0.05,0.32,0.11
				c0.08,0.06,0.03,0.14-0.04,0.28C32.9,1.16,32.7,1.41,32.5,1.54c-0.05,0.04-0.11,0.06-0.16,0.08c-0.05,0.18-0.13,0.36-0.21,0.5
				c-0.19,0.38-0.32,0.58-0.54,0.92c-0.03,0.04-0.05,0.09-0.09,0.13c0.07-0.03,0.15-0.06,0.2-0.08c0.19-0.08,0.39-0.1,0.6-0.05
				c0.19,0.03,0.33,0.11,0.47,0.26c0.04-0.04,0.07-0.11,0.11-0.14c0.29-0.38,0.54-0.61,0.94-0.79c0.39-0.18,0.9-0.24,1.2-0.02
				C35.35,2.58,35.23,2.92,35.11,3.1z M32.47,1.04c0.04-0.03,0.08-0.04,0.11-0.06c0.13-0.07,0.18-0.16,0.15-0.18
				c-0.03-0.04-0.09-0.06-0.21-0.08c-0.03-0.01-0.07-0.01-0.1-0.02c0.03,0.07,0.04,0.14,0.04,0.22C32.47,0.96,32.47,0.99,32.47,1.04
				z M34.74,2.57c-0.05-0.1-0.24-0.18-0.54-0.11c-0.3,0.06-0.54,0.24-0.74,0.42c-0.18,0.18-0.39,0.47-0.47,0.73
				c0.03,0.05,0.05,0.11,0.07,0.16c0.08-0.03,0.15-0.07,0.23-0.11c0.37-0.16,0.79-0.35,1.15-0.55C34.8,2.92,34.8,2.68,34.74,2.57z"
				/>
			<path fill="#221714" d="M37.3,5.48c0.52,0.17,0.94,0.4,1.26,0.72c0.16,0.16,0.23,0.33,0.23,0.53c0,0.26-0.13,0.39-0.38,0.39
				c-0.14,0-0.23-0.11-0.31-0.3c-0.16-0.44-0.46-0.85-0.89-1.21L37.3,5.48z"/>
			<path fill="#221714" d="M45.71,3.31V1.84h-2.54l-0.1-0.2h2.63v-1.5c0.55,0.04,0.83,0.11,0.83,0.21c0,0.07-0.12,0.15-0.36,0.24
				v1.05h1.69l0.39-0.54c0.15,0.13,0.31,0.31,0.47,0.5l0.07,0.08l-0.09,0.16h-2.53v1.47h2.21l0.45-0.56
				c0.22,0.18,0.41,0.39,0.57,0.61l-0.1,0.16h-3.05c0.84,1.07,1.93,1.9,3.26,2.5c-0.18,0.13-0.31,0.29-0.41,0.47
				c-1.24-0.68-2.22-1.59-2.93-2.71v3.35h-0.47V4.04c-0.76,1.12-1.81,2.01-3.12,2.69l-0.13-0.18c1.28-0.78,2.29-1.8,3.02-3.05h-2.82
				l-0.1-0.2H45.71z"/>
			<path fill="#221714" d="M53.77,3.76V1.54h-2.75l-0.09-0.19h2.83V0.03c0.54,0.02,0.82,0.09,0.82,0.21c0,0.06-0.11,0.14-0.34,0.22
				v0.89h2.07l0.4-0.52c0.2,0.16,0.38,0.35,0.54,0.55l-0.1,0.16h-2.91v2.22h2.48l0.4-0.53c0.15,0.12,0.34,0.31,0.57,0.57l-0.1,0.16
				h-3.28l0.05,0.05c0.92,0.92,2.03,1.57,3.3,2c-0.18,0.15-0.32,0.32-0.39,0.5c-1.2-0.55-2.22-1.33-3.03-2.32v2.92h-0.47V4.43
				c-0.83,0.97-1.89,1.69-3.2,2.19l-0.11-0.18c1.28-0.61,2.3-1.44,3.07-2.49h-2.98l-0.09-0.2H53.77z M51.76,1.85
				c0.72,0.4,1.08,0.84,1.08,1.28c0,0.22-0.09,0.32-0.29,0.32c-0.12,0-0.2-0.1-0.26-0.31c-0.11-0.41-0.32-0.81-0.64-1.18L51.76,1.85
				z M54.92,3.45c0.29-0.53,0.53-1.11,0.7-1.74c0.48,0.18,0.72,0.32,0.72,0.43c0,0.07-0.11,0.11-0.34,0.12
				c-0.23,0.42-0.53,0.85-0.9,1.28L54.92,3.45z"/>
			<path fill="#221714" d="M64.61,3.1c-0.13,0.18-0.39,0.35-0.65,0.49C63.7,3.72,63.27,3.86,62.94,4c-0.09,0.04-0.18,0.08-0.28,0.12
				c0.01,0.1,0.03,0.2,0.04,0.31c0.04,0.34-0.02,0.6-0.11,0.76c-0.08,0.17-0.2,0.26-0.36,0.29c-0.18,0.02-0.25-0.12-0.2-0.3
				c0.06-0.18,0.11-0.5,0.13-0.81c0-0.02,0-0.04,0-0.05c-0.15,0.06-0.29,0.12-0.41,0.19c-0.27,0.15-0.51,0.3-0.7,0.57
				c-0.15,0.21-0.26,0.54-0.1,0.78c0.17,0.22,0.52,0.39,0.86,0.39c0.36-0.02,0.58-0.04,0.83-0.09c0.24-0.05,0.46-0.11,0.59-0.11
				c0.26-0.02,0.38,0.03,0.54,0.14c0.14,0.11,0.14,0.25,0.01,0.32c-0.06,0.04-0.17,0.06-0.47,0.1c-0.3,0.04-0.87,0.1-1.26,0.08
				c-0.4-0.02-0.84-0.12-1.18-0.32c-0.29-0.18-0.39-0.46-0.38-0.79c0.01-0.32,0.16-0.54,0.38-0.76c0.21-0.21,0.51-0.41,0.83-0.59
				c0.15-0.08,0.32-0.17,0.48-0.25c-0.01-0.14-0.04-0.25-0.11-0.35c-0.14-0.2-0.38-0.29-0.56-0.32c-0.18-0.03-0.38,0-0.56,0.09
				c-0.06,0.03-0.11,0.05-0.16,0.09c-0.11,0.15-0.23,0.28-0.33,0.43c-0.21,0.3-0.45,0.46-0.64,0.46c-0.19-0.01-0.21-0.12-0.21-0.28
				c0-0.15,0.07-0.31,0.18-0.39c0.13-0.07,0.28-0.14,0.45-0.25c0.34-0.24,0.65-0.68,0.91-1.12c0.13-0.23,0.21-0.39,0.27-0.56
				c-0.07,0.01-0.14,0.02-0.21,0.03c-0.27,0.03-0.54,0-0.73-0.11c-0.18-0.12-0.24-0.39-0.17-0.5c0.11-0.14,0.25-0.04,0.45,0.03
				c0.18,0.06,0.42,0.08,0.69,0.02c0.04-0.01,0.09-0.02,0.13-0.03c0.04-0.25-0.03-0.32-0.11-0.42c-0.11-0.11-0.11-0.25-0.05-0.32
				c0.06-0.05,0.19-0.07,0.33,0.01c0.05,0.03,0.09,0.06,0.12,0.11c0.12,0.02,0.27,0.05,0.32,0.06c0.08,0.01,0.25,0.05,0.32,0.11
				c0.08,0.06,0.03,0.14-0.04,0.28C62.4,1.16,62.2,1.41,62,1.54c-0.05,0.04-0.11,0.06-0.16,0.08c-0.05,0.18-0.13,0.36-0.21,0.5
				c-0.19,0.38-0.32,0.58-0.54,0.92c-0.03,0.04-0.05,0.09-0.09,0.13c0.07-0.03,0.15-0.06,0.2-0.08c0.19-0.08,0.39-0.1,0.6-0.05
				C62,3.06,62.14,3.14,62.27,3.3c0.04-0.04,0.07-0.11,0.11-0.14c0.29-0.38,0.54-0.61,0.94-0.79c0.39-0.18,0.9-0.24,1.2-0.02
				C64.84,2.58,64.73,2.92,64.61,3.1z M61.96,1.04c0.04-0.03,0.08-0.04,0.11-0.06c0.13-0.07,0.18-0.16,0.15-0.18
				c-0.03-0.04-0.09-0.06-0.21-0.08c-0.03-0.01-0.07-0.01-0.1-0.02c0.03,0.07,0.04,0.14,0.04,0.22C61.97,0.96,61.97,0.99,61.96,1.04
				z M64.24,2.57C64.18,2.48,64,2.4,63.69,2.47c-0.3,0.06-0.54,0.24-0.74,0.42c-0.18,0.18-0.39,0.47-0.47,0.73
				c0.03,0.05,0.05,0.11,0.07,0.16c0.08-0.03,0.15-0.07,0.23-0.11c0.37-0.16,0.79-0.35,1.15-0.55C64.3,2.92,64.3,2.68,64.24,2.57z"
				/>
			<path fill="#221714" d="M72.57,3.28c0.01-0.23-0.02-0.56-0.25-0.8c-0.25-0.25-0.48-0.35-0.8-0.39c-0.27-0.03-0.59,0.04-0.79,0.14
				c-0.22,0.1-0.57,0.32-0.78,0.48c-0.23,0.16-0.55,0.44-0.8,0.64c-0.26,0.22-0.59,0.34-0.86,0.33c-0.27,0-0.56-0.15-0.71-0.27
				c-0.15-0.12-0.23-0.28-0.18-0.34c0.07-0.09,0.18-0.05,0.25-0.04c0.13,0.04,0.29,0.06,0.47,0.06c0.18-0.01,0.35-0.13,0.5-0.2
				c0.15-0.07,0.66-0.36,0.88-0.49c0.22-0.12,0.53-0.28,0.84-0.41c0.32-0.14,0.69-0.27,1.11-0.28c0.43,0,0.86,0.19,1.15,0.47
				c0.26,0.25,0.42,0.54,0.47,0.98c0.04,0.42-0.06,0.81-0.32,1.18C72.48,4.72,72.03,5,71.68,5.17c-0.34,0.16-0.74,0.33-1.13,0.43
				c-0.31,0.07-0.57,0.1-0.67,0.1c-0.1-0.01-0.16-0.04-0.16-0.08c0-0.04,0.04-0.1,0.14-0.11c0.09-0.01,0.18,0.01,0.55-0.1
				c0.38-0.1,0.8-0.3,1.11-0.47c0.29-0.16,0.62-0.5,0.79-0.75C72.48,3.97,72.56,3.55,72.57,3.28z"/>
			<path fill="#221714" d="M76.7,2.79c-0.15,0.25-0.23,0.55-0.23,0.66s0.16,0.25,0.26,0.39c0.1,0.14,0.34,0.43,0.58,0.71
				c0.23,0.28,0.44,0.58,0.61,0.9c0.18,0.35,0.28,0.68,0.28,0.96c0,0.26-0.07,0.41-0.21,0.43c-0.15,0.03-0.27-0.07-0.31-0.24
				c-0.04-0.17-0.1-0.35-0.18-0.64s-0.25-0.61-0.43-0.95c-0.17-0.34-0.44-0.72-0.56-0.9c-0.12-0.18-0.34-0.41-0.36-0.62
				c-0.02-0.21,0.13-0.57,0.29-0.87c0.16-0.3,0.5-0.79,0.7-1.04c0.21-0.25,0.53-0.6,0.61-0.71c0.08-0.12,0.04-0.28,0.02-0.37
				c-0.02-0.1-0.03-0.18,0.04-0.23c0.11-0.05,0.23,0.03,0.35,0.16c0.13,0.11,0.2,0.28,0.19,0.45c-0.01,0.17-0.11,0.32-0.28,0.47
				c-0.18,0.16-0.51,0.39-0.74,0.61C77.11,2.17,76.84,2.53,76.7,2.79z"/>
			<path fill="#221714" d="M86.62,5.7c-0.32,0.37-0.72,0.58-1.17,0.69c-0.45,0.12-0.88,0.11-1.4,0.01c-0.54-0.11-0.75-0.3-0.75-0.56
				c-0.01-0.26,0.33-0.47,0.62-0.53c0.3-0.06,0.65-0.04,0.91,0.17c0.23,0.18,0.22,0.39,0.11,0.61c0.42-0.05,0.82-0.18,1.1-0.4
				C86.4,5.4,86.55,5,86.55,4.6c0.01-0.4-0.29-0.9-0.78-1.11c-0.49-0.21-1.02-0.23-1.56-0.05c-0.55,0.18-0.9,0.45-1.17,0.8
				c-0.26,0.34-0.46,0.76-0.53,0.98c-0.07,0.23-0.15,0.35-0.26,0.41C82.2,5.65,82.1,5.7,81.96,5.58c-0.1-0.08-0.11-0.26-0.1-0.39
				c0.01-0.11,0.23-0.39,0.39-0.6c0.17-0.21,0.39-0.54,0.69-0.86c0.3-0.32,0.77-0.9,0.97-1.12c0.18-0.23,0.79-0.96,0.89-1.09
				c0.1-0.12,0.14-0.22,0.1-0.25c-0.04-0.04-0.19,0.02-0.28,0.07c-0.1,0.06-0.53,0.32-0.77,0.46c-0.25,0.13-0.44,0.19-0.66,0.19
				s-0.37-0.11-0.46-0.19c-0.09-0.09-0.12-0.22-0.1-0.28c0.04-0.09,0.12-0.1,0.19-0.07c0.08,0.02,0.18,0.05,0.3,0.05
				c0.11,0.01,0.22-0.01,0.49-0.12c0.26-0.11,0.61-0.27,0.91-0.43c0.3-0.16,0.48-0.27,0.65-0.28c0.18-0.01,0.35,0.1,0.47,0.23
				c0.11,0.12,0.12,0.2,0.11,0.28c-0.02,0.08-0.06,0.12-0.18,0.2c-0.12,0.07-0.39,0.3-0.62,0.54c-0.24,0.25-0.53,0.61-0.74,0.83
				c0,0-0.21,0.23-0.62,0.66c0.12-0.09,0.25-0.16,0.48-0.25c0.34-0.12,0.7-0.19,1.15-0.15c0.46,0.04,0.83,0.18,1.16,0.42
				c0.33,0.24,0.6,0.59,0.64,1.1C87.05,5.01,86.92,5.36,86.62,5.7z M84.1,5.56c-0.28,0.01-0.46,0.18-0.33,0.35
				c0.07,0.1,0.29,0.18,0.66,0.19C84.76,5.79,84.46,5.56,84.1,5.56z"/>
		</g>
	</g>
	<g>
		<g>
			<g>
				<g>
					<path fill="#221714" d="M89.42,13.64v9.28c0,2.19-1.53,3.87-2.81,4.89l1.94,2.42c2.6-2.08,3.97-4.6,3.97-7.31v-9.28H89.42z"/>
				</g>
				<path fill="#221714" d="M101.69,22.18c0,1.84-0.44,3.21-1.32,4.07c-0.59,0.58-1.34,0.91-2.1,1.1V12.81h-3.1v17.87l0.27,0
					c1.43,0.02,4.77,0.07,7.1-2.23c1.49-1.47,2.24-3.58,2.24-6.28H101.69z"/>
			</g>
			<g>
				<polygon fill="#221714" points="107.47,19.51 106.7,22.5 120.45,22.5 121.22,19.51 				"/>
			</g>
			<g>
				<path fill="#221714" d="M133.23,13.65c0-0.01,0-0.01,0-0.02h-10.59l-0.77,3.1h11.95c-0.79,6.65-4.39,10.18-10.97,10.72
					l-0.79,3.15c8.81-0.36,13.91-5.09,14.86-13.73c-0.13,0.02-0.27,0.03-0.4,0.03C134.69,16.91,133.23,15.46,133.23,13.65z"/>
				<path fill="#221714" d="M136.52,15.99c-1.32,0-2.37-1.05-2.37-2.35c0-1.32,1.05-2.37,2.37-2.37c1.3,0,2.35,1.05,2.35,2.37
					C138.87,14.95,137.82,15.99,136.52,15.99z M136.52,12.74c-0.51,0-0.91,0.39-0.91,0.91c0,0.49,0.4,0.89,0.91,0.89
					c0.49,0,0.89-0.39,0.89-0.89C137.4,13.13,137.01,12.74,136.52,12.74z"/>
			</g>
			<g>
				<path fill="#221714" d="M85.98,14.88h-5.01l0.35-1.24h-6.35c-0.45,2.02-1.71,4.62-3.26,5.34l-0.83,3.29
					c3.03,0,5.19-2.7,6.36-5.54h5.53c-0.37,10.14-4.97,10.56-9.54,10.73l-0.81,3.13l0.57-0.02c4.65-0.17,12.43-0.45,12.88-13.84
					h0.01L85.98,14.88z"/>
				<path fill="#221714" d="M87.22,11.37l-0.81,2.87h-1.79l0.81-2.87H87.22z"/>
				<path fill="#221714" d="M84.57,11.37l-0.81,2.87h-1.79l0.81-2.87H84.57z"/>
			</g>
		</g>
	</g>
	<g>
		<polygon fill="#B41D23" points="6.19,13.29 6.19,20.52 12.39,20.52 12.39,27.76 16.52,23.62 16.52,13.29 		"/>
		<polygon fill="#06477B" points="10.33,29.83 10.33,22.6 4.13,22.6 4.13,15.36 0,19.5 0,29.83 		"/>
	</g>
	<g>
		<g>
			<polygon fill="#221714" points="29.14,12.27 25.77,12.27 21.34,18.69 21.34,23.6 22.95,21.26 22.95,30.7 25.83,30.7 25.83,17.09 
							"/>
			<polygon fill="#221714" points="36.53,23.86 43.35,23.86 44.11,21.11 36.53,21.11 36.53,17.92 43.35,17.92 44.09,15.22 
				36.53,15.22 36.53,12.27 33.61,12.27 33.61,15.22 28.12,15.22 27.37,17.92 33.59,17.92 33.59,21.11 27.41,21.11 26.65,23.86 
				33.61,23.86 33.61,27.73 27.34,27.73 26.53,30.7 43.36,30.7 44.16,27.73 36.53,27.73 			"/>
		</g>
		<polygon fill="#221714" points="53.79,17.42 51.52,17.42 51.52,12.29 48.59,12.29 48.59,17.42 47.13,17.42 46.35,20.37 
			48.59,20.37 48.59,30.69 51.52,30.69 51.52,20.37 53.01,20.37 		"/>
		<path fill="#221714" d="M62.37,20.69l0,1.06h-0.67l-0.54,2.25h1.2v3.75H61.5l-0.79,2.95h1.27c1.81-0.09,2.71-1.03,2.81-2.29v-4.4
			h1.7l0,3.75l-0.93,0l-0.8,2.95h1.44c1.8-0.09,2.5-1.01,2.6-2.28v-6.67l-3.96,0v-1.06L62.37,20.69z"/>
		<path fill="#221714" d="M54.49,20.69l0,1.06h-0.78l-0.54,2.25h1.31v3.75h-1.04l-0.79,2.95h1.44c1.81-0.09,2.71-1.03,2.81-2.29
			v-4.4h1.7l0,3.75l-0.93,0l-0.8,2.95h1.44c1.8-0.09,2.5-1.01,2.6-2.28v-6.67l-3.96,0v-1.06L54.49,20.69z"/>
		<path fill="#221714" d="M62.38,17.41h3.13v-1.09h-3.74v0.77c0,2.13-1.96,3.1-3.52,3.1h-3.8l0-2.79h4.43v-1.08h-5.1l0.67-2.59h4.44
			v-1.46h2.89v1.46l6.21,0.01v4.3c-0.09,1.36-0.73,2.14-2.47,2.15h-3.14L62.38,17.41z"/>
	</g>
</g>
</svg>
